<?xml version="1.0" encoding="utf-8" standalone="no"?>
<!DOCTYPE svg PUBLIC "-//W3C//DTD SVG 1.1//EN"
  "http://www.w3.org/Graphics/SVG/1.1/DTD/svg11.dtd">
<svg xmlns:xlink="http://www.w3.org/1999/xlink" width="810.275389pt" height="693.318906pt" viewBox="0 0 810.275389 693.318906" xmlns="http://www.w3.org/2000/svg" version="1.1">
 <metadata>
  <rdf:RDF xmlns:dc="http://purl.org/dc/elements/1.1/" xmlns:cc="http://creativecommons.org/ns#" xmlns:rdf="http://www.w3.org/1999/02/22-rdf-syntax-ns#">
   <cc:Work>
    <dc:type rdf:resource="http://purl.org/dc/dcmitype/StillImage"/>
    <dc:format>image/svg+xml</dc:format>
    <dc:creator>
     <cc:Agent>
      <dc:title>Matplotlib v3.10.0, https://matplotlib.org/</dc:title>
     </cc:Agent>
    </dc:creator>
   </cc:Work>
  </rdf:RDF>
 </metadata>
 <defs>
  <style type="text/css">*{stroke-linejoin: round; stroke-linecap: butt}</style>
 </defs>
 <g id="figure_1">
  <g id="patch_1">
   <path d="M 0 693.318906 
L 810.275389 693.318906 
L 810.275389 0 
L 0 0 
z
" style="fill: #ffffff"/>
  </g>
  <g id="axes_1">
   <g id="patch_2">
    <path d="M 62.86875 332.68 
L 380.74501 332.68 
L 380.74501 26.92 
L 62.86875 26.92 
z
" style="fill: #ffffff"/>
   </g>
   <g id="FillBetweenPolyCollection_1"/>
   <g id="FillBetweenPolyCollection_2"/>
   <g id="matplotlib.axis_1">
    <g id="xtick_1">
     <g id="line2d_1">
      <defs>
       <path id="mbcb02aef95" d="M 0 0 
L 0 3.5 
" style="stroke: #000000; stroke-width: 0.8"/>
      </defs>
      <g>
       <use xlink:href="#mbcb02aef95" x="77.317671" y="332.68" style="stroke: #000000; stroke-width: 0.8"/>
      </g>
     </g>
    </g>
    <g id="xtick_2">
     <g id="line2d_2">
      <g>
       <use xlink:href="#mbcb02aef95" x="114.366186" y="332.68" style="stroke: #000000; stroke-width: 0.8"/>
      </g>
     </g>
    </g>
    <g id="xtick_3">
     <g id="line2d_3">
      <g>
       <use xlink:href="#mbcb02aef95" x="151.414701" y="332.68" style="stroke: #000000; stroke-width: 0.8"/>
      </g>
     </g>
    </g>
    <g id="xtick_4">
     <g id="line2d_4">
      <g>
       <use xlink:href="#mbcb02aef95" x="188.463216" y="332.68" style="stroke: #000000; stroke-width: 0.8"/>
      </g>
     </g>
    </g>
    <g id="xtick_5">
     <g id="line2d_5">
      <g>
       <use xlink:href="#mbcb02aef95" x="225.511731" y="332.68" style="stroke: #000000; stroke-width: 0.8"/>
      </g>
     </g>
    </g>
    <g id="xtick_6">
     <g id="line2d_6">
      <g>
       <use xlink:href="#mbcb02aef95" x="262.560247" y="332.68" style="stroke: #000000; stroke-width: 0.8"/>
      </g>
     </g>
    </g>
    <g id="xtick_7">
     <g id="line2d_7">
      <g>
       <use xlink:href="#mbcb02aef95" x="299.608762" y="332.68" style="stroke: #000000; stroke-width: 0.8"/>
      </g>
     </g>
    </g>
    <g id="xtick_8">
     <g id="line2d_8">
      <g>
       <use xlink:href="#mbcb02aef95" x="336.657277" y="332.68" style="stroke: #000000; stroke-width: 0.8"/>
      </g>
     </g>
    </g>
    <g id="xtick_9">
     <g id="line2d_9">
      <g>
       <use xlink:href="#mbcb02aef95" x="373.705792" y="332.68" style="stroke: #000000; stroke-width: 0.8"/>
      </g>
     </g>
    </g>
   </g>
   <g id="matplotlib.axis_2">
    <g id="ytick_1">
     <g id="line2d_10">
      <defs>
       <path id="me5179b328b" d="M 0 0 
L -3.5 0 
" style="stroke: #000000; stroke-width: 0.8"/>
      </defs>
      <g>
       <use xlink:href="#me5179b328b" x="62.86875" y="332.68" style="stroke: #000000; stroke-width: 0.8"/>
      </g>
     </g>
     <g id="text_1">
      <!-- 1200.0 -->
      <g transform="translate(20.878125 336.479219) scale(0.1 -0.1)">
       <defs>
        <path id="DejaVuSans-31" d="M 794 531 
L 1825 531 
L 1825 4091 
L 703 3866 
L 703 4441 
L 1819 4666 
L 2450 4666 
L 2450 531 
L 3481 531 
L 3481 0 
L 794 0 
L 794 531 
z
" transform="scale(0.015625)"/>
        <path id="DejaVuSans-32" d="M 1228 531 
L 3431 531 
L 3431 0 
L 469 0 
L 469 531 
Q 828 903 1448 1529 
Q 2069 2156 2228 2338 
Q 2531 2678 2651 2914 
Q 2772 3150 2772 3378 
Q 2772 3750 2511 3984 
Q 2250 4219 1831 4219 
Q 1534 4219 1204 4116 
Q 875 4013 500 3803 
L 500 4441 
Q 881 4594 1212 4672 
Q 1544 4750 1819 4750 
Q 2544 4750 2975 4387 
Q 3406 4025 3406 3419 
Q 3406 3131 3298 2873 
Q 3191 2616 2906 2266 
Q 2828 2175 2409 1742 
Q 1991 1309 1228 531 
z
" transform="scale(0.015625)"/>
        <path id="DejaVuSans-30" d="M 2034 4250 
Q 1547 4250 1301 3770 
Q 1056 3291 1056 2328 
Q 1056 1369 1301 889 
Q 1547 409 2034 409 
Q 2525 409 2770 889 
Q 3016 1369 3016 2328 
Q 3016 3291 2770 3770 
Q 2525 4250 2034 4250 
z
M 2034 4750 
Q 2819 4750 3233 4129 
Q 3647 3509 3647 2328 
Q 3647 1150 3233 529 
Q 2819 -91 2034 -91 
Q 1250 -91 836 529 
Q 422 1150 422 2328 
Q 422 3509 836 4129 
Q 1250 4750 2034 4750 
z
" transform="scale(0.015625)"/>
        <path id="DejaVuSans-2e" d="M 684 794 
L 1344 794 
L 1344 0 
L 684 0 
L 684 794 
z
" transform="scale(0.015625)"/>
       </defs>
       <use xlink:href="#DejaVuSans-31"/>
       <use xlink:href="#DejaVuSans-32" transform="translate(63.623047 0)"/>
       <use xlink:href="#DejaVuSans-30" transform="translate(127.246094 0)"/>
       <use xlink:href="#DejaVuSans-30" transform="translate(190.869141 0)"/>
       <use xlink:href="#DejaVuSans-2e" transform="translate(254.492188 0)"/>
       <use xlink:href="#DejaVuSans-30" transform="translate(286.279297 0)"/>
      </g>
     </g>
    </g>
    <g id="ytick_2">
     <g id="line2d_11">
      <g>
       <use xlink:href="#me5179b328b" x="62.86875" y="281.72" style="stroke: #000000; stroke-width: 0.8"/>
      </g>
     </g>
     <g id="text_2">
      <!-- 1300.0 -->
      <g transform="translate(20.878125 285.519219) scale(0.1 -0.1)">
       <defs>
        <path id="DejaVuSans-33" d="M 2597 2516 
Q 3050 2419 3304 2112 
Q 3559 1806 3559 1356 
Q 3559 666 3084 287 
Q 2609 -91 1734 -91 
Q 1441 -91 1130 -33 
Q 819 25 488 141 
L 488 750 
Q 750 597 1062 519 
Q 1375 441 1716 441 
Q 2309 441 2620 675 
Q 2931 909 2931 1356 
Q 2931 1769 2642 2001 
Q 2353 2234 1838 2234 
L 1294 2234 
L 1294 2753 
L 1863 2753 
Q 2328 2753 2575 2939 
Q 2822 3125 2822 3475 
Q 2822 3834 2567 4026 
Q 2313 4219 1838 4219 
Q 1578 4219 1281 4162 
Q 984 4106 628 3988 
L 628 4550 
Q 988 4650 1302 4700 
Q 1616 4750 1894 4750 
Q 2613 4750 3031 4423 
Q 3450 4097 3450 3541 
Q 3450 3153 3228 2886 
Q 3006 2619 2597 2516 
z
" transform="scale(0.015625)"/>
       </defs>
       <use xlink:href="#DejaVuSans-31"/>
       <use xlink:href="#DejaVuSans-33" transform="translate(63.623047 0)"/>
       <use xlink:href="#DejaVuSans-30" transform="translate(127.246094 0)"/>
       <use xlink:href="#DejaVuSans-30" transform="translate(190.869141 0)"/>
       <use xlink:href="#DejaVuSans-2e" transform="translate(254.492188 0)"/>
       <use xlink:href="#DejaVuSans-30" transform="translate(286.279297 0)"/>
      </g>
     </g>
    </g>
    <g id="ytick_3">
     <g id="line2d_12">
      <g>
       <use xlink:href="#me5179b328b" x="62.86875" y="230.76" style="stroke: #000000; stroke-width: 0.8"/>
      </g>
     </g>
     <g id="text_3">
      <!-- 1400.0 -->
      <g transform="translate(20.878125 234.559219) scale(0.1 -0.1)">
       <defs>
        <path id="DejaVuSans-34" d="M 2419 4116 
L 825 1625 
L 2419 1625 
L 2419 4116 
z
M 2253 4666 
L 3047 4666 
L 3047 1625 
L 3713 1625 
L 3713 1100 
L 3047 1100 
L 3047 0 
L 2419 0 
L 2419 1100 
L 313 1100 
L 313 1709 
L 2253 4666 
z
" transform="scale(0.015625)"/>
       </defs>
       <use xlink:href="#DejaVuSans-31"/>
       <use xlink:href="#DejaVuSans-34" transform="translate(63.623047 0)"/>
       <use xlink:href="#DejaVuSans-30" transform="translate(127.246094 0)"/>
       <use xlink:href="#DejaVuSans-30" transform="translate(190.869141 0)"/>
       <use xlink:href="#DejaVuSans-2e" transform="translate(254.492188 0)"/>
       <use xlink:href="#DejaVuSans-30" transform="translate(286.279297 0)"/>
      </g>
     </g>
    </g>
    <g id="ytick_4">
     <g id="line2d_13">
      <g>
       <use xlink:href="#me5179b328b" x="62.86875" y="179.8" style="stroke: #000000; stroke-width: 0.8"/>
      </g>
     </g>
     <g id="text_4">
      <!-- 1500.0 -->
      <g transform="translate(20.878125 183.599219) scale(0.1 -0.1)">
       <defs>
        <path id="DejaVuSans-35" d="M 691 4666 
L 3169 4666 
L 3169 4134 
L 1269 4134 
L 1269 2991 
Q 1406 3038 1543 3061 
Q 1681 3084 1819 3084 
Q 2600 3084 3056 2656 
Q 3513 2228 3513 1497 
Q 3513 744 3044 326 
Q 2575 -91 1722 -91 
Q 1428 -91 1123 -41 
Q 819 9 494 109 
L 494 744 
Q 775 591 1075 516 
Q 1375 441 1709 441 
Q 2250 441 2565 725 
Q 2881 1009 2881 1497 
Q 2881 1984 2565 2268 
Q 2250 2553 1709 2553 
Q 1456 2553 1204 2497 
Q 953 2441 691 2322 
L 691 4666 
z
" transform="scale(0.015625)"/>
       </defs>
       <use xlink:href="#DejaVuSans-31"/>
       <use xlink:href="#DejaVuSans-35" transform="translate(63.623047 0)"/>
       <use xlink:href="#DejaVuSans-30" transform="translate(127.246094 0)"/>
       <use xlink:href="#DejaVuSans-30" transform="translate(190.869141 0)"/>
       <use xlink:href="#DejaVuSans-2e" transform="translate(254.492188 0)"/>
       <use xlink:href="#DejaVuSans-30" transform="translate(286.279297 0)"/>
      </g>
     </g>
    </g>
    <g id="ytick_5">
     <g id="line2d_14">
      <g>
       <use xlink:href="#me5179b328b" x="62.86875" y="128.84" style="stroke: #000000; stroke-width: 0.8"/>
      </g>
     </g>
     <g id="text_5">
      <!-- 1600.0 -->
      <g transform="translate(20.878125 132.639219) scale(0.1 -0.1)">
       <defs>
        <path id="DejaVuSans-36" d="M 2113 2584 
Q 1688 2584 1439 2293 
Q 1191 2003 1191 1497 
Q 1191 994 1439 701 
Q 1688 409 2113 409 
Q 2538 409 2786 701 
Q 3034 994 3034 1497 
Q 3034 2003 2786 2293 
Q 2538 2584 2113 2584 
z
M 3366 4563 
L 3366 3988 
Q 3128 4100 2886 4159 
Q 2644 4219 2406 4219 
Q 1781 4219 1451 3797 
Q 1122 3375 1075 2522 
Q 1259 2794 1537 2939 
Q 1816 3084 2150 3084 
Q 2853 3084 3261 2657 
Q 3669 2231 3669 1497 
Q 3669 778 3244 343 
Q 2819 -91 2113 -91 
Q 1303 -91 875 529 
Q 447 1150 447 2328 
Q 447 3434 972 4092 
Q 1497 4750 2381 4750 
Q 2619 4750 2861 4703 
Q 3103 4656 3366 4563 
z
" transform="scale(0.015625)"/>
       </defs>
       <use xlink:href="#DejaVuSans-31"/>
       <use xlink:href="#DejaVuSans-36" transform="translate(63.623047 0)"/>
       <use xlink:href="#DejaVuSans-30" transform="translate(127.246094 0)"/>
       <use xlink:href="#DejaVuSans-30" transform="translate(190.869141 0)"/>
       <use xlink:href="#DejaVuSans-2e" transform="translate(254.492188 0)"/>
       <use xlink:href="#DejaVuSans-30" transform="translate(286.279297 0)"/>
      </g>
     </g>
    </g>
    <g id="ytick_6">
     <g id="line2d_15">
      <g>
       <use xlink:href="#me5179b328b" x="62.86875" y="77.88" style="stroke: #000000; stroke-width: 0.8"/>
      </g>
     </g>
     <g id="text_6">
      <!-- 1700.0 -->
      <g transform="translate(20.878125 81.679219) scale(0.1 -0.1)">
       <defs>
        <path id="DejaVuSans-37" d="M 525 4666 
L 3525 4666 
L 3525 4397 
L 1831 0 
L 1172 0 
L 2766 4134 
L 525 4134 
L 525 4666 
z
" transform="scale(0.015625)"/>
       </defs>
       <use xlink:href="#DejaVuSans-31"/>
       <use xlink:href="#DejaVuSans-37" transform="translate(63.623047 0)"/>
       <use xlink:href="#DejaVuSans-30" transform="translate(127.246094 0)"/>
       <use xlink:href="#DejaVuSans-30" transform="translate(190.869141 0)"/>
       <use xlink:href="#DejaVuSans-2e" transform="translate(254.492188 0)"/>
       <use xlink:href="#DejaVuSans-30" transform="translate(286.279297 0)"/>
      </g>
     </g>
    </g>
    <g id="ytick_7">
     <g id="line2d_16">
      <g>
       <use xlink:href="#me5179b328b" x="62.86875" y="26.92" style="stroke: #000000; stroke-width: 0.8"/>
      </g>
     </g>
     <g id="text_7">
      <!-- 1800.0 -->
      <g transform="translate(20.878125 30.719219) scale(0.1 -0.1)">
       <defs>
        <path id="DejaVuSans-38" d="M 2034 2216 
Q 1584 2216 1326 1975 
Q 1069 1734 1069 1313 
Q 1069 891 1326 650 
Q 1584 409 2034 409 
Q 2484 409 2743 651 
Q 3003 894 3003 1313 
Q 3003 1734 2745 1975 
Q 2488 2216 2034 2216 
z
M 1403 2484 
Q 997 2584 770 2862 
Q 544 3141 544 3541 
Q 544 4100 942 4425 
Q 1341 4750 2034 4750 
Q 2731 4750 3128 4425 
Q 3525 4100 3525 3541 
Q 3525 3141 3298 2862 
Q 3072 2584 2669 2484 
Q 3125 2378 3379 2068 
Q 3634 1759 3634 1313 
Q 3634 634 3220 271 
Q 2806 -91 2034 -91 
Q 1263 -91 848 271 
Q 434 634 434 1313 
Q 434 1759 690 2068 
Q 947 2378 1403 2484 
z
M 1172 3481 
Q 1172 3119 1398 2916 
Q 1625 2713 2034 2713 
Q 2441 2713 2670 2916 
Q 2900 3119 2900 3481 
Q 2900 3844 2670 4047 
Q 2441 4250 2034 4250 
Q 1625 4250 1398 4047 
Q 1172 3844 1172 3481 
z
" transform="scale(0.015625)"/>
       </defs>
       <use xlink:href="#DejaVuSans-31"/>
       <use xlink:href="#DejaVuSans-38" transform="translate(63.623047 0)"/>
       <use xlink:href="#DejaVuSans-30" transform="translate(127.246094 0)"/>
       <use xlink:href="#DejaVuSans-30" transform="translate(190.869141 0)"/>
       <use xlink:href="#DejaVuSans-2e" transform="translate(254.492188 0)"/>
       <use xlink:href="#DejaVuSans-30" transform="translate(286.279297 0)"/>
      </g>
     </g>
    </g>
    <g id="text_8">
     <!-- Memory Usage [MB] -->
     <g transform="translate(14.798438 230.538281) rotate(-90) scale(0.1 -0.1)">
      <defs>
       <path id="DejaVuSans-4d" d="M 628 4666 
L 1569 4666 
L 2759 1491 
L 3956 4666 
L 4897 4666 
L 4897 0 
L 4281 0 
L 4281 4097 
L 3078 897 
L 2444 897 
L 1241 4097 
L 1241 0 
L 628 0 
L 628 4666 
z
" transform="scale(0.015625)"/>
       <path id="DejaVuSans-65" d="M 3597 1894 
L 3597 1613 
L 953 1613 
Q 991 1019 1311 708 
Q 1631 397 2203 397 
Q 2534 397 2845 478 
Q 3156 559 3463 722 
L 3463 178 
Q 3153 47 2828 -22 
Q 2503 -91 2169 -91 
Q 1331 -91 842 396 
Q 353 884 353 1716 
Q 353 2575 817 3079 
Q 1281 3584 2069 3584 
Q 2775 3584 3186 3129 
Q 3597 2675 3597 1894 
z
M 3022 2063 
Q 3016 2534 2758 2815 
Q 2500 3097 2075 3097 
Q 1594 3097 1305 2825 
Q 1016 2553 972 2059 
L 3022 2063 
z
" transform="scale(0.015625)"/>
       <path id="DejaVuSans-6d" d="M 3328 2828 
Q 3544 3216 3844 3400 
Q 4144 3584 4550 3584 
Q 5097 3584 5394 3201 
Q 5691 2819 5691 2113 
L 5691 0 
L 5113 0 
L 5113 2094 
Q 5113 2597 4934 2840 
Q 4756 3084 4391 3084 
Q 3944 3084 3684 2787 
Q 3425 2491 3425 1978 
L 3425 0 
L 2847 0 
L 2847 2094 
Q 2847 2600 2669 2842 
Q 2491 3084 2119 3084 
Q 1678 3084 1418 2786 
Q 1159 2488 1159 1978 
L 1159 0 
L 581 0 
L 581 3500 
L 1159 3500 
L 1159 2956 
Q 1356 3278 1631 3431 
Q 1906 3584 2284 3584 
Q 2666 3584 2933 3390 
Q 3200 3197 3328 2828 
z
" transform="scale(0.015625)"/>
       <path id="DejaVuSans-6f" d="M 1959 3097 
Q 1497 3097 1228 2736 
Q 959 2375 959 1747 
Q 959 1119 1226 758 
Q 1494 397 1959 397 
Q 2419 397 2687 759 
Q 2956 1122 2956 1747 
Q 2956 2369 2687 2733 
Q 2419 3097 1959 3097 
z
M 1959 3584 
Q 2709 3584 3137 3096 
Q 3566 2609 3566 1747 
Q 3566 888 3137 398 
Q 2709 -91 1959 -91 
Q 1206 -91 779 398 
Q 353 888 353 1747 
Q 353 2609 779 3096 
Q 1206 3584 1959 3584 
z
" transform="scale(0.015625)"/>
       <path id="DejaVuSans-72" d="M 2631 2963 
Q 2534 3019 2420 3045 
Q 2306 3072 2169 3072 
Q 1681 3072 1420 2755 
Q 1159 2438 1159 1844 
L 1159 0 
L 581 0 
L 581 3500 
L 1159 3500 
L 1159 2956 
Q 1341 3275 1631 3429 
Q 1922 3584 2338 3584 
Q 2397 3584 2469 3576 
Q 2541 3569 2628 3553 
L 2631 2963 
z
" transform="scale(0.015625)"/>
       <path id="DejaVuSans-79" d="M 2059 -325 
Q 1816 -950 1584 -1140 
Q 1353 -1331 966 -1331 
L 506 -1331 
L 506 -850 
L 844 -850 
Q 1081 -850 1212 -737 
Q 1344 -625 1503 -206 
L 1606 56 
L 191 3500 
L 800 3500 
L 1894 763 
L 2988 3500 
L 3597 3500 
L 2059 -325 
z
" transform="scale(0.015625)"/>
       <path id="DejaVuSans-20" transform="scale(0.015625)"/>
       <path id="DejaVuSans-55" d="M 556 4666 
L 1191 4666 
L 1191 1831 
Q 1191 1081 1462 751 
Q 1734 422 2344 422 
Q 2950 422 3222 751 
Q 3494 1081 3494 1831 
L 3494 4666 
L 4128 4666 
L 4128 1753 
Q 4128 841 3676 375 
Q 3225 -91 2344 -91 
Q 1459 -91 1007 375 
Q 556 841 556 1753 
L 556 4666 
z
" transform="scale(0.015625)"/>
       <path id="DejaVuSans-73" d="M 2834 3397 
L 2834 2853 
Q 2591 2978 2328 3040 
Q 2066 3103 1784 3103 
Q 1356 3103 1142 2972 
Q 928 2841 928 2578 
Q 928 2378 1081 2264 
Q 1234 2150 1697 2047 
L 1894 2003 
Q 2506 1872 2764 1633 
Q 3022 1394 3022 966 
Q 3022 478 2636 193 
Q 2250 -91 1575 -91 
Q 1294 -91 989 -36 
Q 684 19 347 128 
L 347 722 
Q 666 556 975 473 
Q 1284 391 1588 391 
Q 1994 391 2212 530 
Q 2431 669 2431 922 
Q 2431 1156 2273 1281 
Q 2116 1406 1581 1522 
L 1381 1569 
Q 847 1681 609 1914 
Q 372 2147 372 2553 
Q 372 3047 722 3315 
Q 1072 3584 1716 3584 
Q 2034 3584 2315 3537 
Q 2597 3491 2834 3397 
z
" transform="scale(0.015625)"/>
       <path id="DejaVuSans-61" d="M 2194 1759 
Q 1497 1759 1228 1600 
Q 959 1441 959 1056 
Q 959 750 1161 570 
Q 1363 391 1709 391 
Q 2188 391 2477 730 
Q 2766 1069 2766 1631 
L 2766 1759 
L 2194 1759 
z
M 3341 1997 
L 3341 0 
L 2766 0 
L 2766 531 
Q 2569 213 2275 61 
Q 1981 -91 1556 -91 
Q 1019 -91 701 211 
Q 384 513 384 1019 
Q 384 1609 779 1909 
Q 1175 2209 1959 2209 
L 2766 2209 
L 2766 2266 
Q 2766 2663 2505 2880 
Q 2244 3097 1772 3097 
Q 1472 3097 1187 3025 
Q 903 2953 641 2809 
L 641 3341 
Q 956 3463 1253 3523 
Q 1550 3584 1831 3584 
Q 2591 3584 2966 3190 
Q 3341 2797 3341 1997 
z
" transform="scale(0.015625)"/>
       <path id="DejaVuSans-67" d="M 2906 1791 
Q 2906 2416 2648 2759 
Q 2391 3103 1925 3103 
Q 1463 3103 1205 2759 
Q 947 2416 947 1791 
Q 947 1169 1205 825 
Q 1463 481 1925 481 
Q 2391 481 2648 825 
Q 2906 1169 2906 1791 
z
M 3481 434 
Q 3481 -459 3084 -895 
Q 2688 -1331 1869 -1331 
Q 1566 -1331 1297 -1286 
Q 1028 -1241 775 -1147 
L 775 -588 
Q 1028 -725 1275 -790 
Q 1522 -856 1778 -856 
Q 2344 -856 2625 -561 
Q 2906 -266 2906 331 
L 2906 616 
Q 2728 306 2450 153 
Q 2172 0 1784 0 
Q 1141 0 747 490 
Q 353 981 353 1791 
Q 353 2603 747 3093 
Q 1141 3584 1784 3584 
Q 2172 3584 2450 3431 
Q 2728 3278 2906 2969 
L 2906 3500 
L 3481 3500 
L 3481 434 
z
" transform="scale(0.015625)"/>
       <path id="DejaVuSans-5b" d="M 550 4863 
L 1875 4863 
L 1875 4416 
L 1125 4416 
L 1125 -397 
L 1875 -397 
L 1875 -844 
L 550 -844 
L 550 4863 
z
" transform="scale(0.015625)"/>
       <path id="DejaVuSans-42" d="M 1259 2228 
L 1259 519 
L 2272 519 
Q 2781 519 3026 730 
Q 3272 941 3272 1375 
Q 3272 1813 3026 2020 
Q 2781 2228 2272 2228 
L 1259 2228 
z
M 1259 4147 
L 1259 2741 
L 2194 2741 
Q 2656 2741 2882 2914 
Q 3109 3088 3109 3444 
Q 3109 3797 2882 3972 
Q 2656 4147 2194 4147 
L 1259 4147 
z
M 628 4666 
L 2241 4666 
Q 2963 4666 3353 4366 
Q 3744 4066 3744 3513 
Q 3744 3084 3544 2831 
Q 3344 2578 2956 2516 
Q 3422 2416 3680 2098 
Q 3938 1781 3938 1306 
Q 3938 681 3513 340 
Q 3088 0 2303 0 
L 628 0 
L 628 4666 
z
" transform="scale(0.015625)"/>
       <path id="DejaVuSans-5d" d="M 1947 4863 
L 1947 -844 
L 622 -844 
L 622 -397 
L 1369 -397 
L 1369 4416 
L 622 4416 
L 622 4863 
L 1947 4863 
z
" transform="scale(0.015625)"/>
      </defs>
      <use xlink:href="#DejaVuSans-4d"/>
      <use xlink:href="#DejaVuSans-65" transform="translate(86.279297 0)"/>
      <use xlink:href="#DejaVuSans-6d" transform="translate(147.802734 0)"/>
      <use xlink:href="#DejaVuSans-6f" transform="translate(245.214844 0)"/>
      <use xlink:href="#DejaVuSans-72" transform="translate(306.396484 0)"/>
      <use xlink:href="#DejaVuSans-79" transform="translate(347.509766 0)"/>
      <use xlink:href="#DejaVuSans-20" transform="translate(406.689453 0)"/>
      <use xlink:href="#DejaVuSans-55" transform="translate(438.476562 0)"/>
      <use xlink:href="#DejaVuSans-73" transform="translate(511.669922 0)"/>
      <use xlink:href="#DejaVuSans-61" transform="translate(563.769531 0)"/>
      <use xlink:href="#DejaVuSans-67" transform="translate(625.048828 0)"/>
      <use xlink:href="#DejaVuSans-65" transform="translate(688.525391 0)"/>
      <use xlink:href="#DejaVuSans-20" transform="translate(750.048828 0)"/>
      <use xlink:href="#DejaVuSans-5b" transform="translate(781.835938 0)"/>
      <use xlink:href="#DejaVuSans-4d" transform="translate(820.849609 0)"/>
      <use xlink:href="#DejaVuSans-42" transform="translate(907.128906 0)"/>
      <use xlink:href="#DejaVuSans-5d" transform="translate(975.732422 0)"/>
     </g>
    </g>
   </g>
   <g id="line2d_17">
    <path d="M 77.317671 263.873009 
L 77.33249 263.873009 
L 81.022522 245.214441 
L 84.727374 246.615034 
L 88.432225 242.559368 
L 92.137077 259.222456 
L 95.841928 257.519202 
L 99.54678 241.106592 
L 103.251632 240.987615 
L 106.956483 245.270799 
L 110.661335 245.247838 
L 114.366186 241.847591 
L 118.071038 240.935432 
L 121.775889 245.287497 
L 125.480741 237.675036 
L 129.185592 242.256706 
L 132.890444 247.0158 
L 136.595295 246.761146 
L 140.300147 249.278456 
L 144.004998 258.834215 
L 147.70985 253.313249 
L 151.414701 241.167125 
L 155.119553 242.590678 
L 158.824404 240.651556 
L 162.529256 235.090931 
L 166.234107 234.053533 
L 169.938959 234.166248 
L 173.64381 249.508062 
L 177.348662 254.252544 
L 181.053513 256.619566 
L 184.758365 252.591036 
L 188.463216 234.34367 
L 192.168068 256.485978 
L 195.872919 249.420394 
L 199.577771 247.679568 
L 203.282622 248.856817 
L 206.987474 247.040848 
L 210.692325 255.204362 
L 214.397177 254.434141 
L 218.102028 254.095995 
L 221.80688 256.963974 
L 225.511731 248.491536 
L 229.216583 252.131825 
L 232.921435 248.984144 
L 236.626286 242.932999 
L 240.331138 253.751587 
L 244.035989 248.230621 
L 247.740841 246.727749 
L 251.445692 254.38822 
L 255.150544 250.566334 
L 258.855395 250.052853 
L 262.560247 239.1132 
L 266.265098 245.358466 
L 269.96995 241.71609 
L 273.674801 252.902047 
L 277.379653 255.266982 
L 281.084504 246.299848 
L 284.789356 238.491178 
L 288.494207 244.945177 
L 292.199059 237.614503 
L 295.90391 247.45205 
L 299.608762 239.313583 
L 303.313613 240.618159 
L 307.018465 244.177042 
L 310.723316 243.294105 
L 314.428168 229.732777 
L 318.133019 240.618159 
L 321.837871 230.594841 
L 325.542722 235.587714 
L 329.247574 253.112866 
L 332.952425 229.369583 
L 336.657277 236.54162 
L 340.362128 234.414639 
L 344.06698 252.046245 
L 347.771831 254.079296 
L 351.476683 253.916485 
L 355.181535 248.274455 
L 358.760421 260.769162 
L 358.886386 260.769162 
L 362.591238 259.911273 
L 366.296089 261.969372 
" clip-path="url(#p1e50528580)" style="fill: none; stroke: #1f77b4; stroke-width: 1.5; stroke-linecap: square"/>
   </g>
   <g id="line2d_18">
    <path d="M 77.317671 244.504752 
L 81.022522 227.580748 
L 84.727374 227.536915 
L 88.432225 231.360888 
L 92.137077 227.422112 
L 95.841928 227.591185 
L 99.54678 225.28052 
L 103.251632 225.28052 
L 106.956483 243.534147 
L 110.661335 224.848444 
L 114.366186 240.906209 
L 118.071038 231.897329 
L 121.775889 240.568063 
L 125.480741 242.016664 
L 129.185592 227.67259 
L 132.890444 233.842713 
L 136.595295 234.395853 
L 140.300147 228.35097 
L 144.004998 227.484731 
L 147.70985 236.476913 
L 151.414701 237.347326 
L 155.119553 235.011613 
L 158.824404 241.392555 
L 162.529256 237.902554 
L 166.234107 239.534839 
L 169.938959 241.227657 
L 173.64381 240.135988 
L 177.348662 240.010748 
L 181.053513 231.759566 
L 184.758365 237.361937 
L 188.463216 238.107111 
L 192.168068 246.199657 
L 195.872919 242.594853 
L 199.577771 240.332196 
L 203.282622 235.844455 
L 206.987474 229.95612 
L 210.692325 244.110248 
L 214.397177 234.074406 
L 218.102028 234.076493 
L 221.80688 218.7806 
L 225.511731 235.7547 
L 229.216583 221.170584 
L 232.921435 226.407674 
L 236.626286 239.154947 
L 240.331138 235.9029 
L 244.035989 236.270268 
L 247.740841 233.295835 
L 251.445692 240.497094 
L 255.150544 234.431338 
L 258.855395 234.082755 
L 262.560247 230.037526 
L 266.265098 232.337754 
L 269.96995 221.919932 
L 273.674801 225.146931 
L 277.379653 233.473257 
L 281.084504 232.417072 
L 284.789356 233.919944 
L 288.494207 234.356194 
L 292.199059 233.416899 
L 295.90391 228.945857 
L 299.608762 246.395865 
L 300.16449 250.545461 
L 303.313613 237.589455 
L 307.018465 245.652779 
L 310.723316 245.523365 
" clip-path="url(#p1e50528580)" style="fill: none; stroke: #ff7f0e; stroke-width: 1.5; stroke-linecap: square"/>
   </g>
   <g id="line2d_19"/>
   <g id="line2d_20"/>
   <g id="patch_3">
    <path d="M 62.86875 332.68 
L 62.86875 26.92 
" style="fill: none; stroke: #000000; stroke-width: 0.8; stroke-linejoin: miter; stroke-linecap: square"/>
   </g>
   <g id="patch_4">
    <path d="M 62.86875 332.68 
L 380.74501 332.68 
" style="fill: none; stroke: #000000; stroke-width: 0.8; stroke-linejoin: miter; stroke-linecap: square"/>
   </g>
   <g id="text_9">
    <!-- Service Mesh = none -->
    <g transform="translate(158.11688 20.92) scale(0.12 -0.12)">
     <defs>
      <path id="DejaVuSans-53" d="M 3425 4513 
L 3425 3897 
Q 3066 4069 2747 4153 
Q 2428 4238 2131 4238 
Q 1616 4238 1336 4038 
Q 1056 3838 1056 3469 
Q 1056 3159 1242 3001 
Q 1428 2844 1947 2747 
L 2328 2669 
Q 3034 2534 3370 2195 
Q 3706 1856 3706 1288 
Q 3706 609 3251 259 
Q 2797 -91 1919 -91 
Q 1588 -91 1214 -16 
Q 841 59 441 206 
L 441 856 
Q 825 641 1194 531 
Q 1563 422 1919 422 
Q 2459 422 2753 634 
Q 3047 847 3047 1241 
Q 3047 1584 2836 1778 
Q 2625 1972 2144 2069 
L 1759 2144 
Q 1053 2284 737 2584 
Q 422 2884 422 3419 
Q 422 4038 858 4394 
Q 1294 4750 2059 4750 
Q 2388 4750 2728 4690 
Q 3069 4631 3425 4513 
z
" transform="scale(0.015625)"/>
      <path id="DejaVuSans-76" d="M 191 3500 
L 800 3500 
L 1894 563 
L 2988 3500 
L 3597 3500 
L 2284 0 
L 1503 0 
L 191 3500 
z
" transform="scale(0.015625)"/>
      <path id="DejaVuSans-69" d="M 603 3500 
L 1178 3500 
L 1178 0 
L 603 0 
L 603 3500 
z
M 603 4863 
L 1178 4863 
L 1178 4134 
L 603 4134 
L 603 4863 
z
" transform="scale(0.015625)"/>
      <path id="DejaVuSans-63" d="M 3122 3366 
L 3122 2828 
Q 2878 2963 2633 3030 
Q 2388 3097 2138 3097 
Q 1578 3097 1268 2742 
Q 959 2388 959 1747 
Q 959 1106 1268 751 
Q 1578 397 2138 397 
Q 2388 397 2633 464 
Q 2878 531 3122 666 
L 3122 134 
Q 2881 22 2623 -34 
Q 2366 -91 2075 -91 
Q 1284 -91 818 406 
Q 353 903 353 1747 
Q 353 2603 823 3093 
Q 1294 3584 2113 3584 
Q 2378 3584 2631 3529 
Q 2884 3475 3122 3366 
z
" transform="scale(0.015625)"/>
      <path id="DejaVuSans-68" d="M 3513 2113 
L 3513 0 
L 2938 0 
L 2938 2094 
Q 2938 2591 2744 2837 
Q 2550 3084 2163 3084 
Q 1697 3084 1428 2787 
Q 1159 2491 1159 1978 
L 1159 0 
L 581 0 
L 581 4863 
L 1159 4863 
L 1159 2956 
Q 1366 3272 1645 3428 
Q 1925 3584 2291 3584 
Q 2894 3584 3203 3211 
Q 3513 2838 3513 2113 
z
" transform="scale(0.015625)"/>
      <path id="DejaVuSans-3d" d="M 678 2906 
L 4684 2906 
L 4684 2381 
L 678 2381 
L 678 2906 
z
M 678 1631 
L 4684 1631 
L 4684 1100 
L 678 1100 
L 678 1631 
z
" transform="scale(0.015625)"/>
      <path id="DejaVuSans-6e" d="M 3513 2113 
L 3513 0 
L 2938 0 
L 2938 2094 
Q 2938 2591 2744 2837 
Q 2550 3084 2163 3084 
Q 1697 3084 1428 2787 
Q 1159 2491 1159 1978 
L 1159 0 
L 581 0 
L 581 3500 
L 1159 3500 
L 1159 2956 
Q 1366 3272 1645 3428 
Q 1925 3584 2291 3584 
Q 2894 3584 3203 3211 
Q 3513 2838 3513 2113 
z
" transform="scale(0.015625)"/>
     </defs>
     <use xlink:href="#DejaVuSans-53"/>
     <use xlink:href="#DejaVuSans-65" transform="translate(63.476562 0)"/>
     <use xlink:href="#DejaVuSans-72" transform="translate(125 0)"/>
     <use xlink:href="#DejaVuSans-76" transform="translate(166.113281 0)"/>
     <use xlink:href="#DejaVuSans-69" transform="translate(225.292969 0)"/>
     <use xlink:href="#DejaVuSans-63" transform="translate(253.076172 0)"/>
     <use xlink:href="#DejaVuSans-65" transform="translate(308.056641 0)"/>
     <use xlink:href="#DejaVuSans-20" transform="translate(369.580078 0)"/>
     <use xlink:href="#DejaVuSans-4d" transform="translate(401.367188 0)"/>
     <use xlink:href="#DejaVuSans-65" transform="translate(487.646484 0)"/>
     <use xlink:href="#DejaVuSans-73" transform="translate(549.169922 0)"/>
     <use xlink:href="#DejaVuSans-68" transform="translate(601.269531 0)"/>
     <use xlink:href="#DejaVuSans-20" transform="translate(664.648438 0)"/>
     <use xlink:href="#DejaVuSans-3d" transform="translate(696.435547 0)"/>
     <use xlink:href="#DejaVuSans-20" transform="translate(780.224609 0)"/>
     <use xlink:href="#DejaVuSans-6e" transform="translate(812.011719 0)"/>
     <use xlink:href="#DejaVuSans-6f" transform="translate(875.390625 0)"/>
     <use xlink:href="#DejaVuSans-6e" transform="translate(936.572266 0)"/>
     <use xlink:href="#DejaVuSans-65" transform="translate(999.951172 0)"/>
    </g>
   </g>
  </g>
  <g id="axes_2">
   <g id="patch_5">
    <path d="M 404.007029 332.68 
L 721.883289 332.68 
L 721.883289 26.92 
L 404.007029 26.92 
z
" style="fill: #ffffff"/>
   </g>
   <g id="FillBetweenPolyCollection_3"/>
   <g id="FillBetweenPolyCollection_4"/>
   <g id="matplotlib.axis_3">
    <g id="xtick_10">
     <g id="line2d_21">
      <g>
       <use xlink:href="#mbcb02aef95" x="418.45595" y="332.68" style="stroke: #000000; stroke-width: 0.8"/>
      </g>
     </g>
    </g>
    <g id="xtick_11">
     <g id="line2d_22">
      <g>
       <use xlink:href="#mbcb02aef95" x="456.479426" y="332.68" style="stroke: #000000; stroke-width: 0.8"/>
      </g>
     </g>
    </g>
    <g id="xtick_12">
     <g id="line2d_23">
      <g>
       <use xlink:href="#mbcb02aef95" x="494.502902" y="332.68" style="stroke: #000000; stroke-width: 0.8"/>
      </g>
     </g>
    </g>
    <g id="xtick_13">
     <g id="line2d_24">
      <g>
       <use xlink:href="#mbcb02aef95" x="532.526378" y="332.68" style="stroke: #000000; stroke-width: 0.8"/>
      </g>
     </g>
    </g>
    <g id="xtick_14">
     <g id="line2d_25">
      <g>
       <use xlink:href="#mbcb02aef95" x="570.549854" y="332.68" style="stroke: #000000; stroke-width: 0.8"/>
      </g>
     </g>
    </g>
    <g id="xtick_15">
     <g id="line2d_26">
      <g>
       <use xlink:href="#mbcb02aef95" x="608.57333" y="332.68" style="stroke: #000000; stroke-width: 0.8"/>
      </g>
     </g>
    </g>
    <g id="xtick_16">
     <g id="line2d_27">
      <g>
       <use xlink:href="#mbcb02aef95" x="646.596806" y="332.68" style="stroke: #000000; stroke-width: 0.8"/>
      </g>
     </g>
    </g>
    <g id="xtick_17">
     <g id="line2d_28">
      <g>
       <use xlink:href="#mbcb02aef95" x="684.620282" y="332.68" style="stroke: #000000; stroke-width: 0.8"/>
      </g>
     </g>
    </g>
   </g>
   <g id="matplotlib.axis_4">
    <g id="ytick_8">
     <g id="line2d_29">
      <g>
       <use xlink:href="#me5179b328b" x="404.007029" y="332.68" style="stroke: #000000; stroke-width: 0.8"/>
      </g>
     </g>
    </g>
    <g id="ytick_9">
     <g id="line2d_30">
      <g>
       <use xlink:href="#me5179b328b" x="404.007029" y="281.72" style="stroke: #000000; stroke-width: 0.8"/>
      </g>
     </g>
    </g>
    <g id="ytick_10">
     <g id="line2d_31">
      <g>
       <use xlink:href="#me5179b328b" x="404.007029" y="230.76" style="stroke: #000000; stroke-width: 0.8"/>
      </g>
     </g>
    </g>
    <g id="ytick_11">
     <g id="line2d_32">
      <g>
       <use xlink:href="#me5179b328b" x="404.007029" y="179.8" style="stroke: #000000; stroke-width: 0.8"/>
      </g>
     </g>
    </g>
    <g id="ytick_12">
     <g id="line2d_33">
      <g>
       <use xlink:href="#me5179b328b" x="404.007029" y="128.84" style="stroke: #000000; stroke-width: 0.8"/>
      </g>
     </g>
    </g>
    <g id="ytick_13">
     <g id="line2d_34">
      <g>
       <use xlink:href="#me5179b328b" x="404.007029" y="77.88" style="stroke: #000000; stroke-width: 0.8"/>
      </g>
     </g>
    </g>
    <g id="ytick_14">
     <g id="line2d_35">
      <g>
       <use xlink:href="#me5179b328b" x="404.007029" y="26.92" style="stroke: #000000; stroke-width: 0.8"/>
      </g>
     </g>
    </g>
   </g>
   <g id="line2d_36">
    <path d="M 418.45595 306.41471 
L 418.459752 306.41471 
L 422.258297 274.722907 
L 426.060645 277.881024 
L 429.862993 273.487212 
L 433.66534 300.829038 
L 437.467688 293.613167 
L 441.270035 287.301107 
L 445.072383 286.804324 
L 448.874731 269.878233 
L 452.677078 274.092536 
L 456.479426 280.540272 
L 460.281773 280.569494 
L 464.084121 280.600804 
L 467.886469 278.667944 
L 471.688816 290.461311 
L 475.491164 281.780141 
L 479.293511 292.106121 
L 483.095859 283.965567 
L 486.898207 284.821369 
L 490.700554 290.348596 
L 494.502902 286.242835 
L 498.305249 294.180919 
L 502.107597 276.530527 
L 505.909945 272.453988 
L 509.712292 280.133244 
L 513.51464 287.904343 
L 517.316987 285.320238 
L 521.119335 286.372248 
L 524.921683 280.442168 
L 528.72403 279.805535 
L 532.526378 278.837017 
L 536.328726 286.695783 
L 540.131073 284.389293 
L 543.933421 290.060546 
L 547.735768 290.674218 
L 551.538116 295.942618 
L 555.340464 290.519756 
L 559.142811 283.268401 
L 562.945159 286.812673 
L 566.747506 284.879814 
L 570.549854 288.776843 
L 574.352202 281.323018 
L 578.154549 290.741013 
L 581.956897 281.018269 
L 585.759244 282.289447 
L 589.561592 277.26109 
L 593.36394 278.509308 
L 597.166287 278.392418 
L 600.968635 291.955834 
L 604.770982 282.913557 
L 608.57333 292.110296 
L 612.375678 286.330502 
L 616.178025 286.775102 
L 619.980373 290.102292 
L 623.78272 288.019145 
L 627.585068 291.993406 
L 631.387416 288.361466 
L 635.189763 284.683605 
L 638.992111 272.243169 
L 642.794459 278.801533 
L 646.596806 282.283185 
L 650.399154 278.528094 
L 654.201501 289.426 
L 658.003849 290.229619 
L 661.806197 284.176386 
L 665.608544 287.478529 
L 669.410892 289.547065 
L 673.213239 283.738049 
L 677.015587 290.037585 
L 680.817935 287.305281 
L 684.620282 270.214292 
L 688.42263 282.60672 
L 692.224977 276.570186 
L 696.027325 290.521844 
L 699.073005 295.562725 
L 699.829673 298.93375 
L 703.63202 291.878603 
L 707.434368 291.751276 
" clip-path="url(#pe64d01cb9e)" style="fill: none; stroke: #1f77b4; stroke-width: 1.5; stroke-linecap: square"/>
   </g>
   <g id="line2d_37">
    <path d="M 418.45595 279.383896 
L 418.463554 279.383896 
L 422.258297 251.273936 
L 426.060645 255.08956 
L 429.862993 254.185749 
L 433.66534 256.819949 
L 437.467688 267.187676 
L 441.270035 269.414848 
L 445.072383 269.352228 
L 448.874731 264.488769 
L 452.677078 263.839612 
L 456.479426 258.992851 
L 460.281773 269.391887 
L 464.084121 271.203682 
L 467.886469 269.669501 
L 471.688816 266.843268 
L 475.491164 265.194284 
L 479.293511 262.852309 
L 483.095859 259.397791 
L 486.898207 265.100354 
L 490.700554 266.056347 
L 494.502902 264.624445 
L 498.305249 266.941372 
L 502.107597 264.426149 
L 505.909945 266.279691 
L 509.712292 262.503726 
L 513.51464 268.75108 
L 517.316987 258.247677 
L 521.119335 266.544781 
L 524.921683 269.366839 
L 528.72403 267.774213 
L 532.526378 266.69298 
L 536.328726 266.223333 
L 540.131073 264.528428 
L 543.933421 269.763431 
L 547.735768 261.839958 
L 551.538116 264.960504 
L 555.340464 268.876319 
L 559.142811 265.171323 
L 562.945159 267.438154 
L 566.747506 265.995815 
L 570.549854 266.43624 
L 574.352202 263.83335 
L 578.154549 265.743249 
L 581.956897 267.818047 
L 585.759244 270.00556 
L 589.561592 266.895451 
L 593.36394 251.910569 
L 597.166287 263.025556 
L 600.968635 263.340742 
L 604.770982 264.32387 
L 608.57333 257.068341 
L 612.375678 260.339173 
L 616.178025 264.305085 
L 619.980373 269.068352 
L 623.78272 260.610525 
L 627.585068 259.71089 
L 631.387416 260.508247 
L 635.189763 267.127143 
L 638.992111 264.380228 
L 642.794459 261.069736 
L 646.596806 262.856483 
L 650.399154 262.837697 
L 654.201501 263.2489 
L 658.003849 263.664277 
L 661.806197 263.474331 
L 664.175059 272.850579 
L 665.608544 273.483038 
L 669.410892 273.36406 
L 673.213239 274.639414 
" clip-path="url(#pe64d01cb9e)" style="fill: none; stroke: #ff7f0e; stroke-width: 1.5; stroke-linecap: square"/>
   </g>
   <g id="patch_6">
    <path d="M 404.007029 332.68 
L 404.007029 26.92 
" style="fill: none; stroke: #000000; stroke-width: 0.8; stroke-linejoin: miter; stroke-linecap: square"/>
   </g>
   <g id="patch_7">
    <path d="M 404.007029 332.68 
L 721.883289 332.68 
" style="fill: none; stroke: #000000; stroke-width: 0.8; stroke-linejoin: miter; stroke-linecap: square"/>
   </g>
   <g id="text_10">
    <!-- Service Mesh = cilium -->
    <g transform="translate(496.276721 20.92) scale(0.12 -0.12)">
     <defs>
      <path id="DejaVuSans-6c" d="M 603 4863 
L 1178 4863 
L 1178 0 
L 603 0 
L 603 4863 
z
" transform="scale(0.015625)"/>
      <path id="DejaVuSans-75" d="M 544 1381 
L 544 3500 
L 1119 3500 
L 1119 1403 
Q 1119 906 1312 657 
Q 1506 409 1894 409 
Q 2359 409 2629 706 
Q 2900 1003 2900 1516 
L 2900 3500 
L 3475 3500 
L 3475 0 
L 2900 0 
L 2900 538 
Q 2691 219 2414 64 
Q 2138 -91 1772 -91 
Q 1169 -91 856 284 
Q 544 659 544 1381 
z
M 1991 3584 
L 1991 3584 
z
" transform="scale(0.015625)"/>
     </defs>
     <use xlink:href="#DejaVuSans-53"/>
     <use xlink:href="#DejaVuSans-65" transform="translate(63.476562 0)"/>
     <use xlink:href="#DejaVuSans-72" transform="translate(125 0)"/>
     <use xlink:href="#DejaVuSans-76" transform="translate(166.113281 0)"/>
     <use xlink:href="#DejaVuSans-69" transform="translate(225.292969 0)"/>
     <use xlink:href="#DejaVuSans-63" transform="translate(253.076172 0)"/>
     <use xlink:href="#DejaVuSans-65" transform="translate(308.056641 0)"/>
     <use xlink:href="#DejaVuSans-20" transform="translate(369.580078 0)"/>
     <use xlink:href="#DejaVuSans-4d" transform="translate(401.367188 0)"/>
     <use xlink:href="#DejaVuSans-65" transform="translate(487.646484 0)"/>
     <use xlink:href="#DejaVuSans-73" transform="translate(549.169922 0)"/>
     <use xlink:href="#DejaVuSans-68" transform="translate(601.269531 0)"/>
     <use xlink:href="#DejaVuSans-20" transform="translate(664.648438 0)"/>
     <use xlink:href="#DejaVuSans-3d" transform="translate(696.435547 0)"/>
     <use xlink:href="#DejaVuSans-20" transform="translate(780.224609 0)"/>
     <use xlink:href="#DejaVuSans-63" transform="translate(812.011719 0)"/>
     <use xlink:href="#DejaVuSans-69" transform="translate(866.992188 0)"/>
     <use xlink:href="#DejaVuSans-6c" transform="translate(894.775391 0)"/>
     <use xlink:href="#DejaVuSans-69" transform="translate(922.558594 0)"/>
     <use xlink:href="#DejaVuSans-75" transform="translate(950.341797 0)"/>
     <use xlink:href="#DejaVuSans-6d" transform="translate(1013.720703 0)"/>
    </g>
   </g>
  </g>
  <g id="axes_3">
   <g id="patch_8">
    <path d="M 62.86875 680.24 
L 380.74501 680.24 
L 380.74501 374.48 
L 62.86875 374.48 
z
" style="fill: #ffffff"/>
   </g>
   <g id="FillBetweenPolyCollection_5"/>
   <g id="FillBetweenPolyCollection_6"/>
   <g id="matplotlib.axis_5">
    <g id="xtick_18">
     <g id="line2d_38">
      <g>
       <use xlink:href="#mbcb02aef95" x="77.317671" y="680.24" style="stroke: #000000; stroke-width: 0.8"/>
      </g>
     </g>
    </g>
    <g id="xtick_19">
     <g id="line2d_39">
      <g>
       <use xlink:href="#mbcb02aef95" x="132.361179" y="680.24" style="stroke: #000000; stroke-width: 0.8"/>
      </g>
     </g>
    </g>
    <g id="xtick_20">
     <g id="line2d_40">
      <g>
       <use xlink:href="#mbcb02aef95" x="187.404687" y="680.24" style="stroke: #000000; stroke-width: 0.8"/>
      </g>
     </g>
    </g>
    <g id="xtick_21">
     <g id="line2d_41">
      <g>
       <use xlink:href="#mbcb02aef95" x="242.448196" y="680.24" style="stroke: #000000; stroke-width: 0.8"/>
      </g>
     </g>
    </g>
    <g id="xtick_22">
     <g id="line2d_42">
      <g>
       <use xlink:href="#mbcb02aef95" x="297.491704" y="680.24" style="stroke: #000000; stroke-width: 0.8"/>
      </g>
     </g>
    </g>
    <g id="xtick_23">
     <g id="line2d_43">
      <g>
       <use xlink:href="#mbcb02aef95" x="352.535212" y="680.24" style="stroke: #000000; stroke-width: 0.8"/>
      </g>
     </g>
    </g>
   </g>
   <g id="matplotlib.axis_6">
    <g id="ytick_15">
     <g id="line2d_44">
      <g>
       <use xlink:href="#me5179b328b" x="62.86875" y="680.24" style="stroke: #000000; stroke-width: 0.8"/>
      </g>
     </g>
     <g id="text_11">
      <!-- 1200.0 -->
      <g transform="translate(20.878125 684.039219) scale(0.1 -0.1)">
       <use xlink:href="#DejaVuSans-31"/>
       <use xlink:href="#DejaVuSans-32" transform="translate(63.623047 0)"/>
       <use xlink:href="#DejaVuSans-30" transform="translate(127.246094 0)"/>
       <use xlink:href="#DejaVuSans-30" transform="translate(190.869141 0)"/>
       <use xlink:href="#DejaVuSans-2e" transform="translate(254.492188 0)"/>
       <use xlink:href="#DejaVuSans-30" transform="translate(286.279297 0)"/>
      </g>
     </g>
    </g>
    <g id="ytick_16">
     <g id="line2d_45">
      <g>
       <use xlink:href="#me5179b328b" x="62.86875" y="629.28" style="stroke: #000000; stroke-width: 0.8"/>
      </g>
     </g>
     <g id="text_12">
      <!-- 1300.0 -->
      <g transform="translate(20.878125 633.079219) scale(0.1 -0.1)">
       <use xlink:href="#DejaVuSans-31"/>
       <use xlink:href="#DejaVuSans-33" transform="translate(63.623047 0)"/>
       <use xlink:href="#DejaVuSans-30" transform="translate(127.246094 0)"/>
       <use xlink:href="#DejaVuSans-30" transform="translate(190.869141 0)"/>
       <use xlink:href="#DejaVuSans-2e" transform="translate(254.492188 0)"/>
       <use xlink:href="#DejaVuSans-30" transform="translate(286.279297 0)"/>
      </g>
     </g>
    </g>
    <g id="ytick_17">
     <g id="line2d_46">
      <g>
       <use xlink:href="#me5179b328b" x="62.86875" y="578.32" style="stroke: #000000; stroke-width: 0.8"/>
      </g>
     </g>
     <g id="text_13">
      <!-- 1400.0 -->
      <g transform="translate(20.878125 582.119219) scale(0.1 -0.1)">
       <use xlink:href="#DejaVuSans-31"/>
       <use xlink:href="#DejaVuSans-34" transform="translate(63.623047 0)"/>
       <use xlink:href="#DejaVuSans-30" transform="translate(127.246094 0)"/>
       <use xlink:href="#DejaVuSans-30" transform="translate(190.869141 0)"/>
       <use xlink:href="#DejaVuSans-2e" transform="translate(254.492188 0)"/>
       <use xlink:href="#DejaVuSans-30" transform="translate(286.279297 0)"/>
      </g>
     </g>
    </g>
    <g id="ytick_18">
     <g id="line2d_47">
      <g>
       <use xlink:href="#me5179b328b" x="62.86875" y="527.36" style="stroke: #000000; stroke-width: 0.8"/>
      </g>
     </g>
     <g id="text_14">
      <!-- 1500.0 -->
      <g transform="translate(20.878125 531.159219) scale(0.1 -0.1)">
       <use xlink:href="#DejaVuSans-31"/>
       <use xlink:href="#DejaVuSans-35" transform="translate(63.623047 0)"/>
       <use xlink:href="#DejaVuSans-30" transform="translate(127.246094 0)"/>
       <use xlink:href="#DejaVuSans-30" transform="translate(190.869141 0)"/>
       <use xlink:href="#DejaVuSans-2e" transform="translate(254.492188 0)"/>
       <use xlink:href="#DejaVuSans-30" transform="translate(286.279297 0)"/>
      </g>
     </g>
    </g>
    <g id="ytick_19">
     <g id="line2d_48">
      <g>
       <use xlink:href="#me5179b328b" x="62.86875" y="476.4" style="stroke: #000000; stroke-width: 0.8"/>
      </g>
     </g>
     <g id="text_15">
      <!-- 1600.0 -->
      <g transform="translate(20.878125 480.199219) scale(0.1 -0.1)">
       <use xlink:href="#DejaVuSans-31"/>
       <use xlink:href="#DejaVuSans-36" transform="translate(63.623047 0)"/>
       <use xlink:href="#DejaVuSans-30" transform="translate(127.246094 0)"/>
       <use xlink:href="#DejaVuSans-30" transform="translate(190.869141 0)"/>
       <use xlink:href="#DejaVuSans-2e" transform="translate(254.492188 0)"/>
       <use xlink:href="#DejaVuSans-30" transform="translate(286.279297 0)"/>
      </g>
     </g>
    </g>
    <g id="ytick_20">
     <g id="line2d_49">
      <g>
       <use xlink:href="#me5179b328b" x="62.86875" y="425.44" style="stroke: #000000; stroke-width: 0.8"/>
      </g>
     </g>
     <g id="text_16">
      <!-- 1700.0 -->
      <g transform="translate(20.878125 429.239219) scale(0.1 -0.1)">
       <use xlink:href="#DejaVuSans-31"/>
       <use xlink:href="#DejaVuSans-37" transform="translate(63.623047 0)"/>
       <use xlink:href="#DejaVuSans-30" transform="translate(127.246094 0)"/>
       <use xlink:href="#DejaVuSans-30" transform="translate(190.869141 0)"/>
       <use xlink:href="#DejaVuSans-2e" transform="translate(254.492188 0)"/>
       <use xlink:href="#DejaVuSans-30" transform="translate(286.279297 0)"/>
      </g>
     </g>
    </g>
    <g id="ytick_21">
     <g id="line2d_50">
      <g>
       <use xlink:href="#me5179b328b" x="62.86875" y="374.48" style="stroke: #000000; stroke-width: 0.8"/>
      </g>
     </g>
     <g id="text_17">
      <!-- 1800.0 -->
      <g transform="translate(20.878125 378.279219) scale(0.1 -0.1)">
       <use xlink:href="#DejaVuSans-31"/>
       <use xlink:href="#DejaVuSans-38" transform="translate(63.623047 0)"/>
       <use xlink:href="#DejaVuSans-30" transform="translate(127.246094 0)"/>
       <use xlink:href="#DejaVuSans-30" transform="translate(190.869141 0)"/>
       <use xlink:href="#DejaVuSans-2e" transform="translate(254.492188 0)"/>
       <use xlink:href="#DejaVuSans-30" transform="translate(286.279297 0)"/>
      </g>
     </g>
    </g>
    <g id="text_18">
     <!-- Memory Usage [MB] -->
     <g transform="translate(14.798438 578.098281) rotate(-90) scale(0.1 -0.1)">
      <use xlink:href="#DejaVuSans-4d"/>
      <use xlink:href="#DejaVuSans-65" transform="translate(86.279297 0)"/>
      <use xlink:href="#DejaVuSans-6d" transform="translate(147.802734 0)"/>
      <use xlink:href="#DejaVuSans-6f" transform="translate(245.214844 0)"/>
      <use xlink:href="#DejaVuSans-72" transform="translate(306.396484 0)"/>
      <use xlink:href="#DejaVuSans-79" transform="translate(347.509766 0)"/>
      <use xlink:href="#DejaVuSans-20" transform="translate(406.689453 0)"/>
      <use xlink:href="#DejaVuSans-55" transform="translate(438.476562 0)"/>
      <use xlink:href="#DejaVuSans-73" transform="translate(511.669922 0)"/>
      <use xlink:href="#DejaVuSans-61" transform="translate(563.769531 0)"/>
      <use xlink:href="#DejaVuSans-67" transform="translate(625.048828 0)"/>
      <use xlink:href="#DejaVuSans-65" transform="translate(688.525391 0)"/>
      <use xlink:href="#DejaVuSans-20" transform="translate(750.048828 0)"/>
      <use xlink:href="#DejaVuSans-5b" transform="translate(781.835938 0)"/>
      <use xlink:href="#DejaVuSans-4d" transform="translate(820.849609 0)"/>
      <use xlink:href="#DejaVuSans-42" transform="translate(907.128906 0)"/>
      <use xlink:href="#DejaVuSans-5d" transform="translate(975.732422 0)"/>
     </g>
    </g>
   </g>
   <g id="line2d_51">
    <path d="M 77.317671 465.700389 
L 77.320423 465.700389 
L 80.069846 452.260126 
L 82.822022 450.298043 
L 85.574197 450.30848 
L 88.326373 458.240302 
L 91.078548 460.991392 
L 93.830723 442.493548 
L 96.582899 446.461546 
L 99.335074 444.69776 
L 102.08725 451.176806 
L 104.839425 449.390058 
L 107.5916 447.427976 
L 110.343776 447.317348 
L 113.095951 456.140457 
L 115.848127 448.571828 
L 118.600302 449.233509 
L 121.352477 449.813785 
L 124.104653 437.899353 
L 126.856828 439.059904 
L 129.609004 444.653926 
L 132.361179 458.945817 
L 135.113355 440.500156 
L 137.86553 441.149313 
L 140.617705 463.6736 
L 143.369881 460.932947 
L 146.122056 460.553054 
L 148.874232 443.165665 
L 151.626407 458.010697 
L 154.378582 461.724042 
L 157.130758 446.97294 
L 159.882933 440.859175 
L 162.635109 447.889274 
L 165.387284 447.461373 
L 168.139459 454.136628 
L 170.891635 450.410759 
L 173.64381 442.483111 
L 176.395986 455.45164 
L 179.148161 455.449553 
L 181.900337 449.298216 
L 184.652512 453.804744 
L 187.404687 450.333528 
L 190.156863 443.946324 
L 192.909038 446.55965 
L 195.661214 446.03782 
L 198.413389 432.643477 
L 201.165564 446.129662 
L 203.91774 437.218886 
L 206.669915 448.32135 
L 209.422091 448.947546 
L 212.174266 446.651493 
L 214.926441 446.774645 
L 217.678617 457.148633 
L 220.430792 448.901625 
L 223.182968 448.11053 
L 225.935143 442.944409 
L 228.687319 452.792393 
L 231.439494 443.827346 
L 234.191669 436.216972 
L 236.943845 458.275787 
L 239.69602 448.786823 
L 242.448196 449.644712 
L 245.200371 454.779523 
L 247.952546 449.673934 
L 250.704722 455.954685 
L 253.456897 449.540346 
L 256.209073 455.196987 
L 258.961248 452.170371 
L 261.713423 455.754302 
L 264.465599 459.382067 
L 267.217774 455.57688 
L 269.96995 458.870673 
L 272.722125 444.633053 
L 275.4743 457.897981 
L 278.226476 451.873971 
L 280.978651 451.510777 
L 283.730827 459.972779 
L 286.483002 447.050171 
L 289.235178 448.440327 
L 291.987353 451.750819 
L 294.739528 451.385538 
L 297.491704 451.389713 
L 300.243879 455.551832 
L 302.996055 459.766134 
L 305.74823 457.165331 
L 308.500405 456.923202 
L 311.252581 464.418774 
L 314.004756 462.869981 
L 316.756932 459.803706 
L 319.509107 466.163775 
L 322.261282 465.77762 
L 325.013458 467.155253 
L 327.765633 459.96443 
L 330.517809 461.154203 
L 333.269984 461.154203 
L 336.02216 459.194208 
L 338.774335 470.263274 
L 341.52651 467.652035 
L 344.278686 460.177337 
L 347.030861 462.285531 
L 349.783037 461.891028 
L 352.535212 462.23961 
L 355.287387 466.280665 
L 358.039563 466.161688 
L 359.082637 466.161688 
L 360.791738 469.991923 
L 363.543914 469.55776 
L 366.296089 469.55776 
" clip-path="url(#p91071a3e6f)" style="fill: none; stroke: #1f77b4; stroke-width: 1.5; stroke-linecap: square"/>
   </g>
   <g id="line2d_52">
    <path d="M 77.317671 452.374928 
L 77.323175 452.377016 
L 80.069846 434.175571 
L 82.822022 439.247763 
L 85.574197 439.256112 
L 88.326373 449.794999 
L 91.078548 449.57583 
L 93.830723 449.079048 
L 96.582899 444.766641 
L 99.335074 445.597395 
L 102.08725 446.597222 
L 104.839425 439.285335 
L 107.5916 453.712902 
L 110.343776 455.357711 
L 113.095951 445.925105 
L 115.848127 436.99763 
L 118.600302 454.537394 
L 121.352477 453.762997 
L 124.104653 452.335269 
L 126.856828 446.851875 
L 129.609004 449.233509 
L 132.361179 442.917274 
L 135.113355 440.98024 
L 137.86553 430.750277 
L 140.617705 451.867709 
L 143.369881 449.644712 
L 146.122056 446.227766 
L 148.874232 447.835004 
L 151.626407 450.533911 
L 154.378582 443.038339 
L 157.130758 447.482247 
L 159.882933 442.645922 
L 162.635109 439.623481 
L 165.387284 444.555822 
L 168.139459 450.302218 
L 170.891635 451.56296 
L 173.64381 440.662967 
L 176.395986 452.967728 
L 179.148161 450.498426 
L 181.900337 446.319608 
L 184.652512 449.749078 
L 187.404687 443.332651 
L 190.156863 446.484507 
L 192.909038 446.248639 
L 195.661214 445.298908 
L 198.413389 447.941457 
L 201.165564 439.953278 
L 203.91774 451.936591 
L 206.669915 437.502762 
L 209.422091 441.197321 
L 212.174266 450.087224 
L 214.926441 442.783686 
L 217.678617 447.807869 
L 220.430792 448.079221 
L 223.182968 452.518954 
L 225.935143 436.340124 
L 228.687319 446.058693 
L 231.439494 428.483445 
L 234.191669 443.697932 
L 236.943845 437.381697 
L 239.69602 437.943187 
L 242.448196 436.523808 
L 245.200371 434.5659 
L 247.952546 434.315422 
L 250.704722 443.203237 
L 253.456897 443.080085 
L 256.209073 452.101489 
L 256.321912 451.18098 
L 258.961248 455.543483 
L 261.713423 453.314223 
L 264.465599 459.006349 
" clip-path="url(#p91071a3e6f)" style="fill: none; stroke: #ff7f0e; stroke-width: 1.5; stroke-linecap: square"/>
   </g>
   <g id="patch_9">
    <path d="M 62.86875 680.24 
L 62.86875 374.48 
" style="fill: none; stroke: #000000; stroke-width: 0.8; stroke-linejoin: miter; stroke-linecap: square"/>
   </g>
   <g id="patch_10">
    <path d="M 62.86875 680.24 
L 380.74501 680.24 
" style="fill: none; stroke: #000000; stroke-width: 0.8; stroke-linejoin: miter; stroke-linecap: square"/>
   </g>
   <g id="text_19">
    <!-- Service Mesh = istio-ambient -->
    <g transform="translate(133.481255 368.48) scale(0.12 -0.12)">
     <defs>
      <path id="DejaVuSans-74" d="M 1172 4494 
L 1172 3500 
L 2356 3500 
L 2356 3053 
L 1172 3053 
L 1172 1153 
Q 1172 725 1289 603 
Q 1406 481 1766 481 
L 2356 481 
L 2356 0 
L 1766 0 
Q 1100 0 847 248 
Q 594 497 594 1153 
L 594 3053 
L 172 3053 
L 172 3500 
L 594 3500 
L 594 4494 
L 1172 4494 
z
" transform="scale(0.015625)"/>
      <path id="DejaVuSans-2d" d="M 313 2009 
L 1997 2009 
L 1997 1497 
L 313 1497 
L 313 2009 
z
" transform="scale(0.015625)"/>
      <path id="DejaVuSans-62" d="M 3116 1747 
Q 3116 2381 2855 2742 
Q 2594 3103 2138 3103 
Q 1681 3103 1420 2742 
Q 1159 2381 1159 1747 
Q 1159 1113 1420 752 
Q 1681 391 2138 391 
Q 2594 391 2855 752 
Q 3116 1113 3116 1747 
z
M 1159 2969 
Q 1341 3281 1617 3432 
Q 1894 3584 2278 3584 
Q 2916 3584 3314 3078 
Q 3713 2572 3713 1747 
Q 3713 922 3314 415 
Q 2916 -91 2278 -91 
Q 1894 -91 1617 61 
Q 1341 213 1159 525 
L 1159 0 
L 581 0 
L 581 4863 
L 1159 4863 
L 1159 2969 
z
" transform="scale(0.015625)"/>
     </defs>
     <use xlink:href="#DejaVuSans-53"/>
     <use xlink:href="#DejaVuSans-65" transform="translate(63.476562 0)"/>
     <use xlink:href="#DejaVuSans-72" transform="translate(125 0)"/>
     <use xlink:href="#DejaVuSans-76" transform="translate(166.113281 0)"/>
     <use xlink:href="#DejaVuSans-69" transform="translate(225.292969 0)"/>
     <use xlink:href="#DejaVuSans-63" transform="translate(253.076172 0)"/>
     <use xlink:href="#DejaVuSans-65" transform="translate(308.056641 0)"/>
     <use xlink:href="#DejaVuSans-20" transform="translate(369.580078 0)"/>
     <use xlink:href="#DejaVuSans-4d" transform="translate(401.367188 0)"/>
     <use xlink:href="#DejaVuSans-65" transform="translate(487.646484 0)"/>
     <use xlink:href="#DejaVuSans-73" transform="translate(549.169922 0)"/>
     <use xlink:href="#DejaVuSans-68" transform="translate(601.269531 0)"/>
     <use xlink:href="#DejaVuSans-20" transform="translate(664.648438 0)"/>
     <use xlink:href="#DejaVuSans-3d" transform="translate(696.435547 0)"/>
     <use xlink:href="#DejaVuSans-20" transform="translate(780.224609 0)"/>
     <use xlink:href="#DejaVuSans-69" transform="translate(812.011719 0)"/>
     <use xlink:href="#DejaVuSans-73" transform="translate(839.794922 0)"/>
     <use xlink:href="#DejaVuSans-74" transform="translate(891.894531 0)"/>
     <use xlink:href="#DejaVuSans-69" transform="translate(931.103516 0)"/>
     <use xlink:href="#DejaVuSans-6f" transform="translate(958.886719 0)"/>
     <use xlink:href="#DejaVuSans-2d" transform="translate(1021.943359 0)"/>
     <use xlink:href="#DejaVuSans-61" transform="translate(1058.027344 0)"/>
     <use xlink:href="#DejaVuSans-6d" transform="translate(1119.306641 0)"/>
     <use xlink:href="#DejaVuSans-62" transform="translate(1216.71875 0)"/>
     <use xlink:href="#DejaVuSans-69" transform="translate(1280.195312 0)"/>
     <use xlink:href="#DejaVuSans-65" transform="translate(1307.978516 0)"/>
     <use xlink:href="#DejaVuSans-6e" transform="translate(1369.501953 0)"/>
     <use xlink:href="#DejaVuSans-74" transform="translate(1432.880859 0)"/>
    </g>
   </g>
  </g>
  <g id="axes_4">
   <g id="patch_11">
    <path d="M 404.007029 680.24 
L 721.883289 680.24 
L 721.883289 374.48 
L 404.007029 374.48 
z
" style="fill: #ffffff"/>
   </g>
   <g id="FillBetweenPolyCollection_7"/>
   <g id="FillBetweenPolyCollection_8"/>
   <g id="matplotlib.axis_7">
    <g id="xtick_24">
     <g id="line2d_53">
      <g>
       <use xlink:href="#mbcb02aef95" x="418.45595" y="680.24" style="stroke: #000000; stroke-width: 0.8"/>
      </g>
     </g>
    </g>
    <g id="xtick_25">
     <g id="line2d_54">
      <g>
       <use xlink:href="#mbcb02aef95" x="486.450872" y="680.24" style="stroke: #000000; stroke-width: 0.8"/>
      </g>
     </g>
    </g>
    <g id="xtick_26">
     <g id="line2d_55">
      <g>
       <use xlink:href="#mbcb02aef95" x="554.445794" y="680.24" style="stroke: #000000; stroke-width: 0.8"/>
      </g>
     </g>
    </g>
    <g id="xtick_27">
     <g id="line2d_56">
      <g>
       <use xlink:href="#mbcb02aef95" x="622.440715" y="680.24" style="stroke: #000000; stroke-width: 0.8"/>
      </g>
     </g>
    </g>
    <g id="xtick_28">
     <g id="line2d_57">
      <g>
       <use xlink:href="#mbcb02aef95" x="690.435637" y="680.24" style="stroke: #000000; stroke-width: 0.8"/>
      </g>
     </g>
    </g>
   </g>
   <g id="matplotlib.axis_8">
    <g id="ytick_22">
     <g id="line2d_58">
      <g>
       <use xlink:href="#me5179b328b" x="404.007029" y="680.24" style="stroke: #000000; stroke-width: 0.8"/>
      </g>
     </g>
    </g>
    <g id="ytick_23">
     <g id="line2d_59">
      <g>
       <use xlink:href="#me5179b328b" x="404.007029" y="629.28" style="stroke: #000000; stroke-width: 0.8"/>
      </g>
     </g>
    </g>
    <g id="ytick_24">
     <g id="line2d_60">
      <g>
       <use xlink:href="#me5179b328b" x="404.007029" y="578.32" style="stroke: #000000; stroke-width: 0.8"/>
      </g>
     </g>
    </g>
    <g id="ytick_25">
     <g id="line2d_61">
      <g>
       <use xlink:href="#me5179b328b" x="404.007029" y="527.36" style="stroke: #000000; stroke-width: 0.8"/>
      </g>
     </g>
    </g>
    <g id="ytick_26">
     <g id="line2d_62">
      <g>
       <use xlink:href="#me5179b328b" x="404.007029" y="476.4" style="stroke: #000000; stroke-width: 0.8"/>
      </g>
     </g>
    </g>
    <g id="ytick_27">
     <g id="line2d_63">
      <g>
       <use xlink:href="#me5179b328b" x="404.007029" y="425.44" style="stroke: #000000; stroke-width: 0.8"/>
      </g>
     </g>
    </g>
    <g id="ytick_28">
     <g id="line2d_64">
      <g>
       <use xlink:href="#me5179b328b" x="404.007029" y="374.48" style="stroke: #000000; stroke-width: 0.8"/>
      </g>
     </g>
    </g>
   </g>
   <g id="line2d_65">
    <path d="M 418.45595 485.772074 
L 418.466149 485.855567 
L 421.855696 472.546804 
L 425.255442 471.592898 
L 428.655188 483.137874 
L 432.054934 483.025159 
L 435.45468 483.45306 
L 438.854426 483.805817 
L 442.254172 475.596381 
L 445.653918 463.024443 
L 449.053665 459.377892 
L 452.453411 459.392504 
L 455.853157 447.425889 
L 459.252903 459.814143 
L 462.652649 464.87381 
L 466.052395 452.460509 
L 469.452141 446.142186 
L 472.851887 438.742631 
L 476.251633 456.0674 
L 479.651379 455.219948 
L 483.051126 455.3431 
L 486.450872 444.438932 
L 489.850618 454.510258 
L 493.250364 453.7296 
L 496.65011 454.704379 
L 500.049856 453.381017 
L 503.449602 449.69272 
L 506.849348 470.43861 
L 510.249094 470.709961 
L 513.64884 469.490966 
L 517.048586 462.116458 
L 520.448333 469.578633 
L 523.848079 469.852072 
L 527.247825 469.179955 
L 530.647571 465.621071 
L 534.047317 460.367283 
L 537.447063 469.374075 
L 540.846809 469.010882 
L 544.246555 469.246749 
L 547.646301 461.093671 
L 551.046047 469.129859 
L 554.445794 469.142383 
L 557.84554 468.551671 
L 561.245286 468.180128 
L 564.645032 462.09976 
L 568.044778 469.380337 
L 571.444524 470.023233 
L 574.84427 469.538974 
L 578.244016 464.57741 
L 581.643762 468.278232 
L 585.043508 466.472698 
L 588.443254 466.286927 
L 591.843001 457.674638 
L 595.242747 459.354932 
L 598.642493 468.288668 
L 602.042239 467.981832 
L 605.441985 468.034015 
L 608.841731 459.90181 
L 612.241477 468.15508 
L 615.641223 466.965306 
L 619.040969 462.565232 
L 622.440715 462.337714 
L 625.840462 460.932947 
L 629.240208 460.692905 
L 632.639954 459.780745 
L 636.0397 459.594974 
L 639.439446 452.637931 
L 642.839192 453.130539 
L 646.238938 453.013649 
L 649.638684 461.248133 
L 653.03843 460.999741 
L 656.438176 464.345718 
L 659.837923 456.205164 
L 663.237669 454.764912 
L 666.637415 463.055753 
L 670.037161 460.567666 
L 673.436907 463.625592 
L 676.836653 455.215773 
L 680.236399 453.12219 
L 683.636145 458.889459 
L 687.035891 465.25579 
L 690.435637 463.696561 
L 693.835383 453.057483 
L 697.23513 453.063745 
L 700.458089 462.667511 
L 700.634876 462.742655 
L 704.034622 473.893127 
L 707.434368 473.893127 
" clip-path="url(#p4f694e1ed1)" style="fill: none; stroke: #1f77b4; stroke-width: 1.5; stroke-linecap: square"/>
   </g>
   <g id="line2d_66">
    <path d="M 418.45595 460.496697 
L 418.459349 460.496697 
L 421.855696 459.331971 
L 425.255442 450.141494 
L 428.655188 457.288483 
L 432.054934 451.788391 
L 435.45468 446.275775 
L 438.854426 461.060274 
L 442.254172 423.968569 
L 445.653918 408.257299 
L 449.053665 404.992728 
L 452.453411 405.011514 
L 455.853157 406.3474 
L 459.252903 425.79915 
L 462.652649 430.522759 
L 466.052395 437.427618 
L 469.452141 439.285335 
L 472.851887 420.257311 
L 476.251633 431.09051 
L 479.651379 422.476134 
L 483.051126 429.942483 
L 486.450872 430.923524 
L 489.850618 429.790109 
L 493.250364 431.230361 
L 496.65011 430.147041 
L 500.049856 423.323586 
L 503.449602 428.823679 
L 506.849348 428.495969 
L 510.249094 414.18738 
L 513.64884 428.731837 
L 517.048586 428.717225 
L 520.448333 427.963702 
L 523.848079 427.425173 
L 527.247825 425.38586 
L 530.647571 451.876059 
L 534.047317 448.605226 
L 537.447063 452.218379 
L 540.846809 443.132268 
L 544.246555 434.071205 
L 547.646301 453.648195 
L 551.046047 453.55009 
L 554.445794 452.694289 
L 557.84554 451.861447 
L 561.245286 453.124277 
L 564.645032 453.011561 
L 568.044778 448.168975 
L 571.444524 439.732021 
L 574.84427 452.03052 
L 578.244016 449.696895 
L 581.643762 452.408326 
L 585.043508 452.097315 
L 588.443254 451.590095 
L 591.843001 451.690287 
L 595.242747 451.997123 
L 598.642493 450.878319 
L 602.042239 442.207585 
L 605.441985 451.41476 
L 608.841731 450.538085 
L 612.241477 444.559996 
L 615.641223 447.941457 
L 619.040969 450.195765 
L 622.440715 450.402409 
L 625.840462 449.966159 
L 629.240208 449.991207 
L 632.639954 442.299427 
L 636.0397 446.565912 
L 639.439446 450.049652 
L 642.839192 450.997296 
L 646.238938 435.814119 
L 649.638684 446.480332 
L 653.03843 446.480332 
L 656.438176 443.98807 
L 659.837923 443.869093 
L 663.237669 436.064597 
L 666.637415 444.30743 
L 670.037161 443.649924 
L 673.436907 443.46624 
L 676.836653 443.205325 
L 680.236399 445.722634 
L 681.926073 445.722634 
L 683.636145 449.851357 
L 687.035891 450.617404 
L 690.435637 455.766826 
" clip-path="url(#p4f694e1ed1)" style="fill: none; stroke: #ff7f0e; stroke-width: 1.5; stroke-linecap: square"/>
   </g>
   <g id="patch_12">
    <path d="M 404.007029 680.24 
L 404.007029 374.48 
" style="fill: none; stroke: #000000; stroke-width: 0.8; stroke-linejoin: miter; stroke-linecap: square"/>
   </g>
   <g id="patch_13">
    <path d="M 404.007029 680.24 
L 721.883289 680.24 
" style="fill: none; stroke: #000000; stroke-width: 0.8; stroke-linejoin: miter; stroke-linecap: square"/>
   </g>
   <g id="text_20">
    <!-- Service Mesh = istio-sidecar -->
    <g transform="translate(477.727346 368.48) scale(0.12 -0.12)">
     <defs>
      <path id="DejaVuSans-64" d="M 2906 2969 
L 2906 4863 
L 3481 4863 
L 3481 0 
L 2906 0 
L 2906 525 
Q 2725 213 2448 61 
Q 2172 -91 1784 -91 
Q 1150 -91 751 415 
Q 353 922 353 1747 
Q 353 2572 751 3078 
Q 1150 3584 1784 3584 
Q 2172 3584 2448 3432 
Q 2725 3281 2906 2969 
z
M 947 1747 
Q 947 1113 1208 752 
Q 1469 391 1925 391 
Q 2381 391 2643 752 
Q 2906 1113 2906 1747 
Q 2906 2381 2643 2742 
Q 2381 3103 1925 3103 
Q 1469 3103 1208 2742 
Q 947 2381 947 1747 
z
" transform="scale(0.015625)"/>
     </defs>
     <use xlink:href="#DejaVuSans-53"/>
     <use xlink:href="#DejaVuSans-65" transform="translate(63.476562 0)"/>
     <use xlink:href="#DejaVuSans-72" transform="translate(125 0)"/>
     <use xlink:href="#DejaVuSans-76" transform="translate(166.113281 0)"/>
     <use xlink:href="#DejaVuSans-69" transform="translate(225.292969 0)"/>
     <use xlink:href="#DejaVuSans-63" transform="translate(253.076172 0)"/>
     <use xlink:href="#DejaVuSans-65" transform="translate(308.056641 0)"/>
     <use xlink:href="#DejaVuSans-20" transform="translate(369.580078 0)"/>
     <use xlink:href="#DejaVuSans-4d" transform="translate(401.367188 0)"/>
     <use xlink:href="#DejaVuSans-65" transform="translate(487.646484 0)"/>
     <use xlink:href="#DejaVuSans-73" transform="translate(549.169922 0)"/>
     <use xlink:href="#DejaVuSans-68" transform="translate(601.269531 0)"/>
     <use xlink:href="#DejaVuSans-20" transform="translate(664.648438 0)"/>
     <use xlink:href="#DejaVuSans-3d" transform="translate(696.435547 0)"/>
     <use xlink:href="#DejaVuSans-20" transform="translate(780.224609 0)"/>
     <use xlink:href="#DejaVuSans-69" transform="translate(812.011719 0)"/>
     <use xlink:href="#DejaVuSans-73" transform="translate(839.794922 0)"/>
     <use xlink:href="#DejaVuSans-74" transform="translate(891.894531 0)"/>
     <use xlink:href="#DejaVuSans-69" transform="translate(931.103516 0)"/>
     <use xlink:href="#DejaVuSans-6f" transform="translate(958.886719 0)"/>
     <use xlink:href="#DejaVuSans-2d" transform="translate(1021.943359 0)"/>
     <use xlink:href="#DejaVuSans-73" transform="translate(1058.027344 0)"/>
     <use xlink:href="#DejaVuSans-69" transform="translate(1110.126953 0)"/>
     <use xlink:href="#DejaVuSans-64" transform="translate(1137.910156 0)"/>
     <use xlink:href="#DejaVuSans-65" transform="translate(1201.386719 0)"/>
     <use xlink:href="#DejaVuSans-63" transform="translate(1262.910156 0)"/>
     <use xlink:href="#DejaVuSans-61" transform="translate(1317.890625 0)"/>
     <use xlink:href="#DejaVuSans-72" transform="translate(1379.169922 0)"/>
    </g>
   </g>
  </g>
  <g id="legend_1">
   <g id="text_21">
    <!-- Mode -->
    <g transform="translate(751.217576 16.598437) scale(0.1 -0.1)">
     <use xlink:href="#DejaVuSans-4d"/>
     <use xlink:href="#DejaVuSans-6f" transform="translate(86.279297 0)"/>
     <use xlink:href="#DejaVuSans-64" transform="translate(147.460938 0)"/>
     <use xlink:href="#DejaVuSans-65" transform="translate(210.9375 0)"/>
    </g>
   </g>
   <g id="line2d_67">
    <path d="M 728.408201 27.776562 
L 738.408201 27.776562 
L 748.408201 27.776562 
" style="fill: none; stroke: #1f77b4; stroke-width: 1.5; stroke-linecap: square"/>
   </g>
   <g id="text_22">
    <!-- Baseline -->
    <g transform="translate(756.408201 31.276562) scale(0.1 -0.1)">
     <use xlink:href="#DejaVuSans-42"/>
     <use xlink:href="#DejaVuSans-61" transform="translate(68.603516 0)"/>
     <use xlink:href="#DejaVuSans-73" transform="translate(129.882812 0)"/>
     <use xlink:href="#DejaVuSans-65" transform="translate(181.982422 0)"/>
     <use xlink:href="#DejaVuSans-6c" transform="translate(243.505859 0)"/>
     <use xlink:href="#DejaVuSans-69" transform="translate(271.289062 0)"/>
     <use xlink:href="#DejaVuSans-6e" transform="translate(299.072266 0)"/>
     <use xlink:href="#DejaVuSans-65" transform="translate(362.451172 0)"/>
    </g>
   </g>
   <g id="line2d_68">
    <path d="M 728.408201 42.454687 
L 738.408201 42.454687 
L 748.408201 42.454687 
" style="fill: none; stroke: #ff7f0e; stroke-width: 1.5; stroke-linecap: square"/>
   </g>
   <g id="text_23">
    <!-- eZtunnel -->
    <g transform="translate(756.408201 45.954687) scale(0.1 -0.1)">
     <defs>
      <path id="DejaVuSans-5a" d="M 359 4666 
L 4025 4666 
L 4025 4184 
L 1075 531 
L 4097 531 
L 4097 0 
L 288 0 
L 288 481 
L 3238 4134 
L 359 4134 
L 359 4666 
z
" transform="scale(0.015625)"/>
     </defs>
     <use xlink:href="#DejaVuSans-65"/>
     <use xlink:href="#DejaVuSans-5a" transform="translate(61.523438 0)"/>
     <use xlink:href="#DejaVuSans-74" transform="translate(130.029297 0)"/>
     <use xlink:href="#DejaVuSans-75" transform="translate(169.238281 0)"/>
     <use xlink:href="#DejaVuSans-6e" transform="translate(232.617188 0)"/>
     <use xlink:href="#DejaVuSans-6e" transform="translate(295.996094 0)"/>
     <use xlink:href="#DejaVuSans-65" transform="translate(359.375 0)"/>
     <use xlink:href="#DejaVuSans-6c" transform="translate(420.898438 0)"/>
    </g>
   </g>
  </g>
 </g>
 <defs>
  <clipPath id="p1e50528580">
   <rect x="62.86875" y="26.92" width="317.87626" height="305.76"/>
  </clipPath>
  <clipPath id="pe64d01cb9e">
   <rect x="404.007029" y="26.92" width="317.87626" height="305.76"/>
  </clipPath>
  <clipPath id="p91071a3e6f">
   <rect x="62.86875" y="374.48" width="317.87626" height="305.76"/>
  </clipPath>
  <clipPath id="p4f694e1ed1">
   <rect x="404.007029" y="374.48" width="317.87626" height="305.76"/>
  </clipPath>
 </defs>
</svg>
