<?xml version="1.0" encoding="utf-8" standalone="no"?>
<!DOCTYPE svg PUBLIC "-//W3C//DTD SVG 1.1//EN"
  "http://www.w3.org/Graphics/SVG/1.1/DTD/svg11.dtd">
<svg xmlns:xlink="http://www.w3.org/1999/xlink" width="475.699688pt" height="310.86825pt" viewBox="0 0 475.699688 310.86825" xmlns="http://www.w3.org/2000/svg" version="1.1">
 <metadata>
  <rdf:RDF xmlns:dc="http://purl.org/dc/elements/1.1/" xmlns:cc="http://creativecommons.org/ns#" xmlns:rdf="http://www.w3.org/1999/02/22-rdf-syntax-ns#">
   <cc:Work>
    <dc:type rdf:resource="http://purl.org/dc/dcmitype/StillImage"/>
    <dc:format>image/svg+xml</dc:format>
    <dc:creator>
     <cc:Agent>
      <dc:title>Matplotlib v3.10.0, https://matplotlib.org/</dc:title>
     </cc:Agent>
    </dc:creator>
   </cc:Work>
  </rdf:RDF>
 </metadata>
 <defs>
  <style type="text/css">*{stroke-linejoin: round; stroke-linecap: butt}</style>
 </defs>
 <g id="figure_1">
  <g id="patch_1">
   <path d="M 0 310.86825 
L 475.699687 310.86825 
L 475.699687 0 
L 0 0 
z
" style="fill: #ffffff"/>
  </g>
  <g id="axes_1">
   <g id="patch_2">
    <path d="M 93.884375 273.312 
L 451.004375 273.312 
L 451.004375 7.2 
L 93.884375 7.2 
z
" style="fill: #ffffff"/>
   </g>
   <g id="FillBetweenPolyCollection_1">
    <defs>
     <path id="m7c12dd9896" d="M 148.390485 -270.40425 
L 148.390485 -270.412882 
L 149.083523 -270.434411 
L 149.776561 -270.477793 
L 150.469599 -270.529864 
L 151.162638 -270.571086 
L 151.855676 -270.614289 
L 152.548714 -270.695316 
L 153.241752 -270.878676 
L 153.934791 -271.316505 
L 154.627829 -272.043095 
L 155.320867 -272.728701 
L 156.013905 -273.188802 
L 156.706944 -273.936422 
L 157.399982 -276.442999 
L 158.09302 -282.525033 
L 158.786058 -289.192029 
L 159.479097 -289.681565 
L 160.172135 -285.320964 
L 160.865173 -282.092155 
L 161.558211 -281.329124 
L 162.25125 -281.37136 
L 162.944288 -281.338883 
L 163.637326 -281.294069 
L 164.330364 -281.201988 
L 165.023403 -280.944503 
L 165.716441 -280.530813 
L 166.409479 -280.021103 
L 167.102517 -279.366755 
L 167.795556 -278.606419 
L 168.488594 -277.963786 
L 169.181632 -277.365748 
L 169.87467 -276.789111 
L 170.567709 -276.379747 
L 171.260747 -276.0502 
L 171.953785 -275.781541 
L 172.646824 -275.728675 
L 173.339862 -275.72489 
L 174.0329 -275.422724 
L 174.725938 -274.939666 
L 175.418977 -274.633701 
L 176.112015 -274.554045 
L 176.805053 -274.58122 
L 177.498091 -274.624447 
L 178.19113 -274.470505 
L 178.884168 -274.109908 
L 179.577206 -273.726043 
L 180.270244 -273.391348 
L 180.963283 -273.117714 
L 181.656321 -272.903745 
L 182.349359 -272.730785 
L 183.042397 -272.57902 
L 183.735436 -272.438761 
L 184.428474 -272.292282 
L 185.121512 -272.149171 
L 185.81455 -272.031637 
L 186.507589 -271.927541 
L 187.200627 -271.827467 
L 187.893665 -271.73583 
L 188.586703 -271.651056 
L 189.279742 -271.561517 
L 189.97278 -271.464022 
L 190.665818 -271.371457 
L 191.358856 -271.299791 
L 192.051895 -271.249502 
L 192.744933 -271.196015 
L 193.437971 -271.128702 
L 194.131009 -271.060025 
L 194.824048 -271.009534 
L 195.517086 -270.974918 
L 196.210124 -270.935521 
L 196.903162 -270.895993 
L 197.596201 -270.869172 
L 198.289239 -270.848835 
L 198.982277 -270.825419 
L 199.675315 -270.801106 
L 200.368354 -270.775817 
L 201.061392 -270.747611 
L 201.75443 -270.721587 
L 202.447468 -270.699764 
L 203.140507 -270.684385 
L 203.833545 -270.672689 
L 204.526583 -270.661195 
L 205.219621 -270.651347 
L 205.91266 -270.640471 
L 206.605698 -270.628168 
L 207.298736 -270.616207 
L 207.991774 -270.602266 
L 208.684813 -270.586757 
L 209.377851 -270.576036 
L 210.070889 -270.571434 
L 210.763928 -270.566491 
L 211.456966 -270.560835 
L 212.150004 -270.55535 
L 212.843042 -270.546507 
L 213.536081 -270.536328 
L 214.229119 -270.53006 
L 214.922157 -270.52347 
L 215.615195 -270.513555 
L 216.308234 -270.495229 
L 217.001272 -270.460409 
L 217.001272 -270.40425 
L 217.001272 -270.40425 
L 216.308234 -270.40425 
L 215.615195 -270.40425 
L 214.922157 -270.40425 
L 214.229119 -270.40425 
L 213.536081 -270.40425 
L 212.843042 -270.40425 
L 212.150004 -270.40425 
L 211.456966 -270.40425 
L 210.763928 -270.40425 
L 210.070889 -270.40425 
L 209.377851 -270.40425 
L 208.684813 -270.40425 
L 207.991774 -270.40425 
L 207.298736 -270.40425 
L 206.605698 -270.40425 
L 205.91266 -270.40425 
L 205.219621 -270.40425 
L 204.526583 -270.40425 
L 203.833545 -270.40425 
L 203.140507 -270.40425 
L 202.447468 -270.40425 
L 201.75443 -270.40425 
L 201.061392 -270.40425 
L 200.368354 -270.40425 
L 199.675315 -270.40425 
L 198.982277 -270.40425 
L 198.289239 -270.40425 
L 197.596201 -270.40425 
L 196.903162 -270.40425 
L 196.210124 -270.40425 
L 195.517086 -270.40425 
L 194.824048 -270.40425 
L 194.131009 -270.40425 
L 193.437971 -270.40425 
L 192.744933 -270.40425 
L 192.051895 -270.40425 
L 191.358856 -270.40425 
L 190.665818 -270.40425 
L 189.97278 -270.40425 
L 189.279742 -270.40425 
L 188.586703 -270.40425 
L 187.893665 -270.40425 
L 187.200627 -270.40425 
L 186.507589 -270.40425 
L 185.81455 -270.40425 
L 185.121512 -270.40425 
L 184.428474 -270.40425 
L 183.735436 -270.40425 
L 183.042397 -270.40425 
L 182.349359 -270.40425 
L 181.656321 -270.40425 
L 180.963283 -270.40425 
L 180.270244 -270.40425 
L 179.577206 -270.40425 
L 178.884168 -270.40425 
L 178.19113 -270.40425 
L 177.498091 -270.40425 
L 176.805053 -270.40425 
L 176.112015 -270.40425 
L 175.418977 -270.40425 
L 174.725938 -270.40425 
L 174.0329 -270.40425 
L 173.339862 -270.40425 
L 172.646824 -270.40425 
L 171.953785 -270.40425 
L 171.260747 -270.40425 
L 170.567709 -270.40425 
L 169.87467 -270.40425 
L 169.181632 -270.40425 
L 168.488594 -270.40425 
L 167.795556 -270.40425 
L 167.102517 -270.40425 
L 166.409479 -270.40425 
L 165.716441 -270.40425 
L 165.023403 -270.40425 
L 164.330364 -270.40425 
L 163.637326 -270.40425 
L 162.944288 -270.40425 
L 162.25125 -270.40425 
L 161.558211 -270.40425 
L 160.865173 -270.40425 
L 160.172135 -270.40425 
L 159.479097 -270.40425 
L 158.786058 -270.40425 
L 158.09302 -270.40425 
L 157.399982 -270.40425 
L 156.706944 -270.40425 
L 156.013905 -270.40425 
L 155.320867 -270.40425 
L 154.627829 -270.40425 
L 153.934791 -270.40425 
L 153.241752 -270.40425 
L 152.548714 -270.40425 
L 151.855676 -270.40425 
L 151.162638 -270.40425 
L 150.469599 -270.40425 
L 149.776561 -270.40425 
L 149.083523 -270.40425 
L 148.390485 -270.40425 
z
" style="stroke: #3f3f3f; stroke-width: 1.25"/>
    </defs>
    <g clip-path="url(#p06f28525f3)">
     <use xlink:href="#m7c12dd9896" x="0" y="310.86825" style="fill: #3274a1; stroke: #3f3f3f; stroke-width: 1.25"/>
    </g>
   </g>
   <g id="FillBetweenPolyCollection_2">
    <defs>
     <path id="m6dfd43c396" d="M 143.388573 -270.390516 
L 143.388573 -270.40425 
L 144.132104 -270.40425 
L 144.875635 -270.40425 
L 145.619166 -270.40425 
L 146.362697 -270.40425 
L 147.106228 -270.40425 
L 147.849759 -270.40425 
L 148.59329 -270.40425 
L 149.336821 -270.40425 
L 150.080352 -270.40425 
L 150.823883 -270.40425 
L 151.567414 -270.40425 
L 152.310945 -270.40425 
L 153.054476 -270.40425 
L 153.798007 -270.40425 
L 154.541538 -270.40425 
L 155.285069 -270.40425 
L 156.028601 -270.40425 
L 156.772132 -270.40425 
L 157.515663 -270.40425 
L 158.259194 -270.40425 
L 159.002725 -270.40425 
L 159.746256 -270.40425 
L 160.489787 -270.40425 
L 161.233318 -270.40425 
L 161.976849 -270.40425 
L 162.72038 -270.40425 
L 163.463911 -270.40425 
L 164.207442 -270.40425 
L 164.950973 -270.40425 
L 165.694504 -270.40425 
L 166.438035 -270.40425 
L 167.181566 -270.40425 
L 167.925097 -270.40425 
L 168.668628 -270.40425 
L 169.41216 -270.40425 
L 170.155691 -270.40425 
L 170.899222 -270.40425 
L 171.642753 -270.40425 
L 172.386284 -270.40425 
L 173.129815 -270.40425 
L 173.873346 -270.40425 
L 174.616877 -270.40425 
L 175.360408 -270.40425 
L 176.103939 -270.40425 
L 176.84747 -270.40425 
L 177.591001 -270.40425 
L 178.334532 -270.40425 
L 179.078063 -270.40425 
L 179.821594 -270.40425 
L 180.565125 -270.40425 
L 181.308656 -270.40425 
L 182.052187 -270.40425 
L 182.795718 -270.40425 
L 183.53925 -270.40425 
L 184.282781 -270.40425 
L 185.026312 -270.40425 
L 185.769843 -270.40425 
L 186.513374 -270.40425 
L 187.256905 -270.40425 
L 188.000436 -270.40425 
L 188.743967 -270.40425 
L 189.487498 -270.40425 
L 190.231029 -270.40425 
L 190.97456 -270.40425 
L 191.718091 -270.40425 
L 192.461622 -270.40425 
L 193.205153 -270.40425 
L 193.948684 -270.40425 
L 194.692215 -270.40425 
L 195.435746 -270.40425 
L 196.179277 -270.40425 
L 196.922809 -270.40425 
L 197.66634 -270.40425 
L 198.409871 -270.40425 
L 199.153402 -270.40425 
L 199.896933 -270.40425 
L 200.640464 -270.40425 
L 201.383995 -270.40425 
L 202.127526 -270.40425 
L 202.871057 -270.40425 
L 203.614588 -270.40425 
L 204.358119 -270.40425 
L 205.10165 -270.40425 
L 205.845181 -270.40425 
L 206.588712 -270.40425 
L 207.332243 -270.40425 
L 208.075774 -270.40425 
L 208.819305 -270.40425 
L 209.562836 -270.40425 
L 210.306368 -270.40425 
L 211.049899 -270.40425 
L 211.79343 -270.40425 
L 212.536961 -270.40425 
L 213.280492 -270.40425 
L 214.024023 -270.40425 
L 214.767554 -270.40425 
L 215.511085 -270.40425 
L 216.254616 -270.40425 
L 216.998147 -270.40425 
L 216.998147 -270.388597 
L 216.998147 -270.388597 
L 216.254616 -270.376646 
L 215.511085 -270.37372 
L 214.767554 -270.372179 
L 214.024023 -270.364348 
L 213.280492 -270.363235 
L 212.536961 -270.369209 
L 211.79343 -270.369933 
L 211.049899 -270.366008 
L 210.306368 -270.361818 
L 209.562836 -270.360748 
L 208.819305 -270.360058 
L 208.075774 -270.360653 
L 207.332243 -270.358354 
L 206.588712 -270.354086 
L 205.845181 -270.352965 
L 205.10165 -270.355107 
L 204.358119 -270.3542 
L 203.614588 -270.350994 
L 202.871057 -270.347595 
L 202.127526 -270.344774 
L 201.383995 -270.341219 
L 200.640464 -270.338805 
L 199.896933 -270.33594 
L 199.153402 -270.330699 
L 198.409871 -270.327118 
L 197.66634 -270.319968 
L 196.922809 -270.310118 
L 196.179277 -270.30342 
L 195.435746 -270.299068 
L 194.692215 -270.302465 
L 193.948684 -270.300107 
L 193.205153 -270.291391 
L 192.461622 -270.281601 
L 191.718091 -270.274996 
L 190.97456 -270.264761 
L 190.231029 -270.251093 
L 189.487498 -270.241898 
L 188.743967 -270.227765 
L 188.000436 -270.214421 
L 187.256905 -270.205066 
L 186.513374 -270.198285 
L 185.769843 -270.184363 
L 185.026312 -270.150222 
L 184.282781 -270.122266 
L 183.53925 -270.108373 
L 182.795718 -270.086377 
L 182.052187 -270.0604 
L 181.308656 -270.036316 
L 180.565125 -269.999801 
L 179.821594 -269.957938 
L 179.078063 -269.902421 
L 178.334532 -269.838202 
L 177.591001 -269.797808 
L 176.84747 -269.744371 
L 176.103939 -269.671752 
L 175.360408 -269.59837 
L 174.616877 -269.509846 
L 173.873346 -269.402486 
L 173.129815 -269.299918 
L 172.386284 -269.209647 
L 171.642753 -269.098754 
L 170.899222 -268.96582 
L 170.155691 -268.809186 
L 169.41216 -268.623196 
L 168.668628 -268.457175 
L 167.925097 -268.252606 
L 167.181566 -268.031838 
L 166.438035 -267.80106 
L 165.694504 -267.481633 
L 164.950973 -267.168194 
L 164.207442 -266.883717 
L 163.463911 -266.508948 
L 162.72038 -265.890884 
L 161.976849 -265.293796 
L 161.233318 -264.89576 
L 160.489787 -264.338494 
L 159.746256 -263.558981 
L 159.002725 -262.677671 
L 158.259194 -261.824661 
L 157.515663 -261.355228 
L 156.772132 -261.001569 
L 156.028601 -259.946261 
L 155.285069 -257.568589 
L 154.541538 -254.564522 
L 153.798007 -254.281348 
L 153.054476 -254.441843 
L 152.310945 -250.089677 
L 151.567414 -244.275083 
L 150.823883 -247.489559 
L 150.080352 -261.437879 
L 149.336821 -269.093481 
L 148.59329 -270.227831 
L 147.849759 -270.294572 
L 147.106228 -270.322837 
L 146.362697 -270.33817 
L 145.619166 -270.333953 
L 144.875635 -270.340059 
L 144.132104 -270.365225 
L 143.388573 -270.390516 
z
" style="stroke: #3f3f3f; stroke-width: 1.25"/>
    </defs>
    <g clip-path="url(#p06f28525f3)">
     <use xlink:href="#m6dfd43c396" x="0" y="310.86825" style="fill: #e1812c; stroke: #3f3f3f; stroke-width: 1.25"/>
    </g>
   </g>
   <g id="FillBetweenPolyCollection_3">
    <defs>
     <path id="mcae3953a7f" d="M 145.062349 -203.87625 
L 145.062349 -203.880606 
L 145.700961 -203.893781 
L 146.339572 -203.928974 
L 146.978183 -203.985301 
L 147.616794 -204.036788 
L 148.255406 -204.088135 
L 148.894017 -204.146186 
L 149.532628 -204.16732 
L 150.17124 -204.18268 
L 150.809851 -204.284245 
L 151.448462 -204.63317 
L 152.087073 -205.593623 
L 152.725685 -207.215324 
L 153.364296 -208.585596 
L 154.002907 -208.8957 
L 154.641518 -209.351729 
L 155.28013 -213.035255 
L 155.918741 -222.407848 
L 156.557352 -230.48745 
L 157.195964 -228.043774 
L 157.834575 -220.957229 
L 158.473186 -216.981707 
L 159.111797 -215.959232 
L 159.750409 -215.753065 
L 160.38902 -215.669519 
L 161.027631 -215.633927 
L 161.666242 -215.31888 
L 162.304854 -214.571134 
L 162.943465 -213.552752 
L 163.582076 -212.499434 
L 164.220688 -211.56443 
L 164.859299 -210.934747 
L 165.49791 -210.493104 
L 166.136521 -210.257549 
L 166.775133 -210.360763 
L 167.413744 -210.277959 
L 168.052355 -209.848628 
L 168.690966 -209.612961 
L 169.329578 -209.597644 
L 169.968189 -209.399771 
L 170.6068 -209.218338 
L 171.245412 -209.04486 
L 171.884023 -208.538665 
L 172.522634 -207.939443 
L 173.161245 -207.546803 
L 173.799857 -207.332908 
L 174.438468 -207.130635 
L 175.077079 -206.88756 
L 175.71569 -206.656439 
L 176.354302 -206.441961 
L 176.992913 -206.240599 
L 177.631524 -206.060864 
L 178.270136 -205.889075 
L 178.908747 -205.718927 
L 179.547358 -205.552358 
L 180.185969 -205.405205 
L 180.824581 -205.283801 
L 181.463192 -205.172542 
L 182.101803 -205.074548 
L 182.740414 -204.989216 
L 183.379026 -204.916815 
L 184.017637 -204.852391 
L 184.656248 -204.786123 
L 185.29486 -204.720299 
L 185.933471 -204.652952 
L 186.572082 -204.591959 
L 187.210693 -204.548696 
L 187.849305 -204.51171 
L 188.487916 -204.479207 
L 189.126527 -204.442595 
L 189.765138 -204.395984 
L 190.40375 -204.346553 
L 191.042361 -204.309876 
L 191.680972 -204.28726 
L 192.319584 -204.267876 
L 192.958195 -204.246609 
L 193.596806 -204.227564 
L 194.235417 -204.216721 
L 194.874029 -204.1995 
L 195.51264 -204.169561 
L 196.151251 -204.141201 
L 196.789862 -204.125506 
L 197.428474 -204.114255 
L 198.067085 -204.099554 
L 198.705696 -204.083117 
L 199.344308 -204.071212 
L 199.982919 -204.06661 
L 200.62153 -204.062196 
L 201.260141 -204.052628 
L 201.898753 -204.043731 
L 202.537364 -204.038772 
L 203.175975 -204.034682 
L 203.814586 -204.026533 
L 204.453198 -204.014648 
L 205.091809 -204.003324 
L 205.73042 -203.998703 
L 206.369032 -203.996656 
L 207.007643 -203.98576 
L 207.646254 -203.960685 
L 208.284865 -203.923473 
L 208.284865 -203.87625 
L 208.284865 -203.87625 
L 207.646254 -203.87625 
L 207.007643 -203.87625 
L 206.369032 -203.87625 
L 205.73042 -203.87625 
L 205.091809 -203.87625 
L 204.453198 -203.87625 
L 203.814586 -203.87625 
L 203.175975 -203.87625 
L 202.537364 -203.87625 
L 201.898753 -203.87625 
L 201.260141 -203.87625 
L 200.62153 -203.87625 
L 199.982919 -203.87625 
L 199.344308 -203.87625 
L 198.705696 -203.87625 
L 198.067085 -203.87625 
L 197.428474 -203.87625 
L 196.789862 -203.87625 
L 196.151251 -203.87625 
L 195.51264 -203.87625 
L 194.874029 -203.87625 
L 194.235417 -203.87625 
L 193.596806 -203.87625 
L 192.958195 -203.87625 
L 192.319584 -203.87625 
L 191.680972 -203.87625 
L 191.042361 -203.87625 
L 190.40375 -203.87625 
L 189.765138 -203.87625 
L 189.126527 -203.87625 
L 188.487916 -203.87625 
L 187.849305 -203.87625 
L 187.210693 -203.87625 
L 186.572082 -203.87625 
L 185.933471 -203.87625 
L 185.29486 -203.87625 
L 184.656248 -203.87625 
L 184.017637 -203.87625 
L 183.379026 -203.87625 
L 182.740414 -203.87625 
L 182.101803 -203.87625 
L 181.463192 -203.87625 
L 180.824581 -203.87625 
L 180.185969 -203.87625 
L 179.547358 -203.87625 
L 178.908747 -203.87625 
L 178.270136 -203.87625 
L 177.631524 -203.87625 
L 176.992913 -203.87625 
L 176.354302 -203.87625 
L 175.71569 -203.87625 
L 175.077079 -203.87625 
L 174.438468 -203.87625 
L 173.799857 -203.87625 
L 173.161245 -203.87625 
L 172.522634 -203.87625 
L 171.884023 -203.87625 
L 171.245412 -203.87625 
L 170.6068 -203.87625 
L 169.968189 -203.87625 
L 169.329578 -203.87625 
L 168.690966 -203.87625 
L 168.052355 -203.87625 
L 167.413744 -203.87625 
L 166.775133 -203.87625 
L 166.136521 -203.87625 
L 165.49791 -203.87625 
L 164.859299 -203.87625 
L 164.220688 -203.87625 
L 163.582076 -203.87625 
L 162.943465 -203.87625 
L 162.304854 -203.87625 
L 161.666242 -203.87625 
L 161.027631 -203.87625 
L 160.38902 -203.87625 
L 159.750409 -203.87625 
L 159.111797 -203.87625 
L 158.473186 -203.87625 
L 157.834575 -203.87625 
L 157.195964 -203.87625 
L 156.557352 -203.87625 
L 155.918741 -203.87625 
L 155.28013 -203.87625 
L 154.641518 -203.87625 
L 154.002907 -203.87625 
L 153.364296 -203.87625 
L 152.725685 -203.87625 
L 152.087073 -203.87625 
L 151.448462 -203.87625 
L 150.809851 -203.87625 
L 150.17124 -203.87625 
L 149.532628 -203.87625 
L 148.894017 -203.87625 
L 148.255406 -203.87625 
L 147.616794 -203.87625 
L 146.978183 -203.87625 
L 146.339572 -203.87625 
L 145.700961 -203.87625 
L 145.062349 -203.87625 
z
" style="stroke: #3f3f3f; stroke-width: 1.25"/>
    </defs>
    <g clip-path="url(#p06f28525f3)">
     <use xlink:href="#mcae3953a7f" x="0" y="310.86825" style="fill: #3274a1; stroke: #3f3f3f; stroke-width: 1.25"/>
    </g>
   </g>
   <g id="FillBetweenPolyCollection_4">
    <defs>
     <path id="mbe5268430a" d="M 143.281883 -203.864364 
L 143.281883 -203.87625 
L 143.938393 -203.87625 
L 144.594903 -203.87625 
L 145.251413 -203.87625 
L 145.907923 -203.87625 
L 146.564434 -203.87625 
L 147.220944 -203.87625 
L 147.877454 -203.87625 
L 148.533964 -203.87625 
L 149.190474 -203.87625 
L 149.846984 -203.87625 
L 150.503494 -203.87625 
L 151.160004 -203.87625 
L 151.816514 -203.87625 
L 152.473025 -203.87625 
L 153.129535 -203.87625 
L 153.786045 -203.87625 
L 154.442555 -203.87625 
L 155.099065 -203.87625 
L 155.755575 -203.87625 
L 156.412085 -203.87625 
L 157.068595 -203.87625 
L 157.725105 -203.87625 
L 158.381616 -203.87625 
L 159.038126 -203.87625 
L 159.694636 -203.87625 
L 160.351146 -203.87625 
L 161.007656 -203.87625 
L 161.664166 -203.87625 
L 162.320676 -203.87625 
L 162.977186 -203.87625 
L 163.633696 -203.87625 
L 164.290206 -203.87625 
L 164.946717 -203.87625 
L 165.603227 -203.87625 
L 166.259737 -203.87625 
L 166.916247 -203.87625 
L 167.572757 -203.87625 
L 168.229267 -203.87625 
L 168.885777 -203.87625 
L 169.542287 -203.87625 
L 170.198797 -203.87625 
L 170.855308 -203.87625 
L 171.511818 -203.87625 
L 172.168328 -203.87625 
L 172.824838 -203.87625 
L 173.481348 -203.87625 
L 174.137858 -203.87625 
L 174.794368 -203.87625 
L 175.450878 -203.87625 
L 176.107388 -203.87625 
L 176.763899 -203.87625 
L 177.420409 -203.87625 
L 178.076919 -203.87625 
L 178.733429 -203.87625 
L 179.389939 -203.87625 
L 180.046449 -203.87625 
L 180.702959 -203.87625 
L 181.359469 -203.87625 
L 182.015979 -203.87625 
L 182.67249 -203.87625 
L 183.329 -203.87625 
L 183.98551 -203.87625 
L 184.64202 -203.87625 
L 185.29853 -203.87625 
L 185.95504 -203.87625 
L 186.61155 -203.87625 
L 187.26806 -203.87625 
L 187.92457 -203.87625 
L 188.581081 -203.87625 
L 189.237591 -203.87625 
L 189.894101 -203.87625 
L 190.550611 -203.87625 
L 191.207121 -203.87625 
L 191.863631 -203.87625 
L 192.520141 -203.87625 
L 193.176651 -203.87625 
L 193.833161 -203.87625 
L 194.489672 -203.87625 
L 195.146182 -203.87625 
L 195.802692 -203.87625 
L 196.459202 -203.87625 
L 197.115712 -203.87625 
L 197.772222 -203.87625 
L 198.428732 -203.87625 
L 199.085242 -203.87625 
L 199.741752 -203.87625 
L 200.398262 -203.87625 
L 201.054773 -203.87625 
L 201.711283 -203.87625 
L 202.367793 -203.87625 
L 203.024303 -203.87625 
L 203.680813 -203.87625 
L 204.337323 -203.87625 
L 204.993833 -203.87625 
L 205.650343 -203.87625 
L 206.306853 -203.87625 
L 206.963364 -203.87625 
L 207.619874 -203.87625 
L 208.276384 -203.87625 
L 208.276384 -203.850378 
L 208.276384 -203.850378 
L 207.619874 -203.833468 
L 206.963364 -203.829234 
L 206.306853 -203.828683 
L 205.650343 -203.826908 
L 204.993833 -203.824013 
L 204.337323 -203.823365 
L 203.680813 -203.821729 
L 203.024303 -203.823315 
L 202.367793 -203.821703 
L 201.711283 -203.813968 
L 201.054773 -203.810527 
L 200.398262 -203.809828 
L 199.741752 -203.806186 
L 199.085242 -203.801322 
L 198.428732 -203.796547 
L 197.772222 -203.797549 
L 197.115712 -203.797061 
L 196.459202 -203.788344 
L 195.802692 -203.780944 
L 195.146182 -203.774386 
L 194.489672 -203.773122 
L 193.833161 -203.770684 
L 193.176651 -203.760856 
L 192.520141 -203.75383 
L 191.863631 -203.750719 
L 191.207121 -203.745353 
L 190.550611 -203.736297 
L 189.894101 -203.725855 
L 189.237591 -203.717955 
L 188.581081 -203.710711 
L 187.92457 -203.700935 
L 187.26806 -203.687164 
L 186.61155 -203.675632 
L 185.95504 -203.666565 
L 185.29853 -203.651939 
L 184.64202 -203.633491 
L 183.98551 -203.613215 
L 183.329 -203.589705 
L 182.67249 -203.566865 
L 182.015979 -203.542655 
L 181.359469 -203.510642 
L 180.702959 -203.474962 
L 180.046449 -203.44379 
L 179.389939 -203.406038 
L 178.733429 -203.361579 
L 178.076919 -203.322654 
L 177.420409 -203.272266 
L 176.763899 -203.205922 
L 176.107388 -203.149463 
L 175.450878 -203.101352 
L 174.794368 -203.029975 
L 174.137858 -202.951383 
L 173.481348 -202.873437 
L 172.824838 -202.777921 
L 172.168328 -202.661121 
L 171.511818 -202.547959 
L 170.855308 -202.430908 
L 170.198797 -202.295026 
L 169.542287 -202.149566 
L 168.885777 -202.01341 
L 168.229267 -201.860306 
L 167.572757 -201.669984 
L 166.916247 -201.418916 
L 166.259737 -201.094503 
L 165.603227 -200.751808 
L 164.946717 -200.470835 
L 164.290206 -200.27349 
L 163.633696 -200.032391 
L 162.977186 -199.545757 
L 162.320676 -199.003767 
L 161.664166 -198.648834 
L 161.007656 -198.303973 
L 160.351146 -197.692172 
L 159.694636 -196.826736 
L 159.038126 -195.981616 
L 158.381616 -195.181809 
L 157.725105 -194.706942 
L 157.068595 -194.545974 
L 156.412085 -193.967233 
L 155.755575 -192.352288 
L 155.099065 -189.306502 
L 154.442555 -186.984465 
L 153.786045 -187.892149 
L 153.129535 -188.064874 
L 152.473025 -184.998736 
L 151.816514 -179.555224 
L 151.160004 -177.26505 
L 150.503494 -187.545855 
L 149.846984 -199.608748 
L 149.190474 -203.376908 
L 148.533964 -203.7557 
L 147.877454 -203.771525 
L 147.220944 -203.787806 
L 146.564434 -203.807064 
L 145.907923 -203.820672 
L 145.251413 -203.82396 
L 144.594903 -203.827686 
L 143.938393 -203.843932 
L 143.281883 -203.864364 
z
" style="stroke: #3f3f3f; stroke-width: 1.25"/>
    </defs>
    <g clip-path="url(#p06f28525f3)">
     <use xlink:href="#mbe5268430a" x="0" y="310.86825" style="fill: #e1812c; stroke: #3f3f3f; stroke-width: 1.25"/>
    </g>
   </g>
   <g id="FillBetweenPolyCollection_5">
    <defs>
     <path id="mca2a49b7ae" d="M 147.689413 -137.34825 
L 147.689413 -137.349209 
L 148.404814 -137.352623 
L 149.120216 -137.364494 
L 149.835617 -137.393622 
L 150.551018 -137.440237 
L 151.266419 -137.488558 
L 151.98182 -137.538329 
L 152.697221 -137.634579 
L 153.412622 -137.880954 
L 154.128023 -138.433254 
L 154.843424 -139.273781 
L 155.558825 -140.015877 
L 156.274226 -140.774594 
L 156.989628 -143.032297 
L 157.705029 -148.514767 
L 158.42043 -154.142815 
L 159.135831 -154.094646 
L 159.851232 -150.481704 
L 160.566633 -148.428905 
L 161.282034 -148.413509 
L 161.997435 -148.735173 
L 162.712836 -148.712077 
L 163.428237 -148.504744 
L 164.143638 -148.202731 
L 164.85904 -147.840364 
L 165.574441 -147.417018 
L 166.289842 -146.876493 
L 167.005243 -146.189705 
L 167.720644 -145.520685 
L 168.436045 -144.889728 
L 169.151446 -144.301826 
L 169.866847 -143.87333 
L 170.582248 -143.500364 
L 171.297649 -143.216748 
L 172.01305 -143.131228 
L 172.728452 -142.962255 
L 173.443853 -142.515136 
L 174.159254 -142.009474 
L 174.874655 -141.654036 
L 175.590056 -141.508226 
L 176.305457 -141.554335 
L 177.020858 -141.692822 
L 177.736259 -141.666861 
L 178.45166 -141.374598 
L 179.167061 -141.043302 
L 179.882462 -140.791749 
L 180.597864 -140.542132 
L 181.313265 -140.248666 
L 182.028666 -139.977424 
L 182.744067 -139.755564 
L 183.459468 -139.541717 
L 184.174869 -139.345864 
L 184.89027 -139.182102 
L 185.605671 -139.030929 
L 186.321072 -138.891639 
L 187.036473 -138.76672 
L 187.751874 -138.660575 
L 188.467276 -138.566204 
L 189.182677 -138.469674 
L 189.898078 -138.377829 
L 190.613479 -138.302376 
L 191.32888 -138.228713 
L 192.044281 -138.14841 
L 192.759682 -138.084387 
L 193.475083 -138.044102 
L 194.190484 -138.005011 
L 194.905885 -137.957882 
L 195.621286 -137.914098 
L 196.336688 -137.882864 
L 197.052089 -137.851858 
L 197.76749 -137.808448 
L 198.482891 -137.767465 
L 199.198292 -137.744095 
L 199.913693 -137.736412 
L 200.629094 -137.725536 
L 201.344495 -137.704816 
L 202.059896 -137.682589 
L 202.775297 -137.657273 
L 203.490698 -137.632677 
L 204.2061 -137.613572 
L 204.921501 -137.598787 
L 205.636902 -137.584784 
L 206.352303 -137.567374 
L 207.067704 -137.553575 
L 207.783105 -137.54866 
L 208.498506 -137.540167 
L 209.213907 -137.522642 
L 209.929308 -137.506097 
L 210.644709 -137.496652 
L 211.36011 -137.492448 
L 212.075512 -137.491266 
L 212.790913 -137.487881 
L 213.506314 -137.478328 
L 214.221715 -137.468655 
L 214.937116 -137.463303 
L 215.652517 -137.459695 
L 216.367918 -137.455152 
L 217.083319 -137.448789 
L 217.79872 -137.431697 
L 218.514121 -137.396752 
L 218.514121 -137.34825 
L 218.514121 -137.34825 
L 217.79872 -137.34825 
L 217.083319 -137.34825 
L 216.367918 -137.34825 
L 215.652517 -137.34825 
L 214.937116 -137.34825 
L 214.221715 -137.34825 
L 213.506314 -137.34825 
L 212.790913 -137.34825 
L 212.075512 -137.34825 
L 211.36011 -137.34825 
L 210.644709 -137.34825 
L 209.929308 -137.34825 
L 209.213907 -137.34825 
L 208.498506 -137.34825 
L 207.783105 -137.34825 
L 207.067704 -137.34825 
L 206.352303 -137.34825 
L 205.636902 -137.34825 
L 204.921501 -137.34825 
L 204.2061 -137.34825 
L 203.490698 -137.34825 
L 202.775297 -137.34825 
L 202.059896 -137.34825 
L 201.344495 -137.34825 
L 200.629094 -137.34825 
L 199.913693 -137.34825 
L 199.198292 -137.34825 
L 198.482891 -137.34825 
L 197.76749 -137.34825 
L 197.052089 -137.34825 
L 196.336688 -137.34825 
L 195.621286 -137.34825 
L 194.905885 -137.34825 
L 194.190484 -137.34825 
L 193.475083 -137.34825 
L 192.759682 -137.34825 
L 192.044281 -137.34825 
L 191.32888 -137.34825 
L 190.613479 -137.34825 
L 189.898078 -137.34825 
L 189.182677 -137.34825 
L 188.467276 -137.34825 
L 187.751874 -137.34825 
L 187.036473 -137.34825 
L 186.321072 -137.34825 
L 185.605671 -137.34825 
L 184.89027 -137.34825 
L 184.174869 -137.34825 
L 183.459468 -137.34825 
L 182.744067 -137.34825 
L 182.028666 -137.34825 
L 181.313265 -137.34825 
L 180.597864 -137.34825 
L 179.882462 -137.34825 
L 179.167061 -137.34825 
L 178.45166 -137.34825 
L 177.736259 -137.34825 
L 177.020858 -137.34825 
L 176.305457 -137.34825 
L 175.590056 -137.34825 
L 174.874655 -137.34825 
L 174.159254 -137.34825 
L 173.443853 -137.34825 
L 172.728452 -137.34825 
L 172.01305 -137.34825 
L 171.297649 -137.34825 
L 170.582248 -137.34825 
L 169.866847 -137.34825 
L 169.151446 -137.34825 
L 168.436045 -137.34825 
L 167.720644 -137.34825 
L 167.005243 -137.34825 
L 166.289842 -137.34825 
L 165.574441 -137.34825 
L 164.85904 -137.34825 
L 164.143638 -137.34825 
L 163.428237 -137.34825 
L 162.712836 -137.34825 
L 161.997435 -137.34825 
L 161.282034 -137.34825 
L 160.566633 -137.34825 
L 159.851232 -137.34825 
L 159.135831 -137.34825 
L 158.42043 -137.34825 
L 157.705029 -137.34825 
L 156.989628 -137.34825 
L 156.274226 -137.34825 
L 155.558825 -137.34825 
L 154.843424 -137.34825 
L 154.128023 -137.34825 
L 153.412622 -137.34825 
L 152.697221 -137.34825 
L 151.98182 -137.34825 
L 151.266419 -137.34825 
L 150.551018 -137.34825 
L 149.835617 -137.34825 
L 149.120216 -137.34825 
L 148.404814 -137.34825 
L 147.689413 -137.34825 
z
" style="stroke: #3f3f3f; stroke-width: 1.25"/>
    </defs>
    <g clip-path="url(#p06f28525f3)">
     <use xlink:href="#mca2a49b7ae" x="0" y="310.86825" style="fill: #3274a1; stroke: #3f3f3f; stroke-width: 1.25"/>
    </g>
   </g>
   <g id="FillBetweenPolyCollection_6">
    <defs>
     <path id="mb1a2b62f3e" d="M 143.10801 -137.336241 
L 143.10801 -137.34825 
L 143.869704 -137.34825 
L 144.631398 -137.34825 
L 145.393091 -137.34825 
L 146.154785 -137.34825 
L 146.916479 -137.34825 
L 147.678172 -137.34825 
L 148.439866 -137.34825 
L 149.20156 -137.34825 
L 149.963253 -137.34825 
L 150.724947 -137.34825 
L 151.486641 -137.34825 
L 152.248334 -137.34825 
L 153.010028 -137.34825 
L 153.771722 -137.34825 
L 154.533415 -137.34825 
L 155.295109 -137.34825 
L 156.056803 -137.34825 
L 156.818496 -137.34825 
L 157.58019 -137.34825 
L 158.341884 -137.34825 
L 159.103577 -137.34825 
L 159.865271 -137.34825 
L 160.626965 -137.34825 
L 161.388658 -137.34825 
L 162.150352 -137.34825 
L 162.912046 -137.34825 
L 163.673739 -137.34825 
L 164.435433 -137.34825 
L 165.197127 -137.34825 
L 165.95882 -137.34825 
L 166.720514 -137.34825 
L 167.482208 -137.34825 
L 168.243901 -137.34825 
L 169.005595 -137.34825 
L 169.767289 -137.34825 
L 170.528982 -137.34825 
L 171.290676 -137.34825 
L 172.05237 -137.34825 
L 172.814063 -137.34825 
L 173.575757 -137.34825 
L 174.337451 -137.34825 
L 175.099144 -137.34825 
L 175.860838 -137.34825 
L 176.622532 -137.34825 
L 177.384225 -137.34825 
L 178.145919 -137.34825 
L 178.907613 -137.34825 
L 179.669306 -137.34825 
L 180.431 -137.34825 
L 181.192694 -137.34825 
L 181.954388 -137.34825 
L 182.716081 -137.34825 
L 183.477775 -137.34825 
L 184.239469 -137.34825 
L 185.001162 -137.34825 
L 185.762856 -137.34825 
L 186.52455 -137.34825 
L 187.286243 -137.34825 
L 188.047937 -137.34825 
L 188.809631 -137.34825 
L 189.571324 -137.34825 
L 190.333018 -137.34825 
L 191.094712 -137.34825 
L 191.856405 -137.34825 
L 192.618099 -137.34825 
L 193.379793 -137.34825 
L 194.141486 -137.34825 
L 194.90318 -137.34825 
L 195.664874 -137.34825 
L 196.426567 -137.34825 
L 197.188261 -137.34825 
L 197.949955 -137.34825 
L 198.711648 -137.34825 
L 199.473342 -137.34825 
L 200.235036 -137.34825 
L 200.996729 -137.34825 
L 201.758423 -137.34825 
L 202.520117 -137.34825 
L 203.28181 -137.34825 
L 204.043504 -137.34825 
L 204.805198 -137.34825 
L 205.566891 -137.34825 
L 206.328585 -137.34825 
L 207.090279 -137.34825 
L 207.851972 -137.34825 
L 208.613666 -137.34825 
L 209.37536 -137.34825 
L 210.137053 -137.34825 
L 210.898747 -137.34825 
L 211.660441 -137.34825 
L 212.422134 -137.34825 
L 213.183828 -137.34825 
L 213.945522 -137.34825 
L 214.707215 -137.34825 
L 215.468909 -137.34825 
L 216.230603 -137.34825 
L 216.992296 -137.34825 
L 217.75399 -137.34825 
L 218.515684 -137.34825 
L 218.515684 -137.331419 
L 218.515684 -137.331419 
L 217.75399 -137.318251 
L 216.992296 -137.315884 
L 216.230603 -137.312586 
L 215.468909 -137.310541 
L 214.707215 -137.310632 
L 213.945522 -137.306277 
L 213.183828 -137.306453 
L 212.422134 -137.311199 
L 211.660441 -137.308634 
L 210.898747 -137.303469 
L 210.137053 -137.303494 
L 209.37536 -137.305303 
L 208.613666 -137.303695 
L 207.851972 -137.299474 
L 207.090279 -137.291737 
L 206.328585 -137.289629 
L 205.566891 -137.288878 
L 204.805198 -137.287215 
L 204.043504 -137.285534 
L 203.28181 -137.281849 
L 202.520117 -137.280708 
L 201.758423 -137.277266 
L 200.996729 -137.272385 
L 200.235036 -137.270063 
L 199.473342 -137.272028 
L 198.711648 -137.268136 
L 197.949955 -137.25654 
L 197.188261 -137.251359 
L 196.426567 -137.250566 
L 195.664874 -137.249002 
L 194.90318 -137.241172 
L 194.141486 -137.236027 
L 193.379793 -137.228291 
L 192.618099 -137.218574 
L 191.856405 -137.210737 
L 191.094712 -137.200556 
L 190.333018 -137.188503 
L 189.571324 -137.180999 
L 188.809631 -137.174897 
L 188.047937 -137.159132 
L 187.286243 -137.137148 
L 186.52455 -137.12133 
L 185.762856 -137.105032 
L 185.001162 -137.080722 
L 184.239469 -137.065212 
L 183.477775 -137.051791 
L 182.716081 -137.02606 
L 181.954388 -136.998302 
L 181.192694 -136.97197 
L 180.431 -136.932581 
L 179.669306 -136.88832 
L 178.907613 -136.833949 
L 178.145919 -136.776999 
L 177.384225 -136.726277 
L 176.622532 -136.665219 
L 175.860838 -136.584111 
L 175.099144 -136.498236 
L 174.337451 -136.417611 
L 173.575757 -136.341481 
L 172.814063 -136.249894 
L 172.05237 -136.148496 
L 171.290676 -136.052229 
L 170.528982 -135.923529 
L 169.767289 -135.748332 
L 169.005595 -135.595255 
L 168.243901 -135.458646 
L 167.482208 -135.244951 
L 166.720514 -134.961506 
L 165.95882 -134.653323 
L 165.197127 -134.364682 
L 164.435433 -134.100303 
L 163.673739 -133.766806 
L 162.912046 -133.269178 
L 162.150352 -132.623171 
L 161.388658 -132.136224 
L 160.626965 -131.708969 
L 159.865271 -131.010883 
L 159.103577 -130.086901 
L 158.341884 -129.078708 
L 157.58019 -128.32976 
L 156.818496 -128.030512 
L 156.056803 -127.385599 
L 155.295109 -125.400079 
L 154.533415 -121.726915 
L 153.771722 -120.18031 
L 153.010028 -121.094013 
L 152.248334 -118.415407 
L 151.486641 -112.732781 
L 150.724947 -113.389544 
L 149.963253 -126.786887 
L 149.20156 -135.63489 
L 148.439866 -137.09723 
L 147.678172 -137.200831 
L 146.916479 -137.241594 
L 146.154785 -137.250221 
L 145.393091 -137.242446 
L 144.631398 -137.261472 
L 143.869704 -137.305291 
L 143.10801 -137.336241 
z
" style="stroke: #3f3f3f; stroke-width: 1.25"/>
    </defs>
    <g clip-path="url(#p06f28525f3)">
     <use xlink:href="#mb1a2b62f3e" x="0" y="310.86825" style="fill: #e1812c; stroke: #3f3f3f; stroke-width: 1.25"/>
    </g>
   </g>
   <g id="FillBetweenPolyCollection_7">
    <defs>
     <path id="mc1c960bba6" d="M 187.117247 -70.82025 
L 187.117247 -70.823389 
L 189.562714 -70.832676 
L 192.008181 -70.857838 
L 194.453648 -70.913184 
L 196.899116 -71.018434 
L 199.344583 -71.19349 
L 201.79005 -71.441258 
L 204.235517 -71.738164 
L 206.680984 -72.048274 
L 209.126451 -72.338391 
L 211.571918 -72.59121 
L 214.017385 -72.810351 
L 216.462853 -73.013826 
L 218.90832 -73.20522 
L 221.353787 -73.36785 
L 223.799254 -73.493406 
L 226.244721 -73.586627 
L 228.690188 -73.650452 
L 231.135655 -73.686662 
L 233.581122 -73.701982 
L 236.02659 -73.711851 
L 238.472057 -73.724644 
L 240.917524 -73.721986 
L 243.362991 -73.697761 
L 245.808458 -73.660454 
L 248.253925 -73.603317 
L 250.699392 -73.524029 
L 253.144859 -73.435014 
L 255.590327 -73.338346 
L 258.035794 -73.223641 
L 260.481261 -73.090153 
L 262.926728 -72.94972 
L 265.372195 -72.81149 
L 267.817662 -72.679802 
L 270.263129 -72.550377 
L 272.708596 -72.422188 
L 275.154064 -72.305811 
L 277.599531 -72.207796 
L 280.044998 -72.12294 
L 282.490465 -72.04299 
L 284.935932 -71.964009 
L 287.381399 -71.886939 
L 289.826866 -71.818714 
L 292.272333 -71.757639 
L 294.717801 -71.69662 
L 297.163268 -71.638192 
L 299.608735 -71.588831 
L 302.054202 -71.545627 
L 304.499669 -71.50535 
L 306.945136 -71.467638 
L 309.390603 -71.42878 
L 311.83607 -71.389395 
L 314.281538 -71.353233 
L 316.727005 -71.31735 
L 319.172472 -71.283689 
L 321.617939 -71.256266 
L 324.063406 -71.230978 
L 326.508873 -71.205158 
L 328.95434 -71.180247 
L 331.399808 -71.157799 
L 333.845275 -71.136722 
L 336.290742 -71.116415 
L 338.736209 -71.09884 
L 341.181676 -71.082749 
L 343.627143 -71.064202 
L 346.07261 -71.046127 
L 348.518077 -71.032883 
L 350.963545 -71.021763 
L 353.409012 -71.009988 
L 355.854479 -70.998706 
L 358.299946 -70.988373 
L 360.745413 -70.97689 
L 363.19088 -70.964188 
L 365.636347 -70.952079 
L 368.081814 -70.940513 
L 370.527282 -70.929748 
L 372.972749 -70.920218 
L 375.418216 -70.911844 
L 377.863683 -70.904301 
L 380.30915 -70.897698 
L 382.754617 -70.89275 
L 385.200084 -70.888976 
L 387.645551 -70.885248 
L 390.091019 -70.881494 
L 392.536486 -70.877718 
L 394.981953 -70.874389 
L 397.42742 -70.871499 
L 399.872887 -70.86801 
L 402.318354 -70.864737 
L 404.763821 -70.862846 
L 407.209288 -70.861976 
L 409.654756 -70.860976 
L 412.100223 -70.859315 
L 414.54569 -70.857181 
L 416.991157 -70.854806 
L 419.436624 -70.85291 
L 421.882091 -70.851903 
L 424.327558 -70.850219 
L 426.773025 -70.844912 
L 429.218493 -70.835231 
L 429.218493 -70.82025 
L 429.218493 -70.82025 
L 426.773025 -70.82025 
L 424.327558 -70.82025 
L 421.882091 -70.82025 
L 419.436624 -70.82025 
L 416.991157 -70.82025 
L 414.54569 -70.82025 
L 412.100223 -70.82025 
L 409.654756 -70.82025 
L 407.209288 -70.82025 
L 404.763821 -70.82025 
L 402.318354 -70.82025 
L 399.872887 -70.82025 
L 397.42742 -70.82025 
L 394.981953 -70.82025 
L 392.536486 -70.82025 
L 390.091019 -70.82025 
L 387.645551 -70.82025 
L 385.200084 -70.82025 
L 382.754617 -70.82025 
L 380.30915 -70.82025 
L 377.863683 -70.82025 
L 375.418216 -70.82025 
L 372.972749 -70.82025 
L 370.527282 -70.82025 
L 368.081814 -70.82025 
L 365.636347 -70.82025 
L 363.19088 -70.82025 
L 360.745413 -70.82025 
L 358.299946 -70.82025 
L 355.854479 -70.82025 
L 353.409012 -70.82025 
L 350.963545 -70.82025 
L 348.518077 -70.82025 
L 346.07261 -70.82025 
L 343.627143 -70.82025 
L 341.181676 -70.82025 
L 338.736209 -70.82025 
L 336.290742 -70.82025 
L 333.845275 -70.82025 
L 331.399808 -70.82025 
L 328.95434 -70.82025 
L 326.508873 -70.82025 
L 324.063406 -70.82025 
L 321.617939 -70.82025 
L 319.172472 -70.82025 
L 316.727005 -70.82025 
L 314.281538 -70.82025 
L 311.83607 -70.82025 
L 309.390603 -70.82025 
L 306.945136 -70.82025 
L 304.499669 -70.82025 
L 302.054202 -70.82025 
L 299.608735 -70.82025 
L 297.163268 -70.82025 
L 294.717801 -70.82025 
L 292.272333 -70.82025 
L 289.826866 -70.82025 
L 287.381399 -70.82025 
L 284.935932 -70.82025 
L 282.490465 -70.82025 
L 280.044998 -70.82025 
L 277.599531 -70.82025 
L 275.154064 -70.82025 
L 272.708596 -70.82025 
L 270.263129 -70.82025 
L 267.817662 -70.82025 
L 265.372195 -70.82025 
L 262.926728 -70.82025 
L 260.481261 -70.82025 
L 258.035794 -70.82025 
L 255.590327 -70.82025 
L 253.144859 -70.82025 
L 250.699392 -70.82025 
L 248.253925 -70.82025 
L 245.808458 -70.82025 
L 243.362991 -70.82025 
L 240.917524 -70.82025 
L 238.472057 -70.82025 
L 236.02659 -70.82025 
L 233.581122 -70.82025 
L 231.135655 -70.82025 
L 228.690188 -70.82025 
L 226.244721 -70.82025 
L 223.799254 -70.82025 
L 221.353787 -70.82025 
L 218.90832 -70.82025 
L 216.462853 -70.82025 
L 214.017385 -70.82025 
L 211.571918 -70.82025 
L 209.126451 -70.82025 
L 206.680984 -70.82025 
L 204.235517 -70.82025 
L 201.79005 -70.82025 
L 199.344583 -70.82025 
L 196.899116 -70.82025 
L 194.453648 -70.82025 
L 192.008181 -70.82025 
L 189.562714 -70.82025 
L 187.117247 -70.82025 
z
" style="stroke: #3f3f3f; stroke-width: 1.25"/>
    </defs>
    <g clip-path="url(#p06f28525f3)">
     <use xlink:href="#mc1c960bba6" x="0" y="310.86825" style="fill: #3274a1; stroke: #3f3f3f; stroke-width: 1.25"/>
    </g>
   </g>
   <g id="FillBetweenPolyCollection_8">
    <defs>
     <path id="m2a206aadb3" d="M 174.149997 -70.777126 
L 174.149997 -70.82025 
L 176.72604 -70.82025 
L 179.302084 -70.82025 
L 181.878128 -70.82025 
L 184.454171 -70.82025 
L 187.030215 -70.82025 
L 189.606258 -70.82025 
L 192.182302 -70.82025 
L 194.758346 -70.82025 
L 197.334389 -70.82025 
L 199.910433 -70.82025 
L 202.486477 -70.82025 
L 205.06252 -70.82025 
L 207.638564 -70.82025 
L 210.214608 -70.82025 
L 212.790651 -70.82025 
L 215.366695 -70.82025 
L 217.942738 -70.82025 
L 220.518782 -70.82025 
L 223.094826 -70.82025 
L 225.670869 -70.82025 
L 228.246913 -70.82025 
L 230.822957 -70.82025 
L 233.399 -70.82025 
L 235.975044 -70.82025 
L 238.551088 -70.82025 
L 241.127131 -70.82025 
L 243.703175 -70.82025 
L 246.279218 -70.82025 
L 248.855262 -70.82025 
L 251.431306 -70.82025 
L 254.007349 -70.82025 
L 256.583393 -70.82025 
L 259.159437 -70.82025 
L 261.73548 -70.82025 
L 264.311524 -70.82025 
L 266.887568 -70.82025 
L 269.463611 -70.82025 
L 272.039655 -70.82025 
L 274.615698 -70.82025 
L 277.191742 -70.82025 
L 279.767786 -70.82025 
L 282.343829 -70.82025 
L 284.919873 -70.82025 
L 287.495917 -70.82025 
L 290.07196 -70.82025 
L 292.648004 -70.82025 
L 295.224048 -70.82025 
L 297.800091 -70.82025 
L 300.376135 -70.82025 
L 302.952178 -70.82025 
L 305.528222 -70.82025 
L 308.104266 -70.82025 
L 310.680309 -70.82025 
L 313.256353 -70.82025 
L 315.832397 -70.82025 
L 318.40844 -70.82025 
L 320.984484 -70.82025 
L 323.560528 -70.82025 
L 326.136571 -70.82025 
L 328.712615 -70.82025 
L 331.288658 -70.82025 
L 333.864702 -70.82025 
L 336.440746 -70.82025 
L 339.016789 -70.82025 
L 341.592833 -70.82025 
L 344.168877 -70.82025 
L 346.74492 -70.82025 
L 349.320964 -70.82025 
L 351.897008 -70.82025 
L 354.473051 -70.82025 
L 357.049095 -70.82025 
L 359.625138 -70.82025 
L 362.201182 -70.82025 
L 364.777226 -70.82025 
L 367.353269 -70.82025 
L 369.929313 -70.82025 
L 372.505357 -70.82025 
L 375.0814 -70.82025 
L 377.657444 -70.82025 
L 380.233488 -70.82025 
L 382.809531 -70.82025 
L 385.385575 -70.82025 
L 387.961618 -70.82025 
L 390.537662 -70.82025 
L 393.113706 -70.82025 
L 395.689749 -70.82025 
L 398.265793 -70.82025 
L 400.841837 -70.82025 
L 403.41788 -70.82025 
L 405.993924 -70.82025 
L 408.569968 -70.82025 
L 411.146011 -70.82025 
L 413.722055 -70.82025 
L 416.298098 -70.82025 
L 418.874142 -70.82025 
L 421.450186 -70.82025 
L 424.026229 -70.82025 
L 426.602273 -70.82025 
L 429.178317 -70.82025 
L 429.178317 -70.816682 
L 429.178317 -70.816682 
L 426.602273 -70.814529 
L 424.026229 -70.813696 
L 421.450186 -70.81365 
L 418.874142 -70.813572 
L 416.298098 -70.813118 
L 413.722055 -70.812092 
L 411.146011 -70.812644 
L 408.569968 -70.812088 
L 405.993924 -70.811615 
L 403.41788 -70.811461 
L 400.841837 -70.81129 
L 398.265793 -70.810725 
L 395.689749 -70.810957 
L 393.113706 -70.810818 
L 390.537662 -70.809826 
L 387.961618 -70.808605 
L 385.385575 -70.809231 
L 382.809531 -70.809058 
L 380.233488 -70.807573 
L 377.657444 -70.807466 
L 375.0814 -70.807507 
L 372.505357 -70.807541 
L 369.929313 -70.806326 
L 367.353269 -70.805581 
L 364.777226 -70.805482 
L 362.201182 -70.805939 
L 359.625138 -70.805124 
L 357.049095 -70.803755 
L 354.473051 -70.803008 
L 351.897008 -70.802609 
L 349.320964 -70.80322 
L 346.74492 -70.802066 
L 344.168877 -70.800845 
L 341.592833 -70.800642 
L 339.016789 -70.800855 
L 336.440746 -70.800827 
L 333.864702 -70.799411 
L 331.288658 -70.797761 
L 328.712615 -70.795274 
L 326.136571 -70.794921 
L 323.560528 -70.794248 
L 320.984484 -70.79176 
L 318.40844 -70.790062 
L 315.832397 -70.788533 
L 313.256353 -70.787318 
L 310.680309 -70.786766 
L 308.104266 -70.783438 
L 305.528222 -70.780081 
L 302.952178 -70.779918 
L 300.376135 -70.777719 
L 297.800091 -70.771486 
L 295.224048 -70.767131 
L 292.648004 -70.760308 
L 290.07196 -70.753739 
L 287.495917 -70.748028 
L 284.919873 -70.742875 
L 282.343829 -70.731275 
L 279.767786 -70.72032 
L 277.191742 -70.712114 
L 274.615698 -70.699583 
L 272.039655 -70.680351 
L 269.463611 -70.662238 
L 266.887568 -70.648789 
L 264.311524 -70.628731 
L 261.73548 -70.601515 
L 259.159437 -70.569247 
L 256.583393 -70.533427 
L 254.007349 -70.493561 
L 251.431306 -70.442765 
L 248.855262 -70.372614 
L 246.279218 -70.292644 
L 243.703175 -70.197958 
L 241.127131 -70.086858 
L 238.551088 -69.954579 
L 235.975044 -69.794831 
L 233.399 -69.634152 
L 230.822957 -69.467207 
L 228.246913 -69.283364 
L 225.670869 -69.074711 
L 223.094826 -68.856923 
L 220.518782 -68.652677 
L 217.942738 -68.459697 
L 215.366695 -68.243308 
L 212.790651 -68.02308 
L 210.214608 -67.814283 
L 207.638564 -67.576351 
L 205.06252 -67.302916 
L 202.486477 -67.052918 
L 199.910433 -66.830195 
L 197.334389 -66.65745 
L 194.758346 -66.468052 
L 192.182302 -66.344559 
L 189.606258 -66.371092 
L 187.030215 -66.544391 
L 184.454171 -66.948452 
L 181.878128 -67.717089 
L 179.302084 -68.990383 
L 176.72604 -70.307472 
L 174.149997 -70.777126 
z
" style="stroke: #3f3f3f; stroke-width: 1.25"/>
    </defs>
    <g clip-path="url(#p06f28525f3)">
     <use xlink:href="#m2a206aadb3" x="0" y="310.86825" style="fill: #e1812c; stroke: #3f3f3f; stroke-width: 1.25"/>
    </g>
   </g>
   <g id="patch_3">
    <path d="M 138.524375 40.464 
L 138.524375 40.464 
L 138.524375 40.464 
L 138.524375 40.464 
z
" clip-path="url(#p06f28525f3)" style="fill: #3274a1; stroke: #3f3f3f; stroke-width: 1.25; stroke-linejoin: miter"/>
   </g>
   <g id="patch_4">
    <path d="M 138.524375 40.464 
L 138.524375 40.464 
L 138.524375 40.464 
L 138.524375 40.464 
z
" clip-path="url(#p06f28525f3)" style="fill: #e1812c; stroke: #3f3f3f; stroke-width: 1.25; stroke-linejoin: miter"/>
   </g>
   <g id="matplotlib.axis_1">
    <g id="xtick_1">
     <g id="line2d_1">
      <defs>
       <path id="mbcb02aef95" d="M 0 0 
L 0 3.5 
" style="stroke: #000000; stroke-width: 0.8"/>
      </defs>
      <g>
       <use xlink:href="#mbcb02aef95" x="93.884375" y="273.312" style="stroke: #000000; stroke-width: 0.8"/>
      </g>
     </g>
     <g id="text_1">
      <!-- -200.0 -->
      <g transform="translate(77.766406 287.910437) scale(0.1 -0.1)">
       <defs>
        <path id="DejaVuSans-2d" d="M 313 2009 
L 1997 2009 
L 1997 1497 
L 313 1497 
L 313 2009 
z
" transform="scale(0.015625)"/>
        <path id="DejaVuSans-32" d="M 1228 531 
L 3431 531 
L 3431 0 
L 469 0 
L 469 531 
Q 828 903 1448 1529 
Q 2069 2156 2228 2338 
Q 2531 2678 2651 2914 
Q 2772 3150 2772 3378 
Q 2772 3750 2511 3984 
Q 2250 4219 1831 4219 
Q 1534 4219 1204 4116 
Q 875 4013 500 3803 
L 500 4441 
Q 881 4594 1212 4672 
Q 1544 4750 1819 4750 
Q 2544 4750 2975 4387 
Q 3406 4025 3406 3419 
Q 3406 3131 3298 2873 
Q 3191 2616 2906 2266 
Q 2828 2175 2409 1742 
Q 1991 1309 1228 531 
z
" transform="scale(0.015625)"/>
        <path id="DejaVuSans-30" d="M 2034 4250 
Q 1547 4250 1301 3770 
Q 1056 3291 1056 2328 
Q 1056 1369 1301 889 
Q 1547 409 2034 409 
Q 2525 409 2770 889 
Q 3016 1369 3016 2328 
Q 3016 3291 2770 3770 
Q 2525 4250 2034 4250 
z
M 2034 4750 
Q 2819 4750 3233 4129 
Q 3647 3509 3647 2328 
Q 3647 1150 3233 529 
Q 2819 -91 2034 -91 
Q 1250 -91 836 529 
Q 422 1150 422 2328 
Q 422 3509 836 4129 
Q 1250 4750 2034 4750 
z
" transform="scale(0.015625)"/>
        <path id="DejaVuSans-2e" d="M 684 794 
L 1344 794 
L 1344 0 
L 684 0 
L 684 794 
z
" transform="scale(0.015625)"/>
       </defs>
       <use xlink:href="#DejaVuSans-2d"/>
       <use xlink:href="#DejaVuSans-32" transform="translate(36.083984 0)"/>
       <use xlink:href="#DejaVuSans-30" transform="translate(99.707031 0)"/>
       <use xlink:href="#DejaVuSans-30" transform="translate(163.330078 0)"/>
       <use xlink:href="#DejaVuSans-2e" transform="translate(226.953125 0)"/>
       <use xlink:href="#DejaVuSans-30" transform="translate(258.740234 0)"/>
      </g>
     </g>
    </g>
    <g id="xtick_2">
     <g id="line2d_2">
      <g>
       <use xlink:href="#mbcb02aef95" x="138.524375" y="273.312" style="stroke: #000000; stroke-width: 0.8"/>
      </g>
     </g>
     <g id="text_2">
      <!-- 0.0 -->
      <g transform="translate(130.572813 287.910437) scale(0.1 -0.1)">
       <use xlink:href="#DejaVuSans-30"/>
       <use xlink:href="#DejaVuSans-2e" transform="translate(63.623047 0)"/>
       <use xlink:href="#DejaVuSans-30" transform="translate(95.410156 0)"/>
      </g>
     </g>
    </g>
    <g id="xtick_3">
     <g id="line2d_3">
      <g>
       <use xlink:href="#mbcb02aef95" x="183.164375" y="273.312" style="stroke: #000000; stroke-width: 0.8"/>
      </g>
     </g>
     <g id="text_3">
      <!-- 200.0 -->
      <g transform="translate(168.850313 287.910437) scale(0.1 -0.1)">
       <use xlink:href="#DejaVuSans-32"/>
       <use xlink:href="#DejaVuSans-30" transform="translate(63.623047 0)"/>
       <use xlink:href="#DejaVuSans-30" transform="translate(127.246094 0)"/>
       <use xlink:href="#DejaVuSans-2e" transform="translate(190.869141 0)"/>
       <use xlink:href="#DejaVuSans-30" transform="translate(222.65625 0)"/>
      </g>
     </g>
    </g>
    <g id="xtick_4">
     <g id="line2d_4">
      <g>
       <use xlink:href="#mbcb02aef95" x="227.804375" y="273.312" style="stroke: #000000; stroke-width: 0.8"/>
      </g>
     </g>
     <g id="text_4">
      <!-- 400.0 -->
      <g transform="translate(213.490313 287.910437) scale(0.1 -0.1)">
       <defs>
        <path id="DejaVuSans-34" d="M 2419 4116 
L 825 1625 
L 2419 1625 
L 2419 4116 
z
M 2253 4666 
L 3047 4666 
L 3047 1625 
L 3713 1625 
L 3713 1100 
L 3047 1100 
L 3047 0 
L 2419 0 
L 2419 1100 
L 313 1100 
L 313 1709 
L 2253 4666 
z
" transform="scale(0.015625)"/>
       </defs>
       <use xlink:href="#DejaVuSans-34"/>
       <use xlink:href="#DejaVuSans-30" transform="translate(63.623047 0)"/>
       <use xlink:href="#DejaVuSans-30" transform="translate(127.246094 0)"/>
       <use xlink:href="#DejaVuSans-2e" transform="translate(190.869141 0)"/>
       <use xlink:href="#DejaVuSans-30" transform="translate(222.65625 0)"/>
      </g>
     </g>
    </g>
    <g id="xtick_5">
     <g id="line2d_5">
      <g>
       <use xlink:href="#mbcb02aef95" x="272.444375" y="273.312" style="stroke: #000000; stroke-width: 0.8"/>
      </g>
     </g>
     <g id="text_5">
      <!-- 600.0 -->
      <g transform="translate(258.130313 287.910437) scale(0.1 -0.1)">
       <defs>
        <path id="DejaVuSans-36" d="M 2113 2584 
Q 1688 2584 1439 2293 
Q 1191 2003 1191 1497 
Q 1191 994 1439 701 
Q 1688 409 2113 409 
Q 2538 409 2786 701 
Q 3034 994 3034 1497 
Q 3034 2003 2786 2293 
Q 2538 2584 2113 2584 
z
M 3366 4563 
L 3366 3988 
Q 3128 4100 2886 4159 
Q 2644 4219 2406 4219 
Q 1781 4219 1451 3797 
Q 1122 3375 1075 2522 
Q 1259 2794 1537 2939 
Q 1816 3084 2150 3084 
Q 2853 3084 3261 2657 
Q 3669 2231 3669 1497 
Q 3669 778 3244 343 
Q 2819 -91 2113 -91 
Q 1303 -91 875 529 
Q 447 1150 447 2328 
Q 447 3434 972 4092 
Q 1497 4750 2381 4750 
Q 2619 4750 2861 4703 
Q 3103 4656 3366 4563 
z
" transform="scale(0.015625)"/>
       </defs>
       <use xlink:href="#DejaVuSans-36"/>
       <use xlink:href="#DejaVuSans-30" transform="translate(63.623047 0)"/>
       <use xlink:href="#DejaVuSans-30" transform="translate(127.246094 0)"/>
       <use xlink:href="#DejaVuSans-2e" transform="translate(190.869141 0)"/>
       <use xlink:href="#DejaVuSans-30" transform="translate(222.65625 0)"/>
      </g>
     </g>
    </g>
    <g id="xtick_6">
     <g id="line2d_6">
      <g>
       <use xlink:href="#mbcb02aef95" x="317.084375" y="273.312" style="stroke: #000000; stroke-width: 0.8"/>
      </g>
     </g>
     <g id="text_6">
      <!-- 800.0 -->
      <g transform="translate(302.770313 287.910437) scale(0.1 -0.1)">
       <defs>
        <path id="DejaVuSans-38" d="M 2034 2216 
Q 1584 2216 1326 1975 
Q 1069 1734 1069 1313 
Q 1069 891 1326 650 
Q 1584 409 2034 409 
Q 2484 409 2743 651 
Q 3003 894 3003 1313 
Q 3003 1734 2745 1975 
Q 2488 2216 2034 2216 
z
M 1403 2484 
Q 997 2584 770 2862 
Q 544 3141 544 3541 
Q 544 4100 942 4425 
Q 1341 4750 2034 4750 
Q 2731 4750 3128 4425 
Q 3525 4100 3525 3541 
Q 3525 3141 3298 2862 
Q 3072 2584 2669 2484 
Q 3125 2378 3379 2068 
Q 3634 1759 3634 1313 
Q 3634 634 3220 271 
Q 2806 -91 2034 -91 
Q 1263 -91 848 271 
Q 434 634 434 1313 
Q 434 1759 690 2068 
Q 947 2378 1403 2484 
z
M 1172 3481 
Q 1172 3119 1398 2916 
Q 1625 2713 2034 2713 
Q 2441 2713 2670 2916 
Q 2900 3119 2900 3481 
Q 2900 3844 2670 4047 
Q 2441 4250 2034 4250 
Q 1625 4250 1398 4047 
Q 1172 3844 1172 3481 
z
" transform="scale(0.015625)"/>
       </defs>
       <use xlink:href="#DejaVuSans-38"/>
       <use xlink:href="#DejaVuSans-30" transform="translate(63.623047 0)"/>
       <use xlink:href="#DejaVuSans-30" transform="translate(127.246094 0)"/>
       <use xlink:href="#DejaVuSans-2e" transform="translate(190.869141 0)"/>
       <use xlink:href="#DejaVuSans-30" transform="translate(222.65625 0)"/>
      </g>
     </g>
    </g>
    <g id="xtick_7">
     <g id="line2d_7">
      <g>
       <use xlink:href="#mbcb02aef95" x="361.724375" y="273.312" style="stroke: #000000; stroke-width: 0.8"/>
      </g>
     </g>
     <g id="text_7">
      <!-- 1000.0 -->
      <g transform="translate(344.229063 287.910437) scale(0.1 -0.1)">
       <defs>
        <path id="DejaVuSans-31" d="M 794 531 
L 1825 531 
L 1825 4091 
L 703 3866 
L 703 4441 
L 1819 4666 
L 2450 4666 
L 2450 531 
L 3481 531 
L 3481 0 
L 794 0 
L 794 531 
z
" transform="scale(0.015625)"/>
       </defs>
       <use xlink:href="#DejaVuSans-31"/>
       <use xlink:href="#DejaVuSans-30" transform="translate(63.623047 0)"/>
       <use xlink:href="#DejaVuSans-30" transform="translate(127.246094 0)"/>
       <use xlink:href="#DejaVuSans-30" transform="translate(190.869141 0)"/>
       <use xlink:href="#DejaVuSans-2e" transform="translate(254.492188 0)"/>
       <use xlink:href="#DejaVuSans-30" transform="translate(286.279297 0)"/>
      </g>
     </g>
    </g>
    <g id="xtick_8">
     <g id="line2d_8">
      <g>
       <use xlink:href="#mbcb02aef95" x="406.364375" y="273.312" style="stroke: #000000; stroke-width: 0.8"/>
      </g>
     </g>
     <g id="text_8">
      <!-- 1200.0 -->
      <g transform="translate(388.869063 287.910437) scale(0.1 -0.1)">
       <use xlink:href="#DejaVuSans-31"/>
       <use xlink:href="#DejaVuSans-32" transform="translate(63.623047 0)"/>
       <use xlink:href="#DejaVuSans-30" transform="translate(127.246094 0)"/>
       <use xlink:href="#DejaVuSans-30" transform="translate(190.869141 0)"/>
       <use xlink:href="#DejaVuSans-2e" transform="translate(254.492188 0)"/>
       <use xlink:href="#DejaVuSans-30" transform="translate(286.279297 0)"/>
      </g>
     </g>
    </g>
    <g id="xtick_9">
     <g id="line2d_9">
      <g>
       <use xlink:href="#mbcb02aef95" x="451.004375" y="273.312" style="stroke: #000000; stroke-width: 0.8"/>
      </g>
     </g>
     <g id="text_9">
      <!-- 1400.0 -->
      <g transform="translate(433.509063 287.910437) scale(0.1 -0.1)">
       <use xlink:href="#DejaVuSans-31"/>
       <use xlink:href="#DejaVuSans-34" transform="translate(63.623047 0)"/>
       <use xlink:href="#DejaVuSans-30" transform="translate(127.246094 0)"/>
       <use xlink:href="#DejaVuSans-30" transform="translate(190.869141 0)"/>
       <use xlink:href="#DejaVuSans-2e" transform="translate(254.492188 0)"/>
       <use xlink:href="#DejaVuSans-30" transform="translate(286.279297 0)"/>
      </g>
     </g>
    </g>
    <g id="text_10">
     <!-- Latency [s] -->
     <g transform="translate(241.40375 301.588562) scale(0.1 -0.1)">
      <defs>
       <path id="DejaVuSans-4c" d="M 628 4666 
L 1259 4666 
L 1259 531 
L 3531 531 
L 3531 0 
L 628 0 
L 628 4666 
z
" transform="scale(0.015625)"/>
       <path id="DejaVuSans-61" d="M 2194 1759 
Q 1497 1759 1228 1600 
Q 959 1441 959 1056 
Q 959 750 1161 570 
Q 1363 391 1709 391 
Q 2188 391 2477 730 
Q 2766 1069 2766 1631 
L 2766 1759 
L 2194 1759 
z
M 3341 1997 
L 3341 0 
L 2766 0 
L 2766 531 
Q 2569 213 2275 61 
Q 1981 -91 1556 -91 
Q 1019 -91 701 211 
Q 384 513 384 1019 
Q 384 1609 779 1909 
Q 1175 2209 1959 2209 
L 2766 2209 
L 2766 2266 
Q 2766 2663 2505 2880 
Q 2244 3097 1772 3097 
Q 1472 3097 1187 3025 
Q 903 2953 641 2809 
L 641 3341 
Q 956 3463 1253 3523 
Q 1550 3584 1831 3584 
Q 2591 3584 2966 3190 
Q 3341 2797 3341 1997 
z
" transform="scale(0.015625)"/>
       <path id="DejaVuSans-74" d="M 1172 4494 
L 1172 3500 
L 2356 3500 
L 2356 3053 
L 1172 3053 
L 1172 1153 
Q 1172 725 1289 603 
Q 1406 481 1766 481 
L 2356 481 
L 2356 0 
L 1766 0 
Q 1100 0 847 248 
Q 594 497 594 1153 
L 594 3053 
L 172 3053 
L 172 3500 
L 594 3500 
L 594 4494 
L 1172 4494 
z
" transform="scale(0.015625)"/>
       <path id="DejaVuSans-65" d="M 3597 1894 
L 3597 1613 
L 953 1613 
Q 991 1019 1311 708 
Q 1631 397 2203 397 
Q 2534 397 2845 478 
Q 3156 559 3463 722 
L 3463 178 
Q 3153 47 2828 -22 
Q 2503 -91 2169 -91 
Q 1331 -91 842 396 
Q 353 884 353 1716 
Q 353 2575 817 3079 
Q 1281 3584 2069 3584 
Q 2775 3584 3186 3129 
Q 3597 2675 3597 1894 
z
M 3022 2063 
Q 3016 2534 2758 2815 
Q 2500 3097 2075 3097 
Q 1594 3097 1305 2825 
Q 1016 2553 972 2059 
L 3022 2063 
z
" transform="scale(0.015625)"/>
       <path id="DejaVuSans-6e" d="M 3513 2113 
L 3513 0 
L 2938 0 
L 2938 2094 
Q 2938 2591 2744 2837 
Q 2550 3084 2163 3084 
Q 1697 3084 1428 2787 
Q 1159 2491 1159 1978 
L 1159 0 
L 581 0 
L 581 3500 
L 1159 3500 
L 1159 2956 
Q 1366 3272 1645 3428 
Q 1925 3584 2291 3584 
Q 2894 3584 3203 3211 
Q 3513 2838 3513 2113 
z
" transform="scale(0.015625)"/>
       <path id="DejaVuSans-63" d="M 3122 3366 
L 3122 2828 
Q 2878 2963 2633 3030 
Q 2388 3097 2138 3097 
Q 1578 3097 1268 2742 
Q 959 2388 959 1747 
Q 959 1106 1268 751 
Q 1578 397 2138 397 
Q 2388 397 2633 464 
Q 2878 531 3122 666 
L 3122 134 
Q 2881 22 2623 -34 
Q 2366 -91 2075 -91 
Q 1284 -91 818 406 
Q 353 903 353 1747 
Q 353 2603 823 3093 
Q 1294 3584 2113 3584 
Q 2378 3584 2631 3529 
Q 2884 3475 3122 3366 
z
" transform="scale(0.015625)"/>
       <path id="DejaVuSans-79" d="M 2059 -325 
Q 1816 -950 1584 -1140 
Q 1353 -1331 966 -1331 
L 506 -1331 
L 506 -850 
L 844 -850 
Q 1081 -850 1212 -737 
Q 1344 -625 1503 -206 
L 1606 56 
L 191 3500 
L 800 3500 
L 1894 763 
L 2988 3500 
L 3597 3500 
L 2059 -325 
z
" transform="scale(0.015625)"/>
       <path id="DejaVuSans-20" transform="scale(0.015625)"/>
       <path id="DejaVuSans-5b" d="M 550 4863 
L 1875 4863 
L 1875 4416 
L 1125 4416 
L 1125 -397 
L 1875 -397 
L 1875 -844 
L 550 -844 
L 550 4863 
z
" transform="scale(0.015625)"/>
       <path id="DejaVuSans-b5" d="M 544 -1331 
L 544 3500 
L 1119 3500 
L 1119 1325 
Q 1119 872 1334 640 
Q 1550 409 1972 409 
Q 2434 409 2667 671 
Q 2900 934 2900 1459 
L 2900 3500 
L 3475 3500 
L 3475 806 
Q 3475 619 3529 530 
Q 3584 441 3700 441 
Q 3728 441 3778 458 
Q 3828 475 3916 513 
L 3916 50 
Q 3788 -22 3673 -56 
Q 3559 -91 3450 -91 
Q 3234 -91 3106 31 
Q 2978 153 2931 403 
Q 2775 156 2548 32 
Q 2322 -91 2016 -91 
Q 1697 -91 1473 31 
Q 1250 153 1119 397 
L 1119 -1331 
L 544 -1331 
z
" transform="scale(0.015625)"/>
       <path id="DejaVuSans-73" d="M 2834 3397 
L 2834 2853 
Q 2591 2978 2328 3040 
Q 2066 3103 1784 3103 
Q 1356 3103 1142 2972 
Q 928 2841 928 2578 
Q 928 2378 1081 2264 
Q 1234 2150 1697 2047 
L 1894 2003 
Q 2506 1872 2764 1633 
Q 3022 1394 3022 966 
Q 3022 478 2636 193 
Q 2250 -91 1575 -91 
Q 1294 -91 989 -36 
Q 684 19 347 128 
L 347 722 
Q 666 556 975 473 
Q 1284 391 1588 391 
Q 1994 391 2212 530 
Q 2431 669 2431 922 
Q 2431 1156 2273 1281 
Q 2116 1406 1581 1522 
L 1381 1569 
Q 847 1681 609 1914 
Q 372 2147 372 2553 
Q 372 3047 722 3315 
Q 1072 3584 1716 3584 
Q 2034 3584 2315 3537 
Q 2597 3491 2834 3397 
z
" transform="scale(0.015625)"/>
       <path id="DejaVuSans-5d" d="M 1947 4863 
L 1947 -844 
L 622 -844 
L 622 -397 
L 1369 -397 
L 1369 4416 
L 622 4416 
L 622 4863 
L 1947 4863 
z
" transform="scale(0.015625)"/>
      </defs>
      <use xlink:href="#DejaVuSans-4c"/>
      <use xlink:href="#DejaVuSans-61" transform="translate(55.712891 0)"/>
      <use xlink:href="#DejaVuSans-74" transform="translate(116.992188 0)"/>
      <use xlink:href="#DejaVuSans-65" transform="translate(156.201172 0)"/>
      <use xlink:href="#DejaVuSans-6e" transform="translate(217.724609 0)"/>
      <use xlink:href="#DejaVuSans-63" transform="translate(281.103516 0)"/>
      <use xlink:href="#DejaVuSans-79" transform="translate(336.083984 0)"/>
      <use xlink:href="#DejaVuSans-20" transform="translate(395.263672 0)"/>
      <use xlink:href="#DejaVuSans-5b" transform="translate(427.050781 0)"/>
      <use xlink:href="#DejaVuSans-b5" transform="translate(466.064453 0)"/>
      <use xlink:href="#DejaVuSans-73" transform="translate(529.6875 0)"/>
      <use xlink:href="#DejaVuSans-5d" transform="translate(581.787109 0)"/>
     </g>
    </g>
   </g>
   <g id="matplotlib.axis_2">
    <g id="ytick_1">
     <g id="line2d_10">
      <defs>
       <path id="me5179b328b" d="M 0 0 
L -3.5 0 
" style="stroke: #000000; stroke-width: 0.8"/>
      </defs>
      <g>
       <use xlink:href="#me5179b328b" x="93.884375" y="40.464" style="stroke: #000000; stroke-width: 0.8"/>
      </g>
     </g>
     <g id="text_11">
      <!-- none -->
      <g transform="translate(61.9375 44.263219) scale(0.1 -0.1)">
       <defs>
        <path id="DejaVuSans-6f" d="M 1959 3097 
Q 1497 3097 1228 2736 
Q 959 2375 959 1747 
Q 959 1119 1226 758 
Q 1494 397 1959 397 
Q 2419 397 2687 759 
Q 2956 1122 2956 1747 
Q 2956 2369 2687 2733 
Q 2419 3097 1959 3097 
z
M 1959 3584 
Q 2709 3584 3137 3096 
Q 3566 2609 3566 1747 
Q 3566 888 3137 398 
Q 2709 -91 1959 -91 
Q 1206 -91 779 398 
Q 353 888 353 1747 
Q 353 2609 779 3096 
Q 1206 3584 1959 3584 
z
" transform="scale(0.015625)"/>
       </defs>
       <use xlink:href="#DejaVuSans-6e"/>
       <use xlink:href="#DejaVuSans-6f" transform="translate(63.378906 0)"/>
       <use xlink:href="#DejaVuSans-6e" transform="translate(124.560547 0)"/>
       <use xlink:href="#DejaVuSans-65" transform="translate(187.939453 0)"/>
      </g>
     </g>
    </g>
    <g id="ytick_2">
     <g id="line2d_11">
      <g>
       <use xlink:href="#me5179b328b" x="93.884375" y="106.992" style="stroke: #000000; stroke-width: 0.8"/>
      </g>
     </g>
     <g id="text_12">
      <!-- cilium -->
      <g transform="translate(56.973438 110.791219) scale(0.1 -0.1)">
       <defs>
        <path id="DejaVuSans-69" d="M 603 3500 
L 1178 3500 
L 1178 0 
L 603 0 
L 603 3500 
z
M 603 4863 
L 1178 4863 
L 1178 4134 
L 603 4134 
L 603 4863 
z
" transform="scale(0.015625)"/>
        <path id="DejaVuSans-6c" d="M 603 4863 
L 1178 4863 
L 1178 0 
L 603 0 
L 603 4863 
z
" transform="scale(0.015625)"/>
        <path id="DejaVuSans-75" d="M 544 1381 
L 544 3500 
L 1119 3500 
L 1119 1403 
Q 1119 906 1312 657 
Q 1506 409 1894 409 
Q 2359 409 2629 706 
Q 2900 1003 2900 1516 
L 2900 3500 
L 3475 3500 
L 3475 0 
L 2900 0 
L 2900 538 
Q 2691 219 2414 64 
Q 2138 -91 1772 -91 
Q 1169 -91 856 284 
Q 544 659 544 1381 
z
M 1991 3584 
L 1991 3584 
z
" transform="scale(0.015625)"/>
        <path id="DejaVuSans-6d" d="M 3328 2828 
Q 3544 3216 3844 3400 
Q 4144 3584 4550 3584 
Q 5097 3584 5394 3201 
Q 5691 2819 5691 2113 
L 5691 0 
L 5113 0 
L 5113 2094 
Q 5113 2597 4934 2840 
Q 4756 3084 4391 3084 
Q 3944 3084 3684 2787 
Q 3425 2491 3425 1978 
L 3425 0 
L 2847 0 
L 2847 2094 
Q 2847 2600 2669 2842 
Q 2491 3084 2119 3084 
Q 1678 3084 1418 2786 
Q 1159 2488 1159 1978 
L 1159 0 
L 581 0 
L 581 3500 
L 1159 3500 
L 1159 2956 
Q 1356 3278 1631 3431 
Q 1906 3584 2284 3584 
Q 2666 3584 2933 3390 
Q 3200 3197 3328 2828 
z
" transform="scale(0.015625)"/>
       </defs>
       <use xlink:href="#DejaVuSans-63"/>
       <use xlink:href="#DejaVuSans-69" transform="translate(54.980469 0)"/>
       <use xlink:href="#DejaVuSans-6c" transform="translate(82.763672 0)"/>
       <use xlink:href="#DejaVuSans-69" transform="translate(110.546875 0)"/>
       <use xlink:href="#DejaVuSans-75" transform="translate(138.330078 0)"/>
       <use xlink:href="#DejaVuSans-6d" transform="translate(201.708984 0)"/>
      </g>
     </g>
    </g>
    <g id="ytick_3">
     <g id="line2d_12">
      <g>
       <use xlink:href="#me5179b328b" x="93.884375" y="173.52" style="stroke: #000000; stroke-width: 0.8"/>
      </g>
     </g>
     <g id="text_13">
      <!-- istio-ambient -->
      <g transform="translate(20.878125 177.319219) scale(0.1 -0.1)">
       <defs>
        <path id="DejaVuSans-62" d="M 3116 1747 
Q 3116 2381 2855 2742 
Q 2594 3103 2138 3103 
Q 1681 3103 1420 2742 
Q 1159 2381 1159 1747 
Q 1159 1113 1420 752 
Q 1681 391 2138 391 
Q 2594 391 2855 752 
Q 3116 1113 3116 1747 
z
M 1159 2969 
Q 1341 3281 1617 3432 
Q 1894 3584 2278 3584 
Q 2916 3584 3314 3078 
Q 3713 2572 3713 1747 
Q 3713 922 3314 415 
Q 2916 -91 2278 -91 
Q 1894 -91 1617 61 
Q 1341 213 1159 525 
L 1159 0 
L 581 0 
L 581 4863 
L 1159 4863 
L 1159 2969 
z
" transform="scale(0.015625)"/>
       </defs>
       <use xlink:href="#DejaVuSans-69"/>
       <use xlink:href="#DejaVuSans-73" transform="translate(27.783203 0)"/>
       <use xlink:href="#DejaVuSans-74" transform="translate(79.882812 0)"/>
       <use xlink:href="#DejaVuSans-69" transform="translate(119.091797 0)"/>
       <use xlink:href="#DejaVuSans-6f" transform="translate(146.875 0)"/>
       <use xlink:href="#DejaVuSans-2d" transform="translate(209.931641 0)"/>
       <use xlink:href="#DejaVuSans-61" transform="translate(246.015625 0)"/>
       <use xlink:href="#DejaVuSans-6d" transform="translate(307.294922 0)"/>
       <use xlink:href="#DejaVuSans-62" transform="translate(404.707031 0)"/>
       <use xlink:href="#DejaVuSans-69" transform="translate(468.183594 0)"/>
       <use xlink:href="#DejaVuSans-65" transform="translate(495.966797 0)"/>
       <use xlink:href="#DejaVuSans-6e" transform="translate(557.490234 0)"/>
       <use xlink:href="#DejaVuSans-74" transform="translate(620.869141 0)"/>
      </g>
     </g>
    </g>
    <g id="ytick_4">
     <g id="line2d_13">
      <g>
       <use xlink:href="#me5179b328b" x="93.884375" y="240.048" style="stroke: #000000; stroke-width: 0.8"/>
      </g>
     </g>
     <g id="text_14">
      <!-- istio-sidecar -->
      <g transform="translate(26.057813 243.847219) scale(0.1 -0.1)">
       <defs>
        <path id="DejaVuSans-64" d="M 2906 2969 
L 2906 4863 
L 3481 4863 
L 3481 0 
L 2906 0 
L 2906 525 
Q 2725 213 2448 61 
Q 2172 -91 1784 -91 
Q 1150 -91 751 415 
Q 353 922 353 1747 
Q 353 2572 751 3078 
Q 1150 3584 1784 3584 
Q 2172 3584 2448 3432 
Q 2725 3281 2906 2969 
z
M 947 1747 
Q 947 1113 1208 752 
Q 1469 391 1925 391 
Q 2381 391 2643 752 
Q 2906 1113 2906 1747 
Q 2906 2381 2643 2742 
Q 2381 3103 1925 3103 
Q 1469 3103 1208 2742 
Q 947 2381 947 1747 
z
" transform="scale(0.015625)"/>
        <path id="DejaVuSans-72" d="M 2631 2963 
Q 2534 3019 2420 3045 
Q 2306 3072 2169 3072 
Q 1681 3072 1420 2755 
Q 1159 2438 1159 1844 
L 1159 0 
L 581 0 
L 581 3500 
L 1159 3500 
L 1159 2956 
Q 1341 3275 1631 3429 
Q 1922 3584 2338 3584 
Q 2397 3584 2469 3576 
Q 2541 3569 2628 3553 
L 2631 2963 
z
" transform="scale(0.015625)"/>
       </defs>
       <use xlink:href="#DejaVuSans-69"/>
       <use xlink:href="#DejaVuSans-73" transform="translate(27.783203 0)"/>
       <use xlink:href="#DejaVuSans-74" transform="translate(79.882812 0)"/>
       <use xlink:href="#DejaVuSans-69" transform="translate(119.091797 0)"/>
       <use xlink:href="#DejaVuSans-6f" transform="translate(146.875 0)"/>
       <use xlink:href="#DejaVuSans-2d" transform="translate(209.931641 0)"/>
       <use xlink:href="#DejaVuSans-73" transform="translate(246.015625 0)"/>
       <use xlink:href="#DejaVuSans-69" transform="translate(298.115234 0)"/>
       <use xlink:href="#DejaVuSans-64" transform="translate(325.898438 0)"/>
       <use xlink:href="#DejaVuSans-65" transform="translate(389.375 0)"/>
       <use xlink:href="#DejaVuSans-63" transform="translate(450.898438 0)"/>
       <use xlink:href="#DejaVuSans-61" transform="translate(505.878906 0)"/>
       <use xlink:href="#DejaVuSans-72" transform="translate(567.158203 0)"/>
      </g>
     </g>
    </g>
    <g id="text_15">
     <!-- Service Mesh -->
     <g transform="translate(14.798437 173.489594) rotate(-90) scale(0.1 -0.1)">
      <defs>
       <path id="DejaVuSans-53" d="M 3425 4513 
L 3425 3897 
Q 3066 4069 2747 4153 
Q 2428 4238 2131 4238 
Q 1616 4238 1336 4038 
Q 1056 3838 1056 3469 
Q 1056 3159 1242 3001 
Q 1428 2844 1947 2747 
L 2328 2669 
Q 3034 2534 3370 2195 
Q 3706 1856 3706 1288 
Q 3706 609 3251 259 
Q 2797 -91 1919 -91 
Q 1588 -91 1214 -16 
Q 841 59 441 206 
L 441 856 
Q 825 641 1194 531 
Q 1563 422 1919 422 
Q 2459 422 2753 634 
Q 3047 847 3047 1241 
Q 3047 1584 2836 1778 
Q 2625 1972 2144 2069 
L 1759 2144 
Q 1053 2284 737 2584 
Q 422 2884 422 3419 
Q 422 4038 858 4394 
Q 1294 4750 2059 4750 
Q 2388 4750 2728 4690 
Q 3069 4631 3425 4513 
z
" transform="scale(0.015625)"/>
       <path id="DejaVuSans-76" d="M 191 3500 
L 800 3500 
L 1894 563 
L 2988 3500 
L 3597 3500 
L 2284 0 
L 1503 0 
L 191 3500 
z
" transform="scale(0.015625)"/>
       <path id="DejaVuSans-4d" d="M 628 4666 
L 1569 4666 
L 2759 1491 
L 3956 4666 
L 4897 4666 
L 4897 0 
L 4281 0 
L 4281 4097 
L 3078 897 
L 2444 897 
L 1241 4097 
L 1241 0 
L 628 0 
L 628 4666 
z
" transform="scale(0.015625)"/>
       <path id="DejaVuSans-68" d="M 3513 2113 
L 3513 0 
L 2938 0 
L 2938 2094 
Q 2938 2591 2744 2837 
Q 2550 3084 2163 3084 
Q 1697 3084 1428 2787 
Q 1159 2491 1159 1978 
L 1159 0 
L 581 0 
L 581 4863 
L 1159 4863 
L 1159 2956 
Q 1366 3272 1645 3428 
Q 1925 3584 2291 3584 
Q 2894 3584 3203 3211 
Q 3513 2838 3513 2113 
z
" transform="scale(0.015625)"/>
      </defs>
      <use xlink:href="#DejaVuSans-53"/>
      <use xlink:href="#DejaVuSans-65" transform="translate(63.476562 0)"/>
      <use xlink:href="#DejaVuSans-72" transform="translate(125 0)"/>
      <use xlink:href="#DejaVuSans-76" transform="translate(166.113281 0)"/>
      <use xlink:href="#DejaVuSans-69" transform="translate(225.292969 0)"/>
      <use xlink:href="#DejaVuSans-63" transform="translate(253.076172 0)"/>
      <use xlink:href="#DejaVuSans-65" transform="translate(308.056641 0)"/>
      <use xlink:href="#DejaVuSans-20" transform="translate(369.580078 0)"/>
      <use xlink:href="#DejaVuSans-4d" transform="translate(401.367188 0)"/>
      <use xlink:href="#DejaVuSans-65" transform="translate(487.646484 0)"/>
      <use xlink:href="#DejaVuSans-73" transform="translate(549.169922 0)"/>
      <use xlink:href="#DejaVuSans-68" transform="translate(601.269531 0)"/>
     </g>
    </g>
   </g>
   <g id="line2d_14">
    <path d="M 160.258698 25.950578 
L 160.258698 40.464 
" clip-path="url(#p06f28525f3)" style="fill: none; stroke-dasharray: 1.5625,0.9375; stroke-dashoffset: 0; stroke: #3f3f3f; stroke-width: 1.25"/>
   </g>
   <g id="line2d_15">
    <path d="M 165.483587 30.198441 
L 165.483587 40.464 
" clip-path="url(#p06f28525f3)" style="fill: none; stroke-dasharray: 3.125,1.25; stroke-dashoffset: 0; stroke: #3f3f3f; stroke-width: 1.25"/>
   </g>
   <g id="line2d_16">
    <path d="M 173.391675 35.16595 
L 173.391675 40.464 
" clip-path="url(#p06f28525f3)" style="fill: none; stroke-dasharray: 1.5625,0.9375; stroke-dashoffset: 0; stroke: #3f3f3f; stroke-width: 1.25"/>
   </g>
   <g id="line2d_17">
    <path d="M 152.020833 40.464 
L 152.020833 63.047324 
" clip-path="url(#p06f28525f3)" style="fill: none; stroke-dasharray: 1.5625,0.9375; stroke-dashoffset: 0; stroke: #3f3f3f; stroke-width: 1.25"/>
   </g>
   <g id="line2d_18">
    <path d="M 154.881141 40.464 
L 154.881141 54.931643 
" clip-path="url(#p06f28525f3)" style="fill: none; stroke-dasharray: 3.125,1.25; stroke-dashoffset: 0; stroke: #3f3f3f; stroke-width: 1.25"/>
   </g>
   <g id="line2d_19">
    <path d="M 160.096209 40.464 
L 160.096209 46.942381 
" clip-path="url(#p06f28525f3)" style="fill: none; stroke-dasharray: 1.5625,0.9375; stroke-dashoffset: 0; stroke: #3f3f3f; stroke-width: 1.25"/>
   </g>
   <g id="line2d_20">
    <path d="M 157.018281 82.144564 
L 157.018281 106.992 
" clip-path="url(#p06f28525f3)" style="fill: none; stroke-dasharray: 1.5625,0.9375; stroke-dashoffset: 0; stroke: #3f3f3f; stroke-width: 1.25"/>
   </g>
   <g id="line2d_21">
    <path d="M 161.19346 95.316131 
L 161.19346 106.992 
" clip-path="url(#p06f28525f3)" style="fill: none; stroke-dasharray: 3.125,1.25; stroke-dashoffset: 0; stroke: #3f3f3f; stroke-width: 1.25"/>
   </g>
   <g id="line2d_22">
    <path d="M 168.161875 101.060038 
L 168.161875 106.992 
" clip-path="url(#p06f28525f3)" style="fill: none; stroke-dasharray: 1.5625,0.9375; stroke-dashoffset: 0; stroke: #3f3f3f; stroke-width: 1.25"/>
   </g>
   <g id="line2d_23">
    <path d="M 152.090694 106.992 
L 152.090694 129.03964 
" clip-path="url(#p06f28525f3)" style="fill: none; stroke-dasharray: 1.5625,0.9375; stroke-dashoffset: 0; stroke: #3f3f3f; stroke-width: 1.25"/>
   </g>
   <g id="line2d_24">
    <path d="M 154.948101 106.992 
L 154.948101 122.0957 
" clip-path="url(#p06f28525f3)" style="fill: none; stroke-dasharray: 3.125,1.25; stroke-dashoffset: 0; stroke: #3f3f3f; stroke-width: 1.25"/>
   </g>
   <g id="line2d_25">
    <path d="M 160.027909 106.992 
L 160.027909 113.60218 
" clip-path="url(#p06f28525f3)" style="fill: none; stroke-dasharray: 1.5625,0.9375; stroke-dashoffset: 0; stroke: #3f3f3f; stroke-width: 1.25"/>
   </g>
   <g id="line2d_26">
    <path d="M 160.503772 162.258968 
L 160.503772 173.52 
" clip-path="url(#p06f28525f3)" style="fill: none; stroke-dasharray: 1.5625,0.9375; stroke-dashoffset: 0; stroke: #3f3f3f; stroke-width: 1.25"/>
   </g>
   <g id="line2d_27">
    <path d="M 165.62956 163.492878 
L 165.62956 173.52 
" clip-path="url(#p06f28525f3)" style="fill: none; stroke-dasharray: 3.125,1.25; stroke-dashoffset: 0; stroke: #3f3f3f; stroke-width: 1.25"/>
   </g>
   <g id="line2d_28">
    <path d="M 173.54758 168.426431 
L 173.54758 173.52 
" clip-path="url(#p06f28525f3)" style="fill: none; stroke-dasharray: 1.5625,0.9375; stroke-dashoffset: 0; stroke: #3f3f3f; stroke-width: 1.25"/>
   </g>
   <g id="line2d_29">
    <path d="M 151.843835 173.52 
L 151.843835 195.470615 
" clip-path="url(#p06f28525f3)" style="fill: none; stroke-dasharray: 1.5625,0.9375; stroke-dashoffset: 0; stroke: #3f3f3f; stroke-width: 1.25"/>
   </g>
   <g id="line2d_30">
    <path d="M 154.628032 173.52 
L 154.628032 188.685059 
" clip-path="url(#p06f28525f3)" style="fill: none; stroke-dasharray: 3.125,1.25; stroke-dashoffset: 0; stroke: #3f3f3f; stroke-width: 1.25"/>
   </g>
   <g id="line2d_31">
    <path d="M 159.805825 173.52 
L 159.805825 179.929478 
" clip-path="url(#p06f28525f3)" style="fill: none; stroke-dasharray: 1.5625,0.9375; stroke-dashoffset: 0; stroke: #3f3f3f; stroke-width: 1.25"/>
   </g>
   <g id="line2d_32">
    <path d="M 228.960105 237.213801 
L 228.960105 240.048 
" clip-path="url(#p06f28525f3)" style="fill: none; stroke-dasharray: 1.5625,0.9375; stroke-dashoffset: 0; stroke: #3f3f3f; stroke-width: 1.25"/>
   </g>
   <g id="line2d_33">
    <path d="M 248.496801 237.272807 
L 248.496801 240.048 
" clip-path="url(#p06f28525f3)" style="fill: none; stroke-dasharray: 3.125,1.25; stroke-dashoffset: 0; stroke: #3f3f3f; stroke-width: 1.25"/>
   </g>
   <g id="line2d_34">
    <path d="M 274.020167 238.508478 
L 274.020167 240.048 
" clip-path="url(#p06f28525f3)" style="fill: none; stroke-dasharray: 1.5625,0.9375; stroke-dashoffset: 0; stroke: #3f3f3f; stroke-width: 1.25"/>
   </g>
   <g id="line2d_35">
    <path d="M 191.176585 240.048 
L 191.176585 244.513332 
" clip-path="url(#p06f28525f3)" style="fill: none; stroke-dasharray: 1.5625,0.9375; stroke-dashoffset: 0; stroke: #3f3f3f; stroke-width: 1.25"/>
   </g>
   <g id="line2d_36">
    <path d="M 202.565589 240.048 
L 202.565589 243.807655 
" clip-path="url(#p06f28525f3)" style="fill: none; stroke-dasharray: 3.125,1.25; stroke-dashoffset: 0; stroke: #3f3f3f; stroke-width: 1.25"/>
   </g>
   <g id="line2d_37">
    <path d="M 218.500953 240.048 
L 218.500953 242.366736 
" clip-path="url(#p06f28525f3)" style="fill: none; stroke-dasharray: 1.5625,0.9375; stroke-dashoffset: 0; stroke: #3f3f3f; stroke-width: 1.25"/>
   </g>
   <g id="patch_5">
    <path d="M 93.884375 273.312 
L 93.884375 7.2 
" style="fill: none; stroke: #000000; stroke-width: 0.8; stroke-linejoin: miter; stroke-linecap: square"/>
   </g>
   <g id="patch_6">
    <path d="M 451.004375 273.312 
L 451.004375 7.2 
" style="fill: none; stroke: #000000; stroke-width: 0.8; stroke-linejoin: miter; stroke-linecap: square"/>
   </g>
   <g id="patch_7">
    <path d="M 93.884375 273.312 
L 451.004375 273.312 
" style="fill: none; stroke: #000000; stroke-width: 0.8; stroke-linejoin: miter; stroke-linecap: square"/>
   </g>
   <g id="patch_8">
    <path d="M 93.884375 7.2 
L 451.004375 7.2 
" style="fill: none; stroke: #000000; stroke-width: 0.8; stroke-linejoin: miter; stroke-linecap: square"/>
   </g>
   <g id="legend_1">
    <g id="patch_9">
     <path d="M 367.137187 59.234375 
L 444.004375 59.234375 
Q 446.004375 59.234375 446.004375 57.234375 
L 446.004375 14.2 
Q 446.004375 12.2 444.004375 12.2 
L 367.137187 12.2 
Q 365.137187 12.2 365.137187 14.2 
L 365.137187 57.234375 
Q 365.137187 59.234375 367.137187 59.234375 
z
" style="fill: #ffffff; opacity: 0.8; stroke: #cccccc; stroke-linejoin: miter"/>
    </g>
    <g id="text_16">
     <!-- Mode -->
     <g transform="translate(391.946562 23.798437) scale(0.1 -0.1)">
      <use xlink:href="#DejaVuSans-4d"/>
      <use xlink:href="#DejaVuSans-6f" transform="translate(86.279297 0)"/>
      <use xlink:href="#DejaVuSans-64" transform="translate(147.460938 0)"/>
      <use xlink:href="#DejaVuSans-65" transform="translate(210.9375 0)"/>
     </g>
    </g>
    <g id="patch_10">
     <path d="M 369.137187 38.476562 
L 389.137187 38.476562 
L 389.137187 31.476562 
L 369.137187 31.476562 
z
" style="fill: #3274a1; stroke: #3f3f3f; stroke-width: 1.25; stroke-linejoin: miter"/>
    </g>
    <g id="text_17">
     <!-- Baseline -->
     <g transform="translate(397.137187 38.476562) scale(0.1 -0.1)">
      <defs>
       <path id="DejaVuSans-42" d="M 1259 2228 
L 1259 519 
L 2272 519 
Q 2781 519 3026 730 
Q 3272 941 3272 1375 
Q 3272 1813 3026 2020 
Q 2781 2228 2272 2228 
L 1259 2228 
z
M 1259 4147 
L 1259 2741 
L 2194 2741 
Q 2656 2741 2882 2914 
Q 3109 3088 3109 3444 
Q 3109 3797 2882 3972 
Q 2656 4147 2194 4147 
L 1259 4147 
z
M 628 4666 
L 2241 4666 
Q 2963 4666 3353 4366 
Q 3744 4066 3744 3513 
Q 3744 3084 3544 2831 
Q 3344 2578 2956 2516 
Q 3422 2416 3680 2098 
Q 3938 1781 3938 1306 
Q 3938 681 3513 340 
Q 3088 0 2303 0 
L 628 0 
L 628 4666 
z
" transform="scale(0.015625)"/>
      </defs>
      <use xlink:href="#DejaVuSans-42"/>
      <use xlink:href="#DejaVuSans-61" transform="translate(68.603516 0)"/>
      <use xlink:href="#DejaVuSans-73" transform="translate(129.882812 0)"/>
      <use xlink:href="#DejaVuSans-65" transform="translate(181.982422 0)"/>
      <use xlink:href="#DejaVuSans-6c" transform="translate(243.505859 0)"/>
      <use xlink:href="#DejaVuSans-69" transform="translate(271.289062 0)"/>
      <use xlink:href="#DejaVuSans-6e" transform="translate(299.072266 0)"/>
      <use xlink:href="#DejaVuSans-65" transform="translate(362.451172 0)"/>
     </g>
    </g>
    <g id="patch_11">
     <path d="M 369.137187 53.154688 
L 389.137187 53.154688 
L 389.137187 46.154688 
L 369.137187 46.154688 
z
" style="fill: #e1812c; stroke: #3f3f3f; stroke-width: 1.25; stroke-linejoin: miter"/>
    </g>
    <g id="text_18">
     <!-- eZtunnel -->
     <g transform="translate(397.137187 53.154688) scale(0.1 -0.1)">
      <defs>
       <path id="DejaVuSans-5a" d="M 359 4666 
L 4025 4666 
L 4025 4184 
L 1075 531 
L 4097 531 
L 4097 0 
L 288 0 
L 288 481 
L 3238 4134 
L 359 4134 
L 359 4666 
z
" transform="scale(0.015625)"/>
      </defs>
      <use xlink:href="#DejaVuSans-65"/>
      <use xlink:href="#DejaVuSans-5a" transform="translate(61.523438 0)"/>
      <use xlink:href="#DejaVuSans-74" transform="translate(130.029297 0)"/>
      <use xlink:href="#DejaVuSans-75" transform="translate(169.238281 0)"/>
      <use xlink:href="#DejaVuSans-6e" transform="translate(232.617188 0)"/>
      <use xlink:href="#DejaVuSans-6e" transform="translate(295.996094 0)"/>
      <use xlink:href="#DejaVuSans-65" transform="translate(359.375 0)"/>
      <use xlink:href="#DejaVuSans-6c" transform="translate(420.898438 0)"/>
     </g>
    </g>
   </g>
  </g>
 </g>
 <defs>
  <clipPath id="p06f28525f3">
   <rect x="93.884375" y="7.2" width="357.12" height="266.112"/>
  </clipPath>
 </defs>
</svg>
