<?xml version="1.0" encoding="utf-8" standalone="no"?>
<!DOCTYPE svg PUBLIC "-//W3C//DTD SVG 1.1//EN"
  "http://www.w3.org/Graphics/SVG/1.1/DTD/svg11.dtd">
<svg xmlns:xlink="http://www.w3.org/1999/xlink" width="810.275389pt" height="693.318906pt" viewBox="0 0 810.275389 693.318906" xmlns="http://www.w3.org/2000/svg" version="1.1">
 <metadata>
  <rdf:RDF xmlns:dc="http://purl.org/dc/elements/1.1/" xmlns:cc="http://creativecommons.org/ns#" xmlns:rdf="http://www.w3.org/1999/02/22-rdf-syntax-ns#">
   <cc:Work>
    <dc:type rdf:resource="http://purl.org/dc/dcmitype/StillImage"/>
    <dc:format>image/svg+xml</dc:format>
    <dc:creator>
     <cc:Agent>
      <dc:title>Matplotlib v3.10.0, https://matplotlib.org/</dc:title>
     </cc:Agent>
    </dc:creator>
   </cc:Work>
  </rdf:RDF>
 </metadata>
 <defs>
  <style type="text/css">*{stroke-linejoin: round; stroke-linecap: butt}</style>
 </defs>
 <g id="figure_1">
  <g id="patch_1">
   <path d="M 0 693.318906 
L 810.275389 693.318906 
L 810.275389 0 
L 0 0 
z
" style="fill: #ffffff"/>
  </g>
  <g id="axes_1">
   <g id="patch_2">
    <path d="M 62.86875 332.68 
L 380.856084 332.68 
L 380.856084 26.92 
L 62.86875 26.92 
z
" style="fill: #ffffff"/>
   </g>
   <g id="FillBetweenPolyCollection_1"/>
   <g id="FillBetweenPolyCollection_2"/>
   <g id="matplotlib.axis_1">
    <g id="xtick_1">
     <g id="line2d_1">
      <defs>
       <path id="mbcb02aef95" d="M 0 0 
L 0 3.5 
" style="stroke: #000000; stroke-width: 0.8"/>
      </defs>
      <g>
       <use xlink:href="#mbcb02aef95" x="77.32272" y="332.68" style="stroke: #000000; stroke-width: 0.8"/>
      </g>
     </g>
    </g>
    <g id="xtick_2">
     <g id="line2d_2">
      <g>
       <use xlink:href="#mbcb02aef95" x="115.611381" y="332.68" style="stroke: #000000; stroke-width: 0.8"/>
      </g>
     </g>
    </g>
    <g id="xtick_3">
     <g id="line2d_3">
      <g>
       <use xlink:href="#mbcb02aef95" x="153.900043" y="332.68" style="stroke: #000000; stroke-width: 0.8"/>
      </g>
     </g>
    </g>
    <g id="xtick_4">
     <g id="line2d_4">
      <g>
       <use xlink:href="#mbcb02aef95" x="192.188704" y="332.68" style="stroke: #000000; stroke-width: 0.8"/>
      </g>
     </g>
    </g>
    <g id="xtick_5">
     <g id="line2d_5">
      <g>
       <use xlink:href="#mbcb02aef95" x="230.477366" y="332.68" style="stroke: #000000; stroke-width: 0.8"/>
      </g>
     </g>
    </g>
    <g id="xtick_6">
     <g id="line2d_6">
      <g>
       <use xlink:href="#mbcb02aef95" x="268.766028" y="332.68" style="stroke: #000000; stroke-width: 0.8"/>
      </g>
     </g>
    </g>
    <g id="xtick_7">
     <g id="line2d_7">
      <g>
       <use xlink:href="#mbcb02aef95" x="307.054689" y="332.68" style="stroke: #000000; stroke-width: 0.8"/>
      </g>
     </g>
    </g>
    <g id="xtick_8">
     <g id="line2d_8">
      <g>
       <use xlink:href="#mbcb02aef95" x="345.343351" y="332.68" style="stroke: #000000; stroke-width: 0.8"/>
      </g>
     </g>
    </g>
   </g>
   <g id="matplotlib.axis_2">
    <g id="ytick_1">
     <g id="line2d_9">
      <defs>
       <path id="me5179b328b" d="M 0 0 
L -3.5 0 
" style="stroke: #000000; stroke-width: 0.8"/>
      </defs>
      <g>
       <use xlink:href="#me5179b328b" x="62.86875" y="332.68" style="stroke: #000000; stroke-width: 0.8"/>
      </g>
     </g>
     <g id="text_1">
      <!-- 1200.0 -->
      <g transform="translate(20.878125 336.479219) scale(0.1 -0.1)">
       <defs>
        <path id="DejaVuSans-31" d="M 794 531 
L 1825 531 
L 1825 4091 
L 703 3866 
L 703 4441 
L 1819 4666 
L 2450 4666 
L 2450 531 
L 3481 531 
L 3481 0 
L 794 0 
L 794 531 
z
" transform="scale(0.015625)"/>
        <path id="DejaVuSans-32" d="M 1228 531 
L 3431 531 
L 3431 0 
L 469 0 
L 469 531 
Q 828 903 1448 1529 
Q 2069 2156 2228 2338 
Q 2531 2678 2651 2914 
Q 2772 3150 2772 3378 
Q 2772 3750 2511 3984 
Q 2250 4219 1831 4219 
Q 1534 4219 1204 4116 
Q 875 4013 500 3803 
L 500 4441 
Q 881 4594 1212 4672 
Q 1544 4750 1819 4750 
Q 2544 4750 2975 4387 
Q 3406 4025 3406 3419 
Q 3406 3131 3298 2873 
Q 3191 2616 2906 2266 
Q 2828 2175 2409 1742 
Q 1991 1309 1228 531 
z
" transform="scale(0.015625)"/>
        <path id="DejaVuSans-30" d="M 2034 4250 
Q 1547 4250 1301 3770 
Q 1056 3291 1056 2328 
Q 1056 1369 1301 889 
Q 1547 409 2034 409 
Q 2525 409 2770 889 
Q 3016 1369 3016 2328 
Q 3016 3291 2770 3770 
Q 2525 4250 2034 4250 
z
M 2034 4750 
Q 2819 4750 3233 4129 
Q 3647 3509 3647 2328 
Q 3647 1150 3233 529 
Q 2819 -91 2034 -91 
Q 1250 -91 836 529 
Q 422 1150 422 2328 
Q 422 3509 836 4129 
Q 1250 4750 2034 4750 
z
" transform="scale(0.015625)"/>
        <path id="DejaVuSans-2e" d="M 684 794 
L 1344 794 
L 1344 0 
L 684 0 
L 684 794 
z
" transform="scale(0.015625)"/>
       </defs>
       <use xlink:href="#DejaVuSans-31"/>
       <use xlink:href="#DejaVuSans-32" transform="translate(63.623047 0)"/>
       <use xlink:href="#DejaVuSans-30" transform="translate(127.246094 0)"/>
       <use xlink:href="#DejaVuSans-30" transform="translate(190.869141 0)"/>
       <use xlink:href="#DejaVuSans-2e" transform="translate(254.492188 0)"/>
       <use xlink:href="#DejaVuSans-30" transform="translate(286.279297 0)"/>
      </g>
     </g>
    </g>
    <g id="ytick_2">
     <g id="line2d_10">
      <g>
       <use xlink:href="#me5179b328b" x="62.86875" y="294.46" style="stroke: #000000; stroke-width: 0.8"/>
      </g>
     </g>
     <g id="text_2">
      <!-- 1300.0 -->
      <g transform="translate(20.878125 298.259219) scale(0.1 -0.1)">
       <defs>
        <path id="DejaVuSans-33" d="M 2597 2516 
Q 3050 2419 3304 2112 
Q 3559 1806 3559 1356 
Q 3559 666 3084 287 
Q 2609 -91 1734 -91 
Q 1441 -91 1130 -33 
Q 819 25 488 141 
L 488 750 
Q 750 597 1062 519 
Q 1375 441 1716 441 
Q 2309 441 2620 675 
Q 2931 909 2931 1356 
Q 2931 1769 2642 2001 
Q 2353 2234 1838 2234 
L 1294 2234 
L 1294 2753 
L 1863 2753 
Q 2328 2753 2575 2939 
Q 2822 3125 2822 3475 
Q 2822 3834 2567 4026 
Q 2313 4219 1838 4219 
Q 1578 4219 1281 4162 
Q 984 4106 628 3988 
L 628 4550 
Q 988 4650 1302 4700 
Q 1616 4750 1894 4750 
Q 2613 4750 3031 4423 
Q 3450 4097 3450 3541 
Q 3450 3153 3228 2886 
Q 3006 2619 2597 2516 
z
" transform="scale(0.015625)"/>
       </defs>
       <use xlink:href="#DejaVuSans-31"/>
       <use xlink:href="#DejaVuSans-33" transform="translate(63.623047 0)"/>
       <use xlink:href="#DejaVuSans-30" transform="translate(127.246094 0)"/>
       <use xlink:href="#DejaVuSans-30" transform="translate(190.869141 0)"/>
       <use xlink:href="#DejaVuSans-2e" transform="translate(254.492188 0)"/>
       <use xlink:href="#DejaVuSans-30" transform="translate(286.279297 0)"/>
      </g>
     </g>
    </g>
    <g id="ytick_3">
     <g id="line2d_11">
      <g>
       <use xlink:href="#me5179b328b" x="62.86875" y="256.24" style="stroke: #000000; stroke-width: 0.8"/>
      </g>
     </g>
     <g id="text_3">
      <!-- 1400.0 -->
      <g transform="translate(20.878125 260.039219) scale(0.1 -0.1)">
       <defs>
        <path id="DejaVuSans-34" d="M 2419 4116 
L 825 1625 
L 2419 1625 
L 2419 4116 
z
M 2253 4666 
L 3047 4666 
L 3047 1625 
L 3713 1625 
L 3713 1100 
L 3047 1100 
L 3047 0 
L 2419 0 
L 2419 1100 
L 313 1100 
L 313 1709 
L 2253 4666 
z
" transform="scale(0.015625)"/>
       </defs>
       <use xlink:href="#DejaVuSans-31"/>
       <use xlink:href="#DejaVuSans-34" transform="translate(63.623047 0)"/>
       <use xlink:href="#DejaVuSans-30" transform="translate(127.246094 0)"/>
       <use xlink:href="#DejaVuSans-30" transform="translate(190.869141 0)"/>
       <use xlink:href="#DejaVuSans-2e" transform="translate(254.492188 0)"/>
       <use xlink:href="#DejaVuSans-30" transform="translate(286.279297 0)"/>
      </g>
     </g>
    </g>
    <g id="ytick_4">
     <g id="line2d_12">
      <g>
       <use xlink:href="#me5179b328b" x="62.86875" y="218.02" style="stroke: #000000; stroke-width: 0.8"/>
      </g>
     </g>
     <g id="text_4">
      <!-- 1500.0 -->
      <g transform="translate(20.878125 221.819219) scale(0.1 -0.1)">
       <defs>
        <path id="DejaVuSans-35" d="M 691 4666 
L 3169 4666 
L 3169 4134 
L 1269 4134 
L 1269 2991 
Q 1406 3038 1543 3061 
Q 1681 3084 1819 3084 
Q 2600 3084 3056 2656 
Q 3513 2228 3513 1497 
Q 3513 744 3044 326 
Q 2575 -91 1722 -91 
Q 1428 -91 1123 -41 
Q 819 9 494 109 
L 494 744 
Q 775 591 1075 516 
Q 1375 441 1709 441 
Q 2250 441 2565 725 
Q 2881 1009 2881 1497 
Q 2881 1984 2565 2268 
Q 2250 2553 1709 2553 
Q 1456 2553 1204 2497 
Q 953 2441 691 2322 
L 691 4666 
z
" transform="scale(0.015625)"/>
       </defs>
       <use xlink:href="#DejaVuSans-31"/>
       <use xlink:href="#DejaVuSans-35" transform="translate(63.623047 0)"/>
       <use xlink:href="#DejaVuSans-30" transform="translate(127.246094 0)"/>
       <use xlink:href="#DejaVuSans-30" transform="translate(190.869141 0)"/>
       <use xlink:href="#DejaVuSans-2e" transform="translate(254.492188 0)"/>
       <use xlink:href="#DejaVuSans-30" transform="translate(286.279297 0)"/>
      </g>
     </g>
    </g>
    <g id="ytick_5">
     <g id="line2d_13">
      <g>
       <use xlink:href="#me5179b328b" x="62.86875" y="179.8" style="stroke: #000000; stroke-width: 0.8"/>
      </g>
     </g>
     <g id="text_5">
      <!-- 1600.0 -->
      <g transform="translate(20.878125 183.599219) scale(0.1 -0.1)">
       <defs>
        <path id="DejaVuSans-36" d="M 2113 2584 
Q 1688 2584 1439 2293 
Q 1191 2003 1191 1497 
Q 1191 994 1439 701 
Q 1688 409 2113 409 
Q 2538 409 2786 701 
Q 3034 994 3034 1497 
Q 3034 2003 2786 2293 
Q 2538 2584 2113 2584 
z
M 3366 4563 
L 3366 3988 
Q 3128 4100 2886 4159 
Q 2644 4219 2406 4219 
Q 1781 4219 1451 3797 
Q 1122 3375 1075 2522 
Q 1259 2794 1537 2939 
Q 1816 3084 2150 3084 
Q 2853 3084 3261 2657 
Q 3669 2231 3669 1497 
Q 3669 778 3244 343 
Q 2819 -91 2113 -91 
Q 1303 -91 875 529 
Q 447 1150 447 2328 
Q 447 3434 972 4092 
Q 1497 4750 2381 4750 
Q 2619 4750 2861 4703 
Q 3103 4656 3366 4563 
z
" transform="scale(0.015625)"/>
       </defs>
       <use xlink:href="#DejaVuSans-31"/>
       <use xlink:href="#DejaVuSans-36" transform="translate(63.623047 0)"/>
       <use xlink:href="#DejaVuSans-30" transform="translate(127.246094 0)"/>
       <use xlink:href="#DejaVuSans-30" transform="translate(190.869141 0)"/>
       <use xlink:href="#DejaVuSans-2e" transform="translate(254.492188 0)"/>
       <use xlink:href="#DejaVuSans-30" transform="translate(286.279297 0)"/>
      </g>
     </g>
    </g>
    <g id="ytick_6">
     <g id="line2d_14">
      <g>
       <use xlink:href="#me5179b328b" x="62.86875" y="141.58" style="stroke: #000000; stroke-width: 0.8"/>
      </g>
     </g>
     <g id="text_6">
      <!-- 1700.0 -->
      <g transform="translate(20.878125 145.379219) scale(0.1 -0.1)">
       <defs>
        <path id="DejaVuSans-37" d="M 525 4666 
L 3525 4666 
L 3525 4397 
L 1831 0 
L 1172 0 
L 2766 4134 
L 525 4134 
L 525 4666 
z
" transform="scale(0.015625)"/>
       </defs>
       <use xlink:href="#DejaVuSans-31"/>
       <use xlink:href="#DejaVuSans-37" transform="translate(63.623047 0)"/>
       <use xlink:href="#DejaVuSans-30" transform="translate(127.246094 0)"/>
       <use xlink:href="#DejaVuSans-30" transform="translate(190.869141 0)"/>
       <use xlink:href="#DejaVuSans-2e" transform="translate(254.492188 0)"/>
       <use xlink:href="#DejaVuSans-30" transform="translate(286.279297 0)"/>
      </g>
     </g>
    </g>
    <g id="ytick_7">
     <g id="line2d_15">
      <g>
       <use xlink:href="#me5179b328b" x="62.86875" y="103.36" style="stroke: #000000; stroke-width: 0.8"/>
      </g>
     </g>
     <g id="text_7">
      <!-- 1800.0 -->
      <g transform="translate(20.878125 107.159219) scale(0.1 -0.1)">
       <defs>
        <path id="DejaVuSans-38" d="M 2034 2216 
Q 1584 2216 1326 1975 
Q 1069 1734 1069 1313 
Q 1069 891 1326 650 
Q 1584 409 2034 409 
Q 2484 409 2743 651 
Q 3003 894 3003 1313 
Q 3003 1734 2745 1975 
Q 2488 2216 2034 2216 
z
M 1403 2484 
Q 997 2584 770 2862 
Q 544 3141 544 3541 
Q 544 4100 942 4425 
Q 1341 4750 2034 4750 
Q 2731 4750 3128 4425 
Q 3525 4100 3525 3541 
Q 3525 3141 3298 2862 
Q 3072 2584 2669 2484 
Q 3125 2378 3379 2068 
Q 3634 1759 3634 1313 
Q 3634 634 3220 271 
Q 2806 -91 2034 -91 
Q 1263 -91 848 271 
Q 434 634 434 1313 
Q 434 1759 690 2068 
Q 947 2378 1403 2484 
z
M 1172 3481 
Q 1172 3119 1398 2916 
Q 1625 2713 2034 2713 
Q 2441 2713 2670 2916 
Q 2900 3119 2900 3481 
Q 2900 3844 2670 4047 
Q 2441 4250 2034 4250 
Q 1625 4250 1398 4047 
Q 1172 3844 1172 3481 
z
" transform="scale(0.015625)"/>
       </defs>
       <use xlink:href="#DejaVuSans-31"/>
       <use xlink:href="#DejaVuSans-38" transform="translate(63.623047 0)"/>
       <use xlink:href="#DejaVuSans-30" transform="translate(127.246094 0)"/>
       <use xlink:href="#DejaVuSans-30" transform="translate(190.869141 0)"/>
       <use xlink:href="#DejaVuSans-2e" transform="translate(254.492188 0)"/>
       <use xlink:href="#DejaVuSans-30" transform="translate(286.279297 0)"/>
      </g>
     </g>
    </g>
    <g id="ytick_8">
     <g id="line2d_16">
      <g>
       <use xlink:href="#me5179b328b" x="62.86875" y="65.14" style="stroke: #000000; stroke-width: 0.8"/>
      </g>
     </g>
     <g id="text_8">
      <!-- 1900.0 -->
      <g transform="translate(20.878125 68.939219) scale(0.1 -0.1)">
       <defs>
        <path id="DejaVuSans-39" d="M 703 97 
L 703 672 
Q 941 559 1184 500 
Q 1428 441 1663 441 
Q 2288 441 2617 861 
Q 2947 1281 2994 2138 
Q 2813 1869 2534 1725 
Q 2256 1581 1919 1581 
Q 1219 1581 811 2004 
Q 403 2428 403 3163 
Q 403 3881 828 4315 
Q 1253 4750 1959 4750 
Q 2769 4750 3195 4129 
Q 3622 3509 3622 2328 
Q 3622 1225 3098 567 
Q 2575 -91 1691 -91 
Q 1453 -91 1209 -44 
Q 966 3 703 97 
z
M 1959 2075 
Q 2384 2075 2632 2365 
Q 2881 2656 2881 3163 
Q 2881 3666 2632 3958 
Q 2384 4250 1959 4250 
Q 1534 4250 1286 3958 
Q 1038 3666 1038 3163 
Q 1038 2656 1286 2365 
Q 1534 2075 1959 2075 
z
" transform="scale(0.015625)"/>
       </defs>
       <use xlink:href="#DejaVuSans-31"/>
       <use xlink:href="#DejaVuSans-39" transform="translate(63.623047 0)"/>
       <use xlink:href="#DejaVuSans-30" transform="translate(127.246094 0)"/>
       <use xlink:href="#DejaVuSans-30" transform="translate(190.869141 0)"/>
       <use xlink:href="#DejaVuSans-2e" transform="translate(254.492188 0)"/>
       <use xlink:href="#DejaVuSans-30" transform="translate(286.279297 0)"/>
      </g>
     </g>
    </g>
    <g id="ytick_9">
     <g id="line2d_17">
      <g>
       <use xlink:href="#me5179b328b" x="62.86875" y="26.92" style="stroke: #000000; stroke-width: 0.8"/>
      </g>
     </g>
     <g id="text_9">
      <!-- 2000.0 -->
      <g transform="translate(20.878125 30.719219) scale(0.1 -0.1)">
       <use xlink:href="#DejaVuSans-32"/>
       <use xlink:href="#DejaVuSans-30" transform="translate(63.623047 0)"/>
       <use xlink:href="#DejaVuSans-30" transform="translate(127.246094 0)"/>
       <use xlink:href="#DejaVuSans-30" transform="translate(190.869141 0)"/>
       <use xlink:href="#DejaVuSans-2e" transform="translate(254.492188 0)"/>
       <use xlink:href="#DejaVuSans-30" transform="translate(286.279297 0)"/>
      </g>
     </g>
    </g>
    <g id="text_10">
     <!-- Memory Usage [MB] -->
     <g transform="translate(14.798438 230.538281) rotate(-90) scale(0.1 -0.1)">
      <defs>
       <path id="DejaVuSans-4d" d="M 628 4666 
L 1569 4666 
L 2759 1491 
L 3956 4666 
L 4897 4666 
L 4897 0 
L 4281 0 
L 4281 4097 
L 3078 897 
L 2444 897 
L 1241 4097 
L 1241 0 
L 628 0 
L 628 4666 
z
" transform="scale(0.015625)"/>
       <path id="DejaVuSans-65" d="M 3597 1894 
L 3597 1613 
L 953 1613 
Q 991 1019 1311 708 
Q 1631 397 2203 397 
Q 2534 397 2845 478 
Q 3156 559 3463 722 
L 3463 178 
Q 3153 47 2828 -22 
Q 2503 -91 2169 -91 
Q 1331 -91 842 396 
Q 353 884 353 1716 
Q 353 2575 817 3079 
Q 1281 3584 2069 3584 
Q 2775 3584 3186 3129 
Q 3597 2675 3597 1894 
z
M 3022 2063 
Q 3016 2534 2758 2815 
Q 2500 3097 2075 3097 
Q 1594 3097 1305 2825 
Q 1016 2553 972 2059 
L 3022 2063 
z
" transform="scale(0.015625)"/>
       <path id="DejaVuSans-6d" d="M 3328 2828 
Q 3544 3216 3844 3400 
Q 4144 3584 4550 3584 
Q 5097 3584 5394 3201 
Q 5691 2819 5691 2113 
L 5691 0 
L 5113 0 
L 5113 2094 
Q 5113 2597 4934 2840 
Q 4756 3084 4391 3084 
Q 3944 3084 3684 2787 
Q 3425 2491 3425 1978 
L 3425 0 
L 2847 0 
L 2847 2094 
Q 2847 2600 2669 2842 
Q 2491 3084 2119 3084 
Q 1678 3084 1418 2786 
Q 1159 2488 1159 1978 
L 1159 0 
L 581 0 
L 581 3500 
L 1159 3500 
L 1159 2956 
Q 1356 3278 1631 3431 
Q 1906 3584 2284 3584 
Q 2666 3584 2933 3390 
Q 3200 3197 3328 2828 
z
" transform="scale(0.015625)"/>
       <path id="DejaVuSans-6f" d="M 1959 3097 
Q 1497 3097 1228 2736 
Q 959 2375 959 1747 
Q 959 1119 1226 758 
Q 1494 397 1959 397 
Q 2419 397 2687 759 
Q 2956 1122 2956 1747 
Q 2956 2369 2687 2733 
Q 2419 3097 1959 3097 
z
M 1959 3584 
Q 2709 3584 3137 3096 
Q 3566 2609 3566 1747 
Q 3566 888 3137 398 
Q 2709 -91 1959 -91 
Q 1206 -91 779 398 
Q 353 888 353 1747 
Q 353 2609 779 3096 
Q 1206 3584 1959 3584 
z
" transform="scale(0.015625)"/>
       <path id="DejaVuSans-72" d="M 2631 2963 
Q 2534 3019 2420 3045 
Q 2306 3072 2169 3072 
Q 1681 3072 1420 2755 
Q 1159 2438 1159 1844 
L 1159 0 
L 581 0 
L 581 3500 
L 1159 3500 
L 1159 2956 
Q 1341 3275 1631 3429 
Q 1922 3584 2338 3584 
Q 2397 3584 2469 3576 
Q 2541 3569 2628 3553 
L 2631 2963 
z
" transform="scale(0.015625)"/>
       <path id="DejaVuSans-79" d="M 2059 -325 
Q 1816 -950 1584 -1140 
Q 1353 -1331 966 -1331 
L 506 -1331 
L 506 -850 
L 844 -850 
Q 1081 -850 1212 -737 
Q 1344 -625 1503 -206 
L 1606 56 
L 191 3500 
L 800 3500 
L 1894 763 
L 2988 3500 
L 3597 3500 
L 2059 -325 
z
" transform="scale(0.015625)"/>
       <path id="DejaVuSans-20" transform="scale(0.015625)"/>
       <path id="DejaVuSans-55" d="M 556 4666 
L 1191 4666 
L 1191 1831 
Q 1191 1081 1462 751 
Q 1734 422 2344 422 
Q 2950 422 3222 751 
Q 3494 1081 3494 1831 
L 3494 4666 
L 4128 4666 
L 4128 1753 
Q 4128 841 3676 375 
Q 3225 -91 2344 -91 
Q 1459 -91 1007 375 
Q 556 841 556 1753 
L 556 4666 
z
" transform="scale(0.015625)"/>
       <path id="DejaVuSans-73" d="M 2834 3397 
L 2834 2853 
Q 2591 2978 2328 3040 
Q 2066 3103 1784 3103 
Q 1356 3103 1142 2972 
Q 928 2841 928 2578 
Q 928 2378 1081 2264 
Q 1234 2150 1697 2047 
L 1894 2003 
Q 2506 1872 2764 1633 
Q 3022 1394 3022 966 
Q 3022 478 2636 193 
Q 2250 -91 1575 -91 
Q 1294 -91 989 -36 
Q 684 19 347 128 
L 347 722 
Q 666 556 975 473 
Q 1284 391 1588 391 
Q 1994 391 2212 530 
Q 2431 669 2431 922 
Q 2431 1156 2273 1281 
Q 2116 1406 1581 1522 
L 1381 1569 
Q 847 1681 609 1914 
Q 372 2147 372 2553 
Q 372 3047 722 3315 
Q 1072 3584 1716 3584 
Q 2034 3584 2315 3537 
Q 2597 3491 2834 3397 
z
" transform="scale(0.015625)"/>
       <path id="DejaVuSans-61" d="M 2194 1759 
Q 1497 1759 1228 1600 
Q 959 1441 959 1056 
Q 959 750 1161 570 
Q 1363 391 1709 391 
Q 2188 391 2477 730 
Q 2766 1069 2766 1631 
L 2766 1759 
L 2194 1759 
z
M 3341 1997 
L 3341 0 
L 2766 0 
L 2766 531 
Q 2569 213 2275 61 
Q 1981 -91 1556 -91 
Q 1019 -91 701 211 
Q 384 513 384 1019 
Q 384 1609 779 1909 
Q 1175 2209 1959 2209 
L 2766 2209 
L 2766 2266 
Q 2766 2663 2505 2880 
Q 2244 3097 1772 3097 
Q 1472 3097 1187 3025 
Q 903 2953 641 2809 
L 641 3341 
Q 956 3463 1253 3523 
Q 1550 3584 1831 3584 
Q 2591 3584 2966 3190 
Q 3341 2797 3341 1997 
z
" transform="scale(0.015625)"/>
       <path id="DejaVuSans-67" d="M 2906 1791 
Q 2906 2416 2648 2759 
Q 2391 3103 1925 3103 
Q 1463 3103 1205 2759 
Q 947 2416 947 1791 
Q 947 1169 1205 825 
Q 1463 481 1925 481 
Q 2391 481 2648 825 
Q 2906 1169 2906 1791 
z
M 3481 434 
Q 3481 -459 3084 -895 
Q 2688 -1331 1869 -1331 
Q 1566 -1331 1297 -1286 
Q 1028 -1241 775 -1147 
L 775 -588 
Q 1028 -725 1275 -790 
Q 1522 -856 1778 -856 
Q 2344 -856 2625 -561 
Q 2906 -266 2906 331 
L 2906 616 
Q 2728 306 2450 153 
Q 2172 0 1784 0 
Q 1141 0 747 490 
Q 353 981 353 1791 
Q 353 2603 747 3093 
Q 1141 3584 1784 3584 
Q 2172 3584 2450 3431 
Q 2728 3278 2906 2969 
L 2906 3500 
L 3481 3500 
L 3481 434 
z
" transform="scale(0.015625)"/>
       <path id="DejaVuSans-5b" d="M 550 4863 
L 1875 4863 
L 1875 4416 
L 1125 4416 
L 1125 -397 
L 1875 -397 
L 1875 -844 
L 550 -844 
L 550 4863 
z
" transform="scale(0.015625)"/>
       <path id="DejaVuSans-42" d="M 1259 2228 
L 1259 519 
L 2272 519 
Q 2781 519 3026 730 
Q 3272 941 3272 1375 
Q 3272 1813 3026 2020 
Q 2781 2228 2272 2228 
L 1259 2228 
z
M 1259 4147 
L 1259 2741 
L 2194 2741 
Q 2656 2741 2882 2914 
Q 3109 3088 3109 3444 
Q 3109 3797 2882 3972 
Q 2656 4147 2194 4147 
L 1259 4147 
z
M 628 4666 
L 2241 4666 
Q 2963 4666 3353 4366 
Q 3744 4066 3744 3513 
Q 3744 3084 3544 2831 
Q 3344 2578 2956 2516 
Q 3422 2416 3680 2098 
Q 3938 1781 3938 1306 
Q 3938 681 3513 340 
Q 3088 0 2303 0 
L 628 0 
L 628 4666 
z
" transform="scale(0.015625)"/>
       <path id="DejaVuSans-5d" d="M 1947 4863 
L 1947 -844 
L 622 -844 
L 622 -397 
L 1369 -397 
L 1369 4416 
L 622 4416 
L 622 4863 
L 1947 4863 
z
" transform="scale(0.015625)"/>
      </defs>
      <use xlink:href="#DejaVuSans-4d"/>
      <use xlink:href="#DejaVuSans-65" transform="translate(86.279297 0)"/>
      <use xlink:href="#DejaVuSans-6d" transform="translate(147.802734 0)"/>
      <use xlink:href="#DejaVuSans-6f" transform="translate(245.214844 0)"/>
      <use xlink:href="#DejaVuSans-72" transform="translate(306.396484 0)"/>
      <use xlink:href="#DejaVuSans-79" transform="translate(347.509766 0)"/>
      <use xlink:href="#DejaVuSans-20" transform="translate(406.689453 0)"/>
      <use xlink:href="#DejaVuSans-55" transform="translate(438.476562 0)"/>
      <use xlink:href="#DejaVuSans-73" transform="translate(511.669922 0)"/>
      <use xlink:href="#DejaVuSans-61" transform="translate(563.769531 0)"/>
      <use xlink:href="#DejaVuSans-67" transform="translate(625.048828 0)"/>
      <use xlink:href="#DejaVuSans-65" transform="translate(688.525391 0)"/>
      <use xlink:href="#DejaVuSans-20" transform="translate(750.048828 0)"/>
      <use xlink:href="#DejaVuSans-5b" transform="translate(781.835938 0)"/>
      <use xlink:href="#DejaVuSans-4d" transform="translate(820.849609 0)"/>
      <use xlink:href="#DejaVuSans-42" transform="translate(907.128906 0)"/>
      <use xlink:href="#DejaVuSans-5d" transform="translate(975.732422 0)"/>
     </g>
    </g>
   </g>
   <g id="line2d_18">
    <path d="M 77.32272 277.953167 
L 77.328463 277.953167 
L 79.237153 260.372701 
L 81.151586 258.930884 
L 83.066019 270.470119 
L 84.980452 269.72338 
L 86.894885 266.51882 
L 88.809318 266.382622 
L 90.723751 270.203986 
L 92.638184 277.51483 
L 94.552617 277.517961 
L 96.467051 261.048993 
L 98.381484 260.951933 
L 100.295917 259.373918 
L 102.21035 268.154758 
L 104.124783 267.963768 
L 106.039216 270.96638 
L 107.953649 270.96638 
L 109.868082 262.69589 
L 111.782515 262.700586 
L 113.696948 264.936108 
L 115.611381 268.24086 
L 117.525814 270.863058 
L 119.440247 271.523695 
L 121.354681 258.766507 
L 123.269114 256.521593 
L 125.183547 252.897481 
L 127.09798 266.620576 
L 129.012413 260.311647 
L 130.926846 264.931411 
L 132.841279 264.934542 
L 134.755712 261.523337 
L 136.670145 272.181201 
L 138.584578 262.359309 
L 140.499011 250.785633 
L 142.413444 255.654311 
L 144.327877 238.565409 
L 146.242311 244.921303 
L 148.156744 241.643164 
L 150.071177 241.86703 
L 151.98561 235.5581 
L 153.900043 243.803542 
L 155.814476 243.156994 
L 157.728909 238.4433 
L 159.643342 238.468348 
L 161.557775 237.834324 
L 163.472208 243.186739 
L 165.386641 243.058368 
L 167.301074 241.629075 
L 169.215507 242.003227 
L 171.129941 243.499837 
L 173.044374 230.869454 
L 174.958807 241.549235 
L 176.87324 241.585241 
L 178.787673 235.777269 
L 180.702106 241.823196 
L 182.616539 267.426804 
L 184.530972 213.880743 
L 186.445405 221.003728 
L 188.359838 220.953633 
L 190.274271 220.244465 
L 192.188704 226.182373 
L 194.103137 230.424854 
L 196.017571 232.942164 
L 197.932004 233.31162 
L 199.846437 232.405201 
L 201.76087 227.095055 
L 203.675303 232.341016 
L 205.589736 226.764736 
L 207.504169 224.198896 
L 209.418602 231.650634 
L 211.333035 229.891022 
L 213.247468 233.208298 
L 215.161901 234.067752 
L 217.076334 233.303793 
L 218.990767 234.562448 
L 220.905201 232.466255 
L 222.819634 232.35354 
L 224.734067 229.914504 
L 226.6485 232.91242 
L 228.562933 231.417376 
L 230.477366 225.455985 
L 232.391799 227.660197 
L 234.306232 225.798828 
L 236.220665 225.573397 
L 238.135098 218.28447 
L 240.049531 222.456504 
L 241.963964 224.281867 
L 243.878398 231.819707 
L 245.792831 227.101317 
L 247.707264 230.562618 
L 249.621697 231.123064 
L 251.53613 229.920766 
L 255.364996 231.935553 
L 257.279429 231.645938 
L 259.193862 226.063396 
L 261.108295 225.939722 
L 263.022728 221.980595 
L 264.937161 227.528696 
L 266.851594 231.725778 
L 268.766028 222.469028 
L 270.680461 220.909799 
L 272.594894 225.466944 
L 274.509327 225.992949 
L 276.42376 225.042696 
L 278.338193 230.772393 
L 280.252626 222.810305 
L 282.167059 229.479298 
L 284.081492 229.264825 
L 285.995925 226.423459 
L 287.910358 224.857968 
L 289.824791 222.400147 
L 291.739224 222.772733 
L 293.653658 224.040781 
L 295.568091 224.004775 
L 297.482524 218.082522 
L 299.396957 218.664885 
L 301.31139 225.095922 
L 303.225823 229.743866 
L 305.140256 229.347796 
L 307.054689 223.937459 
L 308.969122 223.79813 
L 310.883555 221.894493 
L 312.797988 222.56922 
L 314.712421 215.072082 
L 316.626854 226.949464 
L 318.541288 227.196812 
L 320.455721 230.4092 
L 322.370154 229.144283 
L 324.284587 226.185504 
L 326.19902 225.443461 
L 328.113453 227.33614 
L 330.027886 230.327794 
L 331.942319 223.323786 
L 333.856752 230.005303 
L 335.771185 227.09662 
L 337.685618 225.891192 
L 339.600051 228.843708 
L 341.514484 220.275775 
L 343.428918 223.508514 
L 345.343351 229.69377 
L 347.257784 230.230734 
L 349.172217 223.076439 
L 351.08665 223.364489 
L 353.001083 225.601576 
L 354.915516 222.285866 
L 356.829949 270.963249 
L 358.744382 271.874365 
L 360.658815 279.983609 
L 362.573248 280.021181 
L 364.487681 280.520573 
L 366.402114 282.31306 
L 366.402114 282.31306 
" clip-path="url(#pa6d9c1bf87)" style="fill: none; stroke: #1f77b4; stroke-width: 1.5; stroke-linecap: square"/>
   </g>
   <g id="line2d_19">
    <path d="M 77.32272 258.658488 
L 77.324634 258.559862 
L 79.237153 245.859032 
L 81.151586 245.206222 
L 83.066019 249.996625 
L 84.980452 248.006886 
L 86.894885 230.972776 
L 88.809318 233.192643 
L 90.723751 231.328143 
L 92.638184 226.208987 
L 94.552617 235.569059 
L 96.467051 231.292137 
L 98.381484 229.817444 
L 100.295917 235.340497 
L 102.21035 235.155769 
L 104.124783 230.933639 
L 106.039216 234.393375 
L 107.953649 235.943211 
L 109.868082 234.681425 
L 111.782515 226.340488 
L 113.696948 246.637081 
L 115.611381 216.119396 
L 117.525814 213.800903 
L 119.440247 206.901784 
L 121.354681 203.888213 
L 123.269114 203.695658 
L 125.183547 201.045281 
L 127.09798 210.176791 
L 129.012413 213.907357 
L 130.926846 210.489889 
L 132.841279 212.786465 
L 134.755712 199.327937 
L 136.670145 193.023704 
L 138.584578 204.213835 
L 140.499011 204.256104 
L 142.413444 206.749931 
L 144.327877 203.824028 
L 146.242311 202.765756 
L 148.156744 203.831855 
L 150.071177 207.734625 
L 151.98561 207.081815 
L 153.900043 198.881772 
L 155.814476 203.243231 
L 157.728909 202.681219 
L 159.643342 210.31612 
L 161.557775 210.109475 
L 163.472208 206.455619 
L 165.386641 209.835514 
L 167.301074 202.574766 
L 169.215507 207.180441 
L 171.129941 202.854989 
L 173.044374 200.904387 
L 174.958807 197.950305 
L 176.87324 203.52815 
L 178.787673 203.158694 
L 180.702106 205.91709 
L 182.616539 203.019365 
L 184.530972 200.915345 
L 186.445405 200.727486 
L 188.359838 201.417868 
L 190.274271 202.840899 
L 192.188704 202.233489 
L 194.103137 208.764718 
L 196.017571 209.581905 
L 197.932004 211.040942 
L 199.846437 210.951709 
L 201.76087 201.518059 
L 203.675303 201.098508 
L 205.589736 197.590242 
L 207.504169 209.235931 
L 209.418602 204.293675 
L 211.333035 205.622777 
L 213.247468 205.350382 
L 215.161901 201.222182 
L 217.076334 203.845945 
L 218.990767 205.624343 
L 220.905201 206.367951 
L 222.819634 208.633217 
L 224.734067 208.844558 
L 226.6485 208.276285 
L 228.562933 207.722101 
L 230.477366 202.407258 
L 232.391799 209.13574 
L 234.306232 208.67392 
L 236.220665 206.416481 
L 238.135098 206.239581 
L 240.049531 250.544547 
L 241.963964 250.605601 
L 243.878398 257.966541 
L 244.02198 260.48072 
L 245.792831 259.959411 
L 247.707264 259.965673 
L 249.621697 259.708933 
" clip-path="url(#pa6d9c1bf87)" style="fill: none; stroke: #ff7f0e; stroke-width: 1.5; stroke-linecap: square"/>
   </g>
   <g id="line2d_20"/>
   <g id="line2d_21"/>
   <g id="patch_3">
    <path d="M 62.86875 332.68 
L 62.86875 26.92 
" style="fill: none; stroke: #000000; stroke-width: 0.8; stroke-linejoin: miter; stroke-linecap: square"/>
   </g>
   <g id="patch_4">
    <path d="M 62.86875 332.68 
L 380.856084 332.68 
" style="fill: none; stroke: #000000; stroke-width: 0.8; stroke-linejoin: miter; stroke-linecap: square"/>
   </g>
   <g id="text_11">
    <!-- Service Mesh = none -->
    <g transform="translate(158.172417 20.92) scale(0.12 -0.12)">
     <defs>
      <path id="DejaVuSans-53" d="M 3425 4513 
L 3425 3897 
Q 3066 4069 2747 4153 
Q 2428 4238 2131 4238 
Q 1616 4238 1336 4038 
Q 1056 3838 1056 3469 
Q 1056 3159 1242 3001 
Q 1428 2844 1947 2747 
L 2328 2669 
Q 3034 2534 3370 2195 
Q 3706 1856 3706 1288 
Q 3706 609 3251 259 
Q 2797 -91 1919 -91 
Q 1588 -91 1214 -16 
Q 841 59 441 206 
L 441 856 
Q 825 641 1194 531 
Q 1563 422 1919 422 
Q 2459 422 2753 634 
Q 3047 847 3047 1241 
Q 3047 1584 2836 1778 
Q 2625 1972 2144 2069 
L 1759 2144 
Q 1053 2284 737 2584 
Q 422 2884 422 3419 
Q 422 4038 858 4394 
Q 1294 4750 2059 4750 
Q 2388 4750 2728 4690 
Q 3069 4631 3425 4513 
z
" transform="scale(0.015625)"/>
      <path id="DejaVuSans-76" d="M 191 3500 
L 800 3500 
L 1894 563 
L 2988 3500 
L 3597 3500 
L 2284 0 
L 1503 0 
L 191 3500 
z
" transform="scale(0.015625)"/>
      <path id="DejaVuSans-69" d="M 603 3500 
L 1178 3500 
L 1178 0 
L 603 0 
L 603 3500 
z
M 603 4863 
L 1178 4863 
L 1178 4134 
L 603 4134 
L 603 4863 
z
" transform="scale(0.015625)"/>
      <path id="DejaVuSans-63" d="M 3122 3366 
L 3122 2828 
Q 2878 2963 2633 3030 
Q 2388 3097 2138 3097 
Q 1578 3097 1268 2742 
Q 959 2388 959 1747 
Q 959 1106 1268 751 
Q 1578 397 2138 397 
Q 2388 397 2633 464 
Q 2878 531 3122 666 
L 3122 134 
Q 2881 22 2623 -34 
Q 2366 -91 2075 -91 
Q 1284 -91 818 406 
Q 353 903 353 1747 
Q 353 2603 823 3093 
Q 1294 3584 2113 3584 
Q 2378 3584 2631 3529 
Q 2884 3475 3122 3366 
z
" transform="scale(0.015625)"/>
      <path id="DejaVuSans-68" d="M 3513 2113 
L 3513 0 
L 2938 0 
L 2938 2094 
Q 2938 2591 2744 2837 
Q 2550 3084 2163 3084 
Q 1697 3084 1428 2787 
Q 1159 2491 1159 1978 
L 1159 0 
L 581 0 
L 581 4863 
L 1159 4863 
L 1159 2956 
Q 1366 3272 1645 3428 
Q 1925 3584 2291 3584 
Q 2894 3584 3203 3211 
Q 3513 2838 3513 2113 
z
" transform="scale(0.015625)"/>
      <path id="DejaVuSans-3d" d="M 678 2906 
L 4684 2906 
L 4684 2381 
L 678 2381 
L 678 2906 
z
M 678 1631 
L 4684 1631 
L 4684 1100 
L 678 1100 
L 678 1631 
z
" transform="scale(0.015625)"/>
      <path id="DejaVuSans-6e" d="M 3513 2113 
L 3513 0 
L 2938 0 
L 2938 2094 
Q 2938 2591 2744 2837 
Q 2550 3084 2163 3084 
Q 1697 3084 1428 2787 
Q 1159 2491 1159 1978 
L 1159 0 
L 581 0 
L 581 3500 
L 1159 3500 
L 1159 2956 
Q 1366 3272 1645 3428 
Q 1925 3584 2291 3584 
Q 2894 3584 3203 3211 
Q 3513 2838 3513 2113 
z
" transform="scale(0.015625)"/>
     </defs>
     <use xlink:href="#DejaVuSans-53"/>
     <use xlink:href="#DejaVuSans-65" transform="translate(63.476562 0)"/>
     <use xlink:href="#DejaVuSans-72" transform="translate(125 0)"/>
     <use xlink:href="#DejaVuSans-76" transform="translate(166.113281 0)"/>
     <use xlink:href="#DejaVuSans-69" transform="translate(225.292969 0)"/>
     <use xlink:href="#DejaVuSans-63" transform="translate(253.076172 0)"/>
     <use xlink:href="#DejaVuSans-65" transform="translate(308.056641 0)"/>
     <use xlink:href="#DejaVuSans-20" transform="translate(369.580078 0)"/>
     <use xlink:href="#DejaVuSans-4d" transform="translate(401.367188 0)"/>
     <use xlink:href="#DejaVuSans-65" transform="translate(487.646484 0)"/>
     <use xlink:href="#DejaVuSans-73" transform="translate(549.169922 0)"/>
     <use xlink:href="#DejaVuSans-68" transform="translate(601.269531 0)"/>
     <use xlink:href="#DejaVuSans-20" transform="translate(664.648438 0)"/>
     <use xlink:href="#DejaVuSans-3d" transform="translate(696.435547 0)"/>
     <use xlink:href="#DejaVuSans-20" transform="translate(780.224609 0)"/>
     <use xlink:href="#DejaVuSans-6e" transform="translate(812.011719 0)"/>
     <use xlink:href="#DejaVuSans-6f" transform="translate(875.390625 0)"/>
     <use xlink:href="#DejaVuSans-6e" transform="translate(936.572266 0)"/>
     <use xlink:href="#DejaVuSans-65" transform="translate(999.951172 0)"/>
    </g>
   </g>
  </g>
  <g id="axes_2">
   <g id="patch_5">
    <path d="M 403.895955 332.68 
L 721.883289 332.68 
L 721.883289 26.92 
L 403.895955 26.92 
z
" style="fill: #ffffff"/>
   </g>
   <g id="FillBetweenPolyCollection_3"/>
   <g id="FillBetweenPolyCollection_4"/>
   <g id="matplotlib.axis_3">
    <g id="xtick_9">
     <g id="line2d_22">
      <g>
       <use xlink:href="#mbcb02aef95" x="418.349924" y="332.68" style="stroke: #000000; stroke-width: 0.8"/>
      </g>
     </g>
    </g>
    <g id="xtick_10">
     <g id="line2d_23">
      <g>
       <use xlink:href="#mbcb02aef95" x="471.883146" y="332.68" style="stroke: #000000; stroke-width: 0.8"/>
      </g>
     </g>
    </g>
    <g id="xtick_11">
     <g id="line2d_24">
      <g>
       <use xlink:href="#mbcb02aef95" x="525.416367" y="332.68" style="stroke: #000000; stroke-width: 0.8"/>
      </g>
     </g>
    </g>
    <g id="xtick_12">
     <g id="line2d_25">
      <g>
       <use xlink:href="#mbcb02aef95" x="578.949588" y="332.68" style="stroke: #000000; stroke-width: 0.8"/>
      </g>
     </g>
    </g>
    <g id="xtick_13">
     <g id="line2d_26">
      <g>
       <use xlink:href="#mbcb02aef95" x="632.482809" y="332.68" style="stroke: #000000; stroke-width: 0.8"/>
      </g>
     </g>
    </g>
    <g id="xtick_14">
     <g id="line2d_27">
      <g>
       <use xlink:href="#mbcb02aef95" x="686.016031" y="332.68" style="stroke: #000000; stroke-width: 0.8"/>
      </g>
     </g>
    </g>
   </g>
   <g id="matplotlib.axis_4">
    <g id="ytick_10">
     <g id="line2d_28">
      <g>
       <use xlink:href="#me5179b328b" x="403.895955" y="332.68" style="stroke: #000000; stroke-width: 0.8"/>
      </g>
     </g>
    </g>
    <g id="ytick_11">
     <g id="line2d_29">
      <g>
       <use xlink:href="#me5179b328b" x="403.895955" y="294.46" style="stroke: #000000; stroke-width: 0.8"/>
      </g>
     </g>
    </g>
    <g id="ytick_12">
     <g id="line2d_30">
      <g>
       <use xlink:href="#me5179b328b" x="403.895955" y="256.24" style="stroke: #000000; stroke-width: 0.8"/>
      </g>
     </g>
    </g>
    <g id="ytick_13">
     <g id="line2d_31">
      <g>
       <use xlink:href="#me5179b328b" x="403.895955" y="218.02" style="stroke: #000000; stroke-width: 0.8"/>
      </g>
     </g>
    </g>
    <g id="ytick_14">
     <g id="line2d_32">
      <g>
       <use xlink:href="#me5179b328b" x="403.895955" y="179.8" style="stroke: #000000; stroke-width: 0.8"/>
      </g>
     </g>
    </g>
    <g id="ytick_15">
     <g id="line2d_33">
      <g>
       <use xlink:href="#me5179b328b" x="403.895955" y="141.58" style="stroke: #000000; stroke-width: 0.8"/>
      </g>
     </g>
    </g>
    <g id="ytick_16">
     <g id="line2d_34">
      <g>
       <use xlink:href="#me5179b328b" x="403.895955" y="103.36" style="stroke: #000000; stroke-width: 0.8"/>
      </g>
     </g>
    </g>
    <g id="ytick_17">
     <g id="line2d_35">
      <g>
       <use xlink:href="#me5179b328b" x="403.895955" y="65.14" style="stroke: #000000; stroke-width: 0.8"/>
      </g>
     </g>
    </g>
    <g id="ytick_18">
     <g id="line2d_36">
      <g>
       <use xlink:href="#me5179b328b" x="403.895955" y="26.92" style="stroke: #000000; stroke-width: 0.8"/>
      </g>
     </g>
    </g>
   </g>
   <g id="line2d_37">
    <path d="M 418.349924 295.738713 
L 418.355278 295.640087 
L 421.026585 281.505267 
L 423.703246 286.004488 
L 426.379907 279.006743 
L 429.056569 298.462667 
L 431.73323 297.778548 
L 434.409891 281.726001 
L 437.086552 285.616247 
L 439.763213 285.057366 
L 442.439874 281.746352 
L 445.116535 279.589106 
L 447.793196 288.920999 
L 450.469857 285.497269 
L 453.146518 285.418995 
L 455.823179 284.672255 
L 458.49984 297.401264 
L 461.176501 287.759404 
L 463.853162 286.669822 
L 466.529823 282.178428 
L 469.206484 282.45552 
L 471.883146 266.232335 
L 474.559807 263.849657 
L 477.236468 268.284694 
L 479.913129 266.335657 
L 482.58979 267.309393 
L 485.266451 262.428191 
L 487.943112 260.770336 
L 490.619773 260.486982 
L 493.296434 260.649793 
L 495.973095 268.585268 
L 498.649756 267.3 
L 501.326417 266.689458 
L 504.003078 265.770515 
L 506.679739 267.119968 
L 509.3564 292.592075 
L 512.033061 245.181174 
L 514.709723 242.771884 
L 517.386384 245.7244 
L 520.063045 246.344334 
L 522.739706 239.014705 
L 525.416367 242.322588 
L 528.093028 240.093328 
L 530.769689 245.574113 
L 533.44635 246.430436 
L 536.123011 246.167434 
L 538.799672 237.796752 
L 541.476333 245.154561 
L 544.152994 247.535673 
L 546.829655 245.043411 
L 549.506316 244.918172 
L 552.182977 242.892426 
L 554.859638 235.785096 
L 557.5363 243.479486 
L 560.212961 245.179609 
L 562.889622 245.160823 
L 565.566283 244.879035 
L 568.242944 239.474959 
L 570.919605 242.853289 
L 573.596266 242.976963 
L 576.272927 241.903036 
L 578.949588 244.949482 
L 581.626249 235.525225 
L 584.30291 237.641769 
L 586.979571 237.864069 
L 589.656232 245.567851 
L 592.332893 237.563494 
L 595.009554 244.692741 
L 597.686215 245.095072 
L 600.362877 243.634469 
L 603.039538 243.792584 
L 605.716199 242.482268 
L 608.39286 236.152987 
L 611.069521 238.471479 
L 613.746182 244.194915 
L 616.422843 238.000266 
L 619.099504 244.741271 
L 621.776165 244.169867 
L 624.452826 245.329896 
L 627.129487 244.839897 
L 629.806148 244.457918 
L 632.482809 244.664562 
L 635.15947 236.270399 
L 637.836131 237.043751 
L 640.512792 231.835362 
L 643.189454 234.899028 
L 645.866115 240.05106 
L 648.542776 243.535843 
L 651.219437 243.795715 
L 653.896098 243.944436 
L 656.572759 243.892775 
L 659.24942 241.563324 
L 661.926081 241.076457 
L 664.602742 242.911212 
L 667.279403 243.174215 
L 669.956064 240.750834 
L 672.632725 243.837983 
L 675.309386 240.728918 
L 677.986047 244.659866 
L 680.662708 243.258751 
L 683.339369 239.952434 
L 686.016031 293.248016 
L 688.692692 296.770371 
L 691.369353 287.086243 
L 694.046014 290.143647 
L 696.722675 298.415703 
L 699.399336 298.324904 
L 701.380065 297.404395 
L 702.075997 302.883615 
L 704.752658 302.794382 
L 707.429319 296.006412 
" clip-path="url(#pf13775af38)" style="fill: none; stroke: #1f77b4; stroke-width: 1.5; stroke-linecap: square"/>
   </g>
   <g id="line2d_38">
    <path d="M 418.349924 288.694002 
L 418.352601 288.694002 
L 421.026585 276.916812 
L 423.703246 273.277045 
L 426.379907 271.515867 
L 429.056569 266.697286 
L 431.73323 253.185531 
L 434.409891 252.518632 
L 437.086552 254.148308 
L 439.763213 253.763197 
L 442.439874 254.289202 
L 445.116535 251.764065 
L 447.793196 253.338949 
L 450.469857 252.683008 
L 453.146518 247.338421 
L 455.823179 250.156306 
L 458.49984 250.107775 
L 461.176501 248.8319 
L 463.853162 248.644041 
L 466.529823 253.464188 
L 469.206484 272.945161 
L 471.883146 228.613581 
L 474.559807 227.458249 
L 477.236468 220.178715 
L 479.913129 223.286215 
L 482.58979 222.440849 
L 485.266451 218.869964 
L 487.943112 218.68367 
L 490.619773 226.373363 
L 493.296434 226.285696 
L 495.973095 228.010867 
L 498.649756 222.431456 
L 501.326417 228.915721 
L 504.003078 228.532176 
L 506.679739 227.167067 
L 509.3564 227.171764 
L 512.033061 226.824225 
L 514.709723 224.695157 
L 517.386384 226.778825 
L 520.063045 225.568701 
L 522.739706 225.291609 
L 525.416367 225.72525 
L 528.093028 225.341704 
L 530.769689 221.61427 
L 533.44635 221.529733 
L 536.123011 217.21524 
L 538.799672 225.47164 
L 541.476333 225.180459 
L 544.152994 224.89867 
L 546.829655 224.710812 
L 549.506316 227.704031 
L 552.182977 223.610271 
L 554.859638 226.135409 
L 557.5363 226.722468 
L 560.212961 218.688367 
L 562.889622 221.856921 
L 565.566283 222.135579 
L 568.242944 214.945277 
L 570.919605 214.949974 
L 573.596266 213.968411 
L 576.272927 223.060784 
L 578.949588 218.152969 
L 581.626249 218.157665 
L 584.30291 221.047562 
L 586.979571 223.98912 
L 589.656232 221.537561 
L 592.332893 225.784739 
L 595.009554 226.467293 
L 597.686215 227.293872 
L 600.362877 226.938506 
L 603.039538 224.264647 
L 605.716199 227.791698 
L 608.39286 222.010339 
L 611.069521 221.827177 
L 613.746182 217.537731 
L 616.422843 223.505383 
L 619.099504 226.063396 
L 621.776165 223.970334 
L 624.452826 224.101835 
L 627.129487 227.253169 
L 629.806148 226.963553 
L 632.482809 223.996948 
L 635.15947 223.525735 
L 637.836131 228.189333 
L 640.512792 227.896586 
L 643.189454 275.255826 
L 645.866115 278.768788 
L 648.542776 275.138414 
L 649.308301 276.262437 
L 651.219437 276.281223 
L 653.896098 276.284354 
L 656.572759 282.197214 
" clip-path="url(#pf13775af38)" style="fill: none; stroke: #ff7f0e; stroke-width: 1.5; stroke-linecap: square"/>
   </g>
   <g id="patch_6">
    <path d="M 403.895955 332.68 
L 403.895955 26.92 
" style="fill: none; stroke: #000000; stroke-width: 0.8; stroke-linejoin: miter; stroke-linecap: square"/>
   </g>
   <g id="patch_7">
    <path d="M 403.895955 332.68 
L 721.883289 332.68 
" style="fill: none; stroke: #000000; stroke-width: 0.8; stroke-linejoin: miter; stroke-linecap: square"/>
   </g>
   <g id="text_12">
    <!-- Service Mesh = cilium -->
    <g transform="translate(496.221184 20.92) scale(0.12 -0.12)">
     <defs>
      <path id="DejaVuSans-6c" d="M 603 4863 
L 1178 4863 
L 1178 0 
L 603 0 
L 603 4863 
z
" transform="scale(0.015625)"/>
      <path id="DejaVuSans-75" d="M 544 1381 
L 544 3500 
L 1119 3500 
L 1119 1403 
Q 1119 906 1312 657 
Q 1506 409 1894 409 
Q 2359 409 2629 706 
Q 2900 1003 2900 1516 
L 2900 3500 
L 3475 3500 
L 3475 0 
L 2900 0 
L 2900 538 
Q 2691 219 2414 64 
Q 2138 -91 1772 -91 
Q 1169 -91 856 284 
Q 544 659 544 1381 
z
M 1991 3584 
L 1991 3584 
z
" transform="scale(0.015625)"/>
     </defs>
     <use xlink:href="#DejaVuSans-53"/>
     <use xlink:href="#DejaVuSans-65" transform="translate(63.476562 0)"/>
     <use xlink:href="#DejaVuSans-72" transform="translate(125 0)"/>
     <use xlink:href="#DejaVuSans-76" transform="translate(166.113281 0)"/>
     <use xlink:href="#DejaVuSans-69" transform="translate(225.292969 0)"/>
     <use xlink:href="#DejaVuSans-63" transform="translate(253.076172 0)"/>
     <use xlink:href="#DejaVuSans-65" transform="translate(308.056641 0)"/>
     <use xlink:href="#DejaVuSans-20" transform="translate(369.580078 0)"/>
     <use xlink:href="#DejaVuSans-4d" transform="translate(401.367188 0)"/>
     <use xlink:href="#DejaVuSans-65" transform="translate(487.646484 0)"/>
     <use xlink:href="#DejaVuSans-73" transform="translate(549.169922 0)"/>
     <use xlink:href="#DejaVuSans-68" transform="translate(601.269531 0)"/>
     <use xlink:href="#DejaVuSans-20" transform="translate(664.648438 0)"/>
     <use xlink:href="#DejaVuSans-3d" transform="translate(696.435547 0)"/>
     <use xlink:href="#DejaVuSans-20" transform="translate(780.224609 0)"/>
     <use xlink:href="#DejaVuSans-63" transform="translate(812.011719 0)"/>
     <use xlink:href="#DejaVuSans-69" transform="translate(866.992188 0)"/>
     <use xlink:href="#DejaVuSans-6c" transform="translate(894.775391 0)"/>
     <use xlink:href="#DejaVuSans-69" transform="translate(922.558594 0)"/>
     <use xlink:href="#DejaVuSans-75" transform="translate(950.341797 0)"/>
     <use xlink:href="#DejaVuSans-6d" transform="translate(1013.720703 0)"/>
    </g>
   </g>
  </g>
  <g id="axes_3">
   <g id="patch_8">
    <path d="M 62.86875 680.24 
L 380.856084 680.24 
L 380.856084 374.48 
L 62.86875 374.48 
z
" style="fill: #ffffff"/>
   </g>
   <g id="FillBetweenPolyCollection_5"/>
   <g id="FillBetweenPolyCollection_6"/>
   <g id="matplotlib.axis_5">
    <g id="xtick_15">
     <g id="line2d_39">
      <g>
       <use xlink:href="#mbcb02aef95" x="77.32272" y="680.24" style="stroke: #000000; stroke-width: 0.8"/>
      </g>
     </g>
    </g>
    <g id="xtick_16">
     <g id="line2d_40">
      <g>
       <use xlink:href="#mbcb02aef95" x="119.097199" y="680.24" style="stroke: #000000; stroke-width: 0.8"/>
      </g>
     </g>
    </g>
    <g id="xtick_17">
     <g id="line2d_41">
      <g>
       <use xlink:href="#mbcb02aef95" x="160.871678" y="680.24" style="stroke: #000000; stroke-width: 0.8"/>
      </g>
     </g>
    </g>
    <g id="xtick_18">
     <g id="line2d_42">
      <g>
       <use xlink:href="#mbcb02aef95" x="202.646157" y="680.24" style="stroke: #000000; stroke-width: 0.8"/>
      </g>
     </g>
    </g>
    <g id="xtick_19">
     <g id="line2d_43">
      <g>
       <use xlink:href="#mbcb02aef95" x="244.420636" y="680.24" style="stroke: #000000; stroke-width: 0.8"/>
      </g>
     </g>
    </g>
    <g id="xtick_20">
     <g id="line2d_44">
      <g>
       <use xlink:href="#mbcb02aef95" x="286.195115" y="680.24" style="stroke: #000000; stroke-width: 0.8"/>
      </g>
     </g>
    </g>
    <g id="xtick_21">
     <g id="line2d_45">
      <g>
       <use xlink:href="#mbcb02aef95" x="327.969594" y="680.24" style="stroke: #000000; stroke-width: 0.8"/>
      </g>
     </g>
    </g>
    <g id="xtick_22">
     <g id="line2d_46">
      <g>
       <use xlink:href="#mbcb02aef95" x="369.744073" y="680.24" style="stroke: #000000; stroke-width: 0.8"/>
      </g>
     </g>
    </g>
   </g>
   <g id="matplotlib.axis_6">
    <g id="ytick_19">
     <g id="line2d_47">
      <g>
       <use xlink:href="#me5179b328b" x="62.86875" y="680.24" style="stroke: #000000; stroke-width: 0.8"/>
      </g>
     </g>
     <g id="text_13">
      <!-- 1200.0 -->
      <g transform="translate(20.878125 684.039219) scale(0.1 -0.1)">
       <use xlink:href="#DejaVuSans-31"/>
       <use xlink:href="#DejaVuSans-32" transform="translate(63.623047 0)"/>
       <use xlink:href="#DejaVuSans-30" transform="translate(127.246094 0)"/>
       <use xlink:href="#DejaVuSans-30" transform="translate(190.869141 0)"/>
       <use xlink:href="#DejaVuSans-2e" transform="translate(254.492188 0)"/>
       <use xlink:href="#DejaVuSans-30" transform="translate(286.279297 0)"/>
      </g>
     </g>
    </g>
    <g id="ytick_20">
     <g id="line2d_48">
      <g>
       <use xlink:href="#me5179b328b" x="62.86875" y="642.02" style="stroke: #000000; stroke-width: 0.8"/>
      </g>
     </g>
     <g id="text_14">
      <!-- 1300.0 -->
      <g transform="translate(20.878125 645.819219) scale(0.1 -0.1)">
       <use xlink:href="#DejaVuSans-31"/>
       <use xlink:href="#DejaVuSans-33" transform="translate(63.623047 0)"/>
       <use xlink:href="#DejaVuSans-30" transform="translate(127.246094 0)"/>
       <use xlink:href="#DejaVuSans-30" transform="translate(190.869141 0)"/>
       <use xlink:href="#DejaVuSans-2e" transform="translate(254.492188 0)"/>
       <use xlink:href="#DejaVuSans-30" transform="translate(286.279297 0)"/>
      </g>
     </g>
    </g>
    <g id="ytick_21">
     <g id="line2d_49">
      <g>
       <use xlink:href="#me5179b328b" x="62.86875" y="603.8" style="stroke: #000000; stroke-width: 0.8"/>
      </g>
     </g>
     <g id="text_15">
      <!-- 1400.0 -->
      <g transform="translate(20.878125 607.599219) scale(0.1 -0.1)">
       <use xlink:href="#DejaVuSans-31"/>
       <use xlink:href="#DejaVuSans-34" transform="translate(63.623047 0)"/>
       <use xlink:href="#DejaVuSans-30" transform="translate(127.246094 0)"/>
       <use xlink:href="#DejaVuSans-30" transform="translate(190.869141 0)"/>
       <use xlink:href="#DejaVuSans-2e" transform="translate(254.492188 0)"/>
       <use xlink:href="#DejaVuSans-30" transform="translate(286.279297 0)"/>
      </g>
     </g>
    </g>
    <g id="ytick_22">
     <g id="line2d_50">
      <g>
       <use xlink:href="#me5179b328b" x="62.86875" y="565.58" style="stroke: #000000; stroke-width: 0.8"/>
      </g>
     </g>
     <g id="text_16">
      <!-- 1500.0 -->
      <g transform="translate(20.878125 569.379219) scale(0.1 -0.1)">
       <use xlink:href="#DejaVuSans-31"/>
       <use xlink:href="#DejaVuSans-35" transform="translate(63.623047 0)"/>
       <use xlink:href="#DejaVuSans-30" transform="translate(127.246094 0)"/>
       <use xlink:href="#DejaVuSans-30" transform="translate(190.869141 0)"/>
       <use xlink:href="#DejaVuSans-2e" transform="translate(254.492188 0)"/>
       <use xlink:href="#DejaVuSans-30" transform="translate(286.279297 0)"/>
      </g>
     </g>
    </g>
    <g id="ytick_23">
     <g id="line2d_51">
      <g>
       <use xlink:href="#me5179b328b" x="62.86875" y="527.36" style="stroke: #000000; stroke-width: 0.8"/>
      </g>
     </g>
     <g id="text_17">
      <!-- 1600.0 -->
      <g transform="translate(20.878125 531.159219) scale(0.1 -0.1)">
       <use xlink:href="#DejaVuSans-31"/>
       <use xlink:href="#DejaVuSans-36" transform="translate(63.623047 0)"/>
       <use xlink:href="#DejaVuSans-30" transform="translate(127.246094 0)"/>
       <use xlink:href="#DejaVuSans-30" transform="translate(190.869141 0)"/>
       <use xlink:href="#DejaVuSans-2e" transform="translate(254.492188 0)"/>
       <use xlink:href="#DejaVuSans-30" transform="translate(286.279297 0)"/>
      </g>
     </g>
    </g>
    <g id="ytick_24">
     <g id="line2d_52">
      <g>
       <use xlink:href="#me5179b328b" x="62.86875" y="489.14" style="stroke: #000000; stroke-width: 0.8"/>
      </g>
     </g>
     <g id="text_18">
      <!-- 1700.0 -->
      <g transform="translate(20.878125 492.939219) scale(0.1 -0.1)">
       <use xlink:href="#DejaVuSans-31"/>
       <use xlink:href="#DejaVuSans-37" transform="translate(63.623047 0)"/>
       <use xlink:href="#DejaVuSans-30" transform="translate(127.246094 0)"/>
       <use xlink:href="#DejaVuSans-30" transform="translate(190.869141 0)"/>
       <use xlink:href="#DejaVuSans-2e" transform="translate(254.492188 0)"/>
       <use xlink:href="#DejaVuSans-30" transform="translate(286.279297 0)"/>
      </g>
     </g>
    </g>
    <g id="ytick_25">
     <g id="line2d_53">
      <g>
       <use xlink:href="#me5179b328b" x="62.86875" y="450.92" style="stroke: #000000; stroke-width: 0.8"/>
      </g>
     </g>
     <g id="text_19">
      <!-- 1800.0 -->
      <g transform="translate(20.878125 454.719219) scale(0.1 -0.1)">
       <use xlink:href="#DejaVuSans-31"/>
       <use xlink:href="#DejaVuSans-38" transform="translate(63.623047 0)"/>
       <use xlink:href="#DejaVuSans-30" transform="translate(127.246094 0)"/>
       <use xlink:href="#DejaVuSans-30" transform="translate(190.869141 0)"/>
       <use xlink:href="#DejaVuSans-2e" transform="translate(254.492188 0)"/>
       <use xlink:href="#DejaVuSans-30" transform="translate(286.279297 0)"/>
      </g>
     </g>
    </g>
    <g id="ytick_26">
     <g id="line2d_54">
      <g>
       <use xlink:href="#me5179b328b" x="62.86875" y="412.7" style="stroke: #000000; stroke-width: 0.8"/>
      </g>
     </g>
     <g id="text_20">
      <!-- 1900.0 -->
      <g transform="translate(20.878125 416.499219) scale(0.1 -0.1)">
       <use xlink:href="#DejaVuSans-31"/>
       <use xlink:href="#DejaVuSans-39" transform="translate(63.623047 0)"/>
       <use xlink:href="#DejaVuSans-30" transform="translate(127.246094 0)"/>
       <use xlink:href="#DejaVuSans-30" transform="translate(190.869141 0)"/>
       <use xlink:href="#DejaVuSans-2e" transform="translate(254.492188 0)"/>
       <use xlink:href="#DejaVuSans-30" transform="translate(286.279297 0)"/>
      </g>
     </g>
    </g>
    <g id="ytick_27">
     <g id="line2d_55">
      <g>
       <use xlink:href="#me5179b328b" x="62.86875" y="374.48" style="stroke: #000000; stroke-width: 0.8"/>
      </g>
     </g>
     <g id="text_21">
      <!-- 2000.0 -->
      <g transform="translate(20.878125 378.279219) scale(0.1 -0.1)">
       <use xlink:href="#DejaVuSans-32"/>
       <use xlink:href="#DejaVuSans-30" transform="translate(63.623047 0)"/>
       <use xlink:href="#DejaVuSans-30" transform="translate(127.246094 0)"/>
       <use xlink:href="#DejaVuSans-30" transform="translate(190.869141 0)"/>
       <use xlink:href="#DejaVuSans-2e" transform="translate(254.492188 0)"/>
       <use xlink:href="#DejaVuSans-30" transform="translate(286.279297 0)"/>
      </g>
     </g>
    </g>
    <g id="text_22">
     <!-- Memory Usage [MB] -->
     <g transform="translate(14.798438 578.098281) rotate(-90) scale(0.1 -0.1)">
      <use xlink:href="#DejaVuSans-4d"/>
      <use xlink:href="#DejaVuSans-65" transform="translate(86.279297 0)"/>
      <use xlink:href="#DejaVuSans-6d" transform="translate(147.802734 0)"/>
      <use xlink:href="#DejaVuSans-6f" transform="translate(245.214844 0)"/>
      <use xlink:href="#DejaVuSans-72" transform="translate(306.396484 0)"/>
      <use xlink:href="#DejaVuSans-79" transform="translate(347.509766 0)"/>
      <use xlink:href="#DejaVuSans-20" transform="translate(406.689453 0)"/>
      <use xlink:href="#DejaVuSans-55" transform="translate(438.476562 0)"/>
      <use xlink:href="#DejaVuSans-73" transform="translate(511.669922 0)"/>
      <use xlink:href="#DejaVuSans-61" transform="translate(563.769531 0)"/>
      <use xlink:href="#DejaVuSans-67" transform="translate(625.048828 0)"/>
      <use xlink:href="#DejaVuSans-65" transform="translate(688.525391 0)"/>
      <use xlink:href="#DejaVuSans-20" transform="translate(750.048828 0)"/>
      <use xlink:href="#DejaVuSans-5b" transform="translate(781.835938 0)"/>
      <use xlink:href="#DejaVuSans-4d" transform="translate(820.849609 0)"/>
      <use xlink:href="#DejaVuSans-42" transform="translate(907.128906 0)"/>
      <use xlink:href="#DejaVuSans-5d" transform="translate(975.732422 0)"/>
     </g>
    </g>
   </g>
   <g id="line2d_56">
    <path d="M 77.32272 530.093348 
L 77.327733 530.093348 
L 78.993699 507.883724 
L 80.664678 506.136636 
L 82.335657 509.245701 
L 84.006636 509.856243 
L 85.677616 518.932961 
L 87.348595 519.319637 
L 89.019574 513.801281 
L 90.690553 505.325711 
L 92.361532 505.101846 
L 94.032511 505.007917 
L 95.703491 517.397214 
L 99.045449 512.865117 
L 100.716428 508.574106 
L 102.387407 521.904263 
L 104.058386 515.690829 
L 105.729365 512.711699 
L 107.400345 504.647854 
L 109.071324 488.950673 
L 112.413282 487.004768 
L 114.084261 489.058692 
L 115.75524 484.236979 
L 117.42622 493.856923 
L 119.097199 493.564176 
L 120.768178 494.664716 
L 122.439157 494.830658 
L 124.110136 491.893797 
L 125.781115 494.583311 
L 127.452095 487.801603 
L 129.123074 493.14619 
L 130.794053 492.676542 
L 132.465032 493.139928 
L 134.136011 492.944241 
L 135.80699 491.546258 
L 137.47797 491.610443 
L 139.148949 490.107571 
L 140.819928 485.437711 
L 142.490907 506.383983 
L 144.161886 493.56261 
L 145.832865 470.891167 
L 147.503844 465.462043 
L 149.174824 464.890639 
L 150.845803 468.373857 
L 152.516782 468.766795 
L 154.187761 469.582416 
L 155.85874 469.294366 
L 157.529719 460.872023 
L 159.200699 472.214007 
L 160.871678 468.572674 
L 162.542657 467.307758 
L 164.213636 472.707137 
L 165.884615 466.031882 
L 167.555594 473.242535 
L 169.226574 466.102329 
L 170.897553 472.780715 
L 172.568532 472.943526 
L 174.239511 467.757054 
L 175.91049 467.919865 
L 177.581469 470.527973 
L 179.252449 467.888555 
L 180.923428 463.801057 
L 182.594407 460.447775 
L 185.936365 466.939867 
L 187.607344 466.792711 
L 189.278323 470.347941 
L 190.949303 463.235915 
L 192.620282 466.312105 
L 194.291261 465.283577 
L 195.96224 465.740701 
L 197.633219 469.266187 
L 199.304198 458.979344 
L 200.975178 464.547797 
L 202.646157 466.02562 
L 204.317136 464.384985 
L 205.988115 466.221307 
L 207.659094 466.298016 
L 209.330073 468.841939 
L 211.001053 467.454914 
L 212.672032 463.788533 
L 214.343011 458.481518 
L 216.01399 468.427084 
L 217.684969 468.798105 
L 219.355948 463.541186 
L 221.026928 464.339586 
L 222.697907 463.069973 
L 224.368886 465.555973 
L 226.039865 461.177294 
L 227.710844 464.308276 
L 229.381823 461.988218 
L 231.052802 467.027535 
L 232.723782 462.675469 
L 234.394761 459.30027 
L 236.06574 469.153472 
L 237.736719 461.432469 
L 239.407698 468.708872 
L 241.078677 453.176069 
L 242.749657 461.589018 
L 244.420636 462.651987 
L 246.091615 466.639293 
L 247.762594 468.211046 
L 249.433573 467.417342 
L 251.104552 461.510744 
L 252.775532 468.311237 
L 254.446511 469.319414 
L 256.11749 460.682599 
L 257.788469 457.579795 
L 259.459448 466.196259 
L 261.130427 467.068237 
L 262.801407 469.316283 
L 266.143365 467.025969 
L 267.814344 461.413683 
L 269.485323 468.661907 
L 271.156302 460.699819 
L 272.827281 467.160601 
L 274.498261 464.425688 
L 276.16924 467.822804 
L 277.840219 463.760355 
L 279.511198 467.245138 
L 281.182177 467.066672 
L 282.853156 461.534226 
L 284.524136 461.684513 
L 286.195115 459.951514 
L 287.866094 468.466221 
L 289.537073 468.416125 
L 291.208052 460.706081 
L 292.879031 468.422387 
L 294.550011 510.462088 
L 296.22099 518.169001 
L 297.891969 512.686651 
L 299.562948 513.422432 
L 301.233927 513.148471 
L 302.904906 509.612026 
L 304.575886 509.5134 
L 306.246865 512.760229 
L 307.917844 515.405909 
L 309.588823 516.254405 
L 311.259802 515.56872 
L 312.930781 519.740754 
L 314.601761 516.944787 
L 316.27274 511.698826 
L 317.943719 515.946004 
L 319.614698 516.684916 
L 321.285677 516.442264 
L 322.956656 517.25632 
L 324.627635 511.21822 
L 326.298615 523.042375 
L 327.969594 521.306246 
L 329.640573 513.040452 
L 331.311552 515.324504 
L 332.982531 507.905641 
L 334.65351 507.814842 
L 336.32449 517.093509 
L 337.995469 517.090378 
L 339.666448 511.573587 
L 341.337427 516.096291 
L 343.008406 516.014885 
L 346.350365 517.178045 
L 348.021344 516.595683 
L 349.692323 515.811371 
L 351.363302 515.720573 
L 353.034281 514.136296 
L 354.70526 520.334075 
L 356.37624 520.399826 
L 358.047219 515.202395 
L 359.718198 515.202395 
L 361.389177 517.387821 
L 362.085975 520.532893 
L 363.060156 520.564203 
L 364.731135 520.082031 
L 366.402114 515.653257 
L 366.402114 515.653257 
" clip-path="url(#p7782bc9e50)" style="fill: none; stroke: #1f77b4; stroke-width: 1.5; stroke-linecap: square"/>
   </g>
   <g id="line2d_57">
    <path d="M 77.32272 515.524887 
L 77.326062 515.524887 
L 78.993699 500.727864 
L 80.664678 500.532177 
L 82.335657 498.470425 
L 84.006636 495.965639 
L 85.677616 482.35839 
L 87.348595 479.972581 
L 89.019574 469.142513 
L 90.690553 476.20601 
L 92.361532 475.92109 
L 94.032511 474.170871 
L 95.703491 474.524672 
L 97.37447 466.996225 
L 99.045449 468.433346 
L 100.716428 475.883518 
L 102.387407 475.431091 
L 104.058386 468.635294 
L 105.729365 474.460487 
L 107.400345 474.280455 
L 109.071324 474.028411 
L 110.742303 501.665593 
L 112.413282 445.091872 
L 114.084261 444.424973 
L 115.75524 444.6551 
L 117.42622 446.378706 
L 119.097199 436.074643 
L 120.768178 448.792693 
L 122.439157 448.305825 
L 124.110136 444.954109 
L 125.781115 444.869572 
L 127.452095 448.54378 
L 129.123074 446.464808 
L 130.794053 455.042134 
L 132.465032 451.818788 
L 134.136011 444.722416 
L 135.80699 449.218507 
L 137.47797 449.517516 
L 139.148949 453.199551 
L 140.819928 449.954288 
L 142.490907 452.011343 
L 144.161886 451.727989 
L 145.832865 452.556134 
L 147.503844 452.468466 
L 149.174824 447.709373 
L 150.845803 450.423935 
L 152.516782 449.96055 
L 154.187761 442.045426 
L 155.85874 441.035684 
L 157.529719 438.40879 
L 159.200699 438.123871 
L 160.871678 449.069785 
L 162.542657 452.532652 
L 164.213636 442.640313 
L 165.884615 444.581522 
L 167.555594 445.517686 
L 169.226574 448.058478 
L 170.897553 447.310173 
L 172.568532 451.003167 
L 174.239511 450.72764 
L 175.91049 445.819825 
L 177.581469 445.694586 
L 179.252449 443.091174 
L 180.923428 449.166846 
L 182.594407 447.125445 
L 184.265386 442.732677 
L 185.936365 443.484112 
L 187.607344 445.315737 
L 189.278323 444.839828 
L 190.949303 449.281126 
L 192.620282 456.651459 
L 194.291261 456.369671 
L 195.96224 447.418192 
L 197.633219 448.27295 
L 199.304198 445.97794 
L 200.975178 445.793212 
L 202.646157 447.712504 
L 204.317136 454.275043 
L 205.988115 450.427066 
L 207.659094 455.788873 
L 209.330073 453.641019 
L 211.001053 448.141449 
L 212.672032 449.785215 
L 214.343011 443.44341 
L 216.01399 448.19311 
L 217.684969 447.081611 
L 219.355948 442.358524 
L 221.026928 445.160754 
L 222.697907 498.296656 
L 224.368886 494.91676 
L 226.039865 503.616195 
L 227.710844 504.611847 
L 229.381823 506.255613 
L 230.41783 512.361029 
L 231.052802 512.401732 
L 232.723782 501.759522 
L 234.394761 501.365019 
" clip-path="url(#p7782bc9e50)" style="fill: none; stroke: #ff7f0e; stroke-width: 1.5; stroke-linecap: square"/>
   </g>
   <g id="patch_9">
    <path d="M 62.86875 680.24 
L 62.86875 374.48 
" style="fill: none; stroke: #000000; stroke-width: 0.8; stroke-linejoin: miter; stroke-linecap: square"/>
   </g>
   <g id="patch_10">
    <path d="M 62.86875 680.24 
L 380.856084 680.24 
" style="fill: none; stroke: #000000; stroke-width: 0.8; stroke-linejoin: miter; stroke-linecap: square"/>
   </g>
   <g id="text_23">
    <!-- Service Mesh = istio-ambient -->
    <g transform="translate(133.536792 368.48) scale(0.12 -0.12)">
     <defs>
      <path id="DejaVuSans-74" d="M 1172 4494 
L 1172 3500 
L 2356 3500 
L 2356 3053 
L 1172 3053 
L 1172 1153 
Q 1172 725 1289 603 
Q 1406 481 1766 481 
L 2356 481 
L 2356 0 
L 1766 0 
Q 1100 0 847 248 
Q 594 497 594 1153 
L 594 3053 
L 172 3053 
L 172 3500 
L 594 3500 
L 594 4494 
L 1172 4494 
z
" transform="scale(0.015625)"/>
      <path id="DejaVuSans-2d" d="M 313 2009 
L 1997 2009 
L 1997 1497 
L 313 1497 
L 313 2009 
z
" transform="scale(0.015625)"/>
      <path id="DejaVuSans-62" d="M 3116 1747 
Q 3116 2381 2855 2742 
Q 2594 3103 2138 3103 
Q 1681 3103 1420 2742 
Q 1159 2381 1159 1747 
Q 1159 1113 1420 752 
Q 1681 391 2138 391 
Q 2594 391 2855 752 
Q 3116 1113 3116 1747 
z
M 1159 2969 
Q 1341 3281 1617 3432 
Q 1894 3584 2278 3584 
Q 2916 3584 3314 3078 
Q 3713 2572 3713 1747 
Q 3713 922 3314 415 
Q 2916 -91 2278 -91 
Q 1894 -91 1617 61 
Q 1341 213 1159 525 
L 1159 0 
L 581 0 
L 581 4863 
L 1159 4863 
L 1159 2969 
z
" transform="scale(0.015625)"/>
     </defs>
     <use xlink:href="#DejaVuSans-53"/>
     <use xlink:href="#DejaVuSans-65" transform="translate(63.476562 0)"/>
     <use xlink:href="#DejaVuSans-72" transform="translate(125 0)"/>
     <use xlink:href="#DejaVuSans-76" transform="translate(166.113281 0)"/>
     <use xlink:href="#DejaVuSans-69" transform="translate(225.292969 0)"/>
     <use xlink:href="#DejaVuSans-63" transform="translate(253.076172 0)"/>
     <use xlink:href="#DejaVuSans-65" transform="translate(308.056641 0)"/>
     <use xlink:href="#DejaVuSans-20" transform="translate(369.580078 0)"/>
     <use xlink:href="#DejaVuSans-4d" transform="translate(401.367188 0)"/>
     <use xlink:href="#DejaVuSans-65" transform="translate(487.646484 0)"/>
     <use xlink:href="#DejaVuSans-73" transform="translate(549.169922 0)"/>
     <use xlink:href="#DejaVuSans-68" transform="translate(601.269531 0)"/>
     <use xlink:href="#DejaVuSans-20" transform="translate(664.648438 0)"/>
     <use xlink:href="#DejaVuSans-3d" transform="translate(696.435547 0)"/>
     <use xlink:href="#DejaVuSans-20" transform="translate(780.224609 0)"/>
     <use xlink:href="#DejaVuSans-69" transform="translate(812.011719 0)"/>
     <use xlink:href="#DejaVuSans-73" transform="translate(839.794922 0)"/>
     <use xlink:href="#DejaVuSans-74" transform="translate(891.894531 0)"/>
     <use xlink:href="#DejaVuSans-69" transform="translate(931.103516 0)"/>
     <use xlink:href="#DejaVuSans-6f" transform="translate(958.886719 0)"/>
     <use xlink:href="#DejaVuSans-2d" transform="translate(1021.943359 0)"/>
     <use xlink:href="#DejaVuSans-61" transform="translate(1058.027344 0)"/>
     <use xlink:href="#DejaVuSans-6d" transform="translate(1119.306641 0)"/>
     <use xlink:href="#DejaVuSans-62" transform="translate(1216.71875 0)"/>
     <use xlink:href="#DejaVuSans-69" transform="translate(1280.195312 0)"/>
     <use xlink:href="#DejaVuSans-65" transform="translate(1307.978516 0)"/>
     <use xlink:href="#DejaVuSans-6e" transform="translate(1369.501953 0)"/>
     <use xlink:href="#DejaVuSans-74" transform="translate(1432.880859 0)"/>
    </g>
   </g>
  </g>
  <g id="axes_4">
   <g id="patch_11">
    <path d="M 403.895955 680.24 
L 721.883289 680.24 
L 721.883289 374.48 
L 403.895955 374.48 
z
" style="fill: #ffffff"/>
   </g>
   <g id="FillBetweenPolyCollection_7"/>
   <g id="FillBetweenPolyCollection_8"/>
   <g id="matplotlib.axis_7">
    <g id="xtick_23">
     <g id="line2d_58">
      <g>
       <use xlink:href="#mbcb02aef95" x="418.349924" y="680.24" style="stroke: #000000; stroke-width: 0.8"/>
      </g>
     </g>
    </g>
    <g id="xtick_24">
     <g id="line2d_59">
      <g>
       <use xlink:href="#mbcb02aef95" x="468.537319" y="680.24" style="stroke: #000000; stroke-width: 0.8"/>
      </g>
     </g>
    </g>
    <g id="xtick_25">
     <g id="line2d_60">
      <g>
       <use xlink:href="#mbcb02aef95" x="518.724714" y="680.24" style="stroke: #000000; stroke-width: 0.8"/>
      </g>
     </g>
    </g>
    <g id="xtick_26">
     <g id="line2d_61">
      <g>
       <use xlink:href="#mbcb02aef95" x="568.912109" y="680.24" style="stroke: #000000; stroke-width: 0.8"/>
      </g>
     </g>
    </g>
    <g id="xtick_27">
     <g id="line2d_62">
      <g>
       <use xlink:href="#mbcb02aef95" x="619.099504" y="680.24" style="stroke: #000000; stroke-width: 0.8"/>
      </g>
     </g>
    </g>
    <g id="xtick_28">
     <g id="line2d_63">
      <g>
       <use xlink:href="#mbcb02aef95" x="669.286899" y="680.24" style="stroke: #000000; stroke-width: 0.8"/>
      </g>
     </g>
    </g>
    <g id="xtick_29">
     <g id="line2d_64">
      <g>
       <use xlink:href="#mbcb02aef95" x="719.474294" y="680.24" style="stroke: #000000; stroke-width: 0.8"/>
      </g>
     </g>
    </g>
   </g>
   <g id="matplotlib.axis_8">
    <g id="ytick_28">
     <g id="line2d_65">
      <g>
       <use xlink:href="#me5179b328b" x="403.895955" y="680.24" style="stroke: #000000; stroke-width: 0.8"/>
      </g>
     </g>
    </g>
    <g id="ytick_29">
     <g id="line2d_66">
      <g>
       <use xlink:href="#me5179b328b" x="403.895955" y="642.02" style="stroke: #000000; stroke-width: 0.8"/>
      </g>
     </g>
    </g>
    <g id="ytick_30">
     <g id="line2d_67">
      <g>
       <use xlink:href="#me5179b328b" x="403.895955" y="603.8" style="stroke: #000000; stroke-width: 0.8"/>
      </g>
     </g>
    </g>
    <g id="ytick_31">
     <g id="line2d_68">
      <g>
       <use xlink:href="#me5179b328b" x="403.895955" y="565.58" style="stroke: #000000; stroke-width: 0.8"/>
      </g>
     </g>
    </g>
    <g id="ytick_32">
     <g id="line2d_69">
      <g>
       <use xlink:href="#me5179b328b" x="403.895955" y="527.36" style="stroke: #000000; stroke-width: 0.8"/>
      </g>
     </g>
    </g>
    <g id="ytick_33">
     <g id="line2d_70">
      <g>
       <use xlink:href="#me5179b328b" x="403.895955" y="489.14" style="stroke: #000000; stroke-width: 0.8"/>
      </g>
     </g>
    </g>
    <g id="ytick_34">
     <g id="line2d_71">
      <g>
       <use xlink:href="#me5179b328b" x="403.895955" y="450.92" style="stroke: #000000; stroke-width: 0.8"/>
      </g>
     </g>
    </g>
    <g id="ytick_35">
     <g id="line2d_72">
      <g>
       <use xlink:href="#me5179b328b" x="403.895955" y="412.7" style="stroke: #000000; stroke-width: 0.8"/>
      </g>
     </g>
    </g>
    <g id="ytick_36">
     <g id="line2d_73">
      <g>
       <use xlink:href="#me5179b328b" x="403.895955" y="374.48" style="stroke: #000000; stroke-width: 0.8"/>
      </g>
     </g>
    </g>
   </g>
   <g id="line2d_74">
    <path d="M 418.349924 547.56736 
L 418.354943 547.468734 
L 419.353672 540.453768 
L 420.35742 538.365403 
L 421.361168 547.019438 
L 422.364916 543.285742 
L 423.368664 546.687554 
L 424.372412 544.577272 
L 425.37616 533.236854 
L 426.379907 529.086737 
L 427.383655 529.404532 
L 428.387403 527.300511 
L 429.391151 530.808777 
L 430.394899 523.970712 
L 431.398647 524.650135 
L 432.402395 523.643524 
L 433.406143 532.582479 
L 434.409891 523.549594 
L 435.413639 531.5336 
L 438.424882 505.889288 
L 439.42863 508.87468 
L 440.432378 460.299053 
L 441.436126 458.675639 
L 442.439874 460.023527 
L 443.443622 454.257823 
L 444.44737 460.84541 
L 445.451118 460.659116 
L 446.454865 460.632503 
L 447.458613 463.257832 
L 448.462361 465.493353 
L 449.466109 465.00492 
L 450.469857 464.247222 
L 451.473605 464.153293 
L 452.477353 463.586585 
L 453.481101 462.713041 
L 454.484849 462.061797 
L 455.488597 463.563103 
L 456.492344 463.182688 
L 457.496092 460.776528 
L 458.49984 460.588669 
L 459.503588 454.298526 
L 460.507336 453.871147 
L 461.511084 461.717388 
L 462.514832 451.299045 
L 463.51858 451.170674 
L 464.522328 464.853067 
L 465.526075 463.996744 
L 466.529823 464.013964 
L 467.533571 466.424821 
L 468.537319 460.94247 
L 469.541067 465.056581 
L 470.544815 459.785572 
L 471.548563 459.702601 
L 472.552311 459.495956 
L 473.556059 464.076584 
L 474.559807 463.420643 
L 475.563554 466.908557 
L 476.567302 466.437344 
L 477.57105 464.41473 
L 478.574798 463.998309 
L 479.578546 467.162167 
L 480.582294 466.200955 
L 481.586042 459.355062 
L 482.58979 462.424991 
L 483.593538 462.0571 
L 484.597286 460.070492 
L 485.601033 459.688512 
L 486.604781 455.66833 
L 487.608529 462.437514 
L 488.612277 463.799492 
L 489.616025 458.387589 
L 490.619773 446.258163 
L 491.623521 456.101972 
L 492.627269 453.177634 
L 493.631017 453.144759 
L 494.634765 454.381497 
L 495.638512 451.33192 
L 497.646008 451.228597 
L 498.649756 456.530916 
L 499.653504 443.336956 
L 500.657252 447.086308 
L 501.661 446.890621 
L 502.664748 451.068917 
L 503.668496 450.794956 
L 504.672244 446.049953 
L 505.675991 445.76973 
L 506.679739 447.593527 
L 507.683487 444.653534 
L 508.687235 440.27329 
L 509.690983 450.289303 
L 510.694731 449.99499 
L 511.698479 450.619621 
L 512.702227 448.617358 
L 513.705975 450.123361 
L 514.709723 449.943329 
L 515.71347 443.009769 
L 516.717218 442.726415 
L 517.720966 437.399048 
L 518.724714 445.606919 
L 519.728462 447.607616 
L 520.73221 443.983504 
L 521.735958 443.698585 
L 523.743454 442.815648 
L 524.747202 446.284776 
L 525.750949 446.006119 
L 526.754697 439.157095 
L 527.758445 439.183708 
L 528.762193 438.797032 
L 529.765941 447.297649 
L 530.769689 446.734072 
L 532.777185 439.147702 
L 533.780933 444.770946 
L 534.78468 444.48133 
L 535.788428 437.879654 
L 536.792176 444.357657 
L 537.795924 441.843478 
L 538.799672 441.530379 
L 539.80342 442.746766 
L 540.807168 442.598044 
L 541.810916 442.585521 
L 542.814664 448.060043 
L 543.818412 447.39784 
L 544.822159 441.423926 
L 545.825907 441.552296 
L 546.829655 441.801209 
L 547.833403 445.765033 
L 548.837151 445.193629 
L 549.840899 442.784338 
L 550.844647 442.591783 
L 551.848395 443.186669 
L 552.852143 444.994811 
L 553.855891 438.202145 
L 554.859638 447.771993 
L 555.863386 447.488639 
L 556.867134 448.157104 
L 557.870882 447.045605 
L 558.87463 445.2766 
L 559.878378 442.108046 
L 560.882126 437.151701 
L 561.885874 437.136046 
L 562.889622 445.46759 
L 563.89337 445.708675 
L 564.897117 442.961238 
L 565.900865 446.669887 
L 566.904613 446.305128 
L 567.908361 446.203371 
L 568.912109 445.923148 
L 569.915857 433.112733 
L 570.919605 433.361646 
L 572.927101 443.488809 
L 573.930849 436.934097 
L 574.934596 436.744673 
L 575.938344 436.83234 
L 576.942092 430.712835 
L 577.94584 440.423577 
L 578.949588 442.300601 
L 579.953336 441.004374 
L 580.957084 442.737373 
L 581.960832 441.686929 
L 582.96458 436.909049 
L 583.968328 443.04734 
L 585.975823 442.965935 
L 586.979571 442.771814 
L 587.983319 443.257116 
L 588.987067 443.163187 
L 589.990815 446.381837 
L 590.994563 445.638228 
L 591.998311 446.646405 
L 593.002059 439.467062 
L 594.005806 436.022981 
L 595.009554 442.477502 
L 596.013302 442.194148 
L 597.01705 445.956023 
L 598.020798 446.483594 
L 599.024546 446.380271 
L 600.028294 446.064042 
L 601.032042 447.505859 
L 602.03579 446.787299 
L 603.039538 439.734761 
L 604.043285 446.499249 
L 605.047033 445.334523 
L 606.050781 440.850956 
L 607.054529 445.775992 
L 608.058277 443.963153 
L 609.062025 443.676668 
L 610.065773 446.452284 
L 611.069521 445.788516 
L 612.073269 441.455236 
L 613.077017 449.06822 
L 614.080764 448.870968 
L 615.084512 454.55057 
L 616.08826 454.264085 
L 617.092008 455.452293 
L 618.095756 446.541517 
L 619.099504 451.738948 
L 620.103252 450.052914 
L 621.107 446.569696 
L 622.110748 453.5784 
L 623.114496 462.044576 
L 624.118243 462.332627 
L 625.121991 462.324799 
L 626.125739 455.381846 
L 627.129487 455.002997 
L 628.133235 464.297318 
L 629.136983 463.736872 
L 630.140731 458.639633 
L 631.144479 457.269828 
L 632.148227 457.186857 
L 633.151975 465.152076 
L 634.155722 464.881246 
L 635.15947 466.069454 
L 636.163218 465.436996 
L 637.166966 463.910642 
L 638.170714 464.580672 
L 639.174462 457.788006 
L 640.17821 462.417163 
L 641.181958 461.975695 
L 642.185706 464.632333 
L 643.189454 458.415768 
L 644.193201 461.820711 
L 645.196949 461.637548 
L 646.200697 463.703997 
L 647.204445 463.425339 
L 648.208193 459.254871 
L 649.211941 465.375941 
L 650.215689 465.300798 
L 651.219437 458.329666 
L 652.223185 457.94612 
L 653.226932 460.247392 
L 654.23068 459.776179 
L 655.234428 453.908718 
L 656.238176 454.431592 
L 657.241924 455.874975 
L 658.245672 452.779999 
L 659.24942 451.746775 
L 660.253168 463.126331 
L 661.256916 464.597892 
L 662.260664 461.767484 
L 663.264411 456.131716 
L 664.268159 464.486742 
L 665.271907 464.178341 
L 666.275655 465.123897 
L 667.279403 464.563451 
L 668.283151 460.35228 
L 669.286899 463.243742 
L 670.290647 463.397161 
L 671.294395 466.092936 
L 672.298143 465.618593 
L 673.30189 457.592319 
L 674.305638 461.828538 
L 675.309386 465.505877 
L 676.313134 465.22722 
L 677.316882 461.585887 
L 678.32063 467.69913 
L 679.324378 467.606766 
L 680.328126 457.797399 
L 681.331874 516.863382 
L 682.335622 515.275973 
L 683.339369 514.594985 
L 684.343117 515.692394 
L 686.350613 515.407475 
L 687.354361 513.644732 
L 688.358109 514.546455 
L 689.361857 512.675693 
L 690.365605 514.19735 
L 691.369353 520.703531 
L 692.373101 520.615864 
L 692.797686 522.843558 
L 693.376848 514.640384 
L 694.380596 517.801111 
L 695.384344 517.801111 
L 695.384344 517.801111 
" clip-path="url(#p8b4efa49cc)" style="fill: none; stroke: #1f77b4; stroke-width: 1.5; stroke-linecap: square"/>
   </g>
   <g id="line2d_75">
    <path d="M 418.349924 528.639006 
L 419.353672 528.670316 
L 420.35742 527.849999 
L 421.361168 525.965147 
L 422.364916 518.657434 
L 423.368664 516.064981 
L 424.372412 516.080636 
L 425.37616 514.053325 
L 426.379907 514.458787 
L 427.383655 512.777449 
L 428.387403 512.963743 
L 429.391151 509.632378 
L 430.394899 507.684907 
L 431.398647 450.902975 
L 432.402395 452.430895 
L 433.406143 451.382016 
L 434.409891 450.063872 
L 435.413639 449.581701 
L 436.417386 444.972895 
L 437.421134 444.700499 
L 438.424882 434.369823 
L 439.42863 434.188226 
L 440.432378 432.572639 
L 441.436126 438.330515 
L 442.439874 438.053424 
L 443.443622 444.074303 
L 444.44737 443.783121 
L 445.451118 445.069955 
L 446.454865 449.677196 
L 447.458613 442.876702 
L 448.462361 443.717371 
L 449.466109 442.681016 
L 450.469857 450.846618 
L 451.473605 449.988728 
L 452.477353 447.289822 
L 453.481101 451.006298 
L 454.484849 452.753386 
L 455.488597 449.918281 
L 456.492344 450.517864 
L 457.496092 449.951157 
L 458.49984 435.789723 
L 459.503588 443.379225 
L 460.507336 443.001941 
L 461.511084 445.785385 
L 462.514832 445.785385 
L 463.51858 443.513857 
L 464.522328 443.419927 
L 465.526075 441.959324 
L 466.529823 449.254513 
L 467.533571 443.383921 
L 468.537319 447.38062 
L 469.541067 446.948545 
L 470.544815 447.469853 
L 471.548563 447.222505 
L 472.552311 448.684674 
L 473.556059 447.040908 
L 474.559807 449.489337 
L 475.563554 446.611964 
L 476.567302 441.400444 
L 477.57105 447.028385 
L 478.574798 442.607437 
L 479.578546 439.277638 
L 480.582294 440.854087 
L 481.586042 444.2559 
L 482.58979 444.486027 
L 483.593538 432.391042 
L 484.597286 432.849731 
L 485.601033 431.199703 
L 486.604781 438.571601 
L 487.608529 438.476106 
L 488.612277 437.273809 
L 489.616025 440.564471 
L 490.619773 433.283372 
L 491.623521 442.668492 
L 492.627269 436.414354 
L 493.631017 439.276072 
L 494.634765 438.350867 
L 495.638512 437.979845 
L 496.64226 440.578561 
L 497.646008 442.452454 
L 498.649756 443.529512 
L 499.653504 442.3914 
L 500.657252 442.854785 
L 501.661 443.858265 
L 502.664748 443.567084 
L 503.668496 444.548647 
L 504.672244 444.589349 
L 505.675991 441.754245 
L 506.679739 442.861047 
L 507.683487 442.530728 
L 508.687235 436.426878 
L 509.690983 436.234323 
L 510.694731 442.795296 
L 511.698479 442.269291 
L 512.702227 435.562727 
L 513.705975 444.622225 
L 514.709723 444.445324 
L 515.71347 442.984721 
L 516.717218 435.946272 
L 517.720966 441.041946 
L 518.724714 427.342333 
L 519.728462 441.59613 
L 520.73221 441.59613 
L 521.735958 443.867658 
L 522.739706 443.383921 
L 523.743454 433.923658 
L 524.747202 442.524466 
L 525.750949 443.263378 
L 526.754697 443.820693 
L 527.758445 443.6344 
L 528.762193 445.304779 
L 529.765941 445.113789 
L 530.769689 439.927316 
L 531.773437 439.643963 
L 532.777185 436.207709 
L 533.780933 439.133612 
L 534.78468 444.291906 
L 535.788428 440.849391 
L 536.792176 427.448786 
L 537.795924 430.327724 
L 538.799672 416.216387 
L 539.80342 425.432433 
L 540.807168 425.239878 
L 541.810916 422.091675 
L 542.814664 421.822411 
L 543.818412 426.363901 
L 544.822159 422.248224 
L 545.825907 421.363722 
L 546.829655 414.284571 
L 547.833403 414.192207 
L 548.837151 420.222479 
L 549.840899 423.57263 
L 550.844647 422.702217 
L 551.848395 415.867282 
L 552.852143 430.589161 
L 553.855891 427.664824 
L 554.859638 427.393994 
L 555.863386 424.665343 
L 556.867134 425.274319 
L 557.870882 428.64169 
L 558.87463 426.87112 
L 559.878378 421.575063 
L 560.882126 420.51366 
L 561.885874 420.51366 
L 562.889622 423.799626 
L 563.89337 424.961221 
L 564.897117 420.449475 
L 565.900865 417.993219 
L 566.904613 419.264398 
L 567.908361 419.20804 
L 568.912109 413.378151 
L 569.915857 419.424078 
L 570.919605 419.236219 
L 571.923353 421.665862 
L 572.927101 421.478003 
L 573.930849 425.809717 
L 574.934596 425.446523 
L 575.938344 422.008704 
L 576.942092 425.250836 
L 577.94584 420.220913 
L 578.949588 426.316936 
L 579.953336 426.086809 
L 580.957084 418.727435 
L 581.960832 418.909032 
L 582.96458 418.04488 
L 583.968328 415.441469 
L 584.972075 416.559229 
L 585.975823 415.873544 
L 586.979571 419.212737 
L 587.983319 421.889727 
L 588.987067 423.887294 
L 589.990815 427.019842 
L 590.994563 423.871639 
L 591.998311 423.095155 
L 593.002059 423.153078 
L 594.005806 425.65943 
L 595.009554 426.014796 
L 596.013302 416.83319 
L 597.01705 421.795797 
L 598.020798 421.701868 
L 599.024546 427.215528 
L 600.028294 427.085592 
L 601.032042 428.197091 
L 602.03579 428.103161 
L 603.039538 429.27728 
L 604.043285 428.712138 
L 605.047033 423.397295 
L 606.050781 425.307194 
L 607.054529 423.82937 
L 608.058277 428.375557 
L 609.062025 427.307892 
L 610.065773 431.97149 
L 611.069521 431.79459 
L 612.073269 429.407216 
L 613.077017 429.472966 
L 614.080764 411.883107 
L 615.084512 410.212728 
L 616.08826 416.144374 
L 617.092008 429.455746 
L 618.095756 428.214311 
L 619.099504 431.8259 
L 620.103252 431.66935 
L 621.107 430.802068 
L 622.110748 433.677876 
L 623.114496 427.082461 
L 624.118243 433.62778 
L 625.121991 432.971839 
L 626.125739 432.602383 
L 627.129487 433.706054 
L 628.133235 425.307194 
L 629.136983 428.446004 
L 630.140731 437.355214 
L 631.144479 438.474541 
L 632.148227 434.941227 
L 633.151975 438.764157 
L 634.155722 437.870261 
L 635.15947 436.757197 
L 636.163218 434.596819 
L 637.166966 437.334863 
L 638.170714 437.139177 
L 639.174462 438.307033 
L 640.17821 437.896874 
L 641.181958 429.726576 
L 642.185706 434.174136 
L 643.189454 434.080207 
L 644.193201 436.476974 
L 645.196949 435.816337 
L 646.200697 436.76659 
L 647.204445 435.307552 
L 648.208193 438.313295 
L 649.211941 436.284418 
L 650.215689 426.044541 
L 651.219437 430.863122 
L 652.223185 430.676829 
L 653.226932 429.555937 
L 654.23068 436.710232 
L 655.234428 427.703961 
L 656.238176 423.960872 
L 657.241924 432.962446 
L 658.245672 432.774587 
L 659.24942 428.651083 
L 660.253168 434.127172 
L 661.256916 433.840687 
L 663.264411 433.944009 
L 664.268159 436.70397 
L 665.271907 436.348604 
L 666.275655 429.642039 
L 667.279403 431.027499 
L 668.283151 433.712316 
L 669.286899 429.793892 
L 670.290647 429.953572 
L 671.294395 430.938266 
L 672.298143 431.292067 
L 673.30189 430.424785 
L 674.305638 431.71475 
L 675.309386 487.635661 
L 676.313134 487.643488 
L 677.316882 492.615488 
L 678.32063 492.336831 
L 679.324378 490.379967 
L 680.328126 486.350393 
L 681.331874 489.511119 
L 682.335622 490.015207 
L 683.339369 489.930671 
L 684.343117 491.190891 
L 685.346865 494.252992 
L 686.350613 486.674449 
L 687.354361 485.998157 
L 688.358109 486.232981 
L 689.361857 491.226898 
L 692.373101 490.91693 
L 693.376848 497.139758 
L 695.384344 484.042858 
L 696.388092 492.352486 
L 697.39184 497.164806 
L 698.395588 493.431109 
L 699.399336 492.30239 
L 700.403084 490.462938 
L 701.406832 490.619487 
L 702.41058 489.983898 
L 703.414327 493.204113 
L 704.418075 484.780205 
L 705.089583 488.859875 
L 705.421823 491.956417 
L 706.425571 498.138541 
L 707.429319 498.570617 
L 707.429319 498.570617 
" clip-path="url(#p8b4efa49cc)" style="fill: none; stroke: #ff7f0e; stroke-width: 1.5; stroke-linecap: square"/>
   </g>
   <g id="patch_12">
    <path d="M 403.895955 680.24 
L 403.895955 374.48 
" style="fill: none; stroke: #000000; stroke-width: 0.8; stroke-linejoin: miter; stroke-linecap: square"/>
   </g>
   <g id="patch_13">
    <path d="M 403.895955 680.24 
L 721.883289 680.24 
" style="fill: none; stroke: #000000; stroke-width: 0.8; stroke-linejoin: miter; stroke-linecap: square"/>
   </g>
   <g id="text_24">
    <!-- Service Mesh = istio-sidecar -->
    <g transform="translate(477.671809 368.48) scale(0.12 -0.12)">
     <defs>
      <path id="DejaVuSans-64" d="M 2906 2969 
L 2906 4863 
L 3481 4863 
L 3481 0 
L 2906 0 
L 2906 525 
Q 2725 213 2448 61 
Q 2172 -91 1784 -91 
Q 1150 -91 751 415 
Q 353 922 353 1747 
Q 353 2572 751 3078 
Q 1150 3584 1784 3584 
Q 2172 3584 2448 3432 
Q 2725 3281 2906 2969 
z
M 947 1747 
Q 947 1113 1208 752 
Q 1469 391 1925 391 
Q 2381 391 2643 752 
Q 2906 1113 2906 1747 
Q 2906 2381 2643 2742 
Q 2381 3103 1925 3103 
Q 1469 3103 1208 2742 
Q 947 2381 947 1747 
z
" transform="scale(0.015625)"/>
     </defs>
     <use xlink:href="#DejaVuSans-53"/>
     <use xlink:href="#DejaVuSans-65" transform="translate(63.476562 0)"/>
     <use xlink:href="#DejaVuSans-72" transform="translate(125 0)"/>
     <use xlink:href="#DejaVuSans-76" transform="translate(166.113281 0)"/>
     <use xlink:href="#DejaVuSans-69" transform="translate(225.292969 0)"/>
     <use xlink:href="#DejaVuSans-63" transform="translate(253.076172 0)"/>
     <use xlink:href="#DejaVuSans-65" transform="translate(308.056641 0)"/>
     <use xlink:href="#DejaVuSans-20" transform="translate(369.580078 0)"/>
     <use xlink:href="#DejaVuSans-4d" transform="translate(401.367188 0)"/>
     <use xlink:href="#DejaVuSans-65" transform="translate(487.646484 0)"/>
     <use xlink:href="#DejaVuSans-73" transform="translate(549.169922 0)"/>
     <use xlink:href="#DejaVuSans-68" transform="translate(601.269531 0)"/>
     <use xlink:href="#DejaVuSans-20" transform="translate(664.648438 0)"/>
     <use xlink:href="#DejaVuSans-3d" transform="translate(696.435547 0)"/>
     <use xlink:href="#DejaVuSans-20" transform="translate(780.224609 0)"/>
     <use xlink:href="#DejaVuSans-69" transform="translate(812.011719 0)"/>
     <use xlink:href="#DejaVuSans-73" transform="translate(839.794922 0)"/>
     <use xlink:href="#DejaVuSans-74" transform="translate(891.894531 0)"/>
     <use xlink:href="#DejaVuSans-69" transform="translate(931.103516 0)"/>
     <use xlink:href="#DejaVuSans-6f" transform="translate(958.886719 0)"/>
     <use xlink:href="#DejaVuSans-2d" transform="translate(1021.943359 0)"/>
     <use xlink:href="#DejaVuSans-73" transform="translate(1058.027344 0)"/>
     <use xlink:href="#DejaVuSans-69" transform="translate(1110.126953 0)"/>
     <use xlink:href="#DejaVuSans-64" transform="translate(1137.910156 0)"/>
     <use xlink:href="#DejaVuSans-65" transform="translate(1201.386719 0)"/>
     <use xlink:href="#DejaVuSans-63" transform="translate(1262.910156 0)"/>
     <use xlink:href="#DejaVuSans-61" transform="translate(1317.890625 0)"/>
     <use xlink:href="#DejaVuSans-72" transform="translate(1379.169922 0)"/>
    </g>
   </g>
  </g>
  <g id="legend_1">
   <g id="text_25">
    <!-- Mode -->
    <g transform="translate(751.217576 16.598437) scale(0.1 -0.1)">
     <use xlink:href="#DejaVuSans-4d"/>
     <use xlink:href="#DejaVuSans-6f" transform="translate(86.279297 0)"/>
     <use xlink:href="#DejaVuSans-64" transform="translate(147.460938 0)"/>
     <use xlink:href="#DejaVuSans-65" transform="translate(210.9375 0)"/>
    </g>
   </g>
   <g id="line2d_76">
    <path d="M 728.408201 27.776562 
L 738.408201 27.776562 
L 748.408201 27.776562 
" style="fill: none; stroke: #1f77b4; stroke-width: 1.5; stroke-linecap: square"/>
   </g>
   <g id="text_26">
    <!-- Baseline -->
    <g transform="translate(756.408201 31.276562) scale(0.1 -0.1)">
     <use xlink:href="#DejaVuSans-42"/>
     <use xlink:href="#DejaVuSans-61" transform="translate(68.603516 0)"/>
     <use xlink:href="#DejaVuSans-73" transform="translate(129.882812 0)"/>
     <use xlink:href="#DejaVuSans-65" transform="translate(181.982422 0)"/>
     <use xlink:href="#DejaVuSans-6c" transform="translate(243.505859 0)"/>
     <use xlink:href="#DejaVuSans-69" transform="translate(271.289062 0)"/>
     <use xlink:href="#DejaVuSans-6e" transform="translate(299.072266 0)"/>
     <use xlink:href="#DejaVuSans-65" transform="translate(362.451172 0)"/>
    </g>
   </g>
   <g id="line2d_77">
    <path d="M 728.408201 42.454687 
L 738.408201 42.454687 
L 748.408201 42.454687 
" style="fill: none; stroke: #ff7f0e; stroke-width: 1.5; stroke-linecap: square"/>
   </g>
   <g id="text_27">
    <!-- eZtunnel -->
    <g transform="translate(756.408201 45.954687) scale(0.1 -0.1)">
     <defs>
      <path id="DejaVuSans-5a" d="M 359 4666 
L 4025 4666 
L 4025 4184 
L 1075 531 
L 4097 531 
L 4097 0 
L 288 0 
L 288 481 
L 3238 4134 
L 359 4134 
L 359 4666 
z
" transform="scale(0.015625)"/>
     </defs>
     <use xlink:href="#DejaVuSans-65"/>
     <use xlink:href="#DejaVuSans-5a" transform="translate(61.523438 0)"/>
     <use xlink:href="#DejaVuSans-74" transform="translate(130.029297 0)"/>
     <use xlink:href="#DejaVuSans-75" transform="translate(169.238281 0)"/>
     <use xlink:href="#DejaVuSans-6e" transform="translate(232.617188 0)"/>
     <use xlink:href="#DejaVuSans-6e" transform="translate(295.996094 0)"/>
     <use xlink:href="#DejaVuSans-65" transform="translate(359.375 0)"/>
     <use xlink:href="#DejaVuSans-6c" transform="translate(420.898438 0)"/>
    </g>
   </g>
  </g>
 </g>
 <defs>
  <clipPath id="pa6d9c1bf87">
   <rect x="62.86875" y="26.92" width="317.987334" height="305.76"/>
  </clipPath>
  <clipPath id="pf13775af38">
   <rect x="403.895955" y="26.92" width="317.987334" height="305.76"/>
  </clipPath>
  <clipPath id="p7782bc9e50">
   <rect x="62.86875" y="374.48" width="317.987334" height="305.76"/>
  </clipPath>
  <clipPath id="p8b4efa49cc">
   <rect x="403.895955" y="374.48" width="317.987334" height="305.76"/>
  </clipPath>
 </defs>
</svg>
