<?xml version="1.0" encoding="utf-8" standalone="no"?>
<!DOCTYPE svg PUBLIC "-//W3C//DTD SVG 1.1//EN"
  "http://www.w3.org/Graphics/SVG/1.1/DTD/svg11.dtd">
<svg xmlns:xlink="http://www.w3.org/1999/xlink" width="810.275389pt" height="693.318906pt" viewBox="0 0 810.275389 693.318906" xmlns="http://www.w3.org/2000/svg" version="1.1">
 <metadata>
  <rdf:RDF xmlns:dc="http://purl.org/dc/elements/1.1/" xmlns:cc="http://creativecommons.org/ns#" xmlns:rdf="http://www.w3.org/1999/02/22-rdf-syntax-ns#">
   <cc:Work>
    <dc:type rdf:resource="http://purl.org/dc/dcmitype/StillImage"/>
    <dc:format>image/svg+xml</dc:format>
    <dc:creator>
     <cc:Agent>
      <dc:title>Matplotlib v3.10.0, https://matplotlib.org/</dc:title>
     </cc:Agent>
    </dc:creator>
   </cc:Work>
  </rdf:RDF>
 </metadata>
 <defs>
  <style type="text/css">*{stroke-linejoin: round; stroke-linecap: butt}</style>
 </defs>
 <g id="figure_1">
  <g id="patch_1">
   <path d="M 0 693.318906 
L 810.275389 693.318906 
L 810.275389 0 
L 0 0 
z
" style="fill: #ffffff"/>
  </g>
  <g id="axes_1">
   <g id="patch_2">
    <path d="M 62.86875 332.68 
L 381.173436 332.68 
L 381.173436 26.92 
L 62.86875 26.92 
z
" style="fill: #ffffff"/>
   </g>
   <g id="FillBetweenPolyCollection_1"/>
   <g id="FillBetweenPolyCollection_2"/>
   <g id="matplotlib.axis_1">
    <g id="xtick_1">
     <g id="line2d_1">
      <defs>
       <path id="mbcb02aef95" d="M 0 0 
L 0 3.5 
" style="stroke: #000000; stroke-width: 0.8"/>
      </defs>
      <g>
       <use xlink:href="#mbcb02aef95" x="77.337145" y="332.68" style="stroke: #000000; stroke-width: 0.8"/>
      </g>
     </g>
    </g>
    <g id="xtick_2">
     <g id="line2d_2">
      <g>
       <use xlink:href="#mbcb02aef95" x="135.795306" y="332.68" style="stroke: #000000; stroke-width: 0.8"/>
      </g>
     </g>
    </g>
    <g id="xtick_3">
     <g id="line2d_3">
      <g>
       <use xlink:href="#mbcb02aef95" x="194.253467" y="332.68" style="stroke: #000000; stroke-width: 0.8"/>
      </g>
     </g>
    </g>
    <g id="xtick_4">
     <g id="line2d_4">
      <g>
       <use xlink:href="#mbcb02aef95" x="252.711628" y="332.68" style="stroke: #000000; stroke-width: 0.8"/>
      </g>
     </g>
    </g>
    <g id="xtick_5">
     <g id="line2d_5">
      <g>
       <use xlink:href="#mbcb02aef95" x="311.169788" y="332.68" style="stroke: #000000; stroke-width: 0.8"/>
      </g>
     </g>
    </g>
    <g id="xtick_6">
     <g id="line2d_6">
      <g>
       <use xlink:href="#mbcb02aef95" x="369.627949" y="332.68" style="stroke: #000000; stroke-width: 0.8"/>
      </g>
     </g>
    </g>
   </g>
   <g id="matplotlib.axis_2">
    <g id="ytick_1">
     <g id="line2d_7">
      <defs>
       <path id="me5179b328b" d="M 0 0 
L -3.5 0 
" style="stroke: #000000; stroke-width: 0.8"/>
      </defs>
      <g>
       <use xlink:href="#me5179b328b" x="62.86875" y="332.68" style="stroke: #000000; stroke-width: 0.8"/>
      </g>
     </g>
     <g id="text_1">
      <!-- 1200.0 -->
      <g transform="translate(20.878125 336.479219) scale(0.1 -0.1)">
       <defs>
        <path id="DejaVuSans-31" d="M 794 531 
L 1825 531 
L 1825 4091 
L 703 3866 
L 703 4441 
L 1819 4666 
L 2450 4666 
L 2450 531 
L 3481 531 
L 3481 0 
L 794 0 
L 794 531 
z
" transform="scale(0.015625)"/>
        <path id="DejaVuSans-32" d="M 1228 531 
L 3431 531 
L 3431 0 
L 469 0 
L 469 531 
Q 828 903 1448 1529 
Q 2069 2156 2228 2338 
Q 2531 2678 2651 2914 
Q 2772 3150 2772 3378 
Q 2772 3750 2511 3984 
Q 2250 4219 1831 4219 
Q 1534 4219 1204 4116 
Q 875 4013 500 3803 
L 500 4441 
Q 881 4594 1212 4672 
Q 1544 4750 1819 4750 
Q 2544 4750 2975 4387 
Q 3406 4025 3406 3419 
Q 3406 3131 3298 2873 
Q 3191 2616 2906 2266 
Q 2828 2175 2409 1742 
Q 1991 1309 1228 531 
z
" transform="scale(0.015625)"/>
        <path id="DejaVuSans-30" d="M 2034 4250 
Q 1547 4250 1301 3770 
Q 1056 3291 1056 2328 
Q 1056 1369 1301 889 
Q 1547 409 2034 409 
Q 2525 409 2770 889 
Q 3016 1369 3016 2328 
Q 3016 3291 2770 3770 
Q 2525 4250 2034 4250 
z
M 2034 4750 
Q 2819 4750 3233 4129 
Q 3647 3509 3647 2328 
Q 3647 1150 3233 529 
Q 2819 -91 2034 -91 
Q 1250 -91 836 529 
Q 422 1150 422 2328 
Q 422 3509 836 4129 
Q 1250 4750 2034 4750 
z
" transform="scale(0.015625)"/>
        <path id="DejaVuSans-2e" d="M 684 794 
L 1344 794 
L 1344 0 
L 684 0 
L 684 794 
z
" transform="scale(0.015625)"/>
       </defs>
       <use xlink:href="#DejaVuSans-31"/>
       <use xlink:href="#DejaVuSans-32" transform="translate(63.623047 0)"/>
       <use xlink:href="#DejaVuSans-30" transform="translate(127.246094 0)"/>
       <use xlink:href="#DejaVuSans-30" transform="translate(190.869141 0)"/>
       <use xlink:href="#DejaVuSans-2e" transform="translate(254.492188 0)"/>
       <use xlink:href="#DejaVuSans-30" transform="translate(286.279297 0)"/>
      </g>
     </g>
    </g>
    <g id="ytick_2">
     <g id="line2d_8">
      <g>
       <use xlink:href="#me5179b328b" x="62.86875" y="281.72" style="stroke: #000000; stroke-width: 0.8"/>
      </g>
     </g>
     <g id="text_2">
      <!-- 1300.0 -->
      <g transform="translate(20.878125 285.519219) scale(0.1 -0.1)">
       <defs>
        <path id="DejaVuSans-33" d="M 2597 2516 
Q 3050 2419 3304 2112 
Q 3559 1806 3559 1356 
Q 3559 666 3084 287 
Q 2609 -91 1734 -91 
Q 1441 -91 1130 -33 
Q 819 25 488 141 
L 488 750 
Q 750 597 1062 519 
Q 1375 441 1716 441 
Q 2309 441 2620 675 
Q 2931 909 2931 1356 
Q 2931 1769 2642 2001 
Q 2353 2234 1838 2234 
L 1294 2234 
L 1294 2753 
L 1863 2753 
Q 2328 2753 2575 2939 
Q 2822 3125 2822 3475 
Q 2822 3834 2567 4026 
Q 2313 4219 1838 4219 
Q 1578 4219 1281 4162 
Q 984 4106 628 3988 
L 628 4550 
Q 988 4650 1302 4700 
Q 1616 4750 1894 4750 
Q 2613 4750 3031 4423 
Q 3450 4097 3450 3541 
Q 3450 3153 3228 2886 
Q 3006 2619 2597 2516 
z
" transform="scale(0.015625)"/>
       </defs>
       <use xlink:href="#DejaVuSans-31"/>
       <use xlink:href="#DejaVuSans-33" transform="translate(63.623047 0)"/>
       <use xlink:href="#DejaVuSans-30" transform="translate(127.246094 0)"/>
       <use xlink:href="#DejaVuSans-30" transform="translate(190.869141 0)"/>
       <use xlink:href="#DejaVuSans-2e" transform="translate(254.492188 0)"/>
       <use xlink:href="#DejaVuSans-30" transform="translate(286.279297 0)"/>
      </g>
     </g>
    </g>
    <g id="ytick_3">
     <g id="line2d_9">
      <g>
       <use xlink:href="#me5179b328b" x="62.86875" y="230.76" style="stroke: #000000; stroke-width: 0.8"/>
      </g>
     </g>
     <g id="text_3">
      <!-- 1400.0 -->
      <g transform="translate(20.878125 234.559219) scale(0.1 -0.1)">
       <defs>
        <path id="DejaVuSans-34" d="M 2419 4116 
L 825 1625 
L 2419 1625 
L 2419 4116 
z
M 2253 4666 
L 3047 4666 
L 3047 1625 
L 3713 1625 
L 3713 1100 
L 3047 1100 
L 3047 0 
L 2419 0 
L 2419 1100 
L 313 1100 
L 313 1709 
L 2253 4666 
z
" transform="scale(0.015625)"/>
       </defs>
       <use xlink:href="#DejaVuSans-31"/>
       <use xlink:href="#DejaVuSans-34" transform="translate(63.623047 0)"/>
       <use xlink:href="#DejaVuSans-30" transform="translate(127.246094 0)"/>
       <use xlink:href="#DejaVuSans-30" transform="translate(190.869141 0)"/>
       <use xlink:href="#DejaVuSans-2e" transform="translate(254.492188 0)"/>
       <use xlink:href="#DejaVuSans-30" transform="translate(286.279297 0)"/>
      </g>
     </g>
    </g>
    <g id="ytick_4">
     <g id="line2d_10">
      <g>
       <use xlink:href="#me5179b328b" x="62.86875" y="179.8" style="stroke: #000000; stroke-width: 0.8"/>
      </g>
     </g>
     <g id="text_4">
      <!-- 1500.0 -->
      <g transform="translate(20.878125 183.599219) scale(0.1 -0.1)">
       <defs>
        <path id="DejaVuSans-35" d="M 691 4666 
L 3169 4666 
L 3169 4134 
L 1269 4134 
L 1269 2991 
Q 1406 3038 1543 3061 
Q 1681 3084 1819 3084 
Q 2600 3084 3056 2656 
Q 3513 2228 3513 1497 
Q 3513 744 3044 326 
Q 2575 -91 1722 -91 
Q 1428 -91 1123 -41 
Q 819 9 494 109 
L 494 744 
Q 775 591 1075 516 
Q 1375 441 1709 441 
Q 2250 441 2565 725 
Q 2881 1009 2881 1497 
Q 2881 1984 2565 2268 
Q 2250 2553 1709 2553 
Q 1456 2553 1204 2497 
Q 953 2441 691 2322 
L 691 4666 
z
" transform="scale(0.015625)"/>
       </defs>
       <use xlink:href="#DejaVuSans-31"/>
       <use xlink:href="#DejaVuSans-35" transform="translate(63.623047 0)"/>
       <use xlink:href="#DejaVuSans-30" transform="translate(127.246094 0)"/>
       <use xlink:href="#DejaVuSans-30" transform="translate(190.869141 0)"/>
       <use xlink:href="#DejaVuSans-2e" transform="translate(254.492188 0)"/>
       <use xlink:href="#DejaVuSans-30" transform="translate(286.279297 0)"/>
      </g>
     </g>
    </g>
    <g id="ytick_5">
     <g id="line2d_11">
      <g>
       <use xlink:href="#me5179b328b" x="62.86875" y="128.84" style="stroke: #000000; stroke-width: 0.8"/>
      </g>
     </g>
     <g id="text_5">
      <!-- 1600.0 -->
      <g transform="translate(20.878125 132.639219) scale(0.1 -0.1)">
       <defs>
        <path id="DejaVuSans-36" d="M 2113 2584 
Q 1688 2584 1439 2293 
Q 1191 2003 1191 1497 
Q 1191 994 1439 701 
Q 1688 409 2113 409 
Q 2538 409 2786 701 
Q 3034 994 3034 1497 
Q 3034 2003 2786 2293 
Q 2538 2584 2113 2584 
z
M 3366 4563 
L 3366 3988 
Q 3128 4100 2886 4159 
Q 2644 4219 2406 4219 
Q 1781 4219 1451 3797 
Q 1122 3375 1075 2522 
Q 1259 2794 1537 2939 
Q 1816 3084 2150 3084 
Q 2853 3084 3261 2657 
Q 3669 2231 3669 1497 
Q 3669 778 3244 343 
Q 2819 -91 2113 -91 
Q 1303 -91 875 529 
Q 447 1150 447 2328 
Q 447 3434 972 4092 
Q 1497 4750 2381 4750 
Q 2619 4750 2861 4703 
Q 3103 4656 3366 4563 
z
" transform="scale(0.015625)"/>
       </defs>
       <use xlink:href="#DejaVuSans-31"/>
       <use xlink:href="#DejaVuSans-36" transform="translate(63.623047 0)"/>
       <use xlink:href="#DejaVuSans-30" transform="translate(127.246094 0)"/>
       <use xlink:href="#DejaVuSans-30" transform="translate(190.869141 0)"/>
       <use xlink:href="#DejaVuSans-2e" transform="translate(254.492188 0)"/>
       <use xlink:href="#DejaVuSans-30" transform="translate(286.279297 0)"/>
      </g>
     </g>
    </g>
    <g id="ytick_6">
     <g id="line2d_12">
      <g>
       <use xlink:href="#me5179b328b" x="62.86875" y="77.88" style="stroke: #000000; stroke-width: 0.8"/>
      </g>
     </g>
     <g id="text_6">
      <!-- 1700.0 -->
      <g transform="translate(20.878125 81.679219) scale(0.1 -0.1)">
       <defs>
        <path id="DejaVuSans-37" d="M 525 4666 
L 3525 4666 
L 3525 4397 
L 1831 0 
L 1172 0 
L 2766 4134 
L 525 4134 
L 525 4666 
z
" transform="scale(0.015625)"/>
       </defs>
       <use xlink:href="#DejaVuSans-31"/>
       <use xlink:href="#DejaVuSans-37" transform="translate(63.623047 0)"/>
       <use xlink:href="#DejaVuSans-30" transform="translate(127.246094 0)"/>
       <use xlink:href="#DejaVuSans-30" transform="translate(190.869141 0)"/>
       <use xlink:href="#DejaVuSans-2e" transform="translate(254.492188 0)"/>
       <use xlink:href="#DejaVuSans-30" transform="translate(286.279297 0)"/>
      </g>
     </g>
    </g>
    <g id="ytick_7">
     <g id="line2d_13">
      <g>
       <use xlink:href="#me5179b328b" x="62.86875" y="26.92" style="stroke: #000000; stroke-width: 0.8"/>
      </g>
     </g>
     <g id="text_7">
      <!-- 1800.0 -->
      <g transform="translate(20.878125 30.719219) scale(0.1 -0.1)">
       <defs>
        <path id="DejaVuSans-38" d="M 2034 2216 
Q 1584 2216 1326 1975 
Q 1069 1734 1069 1313 
Q 1069 891 1326 650 
Q 1584 409 2034 409 
Q 2484 409 2743 651 
Q 3003 894 3003 1313 
Q 3003 1734 2745 1975 
Q 2488 2216 2034 2216 
z
M 1403 2484 
Q 997 2584 770 2862 
Q 544 3141 544 3541 
Q 544 4100 942 4425 
Q 1341 4750 2034 4750 
Q 2731 4750 3128 4425 
Q 3525 4100 3525 3541 
Q 3525 3141 3298 2862 
Q 3072 2584 2669 2484 
Q 3125 2378 3379 2068 
Q 3634 1759 3634 1313 
Q 3634 634 3220 271 
Q 2806 -91 2034 -91 
Q 1263 -91 848 271 
Q 434 634 434 1313 
Q 434 1759 690 2068 
Q 947 2378 1403 2484 
z
M 1172 3481 
Q 1172 3119 1398 2916 
Q 1625 2713 2034 2713 
Q 2441 2713 2670 2916 
Q 2900 3119 2900 3481 
Q 2900 3844 2670 4047 
Q 2441 4250 2034 4250 
Q 1625 4250 1398 4047 
Q 1172 3844 1172 3481 
z
" transform="scale(0.015625)"/>
       </defs>
       <use xlink:href="#DejaVuSans-31"/>
       <use xlink:href="#DejaVuSans-38" transform="translate(63.623047 0)"/>
       <use xlink:href="#DejaVuSans-30" transform="translate(127.246094 0)"/>
       <use xlink:href="#DejaVuSans-30" transform="translate(190.869141 0)"/>
       <use xlink:href="#DejaVuSans-2e" transform="translate(254.492188 0)"/>
       <use xlink:href="#DejaVuSans-30" transform="translate(286.279297 0)"/>
      </g>
     </g>
    </g>
    <g id="text_8">
     <!-- Memory Usage (MB) -->
     <g transform="translate(14.798438 230.538281) rotate(-90) scale(0.1 -0.1)">
      <defs>
       <path id="DejaVuSans-4d" d="M 628 4666 
L 1569 4666 
L 2759 1491 
L 3956 4666 
L 4897 4666 
L 4897 0 
L 4281 0 
L 4281 4097 
L 3078 897 
L 2444 897 
L 1241 4097 
L 1241 0 
L 628 0 
L 628 4666 
z
" transform="scale(0.015625)"/>
       <path id="DejaVuSans-65" d="M 3597 1894 
L 3597 1613 
L 953 1613 
Q 991 1019 1311 708 
Q 1631 397 2203 397 
Q 2534 397 2845 478 
Q 3156 559 3463 722 
L 3463 178 
Q 3153 47 2828 -22 
Q 2503 -91 2169 -91 
Q 1331 -91 842 396 
Q 353 884 353 1716 
Q 353 2575 817 3079 
Q 1281 3584 2069 3584 
Q 2775 3584 3186 3129 
Q 3597 2675 3597 1894 
z
M 3022 2063 
Q 3016 2534 2758 2815 
Q 2500 3097 2075 3097 
Q 1594 3097 1305 2825 
Q 1016 2553 972 2059 
L 3022 2063 
z
" transform="scale(0.015625)"/>
       <path id="DejaVuSans-6d" d="M 3328 2828 
Q 3544 3216 3844 3400 
Q 4144 3584 4550 3584 
Q 5097 3584 5394 3201 
Q 5691 2819 5691 2113 
L 5691 0 
L 5113 0 
L 5113 2094 
Q 5113 2597 4934 2840 
Q 4756 3084 4391 3084 
Q 3944 3084 3684 2787 
Q 3425 2491 3425 1978 
L 3425 0 
L 2847 0 
L 2847 2094 
Q 2847 2600 2669 2842 
Q 2491 3084 2119 3084 
Q 1678 3084 1418 2786 
Q 1159 2488 1159 1978 
L 1159 0 
L 581 0 
L 581 3500 
L 1159 3500 
L 1159 2956 
Q 1356 3278 1631 3431 
Q 1906 3584 2284 3584 
Q 2666 3584 2933 3390 
Q 3200 3197 3328 2828 
z
" transform="scale(0.015625)"/>
       <path id="DejaVuSans-6f" d="M 1959 3097 
Q 1497 3097 1228 2736 
Q 959 2375 959 1747 
Q 959 1119 1226 758 
Q 1494 397 1959 397 
Q 2419 397 2687 759 
Q 2956 1122 2956 1747 
Q 2956 2369 2687 2733 
Q 2419 3097 1959 3097 
z
M 1959 3584 
Q 2709 3584 3137 3096 
Q 3566 2609 3566 1747 
Q 3566 888 3137 398 
Q 2709 -91 1959 -91 
Q 1206 -91 779 398 
Q 353 888 353 1747 
Q 353 2609 779 3096 
Q 1206 3584 1959 3584 
z
" transform="scale(0.015625)"/>
       <path id="DejaVuSans-72" d="M 2631 2963 
Q 2534 3019 2420 3045 
Q 2306 3072 2169 3072 
Q 1681 3072 1420 2755 
Q 1159 2438 1159 1844 
L 1159 0 
L 581 0 
L 581 3500 
L 1159 3500 
L 1159 2956 
Q 1341 3275 1631 3429 
Q 1922 3584 2338 3584 
Q 2397 3584 2469 3576 
Q 2541 3569 2628 3553 
L 2631 2963 
z
" transform="scale(0.015625)"/>
       <path id="DejaVuSans-79" d="M 2059 -325 
Q 1816 -950 1584 -1140 
Q 1353 -1331 966 -1331 
L 506 -1331 
L 506 -850 
L 844 -850 
Q 1081 -850 1212 -737 
Q 1344 -625 1503 -206 
L 1606 56 
L 191 3500 
L 800 3500 
L 1894 763 
L 2988 3500 
L 3597 3500 
L 2059 -325 
z
" transform="scale(0.015625)"/>
       <path id="DejaVuSans-20" transform="scale(0.015625)"/>
       <path id="DejaVuSans-55" d="M 556 4666 
L 1191 4666 
L 1191 1831 
Q 1191 1081 1462 751 
Q 1734 422 2344 422 
Q 2950 422 3222 751 
Q 3494 1081 3494 1831 
L 3494 4666 
L 4128 4666 
L 4128 1753 
Q 4128 841 3676 375 
Q 3225 -91 2344 -91 
Q 1459 -91 1007 375 
Q 556 841 556 1753 
L 556 4666 
z
" transform="scale(0.015625)"/>
       <path id="DejaVuSans-73" d="M 2834 3397 
L 2834 2853 
Q 2591 2978 2328 3040 
Q 2066 3103 1784 3103 
Q 1356 3103 1142 2972 
Q 928 2841 928 2578 
Q 928 2378 1081 2264 
Q 1234 2150 1697 2047 
L 1894 2003 
Q 2506 1872 2764 1633 
Q 3022 1394 3022 966 
Q 3022 478 2636 193 
Q 2250 -91 1575 -91 
Q 1294 -91 989 -36 
Q 684 19 347 128 
L 347 722 
Q 666 556 975 473 
Q 1284 391 1588 391 
Q 1994 391 2212 530 
Q 2431 669 2431 922 
Q 2431 1156 2273 1281 
Q 2116 1406 1581 1522 
L 1381 1569 
Q 847 1681 609 1914 
Q 372 2147 372 2553 
Q 372 3047 722 3315 
Q 1072 3584 1716 3584 
Q 2034 3584 2315 3537 
Q 2597 3491 2834 3397 
z
" transform="scale(0.015625)"/>
       <path id="DejaVuSans-61" d="M 2194 1759 
Q 1497 1759 1228 1600 
Q 959 1441 959 1056 
Q 959 750 1161 570 
Q 1363 391 1709 391 
Q 2188 391 2477 730 
Q 2766 1069 2766 1631 
L 2766 1759 
L 2194 1759 
z
M 3341 1997 
L 3341 0 
L 2766 0 
L 2766 531 
Q 2569 213 2275 61 
Q 1981 -91 1556 -91 
Q 1019 -91 701 211 
Q 384 513 384 1019 
Q 384 1609 779 1909 
Q 1175 2209 1959 2209 
L 2766 2209 
L 2766 2266 
Q 2766 2663 2505 2880 
Q 2244 3097 1772 3097 
Q 1472 3097 1187 3025 
Q 903 2953 641 2809 
L 641 3341 
Q 956 3463 1253 3523 
Q 1550 3584 1831 3584 
Q 2591 3584 2966 3190 
Q 3341 2797 3341 1997 
z
" transform="scale(0.015625)"/>
       <path id="DejaVuSans-67" d="M 2906 1791 
Q 2906 2416 2648 2759 
Q 2391 3103 1925 3103 
Q 1463 3103 1205 2759 
Q 947 2416 947 1791 
Q 947 1169 1205 825 
Q 1463 481 1925 481 
Q 2391 481 2648 825 
Q 2906 1169 2906 1791 
z
M 3481 434 
Q 3481 -459 3084 -895 
Q 2688 -1331 1869 -1331 
Q 1566 -1331 1297 -1286 
Q 1028 -1241 775 -1147 
L 775 -588 
Q 1028 -725 1275 -790 
Q 1522 -856 1778 -856 
Q 2344 -856 2625 -561 
Q 2906 -266 2906 331 
L 2906 616 
Q 2728 306 2450 153 
Q 2172 0 1784 0 
Q 1141 0 747 490 
Q 353 981 353 1791 
Q 353 2603 747 3093 
Q 1141 3584 1784 3584 
Q 2172 3584 2450 3431 
Q 2728 3278 2906 2969 
L 2906 3500 
L 3481 3500 
L 3481 434 
z
" transform="scale(0.015625)"/>
       <path id="DejaVuSans-28" d="M 1984 4856 
Q 1566 4138 1362 3434 
Q 1159 2731 1159 2009 
Q 1159 1288 1364 580 
Q 1569 -128 1984 -844 
L 1484 -844 
Q 1016 -109 783 600 
Q 550 1309 550 2009 
Q 550 2706 781 3412 
Q 1013 4119 1484 4856 
L 1984 4856 
z
" transform="scale(0.015625)"/>
       <path id="DejaVuSans-42" d="M 1259 2228 
L 1259 519 
L 2272 519 
Q 2781 519 3026 730 
Q 3272 941 3272 1375 
Q 3272 1813 3026 2020 
Q 2781 2228 2272 2228 
L 1259 2228 
z
M 1259 4147 
L 1259 2741 
L 2194 2741 
Q 2656 2741 2882 2914 
Q 3109 3088 3109 3444 
Q 3109 3797 2882 3972 
Q 2656 4147 2194 4147 
L 1259 4147 
z
M 628 4666 
L 2241 4666 
Q 2963 4666 3353 4366 
Q 3744 4066 3744 3513 
Q 3744 3084 3544 2831 
Q 3344 2578 2956 2516 
Q 3422 2416 3680 2098 
Q 3938 1781 3938 1306 
Q 3938 681 3513 340 
Q 3088 0 2303 0 
L 628 0 
L 628 4666 
z
" transform="scale(0.015625)"/>
       <path id="DejaVuSans-29" d="M 513 4856 
L 1013 4856 
Q 1481 4119 1714 3412 
Q 1947 2706 1947 2009 
Q 1947 1309 1714 600 
Q 1481 -109 1013 -844 
L 513 -844 
Q 928 -128 1133 580 
Q 1338 1288 1338 2009 
Q 1338 2731 1133 3434 
Q 928 4138 513 4856 
z
" transform="scale(0.015625)"/>
      </defs>
      <use xlink:href="#DejaVuSans-4d"/>
      <use xlink:href="#DejaVuSans-65" transform="translate(86.279297 0)"/>
      <use xlink:href="#DejaVuSans-6d" transform="translate(147.802734 0)"/>
      <use xlink:href="#DejaVuSans-6f" transform="translate(245.214844 0)"/>
      <use xlink:href="#DejaVuSans-72" transform="translate(306.396484 0)"/>
      <use xlink:href="#DejaVuSans-79" transform="translate(347.509766 0)"/>
      <use xlink:href="#DejaVuSans-20" transform="translate(406.689453 0)"/>
      <use xlink:href="#DejaVuSans-55" transform="translate(438.476562 0)"/>
      <use xlink:href="#DejaVuSans-73" transform="translate(511.669922 0)"/>
      <use xlink:href="#DejaVuSans-61" transform="translate(563.769531 0)"/>
      <use xlink:href="#DejaVuSans-67" transform="translate(625.048828 0)"/>
      <use xlink:href="#DejaVuSans-65" transform="translate(688.525391 0)"/>
      <use xlink:href="#DejaVuSans-20" transform="translate(750.048828 0)"/>
      <use xlink:href="#DejaVuSans-28" transform="translate(781.835938 0)"/>
      <use xlink:href="#DejaVuSans-4d" transform="translate(820.849609 0)"/>
      <use xlink:href="#DejaVuSans-42" transform="translate(907.128906 0)"/>
      <use xlink:href="#DejaVuSans-29" transform="translate(975.732422 0)"/>
     </g>
    </g>
   </g>
   <g id="line2d_14">
    <path d="M 77.337145 265.02521 
L 77.345914 265.114965 
L 80.260053 254.814033 
L 83.182961 263.804127 
L 86.105869 269.448245 
L 89.028777 249.581118 
L 91.951685 239.493093 
L 94.874593 235.497959 
L 97.797501 241.012663 
L 100.720409 253.492759 
L 103.643317 251.52024 
L 106.566225 247.779759 
L 109.489133 240.778883 
L 112.412041 238.866896 
L 115.334949 239.789492 
L 118.257857 242.465439 
L 121.180766 242.636599 
L 124.103674 239.822889 
L 127.026582 237.023791 
L 129.94949 236.886028 
L 132.872398 237.238785 
L 135.795306 245.506666 
L 138.718214 245.43361 
L 141.641122 241.964481 
L 144.56403 244.266797 
L 147.486938 237.478827 
L 150.409846 245.775931 
L 153.332754 245.548413 
L 156.255662 239.159121 
L 159.17857 239.083978 
L 162.101478 241.060671 
L 165.024386 241.507358 
L 167.947294 238.783403 
L 170.870202 239.547363 
L 173.79311 239.937692 
L 176.716018 233.579711 
L 179.638926 235.712953 
L 182.561834 244.980661 
L 185.484743 246.631733 
L 188.407651 240.970916 
L 191.330559 240.730874 
L 194.253467 241.411341 
L 197.176375 241.499009 
L 200.099283 238.91073 
L 203.022191 242.680433 
L 205.945099 239.820802 
L 208.868007 239.28436 
L 211.790915 239.530664 
L 214.713823 235.241219 
L 217.636731 236.332888 
L 220.559639 237.176166 
L 223.482547 237.794013 
L 226.405455 235.260004 
L 229.328363 230.918376 
L 232.251271 232.218777 
L 235.174179 232.508915 
L 238.097087 232.571534 
L 241.019995 235.783922 
L 243.942903 230.584404 
L 246.865811 237.215825 
L 249.78872 237.723044 
L 252.711628 234.915596 
L 255.634536 243.402646 
L 258.557444 243.550846 
L 261.480352 245.821852 
L 264.40326 242.759751 
L 267.326168 242.27758 
L 270.249076 237.011267 
L 273.171984 237.503875 
L 276.094892 238.06119 
L 279.0178 237.186602 
L 281.940708 237.399509 
L 284.863616 229.22347 
L 287.786524 237.601979 
L 290.709432 237.783576 
L 293.63234 235.917511 
L 296.555248 236.034401 
L 299.478156 233.47117 
L 302.401064 240.000312 
L 305.323972 244.84916 
L 308.24688 244.431696 
L 311.169788 239.4096 
L 314.092697 247.147301 
L 317.015605 239.330282 
L 319.938513 237.41412 
L 322.861421 236.113719 
L 325.784329 239.157034 
L 328.707237 239.66634 
L 331.630145 224.543695 
L 334.553053 224.860968 
L 337.475961 227.334444 
L 340.398869 230.553094 
L 343.321777 231.744955 
L 346.244685 242.135642 
L 349.167593 242.571892 
L 352.090501 245.552587 
L 355.013409 244.644602 
L 357.936317 244.2334 
L 358.012313 244.239662 
L 360.859225 246.963617 
L 363.782133 252.699576 
L 366.705041 252.703751 
" clip-path="url(#p86567f5da3)" style="fill: none; stroke: #1f77b4; stroke-width: 1.5; stroke-linecap: square"/>
   </g>
   <g id="line2d_15">
    <path d="M 77.337145 253.388393 
L 80.260053 240.48457 
L 83.182961 230.471689 
L 86.105869 230.98517 
L 89.028777 227.317746 
L 91.951685 224.687721 
L 94.874593 216.981329 
L 97.797501 216.991766 
L 100.720409 215.720587 
L 103.643317 217.233895 
L 106.566225 219.039428 
L 109.489133 218.786862 
L 112.412041 219.517425 
L 115.334949 228.401066 
L 118.257857 219.446456 
L 121.180766 227.455509 
L 124.103674 230.237909 
L 127.026582 226.762518 
L 129.94949 226.839749 
L 132.872398 224.871405 
L 135.795306 232.162419 
L 138.718214 230.473776 
L 141.641122 221.842701 
L 144.56403 221.874011 
L 147.486938 220.45672 
L 150.409846 222.602486 
L 153.332754 221.942893 
L 156.255662 222.387492 
L 159.17857 217.17545 
L 162.101478 218.29008 
L 165.024386 218.327652 
L 167.947294 222.850878 
L 170.870202 223.514646 
L 173.79311 225.171979 
L 176.716018 223.629448 
L 179.638926 220.337742 
L 182.561834 226.326268 
L 185.484743 234.917684 
L 188.407651 235.301751 
L 191.330559 227.06518 
L 194.253467 234.23513 
L 197.176375 228.41359 
L 200.099283 228.705815 
L 203.022191 228.536742 
L 205.945099 231.665637 
L 208.868007 227.023433 
L 211.790915 219.102048 
L 214.713823 219.866008 
L 217.636731 214.43271 
L 220.559639 223.44159 
L 223.482547 224.151279 
L 226.405455 222.621272 
L 229.328363 223.038736 
L 232.251271 220.316869 
L 235.174179 229.524045 
L 238.097087 222.81748 
L 241.019995 221.128837 
L 243.942903 216.438626 
L 246.865811 216.591 
L 249.78872 212.410095 
L 252.711628 216.691192 
L 255.634536 220.872097 
L 258.557444 212.130394 
L 261.480352 213.178229 
L 264.40326 221.930369 
L 267.326168 223.387319 
L 270.249076 227.697638 
L 272.859233 241.870552 
L 273.171984 241.870552 
L 276.094892 237.900466 
L 279.0178 246.589986 
" clip-path="url(#p86567f5da3)" style="fill: none; stroke: #ff7f0e; stroke-width: 1.5; stroke-linecap: square"/>
   </g>
   <g id="line2d_16"/>
   <g id="line2d_17"/>
   <g id="patch_3">
    <path d="M 62.86875 332.68 
L 62.86875 26.92 
" style="fill: none; stroke: #000000; stroke-width: 0.8; stroke-linejoin: miter; stroke-linecap: square"/>
   </g>
   <g id="patch_4">
    <path d="M 62.86875 332.68 
L 381.173436 332.68 
" style="fill: none; stroke: #000000; stroke-width: 0.8; stroke-linejoin: miter; stroke-linecap: square"/>
   </g>
   <g id="text_9">
    <!-- Service Mesh = none -->
    <g transform="translate(158.331093 20.92) scale(0.12 -0.12)">
     <defs>
      <path id="DejaVuSans-53" d="M 3425 4513 
L 3425 3897 
Q 3066 4069 2747 4153 
Q 2428 4238 2131 4238 
Q 1616 4238 1336 4038 
Q 1056 3838 1056 3469 
Q 1056 3159 1242 3001 
Q 1428 2844 1947 2747 
L 2328 2669 
Q 3034 2534 3370 2195 
Q 3706 1856 3706 1288 
Q 3706 609 3251 259 
Q 2797 -91 1919 -91 
Q 1588 -91 1214 -16 
Q 841 59 441 206 
L 441 856 
Q 825 641 1194 531 
Q 1563 422 1919 422 
Q 2459 422 2753 634 
Q 3047 847 3047 1241 
Q 3047 1584 2836 1778 
Q 2625 1972 2144 2069 
L 1759 2144 
Q 1053 2284 737 2584 
Q 422 2884 422 3419 
Q 422 4038 858 4394 
Q 1294 4750 2059 4750 
Q 2388 4750 2728 4690 
Q 3069 4631 3425 4513 
z
" transform="scale(0.015625)"/>
      <path id="DejaVuSans-76" d="M 191 3500 
L 800 3500 
L 1894 563 
L 2988 3500 
L 3597 3500 
L 2284 0 
L 1503 0 
L 191 3500 
z
" transform="scale(0.015625)"/>
      <path id="DejaVuSans-69" d="M 603 3500 
L 1178 3500 
L 1178 0 
L 603 0 
L 603 3500 
z
M 603 4863 
L 1178 4863 
L 1178 4134 
L 603 4134 
L 603 4863 
z
" transform="scale(0.015625)"/>
      <path id="DejaVuSans-63" d="M 3122 3366 
L 3122 2828 
Q 2878 2963 2633 3030 
Q 2388 3097 2138 3097 
Q 1578 3097 1268 2742 
Q 959 2388 959 1747 
Q 959 1106 1268 751 
Q 1578 397 2138 397 
Q 2388 397 2633 464 
Q 2878 531 3122 666 
L 3122 134 
Q 2881 22 2623 -34 
Q 2366 -91 2075 -91 
Q 1284 -91 818 406 
Q 353 903 353 1747 
Q 353 2603 823 3093 
Q 1294 3584 2113 3584 
Q 2378 3584 2631 3529 
Q 2884 3475 3122 3366 
z
" transform="scale(0.015625)"/>
      <path id="DejaVuSans-68" d="M 3513 2113 
L 3513 0 
L 2938 0 
L 2938 2094 
Q 2938 2591 2744 2837 
Q 2550 3084 2163 3084 
Q 1697 3084 1428 2787 
Q 1159 2491 1159 1978 
L 1159 0 
L 581 0 
L 581 4863 
L 1159 4863 
L 1159 2956 
Q 1366 3272 1645 3428 
Q 1925 3584 2291 3584 
Q 2894 3584 3203 3211 
Q 3513 2838 3513 2113 
z
" transform="scale(0.015625)"/>
      <path id="DejaVuSans-3d" d="M 678 2906 
L 4684 2906 
L 4684 2381 
L 678 2381 
L 678 2906 
z
M 678 1631 
L 4684 1631 
L 4684 1100 
L 678 1100 
L 678 1631 
z
" transform="scale(0.015625)"/>
      <path id="DejaVuSans-6e" d="M 3513 2113 
L 3513 0 
L 2938 0 
L 2938 2094 
Q 2938 2591 2744 2837 
Q 2550 3084 2163 3084 
Q 1697 3084 1428 2787 
Q 1159 2491 1159 1978 
L 1159 0 
L 581 0 
L 581 3500 
L 1159 3500 
L 1159 2956 
Q 1366 3272 1645 3428 
Q 1925 3584 2291 3584 
Q 2894 3584 3203 3211 
Q 3513 2838 3513 2113 
z
" transform="scale(0.015625)"/>
     </defs>
     <use xlink:href="#DejaVuSans-53"/>
     <use xlink:href="#DejaVuSans-65" transform="translate(63.476562 0)"/>
     <use xlink:href="#DejaVuSans-72" transform="translate(125 0)"/>
     <use xlink:href="#DejaVuSans-76" transform="translate(166.113281 0)"/>
     <use xlink:href="#DejaVuSans-69" transform="translate(225.292969 0)"/>
     <use xlink:href="#DejaVuSans-63" transform="translate(253.076172 0)"/>
     <use xlink:href="#DejaVuSans-65" transform="translate(308.056641 0)"/>
     <use xlink:href="#DejaVuSans-20" transform="translate(369.580078 0)"/>
     <use xlink:href="#DejaVuSans-4d" transform="translate(401.367188 0)"/>
     <use xlink:href="#DejaVuSans-65" transform="translate(487.646484 0)"/>
     <use xlink:href="#DejaVuSans-73" transform="translate(549.169922 0)"/>
     <use xlink:href="#DejaVuSans-68" transform="translate(601.269531 0)"/>
     <use xlink:href="#DejaVuSans-20" transform="translate(664.648438 0)"/>
     <use xlink:href="#DejaVuSans-3d" transform="translate(696.435547 0)"/>
     <use xlink:href="#DejaVuSans-20" transform="translate(780.224609 0)"/>
     <use xlink:href="#DejaVuSans-6e" transform="translate(812.011719 0)"/>
     <use xlink:href="#DejaVuSans-6f" transform="translate(875.390625 0)"/>
     <use xlink:href="#DejaVuSans-6e" transform="translate(936.572266 0)"/>
     <use xlink:href="#DejaVuSans-65" transform="translate(999.951172 0)"/>
    </g>
   </g>
  </g>
  <g id="axes_2">
   <g id="patch_5">
    <path d="M 403.578603 332.68 
L 721.883289 332.68 
L 721.883289 26.92 
L 403.578603 26.92 
z
" style="fill: #ffffff"/>
   </g>
   <g id="FillBetweenPolyCollection_3"/>
   <g id="FillBetweenPolyCollection_4"/>
   <g id="matplotlib.axis_3">
    <g id="xtick_7">
     <g id="line2d_18">
      <g>
       <use xlink:href="#mbcb02aef95" x="418.046997" y="332.68" style="stroke: #000000; stroke-width: 0.8"/>
      </g>
     </g>
    </g>
    <g id="xtick_8">
     <g id="line2d_19">
      <g>
       <use xlink:href="#mbcb02aef95" x="477.10167" y="332.68" style="stroke: #000000; stroke-width: 0.8"/>
      </g>
     </g>
    </g>
    <g id="xtick_9">
     <g id="line2d_20">
      <g>
       <use xlink:href="#mbcb02aef95" x="536.156343" y="332.68" style="stroke: #000000; stroke-width: 0.8"/>
      </g>
     </g>
    </g>
    <g id="xtick_10">
     <g id="line2d_21">
      <g>
       <use xlink:href="#mbcb02aef95" x="595.211016" y="332.68" style="stroke: #000000; stroke-width: 0.8"/>
      </g>
     </g>
    </g>
    <g id="xtick_11">
     <g id="line2d_22">
      <g>
       <use xlink:href="#mbcb02aef95" x="654.265688" y="332.68" style="stroke: #000000; stroke-width: 0.8"/>
      </g>
     </g>
    </g>
    <g id="xtick_12">
     <g id="line2d_23">
      <g>
       <use xlink:href="#mbcb02aef95" x="713.320361" y="332.68" style="stroke: #000000; stroke-width: 0.8"/>
      </g>
     </g>
    </g>
   </g>
   <g id="matplotlib.axis_4">
    <g id="ytick_8">
     <g id="line2d_24">
      <g>
       <use xlink:href="#me5179b328b" x="403.578603" y="332.68" style="stroke: #000000; stroke-width: 0.8"/>
      </g>
     </g>
    </g>
    <g id="ytick_9">
     <g id="line2d_25">
      <g>
       <use xlink:href="#me5179b328b" x="403.578603" y="281.72" style="stroke: #000000; stroke-width: 0.8"/>
      </g>
     </g>
    </g>
    <g id="ytick_10">
     <g id="line2d_26">
      <g>
       <use xlink:href="#me5179b328b" x="403.578603" y="230.76" style="stroke: #000000; stroke-width: 0.8"/>
      </g>
     </g>
    </g>
    <g id="ytick_11">
     <g id="line2d_27">
      <g>
       <use xlink:href="#me5179b328b" x="403.578603" y="179.8" style="stroke: #000000; stroke-width: 0.8"/>
      </g>
     </g>
    </g>
    <g id="ytick_12">
     <g id="line2d_28">
      <g>
       <use xlink:href="#me5179b328b" x="403.578603" y="128.84" style="stroke: #000000; stroke-width: 0.8"/>
      </g>
     </g>
    </g>
    <g id="ytick_13">
     <g id="line2d_29">
      <g>
       <use xlink:href="#me5179b328b" x="403.578603" y="77.88" style="stroke: #000000; stroke-width: 0.8"/>
      </g>
     </g>
    </g>
    <g id="ytick_14">
     <g id="line2d_30">
      <g>
       <use xlink:href="#me5179b328b" x="403.578603" y="26.92" style="stroke: #000000; stroke-width: 0.8"/>
      </g>
     </g>
    </g>
   </g>
   <g id="line2d_31">
    <path d="M 418.046997 284.514532 
L 418.076525 288.680826 
L 420.999731 270.278999 
L 423.952465 267.118794 
L 426.905198 277.066969 
L 429.857932 274.480777 
L 432.810666 270.959466 
L 435.763399 253.94362 
L 438.716133 254.542681 
L 441.668866 282.512791 
L 444.6216 277.983303 
L 447.574334 271.539741 
L 450.527067 266.761862 
L 453.479801 270.327007 
L 456.432535 271.084705 
L 459.385268 272.092881 
L 462.338002 269.859447 
L 465.290736 273.902589 
L 468.243469 272.324574 
L 471.196203 272.752475 
L 474.148937 273.155328 
L 477.10167 273.320227 
L 480.054404 269.222814 
L 483.007137 269.325093 
L 485.959871 264.021209 
L 488.912605 276.426161 
L 491.865338 276.578536 
L 494.818072 263.109049 
L 497.770806 263.463894 
L 500.723539 266.72429 
L 503.676273 267.671934 
L 506.629007 263.952327 
L 509.58174 275.883457 
L 512.534474 267.225247 
L 515.487207 275.192554 
L 518.439941 275.595407 
L 521.392675 265.244379 
L 524.345408 269.905368 
L 527.298142 267.75334 
L 530.250876 268.016342 
L 533.203609 271.940507 
L 536.156343 271.944682 
L 539.109077 264.847788 
L 542.06181 265.008512 
L 545.014544 263.067303 
L 547.967277 259.667056 
L 550.920011 260.643922 
L 553.872745 265.659756 
L 556.825478 265.889362 
L 559.778212 266.563566 
L 562.730946 267.669847 
L 565.683679 266.891276 
L 568.636413 256.581995 
L 571.589147 257.460757 
L 574.54188 265.941545 
L 577.494614 266.509296 
L 580.447347 267.916151 
L 583.400081 257.698712 
L 586.352815 255.753328 
L 589.305548 256.592431 
L 592.258282 263.551561 
L 595.211016 263.979462 
L 598.163749 258.247677 
L 601.116483 258.784119 
L 604.069217 259.852828 
L 607.02195 266.333961 
L 609.974684 266.728465 
L 612.927418 263.937716 
L 615.880151 264.44076 
L 618.832885 274.029916 
L 621.785618 273.769001 
L 624.738352 271.349795 
L 627.691086 269.089226 
L 630.643819 260.531207 
L 633.596553 260.575041 
L 636.549287 261.339001 
L 639.50202 260.312038 
L 642.454754 269.504603 
L 645.407488 269.951289 
L 648.360221 270.35623 
L 651.312955 268.920153 
L 654.265688 269.423197 
L 657.218422 258.397964 
L 660.171156 267.003991 
L 663.123889 270.646368 
L 666.076623 274.654025 
L 669.029357 271.99269 
L 671.98209 269.456594 
L 674.934824 269.690374 
L 677.887558 268.412933 
L 680.840291 268.289781 
L 683.793025 264.094265 
L 686.745758 274.714557 
L 689.698492 274.351363 
L 692.651226 274.942075 
L 695.603959 274.837709 
L 698.556693 277.311185 
L 700.626559 281.099674 
L 701.509427 279.152203 
L 704.46216 278.386156 
L 707.414894 278.39868 
" clip-path="url(#p7e111c965d)" style="fill: none; stroke: #1f77b4; stroke-width: 1.5; stroke-linecap: square"/>
   </g>
   <g id="line2d_32">
    <path d="M 418.046997 275.282309 
L 420.999731 256.707234 
L 423.952465 249.677135 
L 426.905198 247.097205 
L 429.857932 247.10138 
L 432.810666 259.36022 
L 435.763399 261.627051 
L 438.716133 254.603214 
L 441.668866 265.885187 
L 444.6216 264.989726 
L 447.574334 257.034943 
L 450.527067 257.289597 
L 453.479801 250.259497 
L 456.432535 251.539026 
L 459.385268 252.461622 
L 462.338002 253.190097 
L 465.290736 256.886744 
L 468.243469 248.55833 
L 471.196203 246.339508 
L 474.148937 258.249765 
L 477.10167 258.477283 
L 480.054404 260.282816 
L 483.007137 257.636092 
L 485.959871 250.885694 
L 488.912605 251.100688 
L 491.865338 241.989529 
L 494.818072 243.744967 
L 497.770806 241.555366 
L 500.723539 242.824458 
L 503.676273 244.214614 
L 506.629007 254.803597 
L 509.58174 254.507197 
L 512.534474 257.986762 
L 515.487207 258.015985 
L 518.439941 253.473973 
L 521.392675 253.881 
L 524.345408 247.884125 
L 527.298142 253.526156 
L 530.250876 254.073034 
L 533.203609 258.224717 
L 536.156343 258.74446 
L 539.109077 261.437105 
L 542.06181 258.679753 
L 545.014544 256.736456 
L 547.967277 257.147659 
L 550.920011 259.525118 
L 553.872745 253.000151 
L 556.825478 249.03424 
L 559.778212 252.751759 
L 562.730946 253.334122 
L 565.683679 248.645998 
L 568.636413 249.311853 
L 571.589147 258.174621 
L 574.54188 258.178796 
L 577.494614 261.49555 
L 580.447347 261.61244 
L 583.400081 260.581303 
L 586.352815 251.632955 
L 589.305548 250.079988 
L 592.258282 258.260201 
L 595.211016 258.959454 
L 598.163749 250.689486 
L 601.116483 255.125044 
L 604.069217 261.975634 
L 607.02195 261.764814 
L 609.974684 260.226458 
L 612.927418 252.559726 
L 615.880151 248.65226 
L 618.038599 256.678011 
L 618.832885 256.548597 
L 621.785618 256.42962 
L 624.738352 270.635931 
" clip-path="url(#p7e111c965d)" style="fill: none; stroke: #ff7f0e; stroke-width: 1.5; stroke-linecap: square"/>
   </g>
   <g id="patch_6">
    <path d="M 403.578603 332.68 
L 403.578603 26.92 
" style="fill: none; stroke: #000000; stroke-width: 0.8; stroke-linejoin: miter; stroke-linecap: square"/>
   </g>
   <g id="patch_7">
    <path d="M 403.578603 332.68 
L 721.883289 332.68 
" style="fill: none; stroke: #000000; stroke-width: 0.8; stroke-linejoin: miter; stroke-linecap: square"/>
   </g>
   <g id="text_10">
    <!-- Service Mesh = cilium -->
    <g transform="translate(496.062508 20.92) scale(0.12 -0.12)">
     <defs>
      <path id="DejaVuSans-6c" d="M 603 4863 
L 1178 4863 
L 1178 0 
L 603 0 
L 603 4863 
z
" transform="scale(0.015625)"/>
      <path id="DejaVuSans-75" d="M 544 1381 
L 544 3500 
L 1119 3500 
L 1119 1403 
Q 1119 906 1312 657 
Q 1506 409 1894 409 
Q 2359 409 2629 706 
Q 2900 1003 2900 1516 
L 2900 3500 
L 3475 3500 
L 3475 0 
L 2900 0 
L 2900 538 
Q 2691 219 2414 64 
Q 2138 -91 1772 -91 
Q 1169 -91 856 284 
Q 544 659 544 1381 
z
M 1991 3584 
L 1991 3584 
z
" transform="scale(0.015625)"/>
     </defs>
     <use xlink:href="#DejaVuSans-53"/>
     <use xlink:href="#DejaVuSans-65" transform="translate(63.476562 0)"/>
     <use xlink:href="#DejaVuSans-72" transform="translate(125 0)"/>
     <use xlink:href="#DejaVuSans-76" transform="translate(166.113281 0)"/>
     <use xlink:href="#DejaVuSans-69" transform="translate(225.292969 0)"/>
     <use xlink:href="#DejaVuSans-63" transform="translate(253.076172 0)"/>
     <use xlink:href="#DejaVuSans-65" transform="translate(308.056641 0)"/>
     <use xlink:href="#DejaVuSans-20" transform="translate(369.580078 0)"/>
     <use xlink:href="#DejaVuSans-4d" transform="translate(401.367188 0)"/>
     <use xlink:href="#DejaVuSans-65" transform="translate(487.646484 0)"/>
     <use xlink:href="#DejaVuSans-73" transform="translate(549.169922 0)"/>
     <use xlink:href="#DejaVuSans-68" transform="translate(601.269531 0)"/>
     <use xlink:href="#DejaVuSans-20" transform="translate(664.648438 0)"/>
     <use xlink:href="#DejaVuSans-3d" transform="translate(696.435547 0)"/>
     <use xlink:href="#DejaVuSans-20" transform="translate(780.224609 0)"/>
     <use xlink:href="#DejaVuSans-63" transform="translate(812.011719 0)"/>
     <use xlink:href="#DejaVuSans-69" transform="translate(866.992188 0)"/>
     <use xlink:href="#DejaVuSans-6c" transform="translate(894.775391 0)"/>
     <use xlink:href="#DejaVuSans-69" transform="translate(922.558594 0)"/>
     <use xlink:href="#DejaVuSans-75" transform="translate(950.341797 0)"/>
     <use xlink:href="#DejaVuSans-6d" transform="translate(1013.720703 0)"/>
    </g>
   </g>
  </g>
  <g id="axes_3">
   <g id="patch_8">
    <path d="M 62.86875 680.24 
L 381.173436 680.24 
L 381.173436 374.48 
L 62.86875 374.48 
z
" style="fill: #ffffff"/>
   </g>
   <g id="FillBetweenPolyCollection_5"/>
   <g id="FillBetweenPolyCollection_6"/>
   <g id="matplotlib.axis_5">
    <g id="xtick_13">
     <g id="line2d_33">
      <g>
       <use xlink:href="#mbcb02aef95" x="77.337145" y="680.24" style="stroke: #000000; stroke-width: 0.8"/>
      </g>
     </g>
    </g>
    <g id="xtick_14">
     <g id="line2d_34">
      <g>
       <use xlink:href="#mbcb02aef95" x="121.855283" y="680.24" style="stroke: #000000; stroke-width: 0.8"/>
      </g>
     </g>
    </g>
    <g id="xtick_15">
     <g id="line2d_35">
      <g>
       <use xlink:href="#mbcb02aef95" x="166.373421" y="680.24" style="stroke: #000000; stroke-width: 0.8"/>
      </g>
     </g>
    </g>
    <g id="xtick_16">
     <g id="line2d_36">
      <g>
       <use xlink:href="#mbcb02aef95" x="210.891559" y="680.24" style="stroke: #000000; stroke-width: 0.8"/>
      </g>
     </g>
    </g>
    <g id="xtick_17">
     <g id="line2d_37">
      <g>
       <use xlink:href="#mbcb02aef95" x="255.409697" y="680.24" style="stroke: #000000; stroke-width: 0.8"/>
      </g>
     </g>
    </g>
    <g id="xtick_18">
     <g id="line2d_38">
      <g>
       <use xlink:href="#mbcb02aef95" x="299.927834" y="680.24" style="stroke: #000000; stroke-width: 0.8"/>
      </g>
     </g>
    </g>
    <g id="xtick_19">
     <g id="line2d_39">
      <g>
       <use xlink:href="#mbcb02aef95" x="344.445972" y="680.24" style="stroke: #000000; stroke-width: 0.8"/>
      </g>
     </g>
    </g>
   </g>
   <g id="matplotlib.axis_6">
    <g id="ytick_15">
     <g id="line2d_40">
      <g>
       <use xlink:href="#me5179b328b" x="62.86875" y="680.24" style="stroke: #000000; stroke-width: 0.8"/>
      </g>
     </g>
     <g id="text_11">
      <!-- 1200.0 -->
      <g transform="translate(20.878125 684.039219) scale(0.1 -0.1)">
       <use xlink:href="#DejaVuSans-31"/>
       <use xlink:href="#DejaVuSans-32" transform="translate(63.623047 0)"/>
       <use xlink:href="#DejaVuSans-30" transform="translate(127.246094 0)"/>
       <use xlink:href="#DejaVuSans-30" transform="translate(190.869141 0)"/>
       <use xlink:href="#DejaVuSans-2e" transform="translate(254.492188 0)"/>
       <use xlink:href="#DejaVuSans-30" transform="translate(286.279297 0)"/>
      </g>
     </g>
    </g>
    <g id="ytick_16">
     <g id="line2d_41">
      <g>
       <use xlink:href="#me5179b328b" x="62.86875" y="629.28" style="stroke: #000000; stroke-width: 0.8"/>
      </g>
     </g>
     <g id="text_12">
      <!-- 1300.0 -->
      <g transform="translate(20.878125 633.079219) scale(0.1 -0.1)">
       <use xlink:href="#DejaVuSans-31"/>
       <use xlink:href="#DejaVuSans-33" transform="translate(63.623047 0)"/>
       <use xlink:href="#DejaVuSans-30" transform="translate(127.246094 0)"/>
       <use xlink:href="#DejaVuSans-30" transform="translate(190.869141 0)"/>
       <use xlink:href="#DejaVuSans-2e" transform="translate(254.492188 0)"/>
       <use xlink:href="#DejaVuSans-30" transform="translate(286.279297 0)"/>
      </g>
     </g>
    </g>
    <g id="ytick_17">
     <g id="line2d_42">
      <g>
       <use xlink:href="#me5179b328b" x="62.86875" y="578.32" style="stroke: #000000; stroke-width: 0.8"/>
      </g>
     </g>
     <g id="text_13">
      <!-- 1400.0 -->
      <g transform="translate(20.878125 582.119219) scale(0.1 -0.1)">
       <use xlink:href="#DejaVuSans-31"/>
       <use xlink:href="#DejaVuSans-34" transform="translate(63.623047 0)"/>
       <use xlink:href="#DejaVuSans-30" transform="translate(127.246094 0)"/>
       <use xlink:href="#DejaVuSans-30" transform="translate(190.869141 0)"/>
       <use xlink:href="#DejaVuSans-2e" transform="translate(254.492188 0)"/>
       <use xlink:href="#DejaVuSans-30" transform="translate(286.279297 0)"/>
      </g>
     </g>
    </g>
    <g id="ytick_18">
     <g id="line2d_43">
      <g>
       <use xlink:href="#me5179b328b" x="62.86875" y="527.36" style="stroke: #000000; stroke-width: 0.8"/>
      </g>
     </g>
     <g id="text_14">
      <!-- 1500.0 -->
      <g transform="translate(20.878125 531.159219) scale(0.1 -0.1)">
       <use xlink:href="#DejaVuSans-31"/>
       <use xlink:href="#DejaVuSans-35" transform="translate(63.623047 0)"/>
       <use xlink:href="#DejaVuSans-30" transform="translate(127.246094 0)"/>
       <use xlink:href="#DejaVuSans-30" transform="translate(190.869141 0)"/>
       <use xlink:href="#DejaVuSans-2e" transform="translate(254.492188 0)"/>
       <use xlink:href="#DejaVuSans-30" transform="translate(286.279297 0)"/>
      </g>
     </g>
    </g>
    <g id="ytick_19">
     <g id="line2d_44">
      <g>
       <use xlink:href="#me5179b328b" x="62.86875" y="476.4" style="stroke: #000000; stroke-width: 0.8"/>
      </g>
     </g>
     <g id="text_15">
      <!-- 1600.0 -->
      <g transform="translate(20.878125 480.199219) scale(0.1 -0.1)">
       <use xlink:href="#DejaVuSans-31"/>
       <use xlink:href="#DejaVuSans-36" transform="translate(63.623047 0)"/>
       <use xlink:href="#DejaVuSans-30" transform="translate(127.246094 0)"/>
       <use xlink:href="#DejaVuSans-30" transform="translate(190.869141 0)"/>
       <use xlink:href="#DejaVuSans-2e" transform="translate(254.492188 0)"/>
       <use xlink:href="#DejaVuSans-30" transform="translate(286.279297 0)"/>
      </g>
     </g>
    </g>
    <g id="ytick_20">
     <g id="line2d_45">
      <g>
       <use xlink:href="#me5179b328b" x="62.86875" y="425.44" style="stroke: #000000; stroke-width: 0.8"/>
      </g>
     </g>
     <g id="text_16">
      <!-- 1700.0 -->
      <g transform="translate(20.878125 429.239219) scale(0.1 -0.1)">
       <use xlink:href="#DejaVuSans-31"/>
       <use xlink:href="#DejaVuSans-37" transform="translate(63.623047 0)"/>
       <use xlink:href="#DejaVuSans-30" transform="translate(127.246094 0)"/>
       <use xlink:href="#DejaVuSans-30" transform="translate(190.869141 0)"/>
       <use xlink:href="#DejaVuSans-2e" transform="translate(254.492188 0)"/>
       <use xlink:href="#DejaVuSans-30" transform="translate(286.279297 0)"/>
      </g>
     </g>
    </g>
    <g id="ytick_21">
     <g id="line2d_46">
      <g>
       <use xlink:href="#me5179b328b" x="62.86875" y="374.48" style="stroke: #000000; stroke-width: 0.8"/>
      </g>
     </g>
     <g id="text_17">
      <!-- 1800.0 -->
      <g transform="translate(20.878125 378.279219) scale(0.1 -0.1)">
       <use xlink:href="#DejaVuSans-31"/>
       <use xlink:href="#DejaVuSans-38" transform="translate(63.623047 0)"/>
       <use xlink:href="#DejaVuSans-30" transform="translate(127.246094 0)"/>
       <use xlink:href="#DejaVuSans-30" transform="translate(190.869141 0)"/>
       <use xlink:href="#DejaVuSans-2e" transform="translate(254.492188 0)"/>
       <use xlink:href="#DejaVuSans-30" transform="translate(286.279297 0)"/>
      </g>
     </g>
    </g>
    <g id="text_18">
     <!-- Memory Usage (MB) -->
     <g transform="translate(14.798438 578.098281) rotate(-90) scale(0.1 -0.1)">
      <use xlink:href="#DejaVuSans-4d"/>
      <use xlink:href="#DejaVuSans-65" transform="translate(86.279297 0)"/>
      <use xlink:href="#DejaVuSans-6d" transform="translate(147.802734 0)"/>
      <use xlink:href="#DejaVuSans-6f" transform="translate(245.214844 0)"/>
      <use xlink:href="#DejaVuSans-72" transform="translate(306.396484 0)"/>
      <use xlink:href="#DejaVuSans-79" transform="translate(347.509766 0)"/>
      <use xlink:href="#DejaVuSans-20" transform="translate(406.689453 0)"/>
      <use xlink:href="#DejaVuSans-55" transform="translate(438.476562 0)"/>
      <use xlink:href="#DejaVuSans-73" transform="translate(511.669922 0)"/>
      <use xlink:href="#DejaVuSans-61" transform="translate(563.769531 0)"/>
      <use xlink:href="#DejaVuSans-67" transform="translate(625.048828 0)"/>
      <use xlink:href="#DejaVuSans-65" transform="translate(688.525391 0)"/>
      <use xlink:href="#DejaVuSans-20" transform="translate(750.048828 0)"/>
      <use xlink:href="#DejaVuSans-28" transform="translate(781.835938 0)"/>
      <use xlink:href="#DejaVuSans-4d" transform="translate(820.849609 0)"/>
      <use xlink:href="#DejaVuSans-42" transform="translate(907.128906 0)"/>
      <use xlink:href="#DejaVuSans-29" transform="translate(975.732422 0)"/>
     </g>
    </g>
   </g>
   <g id="line2d_47">
    <path d="M 77.337145 465.497919 
L 77.341597 465.497919 
L 79.563052 450.30848 
L 81.788959 448.78891 
L 84.014866 465.725437 
L 86.240772 443.589392 
L 88.466679 435.974843 
L 90.692586 432.939877 
L 92.918493 431.539284 
L 95.1444 454.019738 
L 99.596214 432.274021 
L 101.822121 432.276109 
L 104.048028 443.633226 
L 106.273934 445.13401 
L 108.499841 432.850122 
L 110.725748 433.74767 
L 112.951655 432.919004 
L 115.177562 437.308641 
L 117.403469 437.828384 
L 119.629376 449.492337 
L 121.855283 449.776213 
L 124.08119 440.210018 
L 126.307097 440.48137 
L 128.533003 443.422406 
L 130.75891 438.550597 
L 132.984817 438.972236 
L 135.210724 446.490769 
L 137.436631 446.588873 
L 139.662538 444.902317 
L 141.888445 441.399791 
L 144.114352 434.670267 
L 146.340259 435.175398 
L 148.566166 448.596876 
L 150.792072 448.980943 
L 153.017979 444.182191 
L 155.243886 453.437375 
L 157.469793 448.753425 
L 159.6957 446.697414 
L 161.921607 446.695326 
L 164.147514 444.614267 
L 166.373421 445.088089 
L 168.599328 447.26934 
L 170.825234 447.599137 
L 173.051141 438.652876 
L 175.277048 445.184105 
L 177.502955 444.939889 
L 179.728862 433.929267 
L 181.954769 434.388478 
L 184.180676 438.903355 
L 186.406583 437.586255 
L 188.63249 445.3991 
L 190.858397 445.50764 
L 193.084303 436.033288 
L 195.31021 440.199581 
L 197.536117 434.252802 
L 199.762024 442.825432 
L 201.987931 444.962849 
L 204.213838 439.905269 
L 206.439745 440.220455 
L 210.891559 439.9825 
L 213.117466 443.069649 
L 215.343372 442.549906 
L 217.569279 442.7649 
L 219.795186 445.737246 
L 222.021093 445.764381 
L 224.247 434.465709 
L 226.472907 434.914483 
L 228.698814 438.239587 
L 230.924721 442.170013 
L 233.150628 445.355266 
L 235.376534 445.622443 
L 237.602441 444.551647 
L 242.054255 434.321684 
L 244.280162 437.972409 
L 246.506069 442.428841 
L 248.731976 446.275775 
L 250.957883 449.636362 
L 253.18379 440.781944 
L 255.409697 441.138876 
L 257.635603 434.135912 
L 259.86151 438.682099 
L 262.087417 438.949276 
L 264.313324 434.666092 
L 266.539231 435.079382 
L 268.765138 432.743669 
L 270.991045 432.739494 
L 273.216952 432.059027 
L 275.442859 434.626433 
L 277.668766 433.43666 
L 279.894672 440.723499 
L 282.120579 440.815341 
L 284.346486 441.458236 
L 286.572393 453.470772 
L 288.7983 454.648022 
L 291.024207 448.797259 
L 293.250114 444.474416 
L 297.701928 460.513395 
L 299.927834 455.923375 
L 302.153741 461.298228 
L 304.379648 463.122547 
L 306.605555 462.997308 
L 308.831462 443.873268 
L 311.057369 443.693758 
L 313.283276 443.633226 
L 315.509183 447.114878 
L 317.73509 449.19385 
L 319.960997 453.424851 
L 322.186903 453.424851 
L 324.41281 454.87554 
L 326.638717 460.563491 
L 328.864624 456.509912 
L 331.090531 463.644378 
L 333.316438 463.684037 
L 335.542345 452.525216 
L 337.768252 452.404151 
L 339.994159 461.77205 
L 342.220066 439.817602 
L 344.445972 447.707677 
L 346.671879 448.914149 
L 348.897786 449.325352 
L 351.123693 456.568357 
L 353.3496 454.253518 
L 355.575507 459.25474 
L 357.801414 455.512173 
L 360.027321 459.198383 
L 361.966086 463.20604 
L 362.253228 466.215958 
L 364.479134 458.730823 
L 366.705041 461.648898 
L 366.705041 461.648898 
" clip-path="url(#p51045f288a)" style="fill: none; stroke: #1f77b4; stroke-width: 1.5; stroke-linecap: square"/>
   </g>
   <g id="line2d_48">
    <path d="M 77.337145 456.612191 
L 77.341597 456.48069 
L 79.563052 450.826136 
L 81.788959 448.964245 
L 84.014866 456.735343 
L 86.240772 437.565382 
L 88.466679 430.510235 
L 90.692586 417.587627 
L 92.918493 415.512829 
L 95.1444 434.634782 
L 97.370307 436.246194 
L 99.596214 419.599805 
L 101.822121 420.720696 
L 104.048028 428.742273 
L 106.273934 428.750623 
L 108.499841 430.689744 
L 110.725748 429.24323 
L 112.951655 428.255927 
L 115.177562 430.040587 
L 117.403469 430.829595 
L 119.629376 438.323079 
L 121.855283 438.803163 
L 124.08119 432.092424 
L 126.307097 432.668525 
L 128.533003 432.336641 
L 130.75891 432.3763 
L 132.984817 429.007363 
L 135.210724 432.743669 
L 137.436631 432.977449 
L 139.662538 428.877949 
L 141.888445 429.543805 
L 144.114352 428.80698 
L 146.340259 433.860386 
L 148.566166 429.98423 
L 150.792072 425.561195 
L 153.017979 430.687657 
L 155.243886 431.303417 
L 157.469793 435.68888 
L 159.6957 440.218367 
L 161.921607 440.736023 
L 164.147514 437.072774 
L 166.373421 437.534072 
L 168.599328 440.673403 
L 170.825234 441.253679 
L 173.051141 432.157131 
L 175.277048 440.458409 
L 177.502955 438.638265 
L 179.728862 430.222184 
L 181.954769 430.691832 
L 184.180676 440.040945 
L 186.406583 440.136962 
L 188.63249 437.876393 
L 190.858397 440.435449 
L 193.084303 431.55807 
L 195.31021 429.24323 
L 197.536117 428.765234 
L 199.762024 432.040241 
L 201.987931 433.601558 
L 204.213838 437.90979 
L 206.439745 435.707665 
L 208.665652 441.522943 
L 210.891559 442.130354 
L 213.117466 434.949968 
L 215.343372 435.590775 
L 217.569279 434.398915 
L 219.795186 438.348127 
L 222.021093 438.830299 
L 224.247 443.697932 
L 226.472907 443.773076 
L 228.698814 440.425012 
L 230.924721 440.312297 
L 233.150628 444.921103 
L 235.376534 444.228112 
L 237.602441 440.151573 
L 239.828348 452.571137 
L 242.054255 455.42868 
L 244.280162 444.384661 
L 246.506069 448.887014 
L 247.002446 448.755513 
L 248.731976 447.979029 
L 250.957883 447.607486 
L 253.18379 447.482247 
" clip-path="url(#p51045f288a)" style="fill: none; stroke: #ff7f0e; stroke-width: 1.5; stroke-linecap: square"/>
   </g>
   <g id="patch_9">
    <path d="M 62.86875 680.24 
L 62.86875 374.48 
" style="fill: none; stroke: #000000; stroke-width: 0.8; stroke-linejoin: miter; stroke-linecap: square"/>
   </g>
   <g id="patch_10">
    <path d="M 62.86875 680.24 
L 381.173436 680.24 
" style="fill: none; stroke: #000000; stroke-width: 0.8; stroke-linejoin: miter; stroke-linecap: square"/>
   </g>
   <g id="text_19">
    <!-- Service Mesh = istio-ambient -->
    <g transform="translate(133.695468 368.48) scale(0.12 -0.12)">
     <defs>
      <path id="DejaVuSans-74" d="M 1172 4494 
L 1172 3500 
L 2356 3500 
L 2356 3053 
L 1172 3053 
L 1172 1153 
Q 1172 725 1289 603 
Q 1406 481 1766 481 
L 2356 481 
L 2356 0 
L 1766 0 
Q 1100 0 847 248 
Q 594 497 594 1153 
L 594 3053 
L 172 3053 
L 172 3500 
L 594 3500 
L 594 4494 
L 1172 4494 
z
" transform="scale(0.015625)"/>
      <path id="DejaVuSans-2d" d="M 313 2009 
L 1997 2009 
L 1997 1497 
L 313 1497 
L 313 2009 
z
" transform="scale(0.015625)"/>
      <path id="DejaVuSans-62" d="M 3116 1747 
Q 3116 2381 2855 2742 
Q 2594 3103 2138 3103 
Q 1681 3103 1420 2742 
Q 1159 2381 1159 1747 
Q 1159 1113 1420 752 
Q 1681 391 2138 391 
Q 2594 391 2855 752 
Q 3116 1113 3116 1747 
z
M 1159 2969 
Q 1341 3281 1617 3432 
Q 1894 3584 2278 3584 
Q 2916 3584 3314 3078 
Q 3713 2572 3713 1747 
Q 3713 922 3314 415 
Q 2916 -91 2278 -91 
Q 1894 -91 1617 61 
Q 1341 213 1159 525 
L 1159 0 
L 581 0 
L 581 4863 
L 1159 4863 
L 1159 2969 
z
" transform="scale(0.015625)"/>
     </defs>
     <use xlink:href="#DejaVuSans-53"/>
     <use xlink:href="#DejaVuSans-65" transform="translate(63.476562 0)"/>
     <use xlink:href="#DejaVuSans-72" transform="translate(125 0)"/>
     <use xlink:href="#DejaVuSans-76" transform="translate(166.113281 0)"/>
     <use xlink:href="#DejaVuSans-69" transform="translate(225.292969 0)"/>
     <use xlink:href="#DejaVuSans-63" transform="translate(253.076172 0)"/>
     <use xlink:href="#DejaVuSans-65" transform="translate(308.056641 0)"/>
     <use xlink:href="#DejaVuSans-20" transform="translate(369.580078 0)"/>
     <use xlink:href="#DejaVuSans-4d" transform="translate(401.367188 0)"/>
     <use xlink:href="#DejaVuSans-65" transform="translate(487.646484 0)"/>
     <use xlink:href="#DejaVuSans-73" transform="translate(549.169922 0)"/>
     <use xlink:href="#DejaVuSans-68" transform="translate(601.269531 0)"/>
     <use xlink:href="#DejaVuSans-20" transform="translate(664.648438 0)"/>
     <use xlink:href="#DejaVuSans-3d" transform="translate(696.435547 0)"/>
     <use xlink:href="#DejaVuSans-20" transform="translate(780.224609 0)"/>
     <use xlink:href="#DejaVuSans-69" transform="translate(812.011719 0)"/>
     <use xlink:href="#DejaVuSans-73" transform="translate(839.794922 0)"/>
     <use xlink:href="#DejaVuSans-74" transform="translate(891.894531 0)"/>
     <use xlink:href="#DejaVuSans-69" transform="translate(931.103516 0)"/>
     <use xlink:href="#DejaVuSans-6f" transform="translate(958.886719 0)"/>
     <use xlink:href="#DejaVuSans-2d" transform="translate(1021.943359 0)"/>
     <use xlink:href="#DejaVuSans-61" transform="translate(1058.027344 0)"/>
     <use xlink:href="#DejaVuSans-6d" transform="translate(1119.306641 0)"/>
     <use xlink:href="#DejaVuSans-62" transform="translate(1216.71875 0)"/>
     <use xlink:href="#DejaVuSans-69" transform="translate(1280.195312 0)"/>
     <use xlink:href="#DejaVuSans-65" transform="translate(1307.978516 0)"/>
     <use xlink:href="#DejaVuSans-6e" transform="translate(1369.501953 0)"/>
     <use xlink:href="#DejaVuSans-74" transform="translate(1432.880859 0)"/>
    </g>
   </g>
  </g>
  <g id="axes_4">
   <g id="patch_11">
    <path d="M 403.578603 680.24 
L 721.883289 680.24 
L 721.883289 374.48 
L 403.578603 374.48 
z
" style="fill: #ffffff"/>
   </g>
   <g id="FillBetweenPolyCollection_7"/>
   <g id="FillBetweenPolyCollection_8"/>
   <g id="matplotlib.axis_7">
    <g id="xtick_20">
     <g id="line2d_49">
      <g>
       <use xlink:href="#mbcb02aef95" x="418.046997" y="680.24" style="stroke: #000000; stroke-width: 0.8"/>
      </g>
     </g>
    </g>
    <g id="xtick_21">
     <g id="line2d_50">
      <g>
       <use xlink:href="#mbcb02aef95" x="462.702537" y="680.24" style="stroke: #000000; stroke-width: 0.8"/>
      </g>
     </g>
    </g>
    <g id="xtick_22">
     <g id="line2d_51">
      <g>
       <use xlink:href="#mbcb02aef95" x="507.358077" y="680.24" style="stroke: #000000; stroke-width: 0.8"/>
      </g>
     </g>
    </g>
    <g id="xtick_23">
     <g id="line2d_52">
      <g>
       <use xlink:href="#mbcb02aef95" x="552.013616" y="680.24" style="stroke: #000000; stroke-width: 0.8"/>
      </g>
     </g>
    </g>
    <g id="xtick_24">
     <g id="line2d_53">
      <g>
       <use xlink:href="#mbcb02aef95" x="596.669156" y="680.24" style="stroke: #000000; stroke-width: 0.8"/>
      </g>
     </g>
    </g>
    <g id="xtick_25">
     <g id="line2d_54">
      <g>
       <use xlink:href="#mbcb02aef95" x="641.324695" y="680.24" style="stroke: #000000; stroke-width: 0.8"/>
      </g>
     </g>
    </g>
    <g id="xtick_26">
     <g id="line2d_55">
      <g>
       <use xlink:href="#mbcb02aef95" x="685.980235" y="680.24" style="stroke: #000000; stroke-width: 0.8"/>
      </g>
     </g>
    </g>
   </g>
   <g id="matplotlib.axis_8">
    <g id="ytick_22">
     <g id="line2d_56">
      <g>
       <use xlink:href="#me5179b328b" x="403.578603" y="680.24" style="stroke: #000000; stroke-width: 0.8"/>
      </g>
     </g>
    </g>
    <g id="ytick_23">
     <g id="line2d_57">
      <g>
       <use xlink:href="#me5179b328b" x="403.578603" y="629.28" style="stroke: #000000; stroke-width: 0.8"/>
      </g>
     </g>
    </g>
    <g id="ytick_24">
     <g id="line2d_58">
      <g>
       <use xlink:href="#me5179b328b" x="403.578603" y="578.32" style="stroke: #000000; stroke-width: 0.8"/>
      </g>
     </g>
    </g>
    <g id="ytick_25">
     <g id="line2d_59">
      <g>
       <use xlink:href="#me5179b328b" x="403.578603" y="527.36" style="stroke: #000000; stroke-width: 0.8"/>
      </g>
     </g>
    </g>
    <g id="ytick_26">
     <g id="line2d_60">
      <g>
       <use xlink:href="#me5179b328b" x="403.578603" y="476.4" style="stroke: #000000; stroke-width: 0.8"/>
      </g>
     </g>
    </g>
    <g id="ytick_27">
     <g id="line2d_61">
      <g>
       <use xlink:href="#me5179b328b" x="403.578603" y="425.44" style="stroke: #000000; stroke-width: 0.8"/>
      </g>
     </g>
    </g>
    <g id="ytick_28">
     <g id="line2d_62">
      <g>
       <use xlink:href="#me5179b328b" x="403.578603" y="374.48" style="stroke: #000000; stroke-width: 0.8"/>
      </g>
     </g>
    </g>
   </g>
   <g id="line2d_63">
    <path d="M 418.046997 527.192884 
L 418.05057 527.061383 
L 418.940108 505.726868 
L 419.833219 522.857517 
L 420.72633 518.396911 
L 421.619441 516.520408 
L 422.512551 511.926214 
L 424.298773 496.371493 
L 425.191884 480.361736 
L 426.084995 471.741098 
L 426.978105 474.364861 
L 427.871216 463.602631 
L 428.764327 466.990354 
L 429.657438 466.990354 
L 430.550548 456.117496 
L 431.443659 463.694473 
L 432.33677 465.940431 
L 433.229881 445.413711 
L 434.122992 445.323956 
L 435.016102 444.896055 
L 435.909213 444.77499 
L 436.802324 445.163232 
L 437.695435 445.037993 
L 438.588546 436.557205 
L 439.481656 435.665919 
L 440.374767 442.927711 
L 441.267878 442.170013 
L 442.160989 440.020072 
L 443.0541 445.457545 
L 443.94721 444.067388 
L 444.840321 438.172792 
L 445.733432 438.264634 
L 446.626543 438.118522 
L 447.519654 442.017639 
L 448.412764 436.926661 
L 449.305875 440.936406 
L 450.198986 441.049121 
L 451.092097 436.26498 
L 451.985207 436.546769 
L 453.771429 441.792208 
L 454.66454 438.108085 
L 455.557651 438.838648 
L 456.450761 438.947189 
L 457.343872 446.532515 
L 458.236983 450.515125 
L 460.023205 439.554599 
L 460.916315 442.994505 
L 461.809426 440.600347 
L 462.702537 441.56469 
L 463.595648 441.629397 
L 464.488759 440.581561 
L 465.381869 448.701242 
L 466.27498 446.181845 
L 467.168091 445.933454 
L 468.061202 446.046169 
L 468.954313 440.53564 
L 469.847423 440.736023 
L 470.740534 444.914841 
L 471.633645 444.779165 
L 472.526756 435.54068 
L 473.419866 450.051739 
L 474.312977 449.767864 
L 475.206088 450.579832 
L 476.099199 453.011561 
L 476.99231 444.336653 
L 477.88542 441.733763 
L 478.778531 448.033299 
L 479.671642 436.970495 
L 480.564753 440.531466 
L 481.457864 440.617046 
L 482.350974 436.546769 
L 483.244085 440.767333 
L 484.137196 438.926315 
L 485.030307 445.13401 
L 485.923418 445.012945 
L 486.816528 448.298389 
L 487.709639 448.045823 
L 488.60275 447.110703 
L 489.495861 443.973459 
L 490.388972 443.791862 
L 491.282082 447.473897 
L 492.175193 447.55739 
L 493.068304 452.291436 
L 493.961415 455.535133 
L 494.854525 444.739506 
L 495.747636 440.708888 
L 496.640747 439.757069 
L 497.533858 439.911531 
L 498.426969 445.240463 
L 499.320079 446.883185 
L 500.21319 446.55965 
L 501.106301 454.253518 
L 501.999412 453.952944 
L 502.892523 445.169494 
L 503.785633 445.234201 
L 504.678744 446.747509 
L 505.571855 446.83309 
L 506.464966 435.638784 
L 507.358077 446.966678 
L 508.251187 447.336134 
L 509.144298 445.223765 
L 510.037409 445.313519 
L 510.93052 451.456507 
L 511.823631 455.244996 
L 512.716741 449.097833 
L 513.609852 447.242205 
L 514.502963 445.004596 
L 515.396074 446.728723 
L 516.289184 445.95224 
L 517.182295 448.179412 
L 518.075406 448.208634 
L 518.968517 450.920065 
L 520.754738 446.211068 
L 521.647849 446.332132 
L 522.54096 444.374225 
L 523.434071 444.520337 
L 524.327182 433.718448 
L 525.220292 438.49424 
L 526.113403 438.483803 
L 527.006514 437.76159 
L 527.899625 440.015897 
L 528.792736 440.030508 
L 529.685846 450.565221 
L 530.578957 452.733948 
L 531.472068 451.228989 
L 532.365179 457.59532 
L 533.25829 449.166715 
L 534.1514 445.167407 
L 535.044511 453.172285 
L 535.937622 453.078356 
L 536.830733 459.682641 
L 537.723843 456.351276 
L 538.616954 449.792912 
L 539.510065 449.918151 
L 540.403176 454.967382 
L 541.296287 454.675157 
L 542.189397 450.118534 
L 543.082508 443.299254 
L 543.975619 443.889966 
L 544.86873 443.332651 
L 545.761841 443.437017 
L 546.654951 445.290559 
L 547.548062 453.447812 
L 548.441173 452.656717 
L 549.334284 443.971372 
L 550.227395 443.994332 
L 551.120505 449.913976 
L 552.013616 448.275429 
L 552.906727 447.392492 
L 553.799838 447.336134 
L 554.692949 450.01208 
L 555.586059 449.010166 
L 556.47917 443.979721 
L 557.372281 444.07365 
L 558.265392 447.423802 
L 559.158502 447.597049 
L 560.051613 437.425531 
L 560.944724 442.73359 
L 561.837835 442.357872 
L 562.730946 443.284643 
L 563.624056 444.033991 
L 565.410278 449.805435 
L 566.303389 448.878665 
L 567.1965 452.821615 
L 568.08961 447.960243 
L 568.982721 451.04113 
L 569.875832 444.747855 
L 570.768943 439.421011 
L 571.662054 441.568864 
L 572.555164 446.595135 
L 573.448275 444.691498 
L 574.341386 450.494252 
L 575.234497 450.373187 
L 576.127608 443.257508 
L 577.020718 450.997296 
L 577.913829 449.830483 
L 578.80694 451.581746 
L 579.700051 449.751165 
L 580.593161 453.070006 
L 581.486272 453.174373 
L 582.379383 446.7162 
L 583.272494 444.633053 
L 584.165605 451.54 
L 585.058715 452.969815 
L 585.951826 452.176633 
L 586.844937 446.67654 
L 587.738048 446.549214 
L 588.631159 454.549917 
L 589.524269 454.629236 
L 590.41738 461.438079 
L 591.310491 460.352672 
L 592.203602 449.820047 
L 593.096713 449.80961 
L 593.989823 448.78891 
L 594.882934 448.770124 
L 595.776045 446.163059 
L 596.669156 456.27822 
L 597.562267 456.157155 
L 598.455377 450.74473 
L 599.348488 450.847009 
L 600.241599 445.470069 
L 601.13471 443.512161 
L 602.02782 445.438759 
L 602.920931 448.012426 
L 603.814042 448.482074 
L 604.707153 443.240809 
L 606.493374 463.604719 
L 607.386485 463.314581 
L 608.279596 458.081666 
L 609.172707 450.69046 
L 610.065818 451.919892 
L 610.958928 452.053481 
L 611.852039 446.242378 
L 612.74515 442.73359 
L 613.638261 449.010166 
L 614.531372 453.748386 
L 615.424482 453.833966 
L 616.317593 462.358588 
L 617.210704 462.417033 
L 618.103815 451.903194 
L 619.890036 443.541383 
L 620.783147 453.12219 
L 621.676258 453.195246 
L 622.569369 446.307084 
L 623.462479 451.91363 
L 624.35559 460.292139 
L 625.248701 460.269179 
L 626.141812 459.914334 
L 627.034923 456.662287 
L 627.928033 455.733429 
L 628.821144 463.210215 
L 629.714255 455.825271 
L 630.607366 453.021998 
L 631.500477 462.339802 
L 632.393587 456.553746 
L 633.286698 455.24917 
L 634.179809 466.063583 
L 635.07292 466.046885 
L 635.966031 457.891719 
L 636.859141 462.060101 
L 637.752252 457.960601 
L 638.645363 457.538962 
L 639.538474 457.538962 
L 640.431585 464.800754 
L 641.324695 458.231953 
L 642.217806 458.44486 
L 643.110917 458.451122 
L 644.004028 451.370927 
L 644.897138 450.300131 
L 645.790249 453.556352 
L 646.68336 452.781956 
L 647.576471 457.91468 
L 648.469582 454.159588 
L 649.362692 458.394764 
L 650.255803 469.119422 
L 651.148914 468.839721 
L 652.042025 463.786316 
L 652.935136 463.398074 
L 653.828246 459.018873 
L 654.721357 459.265177 
L 655.614468 458.939555 
L 656.507579 462.335627 
L 657.40069 462.654987 
L 658.2938 452.698463 
L 659.186911 456.743692 
L 660.080022 451.642279 
L 660.973133 451.583833 
L 661.866244 451.644366 
L 662.759354 461.147941 
L 663.652465 454.865103 
L 664.545576 454.026 
L 665.438687 449.588354 
L 666.331798 453.625234 
L 667.224908 458.695338 
L 668.118019 454.635498 
L 669.01113 454.616712 
L 669.904241 450.634102 
L 670.797351 450.74473 
L 671.690462 451.56296 
L 672.583573 454.009301 
L 673.476684 453.982166 
L 674.369795 457.248824 
L 675.262905 457.394937 
L 676.156016 461.045662 
L 677.049127 458.918682 
L 677.942238 466.940259 
L 678.835349 467.019577 
L 679.728459 461.494436 
L 680.62157 465.836065 
L 681.514681 462.460866 
L 682.407792 464.544013 
L 683.300903 457.716384 
L 684.194013 455.044613 
L 685.087124 452.802829 
L 685.980235 467.723004 
L 686.873346 464.957303 
L 687.766457 460.045835 
L 688.659567 463.345891 
L 689.552678 462.552709 
L 690.445789 463.696561 
L 691.3389 464.272662 
L 692.23201 455.224122 
L 693.125121 468.065325 
L 694.018232 459.751523 
L 694.911343 460.327624 
L 695.804454 454.234732 
L 696.697564 462.905466 
L 697.590675 462.784401 
L 698.483786 459.369543 
L 699.376897 458.384327 
L 700.270008 470.033669 
L 701.163118 475.686136 
L 702.056229 470.17352 
L 703.842451 463.224826 
L 704.735562 461.932774 
L 704.754317 470.478269 
L 705.628672 481.407485 
L 706.521783 479.867041 
L 707.414894 477.381041 
L 707.414894 477.381041 
" clip-path="url(#p5228e8f3f8)" style="fill: none; stroke: #1f77b4; stroke-width: 1.5; stroke-linecap: square"/>
   </g>
   <g id="line2d_64">
    <path d="M 418.046997 503.533093 
L 418.04789 503.533093 
L 418.940108 480.476539 
L 419.833219 478.021849 
L 420.72633 476.999061 
L 421.619441 479.921312 
L 422.512551 487.032816 
L 423.405662 477.299636 
L 424.298773 473.193874 
L 425.191884 449.538258 
L 426.084995 447.983204 
L 426.978105 447.609573 
L 427.871216 459.939382 
L 428.764327 457.862497 
L 429.657438 446.709938 
L 430.550548 439.256112 
L 431.443659 432.93779 
L 432.33677 435.928921 
L 433.229881 436.937098 
L 434.122992 431.15313 
L 435.016102 432.182179 
L 435.909213 437.335776 
L 436.802324 439.036943 
L 437.695435 433.801941 
L 439.481656 446.874836 
L 440.374767 442.716891 
L 441.267878 440.752722 
L 442.160989 445.104787 
L 443.0541 440.585736 
L 443.94721 440.383266 
L 444.840321 442.184624 
L 445.733432 443.023728 
L 446.626543 443.192801 
L 447.519654 441.560515 
L 448.412764 441.692016 
L 449.305875 441.474935 
L 450.198986 437.525723 
L 451.092097 429.443613 
L 451.985207 438.888744 
L 452.878318 438.915879 
L 453.771429 442.190886 
L 454.66454 442.015551 
L 455.557651 435.809944 
L 456.450761 431.368124 
L 457.343872 431.073811 
L 458.236983 433.207054 
L 459.130094 447.258903 
L 460.023205 446.995901 
L 460.916315 436.661571 
L 461.809426 432.505714 
L 462.702537 432.505714 
L 463.595648 434.45736 
L 464.488759 435.221319 
L 465.381869 449.429718 
L 466.27498 449.339963 
L 467.168091 442.729415 
L 468.061202 442.687669 
L 468.954313 439.032769 
L 469.847423 433.121474 
L 470.740534 433.309333 
L 471.633645 443.004942 
L 472.526756 443.278381 
L 473.419866 438.066339 
L 474.312977 438.730107 
L 475.206088 443.176102 
L 476.099199 442.950671 
L 476.99231 442.547818 
L 477.88542 442.330737 
L 478.778531 434.908221 
L 480.564753 435.248455 
L 481.457864 437.7929 
L 482.350974 438.068426 
L 483.244085 438.725932 
L 484.137196 438.788552 
L 485.030307 436.722104 
L 485.923418 433.365691 
L 486.816528 429.495796 
L 487.709639 433.204967 
L 488.60275 433.10895 
L 489.495861 435.47806 
L 490.388972 435.672181 
L 491.282082 439.176794 
L 492.175193 433.72471 
L 493.068304 441.675318 
L 493.961415 438.131046 
L 494.854525 442.418404 
L 495.747636 442.255593 
L 496.640747 440.857088 
L 497.533858 441.053296 
L 498.426969 436.980932 
L 499.320079 443.910839 
L 500.21319 443.994332 
L 501.106301 435.225494 
L 501.999412 435.308987 
L 502.892523 442.969457 
L 503.785633 445.998161 
L 504.678744 442.99033 
L 505.571855 442.704367 
L 506.464966 438.508851 
L 507.358077 437.930663 
L 508.251187 438.074688 
L 509.144298 442.249331 
L 510.037409 443.057125 
L 510.93052 438.333516 
L 511.823631 438.110173 
L 512.716741 432.958663 
L 513.609852 433.202879 
L 514.502963 438.786465 
L 515.396074 438.988935 
L 516.289184 437.005979 
L 517.182295 444.804213 
L 518.075406 445.010858 
L 518.968517 431.827335 
L 519.861628 432.031892 
L 520.754738 431.161479 
L 521.647849 431.232448 
L 523.434071 442.698105 
L 524.327182 445.824913 
L 526.113403 445.745595 
L 527.006514 447.709765 
L 527.899625 441.639833 
L 528.792736 445.415798 
L 529.685846 443.453716 
L 530.578957 446.138011 
L 531.472068 446.323783 
L 532.365179 437.961973 
L 533.25829 438.318905 
L 534.1514 435.684705 
L 535.044511 436.29629 
L 535.937622 437.070686 
L 536.830733 445.280122 
L 537.723843 445.119399 
L 538.616954 437.135393 
L 539.510065 436.223234 
L 540.403176 437.934838 
L 541.296287 430.944398 
L 542.189397 438.433707 
L 543.082508 438.302206 
L 543.975619 431.685397 
L 544.86873 431.762628 
L 545.761841 439.681926 
L 546.654951 438.266722 
L 547.548062 437.32534 
L 548.441173 446.008598 
L 549.334284 445.927192 
L 550.227395 440.727674 
L 551.120505 440.938493 
L 552.013616 445.050517 
L 552.906727 444.946151 
L 553.799838 441.451974 
L 554.692949 444.443106 
L 555.586059 442.485199 
L 556.47917 450.851184 
L 557.372281 444.169667 
L 558.265392 442.05521 
L 559.158502 431.03624 
L 560.051613 439.260287 
L 560.944724 437.239759 
L 561.837835 439.539988 
L 562.730946 439.673576 
L 563.624056 426.153994 
L 564.517167 430.56868 
L 565.410278 431.626952 
L 566.303389 436.511284 
L 567.1965 436.79516 
L 568.08961 435.340297 
L 568.982721 435.342384 
L 569.875832 441.76716 
L 570.768943 440.487632 
L 571.662054 437.344126 
L 572.555164 439.725759 
L 573.448275 436.828557 
L 574.341386 436.866129 
L 575.234497 431.973447 
L 576.127608 431.781413 
L 577.020718 431.96301 
L 577.913829 438.490065 
L 578.80694 438.60278 
L 579.700051 436.590602 
L 580.593161 436.624 
L 581.486272 444.808388 
L 582.379383 444.829261 
L 583.272494 439.671489 
L 584.165605 443.171927 
L 585.058715 443.432843 
L 585.951826 441.372656 
L 586.844937 447.582438 
L 587.738048 452.986514 
L 588.631159 452.744384 
L 589.524269 446.236116 
L 590.41738 441.247417 
L 591.310491 441.249504 
L 592.203602 443.942149 
L 593.096713 446.048257 
L 594.882934 454.009301 
L 595.776045 449.477726 
L 596.669156 449.367098 
L 597.562267 436.352648 
L 598.455377 444.818824 
L 599.348488 450.579832 
L 600.241599 439.11 
L 601.13471 438.469192 
L 601.811688 443.950498 
L 602.02782 444.008943 
L 602.920931 443.764727 
L 603.814042 446.219417 
L 603.814042 446.219417 
" clip-path="url(#p5228e8f3f8)" style="fill: none; stroke: #ff7f0e; stroke-width: 1.5; stroke-linecap: square"/>
   </g>
   <g id="patch_12">
    <path d="M 403.578603 680.24 
L 403.578603 374.48 
" style="fill: none; stroke: #000000; stroke-width: 0.8; stroke-linejoin: miter; stroke-linecap: square"/>
   </g>
   <g id="patch_13">
    <path d="M 403.578603 680.24 
L 721.883289 680.24 
" style="fill: none; stroke: #000000; stroke-width: 0.8; stroke-linejoin: miter; stroke-linecap: square"/>
   </g>
   <g id="text_20">
    <!-- Service Mesh = istio-sidecar -->
    <g transform="translate(477.513133 368.48) scale(0.12 -0.12)">
     <defs>
      <path id="DejaVuSans-64" d="M 2906 2969 
L 2906 4863 
L 3481 4863 
L 3481 0 
L 2906 0 
L 2906 525 
Q 2725 213 2448 61 
Q 2172 -91 1784 -91 
Q 1150 -91 751 415 
Q 353 922 353 1747 
Q 353 2572 751 3078 
Q 1150 3584 1784 3584 
Q 2172 3584 2448 3432 
Q 2725 3281 2906 2969 
z
M 947 1747 
Q 947 1113 1208 752 
Q 1469 391 1925 391 
Q 2381 391 2643 752 
Q 2906 1113 2906 1747 
Q 2906 2381 2643 2742 
Q 2381 3103 1925 3103 
Q 1469 3103 1208 2742 
Q 947 2381 947 1747 
z
" transform="scale(0.015625)"/>
     </defs>
     <use xlink:href="#DejaVuSans-53"/>
     <use xlink:href="#DejaVuSans-65" transform="translate(63.476562 0)"/>
     <use xlink:href="#DejaVuSans-72" transform="translate(125 0)"/>
     <use xlink:href="#DejaVuSans-76" transform="translate(166.113281 0)"/>
     <use xlink:href="#DejaVuSans-69" transform="translate(225.292969 0)"/>
     <use xlink:href="#DejaVuSans-63" transform="translate(253.076172 0)"/>
     <use xlink:href="#DejaVuSans-65" transform="translate(308.056641 0)"/>
     <use xlink:href="#DejaVuSans-20" transform="translate(369.580078 0)"/>
     <use xlink:href="#DejaVuSans-4d" transform="translate(401.367188 0)"/>
     <use xlink:href="#DejaVuSans-65" transform="translate(487.646484 0)"/>
     <use xlink:href="#DejaVuSans-73" transform="translate(549.169922 0)"/>
     <use xlink:href="#DejaVuSans-68" transform="translate(601.269531 0)"/>
     <use xlink:href="#DejaVuSans-20" transform="translate(664.648438 0)"/>
     <use xlink:href="#DejaVuSans-3d" transform="translate(696.435547 0)"/>
     <use xlink:href="#DejaVuSans-20" transform="translate(780.224609 0)"/>
     <use xlink:href="#DejaVuSans-69" transform="translate(812.011719 0)"/>
     <use xlink:href="#DejaVuSans-73" transform="translate(839.794922 0)"/>
     <use xlink:href="#DejaVuSans-74" transform="translate(891.894531 0)"/>
     <use xlink:href="#DejaVuSans-69" transform="translate(931.103516 0)"/>
     <use xlink:href="#DejaVuSans-6f" transform="translate(958.886719 0)"/>
     <use xlink:href="#DejaVuSans-2d" transform="translate(1021.943359 0)"/>
     <use xlink:href="#DejaVuSans-73" transform="translate(1058.027344 0)"/>
     <use xlink:href="#DejaVuSans-69" transform="translate(1110.126953 0)"/>
     <use xlink:href="#DejaVuSans-64" transform="translate(1137.910156 0)"/>
     <use xlink:href="#DejaVuSans-65" transform="translate(1201.386719 0)"/>
     <use xlink:href="#DejaVuSans-63" transform="translate(1262.910156 0)"/>
     <use xlink:href="#DejaVuSans-61" transform="translate(1317.890625 0)"/>
     <use xlink:href="#DejaVuSans-72" transform="translate(1379.169922 0)"/>
    </g>
   </g>
  </g>
  <g id="legend_1">
   <g id="text_21">
    <!-- Optimization -->
    <g transform="translate(734.24492 16.598437) scale(0.1 -0.1)">
     <defs>
      <path id="DejaVuSans-4f" d="M 2522 4238 
Q 1834 4238 1429 3725 
Q 1025 3213 1025 2328 
Q 1025 1447 1429 934 
Q 1834 422 2522 422 
Q 3209 422 3611 934 
Q 4013 1447 4013 2328 
Q 4013 3213 3611 3725 
Q 3209 4238 2522 4238 
z
M 2522 4750 
Q 3503 4750 4090 4092 
Q 4678 3434 4678 2328 
Q 4678 1225 4090 567 
Q 3503 -91 2522 -91 
Q 1538 -91 948 565 
Q 359 1222 359 2328 
Q 359 3434 948 4092 
Q 1538 4750 2522 4750 
z
" transform="scale(0.015625)"/>
      <path id="DejaVuSans-70" d="M 1159 525 
L 1159 -1331 
L 581 -1331 
L 581 3500 
L 1159 3500 
L 1159 2969 
Q 1341 3281 1617 3432 
Q 1894 3584 2278 3584 
Q 2916 3584 3314 3078 
Q 3713 2572 3713 1747 
Q 3713 922 3314 415 
Q 2916 -91 2278 -91 
Q 1894 -91 1617 61 
Q 1341 213 1159 525 
z
M 3116 1747 
Q 3116 2381 2855 2742 
Q 2594 3103 2138 3103 
Q 1681 3103 1420 2742 
Q 1159 2381 1159 1747 
Q 1159 1113 1420 752 
Q 1681 391 2138 391 
Q 2594 391 2855 752 
Q 3116 1113 3116 1747 
z
" transform="scale(0.015625)"/>
      <path id="DejaVuSans-7a" d="M 353 3500 
L 3084 3500 
L 3084 2975 
L 922 459 
L 3084 459 
L 3084 0 
L 275 0 
L 275 525 
L 2438 3041 
L 353 3041 
L 353 3500 
z
" transform="scale(0.015625)"/>
     </defs>
     <use xlink:href="#DejaVuSans-4f"/>
     <use xlink:href="#DejaVuSans-70" transform="translate(78.710938 0)"/>
     <use xlink:href="#DejaVuSans-74" transform="translate(142.1875 0)"/>
     <use xlink:href="#DejaVuSans-69" transform="translate(181.396484 0)"/>
     <use xlink:href="#DejaVuSans-6d" transform="translate(209.179688 0)"/>
     <use xlink:href="#DejaVuSans-69" transform="translate(306.591797 0)"/>
     <use xlink:href="#DejaVuSans-7a" transform="translate(334.375 0)"/>
     <use xlink:href="#DejaVuSans-61" transform="translate(386.865234 0)"/>
     <use xlink:href="#DejaVuSans-74" transform="translate(448.144531 0)"/>
     <use xlink:href="#DejaVuSans-69" transform="translate(487.353516 0)"/>
     <use xlink:href="#DejaVuSans-6f" transform="translate(515.136719 0)"/>
     <use xlink:href="#DejaVuSans-6e" transform="translate(576.318359 0)"/>
    </g>
   </g>
   <g id="line2d_65">
    <path d="M 731.183201 27.776562 
L 741.183201 27.776562 
L 751.183201 27.776562 
" style="fill: none; stroke: #1f77b4; stroke-width: 1.5; stroke-linecap: square"/>
   </g>
   <g id="text_22">
    <!-- disabled -->
    <g transform="translate(759.183201 31.276562) scale(0.1 -0.1)">
     <use xlink:href="#DejaVuSans-64"/>
     <use xlink:href="#DejaVuSans-69" transform="translate(63.476562 0)"/>
     <use xlink:href="#DejaVuSans-73" transform="translate(91.259766 0)"/>
     <use xlink:href="#DejaVuSans-61" transform="translate(143.359375 0)"/>
     <use xlink:href="#DejaVuSans-62" transform="translate(204.638672 0)"/>
     <use xlink:href="#DejaVuSans-6c" transform="translate(268.115234 0)"/>
     <use xlink:href="#DejaVuSans-65" transform="translate(295.898438 0)"/>
     <use xlink:href="#DejaVuSans-64" transform="translate(357.421875 0)"/>
    </g>
   </g>
   <g id="line2d_66">
    <path d="M 731.183201 42.454687 
L 741.183201 42.454687 
L 751.183201 42.454687 
" style="fill: none; stroke: #ff7f0e; stroke-width: 1.5; stroke-linecap: square"/>
   </g>
   <g id="text_23">
    <!-- enabled -->
    <g transform="translate(759.183201 45.954687) scale(0.1 -0.1)">
     <use xlink:href="#DejaVuSans-65"/>
     <use xlink:href="#DejaVuSans-6e" transform="translate(61.523438 0)"/>
     <use xlink:href="#DejaVuSans-61" transform="translate(124.902344 0)"/>
     <use xlink:href="#DejaVuSans-62" transform="translate(186.181641 0)"/>
     <use xlink:href="#DejaVuSans-6c" transform="translate(249.658203 0)"/>
     <use xlink:href="#DejaVuSans-65" transform="translate(277.441406 0)"/>
     <use xlink:href="#DejaVuSans-64" transform="translate(338.964844 0)"/>
    </g>
   </g>
  </g>
 </g>
 <defs>
  <clipPath id="p86567f5da3">
   <rect x="62.86875" y="26.92" width="318.304686" height="305.76"/>
  </clipPath>
  <clipPath id="p7e111c965d">
   <rect x="403.578603" y="26.92" width="318.304686" height="305.76"/>
  </clipPath>
  <clipPath id="p51045f288a">
   <rect x="62.86875" y="374.48" width="318.304686" height="305.76"/>
  </clipPath>
  <clipPath id="p5228e8f3f8">
   <rect x="403.578603" y="374.48" width="318.304686" height="305.76"/>
  </clipPath>
 </defs>
</svg>
